M48
; DRILL file {KiCad 8.99.0-unknown-4e8e14ae3a~177~ubuntu22.04.1} date 2024-03-17T18:05:37+1000
; FORMAT={-:-/ absolute / metric / decimal}
; #@! TF.CreationDate,2024-03-17T18:05:37+10:00
; #@! TF.GenerationSoftware,Kicad,Pcbnew,8.99.0-unknown-4e8e14ae3a~177~ubuntu22.04.1
; #@! TF.FileFunction,Plated,1,2,PTH
FMAT,2
METRIC
; #@! TA.AperFunction,Plated,PTH,ViaDrill
T1C0.254
; #@! TA.AperFunction,Plated,PTH,ViaDrill
T2C0.254
%
G90
G05
T1
X139.399Y-101.275
X139.48Y-108.707
X140.476Y-112.971
X140.737Y-116.959
X140.783Y-103.678
X140.79Y-110.454
X140.793Y-108.702
X140.801Y-111.399
X140.836Y-106.215
X140.859Y-107.104
X140.882Y-102.532
X141.291Y-103.297
X141.291Y-104.059
X141.644Y-104.818
X142.965Y-108.686
X143.063Y-107.452
X143.181Y-109.428
X143.475Y-108.046
X143.497Y-106.825
X143.971Y-102.994
X144.293Y-117.213
X145.096Y-119.23
X145.167Y-105.339
X145.863Y-114.221
X146.364Y-105.004
X146.468Y-109.703
X147.156Y-105.428
X147.267Y-113.558
X147.481Y-118.707
X147.486Y-106.215
X147.524Y-102.678
X147.611Y-108.56
X147.611Y-109.703
X147.611Y-110.846
X147.867Y-114.216
X148.466Y-101.671
X148.754Y-109.703
X148.906Y-118.684
X149.104Y-113.545
X149.77Y-105.766
X150.244Y-106.308
X150.361Y-114.211
X150.531Y-117.734
X150.659Y-105.766
X151.245Y-112.573
X151.25Y-110.155
X151.926Y-109.916
X151.928Y-112.954
X151.931Y-107.942
X151.931Y-111.447
X151.939Y-106.949
X152.19Y-115.283
X152.312Y-104.31
X152.721Y-118.295
X152.891Y-114.079
X153.493Y-103.769
X154.306Y-108.923
X154.306Y-110.65
X154.336Y-112.113
X154.852Y-106.588
X154.979Y-102.405
X155.838Y-104.511
X156.498Y-114.29
X156.575Y-111.369
X156.605Y-108.552
X156.955Y-118.397
T2
X140.931Y-95.831
X141.931Y-90.831
X141.931Y-91.831
X141.931Y-92.831
X141.931Y-95.831
X141.931Y-93.831
X141.931Y-94.831
X142.931Y-90.831
X142.931Y-91.831
X142.931Y-92.831
X142.931Y-93.831
X142.931Y-95.831
X142.931Y-94.831
X143.931Y-90.831
X143.931Y-91.831
X143.931Y-92.831
X143.931Y-93.831
X143.931Y-94.831
X143.931Y-95.831
X144.931Y-92.831
X144.931Y-90.831
X144.931Y-91.831
M30
