%TF.GenerationSoftware,KiCad,Pcbnew,8.99.0-unknown-4e8e14ae3a~177~ubuntu22.04.1*%
%TF.CreationDate,2024-03-17T18:05:33+10:00*%
%TF.ProjectId,AVEFlex,41564546-6c65-4782-9e6b-696361645f70,rev?*%
%TF.SameCoordinates,Original*%
%TF.FileFunction,Copper,L2,Bot*%
%TF.FilePolarity,Positive*%
%FSLAX46Y46*%
G04 Gerber Fmt 4.6, Leading zero omitted, Abs format (unit mm)*
G04 Created by KiCad (PCBNEW 8.99.0-unknown-4e8e14ae3a~177~ubuntu22.04.1) date 2024-03-17 18:05:33*
%MOMM*%
%LPD*%
G01*
G04 APERTURE LIST*
%TA.AperFunction,ViaPad*%
%ADD10C,0.508000*%
%TD*%
%TA.AperFunction,Conductor*%
%ADD11C,0.152400*%
%TD*%
%TA.AperFunction,Conductor*%
%ADD12C,0.508000*%
%TD*%
%TA.AperFunction,Conductor*%
%ADD13C,0.304800*%
%TD*%
%TA.AperFunction,Conductor*%
%ADD14C,0.203200*%
%TD*%
%TA.AperFunction,Conductor*%
%ADD15C,0.406400*%
%TD*%
G04 APERTURE END LIST*
D10*
%TO.N,MODE*%
X144931358Y-92830603D03*
%TO.N,N$22*%
X141931358Y-95830603D03*
%TO.N,N$12*%
X141931358Y-91830600D03*
%TO.N,N$11*%
X142931358Y-91830600D03*
%TO.N,N$8*%
X144931361Y-91830600D03*
%TO.N,SCL*%
X143062604Y-107451778D03*
X143931358Y-91830600D03*
%TO.N,SDA*%
X143496558Y-106824778D03*
X142931358Y-92830600D03*
%TO.N,M*%
X143931358Y-90830597D03*
%TO.N,W*%
X141931358Y-90830603D03*
%TO.N,D*%
X142931358Y-90830603D03*
%TO.N,54MHZ*%
X147524108Y-102677850D03*
X141931361Y-93830603D03*
%TO.N,CSEL*%
X146364223Y-105003603D03*
X142931358Y-93830600D03*
%TO.N,VD7*%
X141931358Y-92830600D03*
%TO.N,VD6*%
X143931358Y-92830600D03*
%TO.N,VD5*%
X143931358Y-93830603D03*
%TO.N,VD4*%
X142931361Y-94830600D03*
%TO.N,VD3*%
X149770358Y-105765600D03*
X141931361Y-94830600D03*
%TO.N,VD2*%
X143931358Y-94830600D03*
%TO.N,VD1*%
X150659361Y-105765597D03*
X142931358Y-95830597D03*
%TO.N,VD0*%
X150243861Y-106308097D03*
X140931358Y-95830600D03*
%TO.N,C*%
X144931361Y-90830603D03*
%TO.N,+1V8*%
X147485904Y-106215059D03*
X142964704Y-108686478D03*
X140793004Y-108701719D03*
X141643904Y-104818059D03*
X140858958Y-107104059D03*
X140790464Y-110454319D03*
%TO.N,+3V3*%
X154851904Y-106588059D03*
X151930904Y-111447459D03*
X151928364Y-112953678D03*
X151925823Y-109915841D03*
X151930904Y-107942259D03*
X153493004Y-103769041D03*
X140881904Y-102532059D03*
X145862845Y-114221141D03*
X147866904Y-114216059D03*
X150361186Y-114210981D03*
%TO.N,GND*%
X152189986Y-115282856D03*
X152311904Y-104310059D03*
X139398545Y-101274759D03*
X147480823Y-118706778D03*
X140800883Y-111398938D03*
X156955023Y-118396900D03*
X152720845Y-118295300D03*
X154978904Y-102405059D03*
X140737126Y-116959256D03*
X151245104Y-112572678D03*
X149103886Y-113545497D03*
X147267467Y-113558197D03*
X145095767Y-119230016D03*
X152891023Y-114078900D03*
X151250183Y-110154600D03*
X154336286Y-112112941D03*
X154305804Y-110649900D03*
X154305804Y-108922700D03*
X156498436Y-114290222D03*
X156574636Y-111369222D03*
X156604504Y-108551859D03*
X145166886Y-105338763D03*
X147155704Y-105427659D03*
X148466342Y-101670997D03*
X143475242Y-108046400D03*
X143180604Y-109428159D03*
X143970545Y-102994341D03*
X139479826Y-108706797D03*
X141290845Y-104058600D03*
X141290845Y-103296600D03*
X143931358Y-95830597D03*
X155838036Y-104511222D03*
X140782845Y-103677600D03*
X140836186Y-106215059D03*
X151938526Y-106949119D03*
X144293126Y-117213256D03*
X150531364Y-117733959D03*
X140475764Y-112971200D03*
X148905764Y-118683919D03*
X146468358Y-109702603D03*
X147611361Y-110845603D03*
X148754361Y-109702603D03*
X147611358Y-108559600D03*
X147611358Y-109702603D03*
%TD*%
D11*
%TO.N,SCL*%
X141208023Y-98142322D02*
X141208020Y-100159819D01*
X139813561Y-95098344D02*
X139813564Y-96747856D01*
X140397761Y-93218003D02*
X140397758Y-94514147D01*
X141208020Y-100159819D02*
X143013958Y-101965756D01*
X141208023Y-98142322D02*
X139813564Y-96747856D01*
X140397758Y-94514147D02*
X139813561Y-95098344D01*
X141388361Y-92227406D02*
X140397761Y-93218003D01*
X141388361Y-92227406D02*
X141388358Y-91691103D01*
X143413958Y-91313203D02*
X143931358Y-91830600D01*
X141766258Y-91313203D02*
X143413958Y-91313203D01*
X141388358Y-91691103D02*
X141766258Y-91313203D01*
X143062604Y-107451778D02*
X143013958Y-107403131D01*
X143013958Y-107403131D02*
X143013958Y-101965756D01*
%TO.N,SDA*%
X140702558Y-94640400D02*
X140702558Y-93376897D01*
X140118358Y-96621600D02*
X141512820Y-98016066D01*
X141512823Y-100027747D02*
X141512820Y-98016066D01*
X143369558Y-101884478D02*
X141512823Y-100027747D01*
X140118361Y-95224600D02*
X140702558Y-94640400D01*
X140118358Y-96621600D02*
X140118361Y-95224600D01*
X141745376Y-92334078D02*
X142434842Y-92334084D01*
X142434842Y-92334084D02*
X142931358Y-92830600D01*
X140702558Y-93376897D02*
X141745376Y-92334078D01*
X143496558Y-106824778D02*
X143369561Y-106697784D01*
X143369558Y-101884478D02*
X143369561Y-106697784D01*
%TO.N,54MHZ*%
X147470773Y-102677850D02*
X143681979Y-98889056D01*
X147470773Y-102677850D02*
X147524108Y-102677850D01*
X143681983Y-96461844D02*
X143681979Y-98889056D01*
X143131258Y-94348000D02*
X143448758Y-94665500D01*
X143448758Y-94665500D02*
X143448761Y-96228622D01*
X143448761Y-96228622D02*
X143681983Y-96461844D01*
X141931361Y-93830603D02*
X142448758Y-94348000D01*
X142448758Y-94348000D02*
X143131258Y-94348000D01*
%TO.N,CSEL*%
X141855720Y-99799147D02*
X146364220Y-104307644D01*
X141855720Y-97790000D02*
X141855720Y-99799147D01*
X140448758Y-95529203D02*
X140448761Y-96383041D01*
X141007361Y-94970603D02*
X140448758Y-95529203D01*
X141007358Y-94072100D02*
X141007361Y-94970603D01*
X142420361Y-93319603D02*
X141759861Y-93319603D01*
X146364220Y-104307644D02*
X146364223Y-105003603D01*
X140448761Y-96383041D02*
X141855720Y-97790000D01*
X141759861Y-93319603D02*
X141007358Y-94072100D01*
X142931358Y-93830600D02*
X142420361Y-93319603D01*
%TO.N,VD3*%
X149198861Y-105765600D02*
X149770358Y-105765600D01*
X149198858Y-105765597D02*
X149198861Y-105765600D01*
X148828017Y-105765597D02*
X142665979Y-99603566D01*
X148828017Y-105765597D02*
X149198858Y-105765597D01*
X142413961Y-96902981D02*
X142665983Y-97155003D01*
X142413961Y-96902981D02*
X142413961Y-95313203D01*
X142665983Y-97155003D02*
X142665979Y-99603566D01*
X141931361Y-94830600D02*
X142413961Y-95313203D01*
%TO.N,VD1*%
X142931358Y-96549163D02*
X143165076Y-96782878D01*
X143165076Y-96782878D02*
X143165076Y-99548947D01*
X142931358Y-96549163D02*
X142931358Y-95830597D01*
X148746733Y-105130603D02*
X143165076Y-99548947D01*
X150024361Y-105130603D02*
X148746733Y-105130603D01*
X150659361Y-105765597D02*
X150024361Y-105130603D01*
%TO.N,VD0*%
X142257036Y-97481400D02*
X142257036Y-99689916D01*
X140931358Y-95830600D02*
X140931358Y-96155719D01*
X142257036Y-97481400D02*
X140931358Y-96155719D01*
X142257036Y-99689916D02*
X148875220Y-106308097D01*
X148875220Y-106308097D02*
X150243861Y-106308097D01*
D12*
%TO.N,+1V8*%
X145014486Y-108686478D02*
X147485904Y-106215059D01*
X142964704Y-108686478D02*
X145014486Y-108686478D01*
X140793004Y-110451778D02*
X140790464Y-110454319D01*
X140793004Y-108701719D02*
X140793004Y-110451778D01*
X140793004Y-107170013D02*
X140793004Y-108701719D01*
X140858958Y-107104059D02*
X140793004Y-107170013D01*
X141643904Y-106319113D02*
X140858958Y-107104059D01*
X141643904Y-104818059D02*
X141643904Y-106319113D01*
D13*
X140790464Y-110454319D02*
X140790464Y-110449156D01*
D12*
%TO.N,+3V3*%
X154851904Y-105127941D02*
X154851904Y-106588059D01*
X153493004Y-103769041D02*
X154851904Y-105127941D01*
X151925823Y-109915841D02*
X151925823Y-107947341D01*
X151930904Y-111447459D02*
X151930904Y-109920922D01*
X151928364Y-111450000D02*
X151930904Y-111447459D01*
X151928364Y-112953678D02*
X151928364Y-111450000D01*
X150671061Y-114210981D02*
X151928364Y-112953678D01*
X150361186Y-114210981D02*
X150671061Y-114210981D01*
X147871983Y-114210981D02*
X150361186Y-114210981D01*
X147866904Y-114216059D02*
X147871983Y-114210981D01*
X145870467Y-114213519D02*
X147869445Y-114213519D01*
X145862845Y-114221141D02*
X145870467Y-114213519D01*
X140119904Y-111620181D02*
X142720864Y-114221141D01*
X142720864Y-114221141D02*
X145862845Y-114221141D01*
X140119904Y-103294059D02*
X140119904Y-111620181D01*
X140881904Y-102532059D02*
X140119904Y-103294059D01*
D13*
X151925823Y-107947341D02*
X151930904Y-107942259D01*
X151930904Y-109920922D02*
X151925823Y-109915841D01*
X147869445Y-114213519D02*
X150358648Y-114213519D01*
X150358648Y-114213519D02*
X150361186Y-114210981D01*
X142847864Y-114221141D02*
X145862845Y-114221141D01*
D14*
%TO.N,GND*%
X145129545Y-99728384D02*
X145969973Y-100745991D01*
X145129545Y-99728384D02*
X146243845Y-100190178D01*
X144826973Y-99602991D02*
X145129545Y-99728384D01*
X145969973Y-100745991D02*
X146107583Y-100883600D01*
X144826973Y-99602991D02*
X145969973Y-100745991D01*
X144138186Y-98914203D02*
X144826973Y-99602991D01*
X144138186Y-96037425D02*
X144138186Y-98914203D01*
X143931358Y-95830597D02*
X144138186Y-96037425D01*
D15*
X144691904Y-100494981D02*
X144691904Y-100500059D01*
%TD*%
%TA.AperFunction,Conductor*%
%TO.N,GND*%
G36*
X144417070Y-99916732D02*
G01*
X144429966Y-99925118D01*
X147130618Y-102625770D01*
X147141484Y-102652004D01*
X147141027Y-102657807D01*
X147137853Y-102677848D01*
X147137853Y-102677851D01*
X147156757Y-102797207D01*
X147156759Y-102797213D01*
X147211618Y-102904881D01*
X147211619Y-102904882D01*
X147211621Y-102904885D01*
X147297073Y-102990337D01*
X147297075Y-102990338D01*
X147297076Y-102990339D01*
X147404744Y-103045198D01*
X147404747Y-103045199D01*
X147404749Y-103045200D01*
X147464428Y-103054652D01*
X147524107Y-103064105D01*
X147524108Y-103064105D01*
X147524109Y-103064105D01*
X147563894Y-103057803D01*
X147643467Y-103045200D01*
X147751143Y-102990337D01*
X147836595Y-102904885D01*
X147891458Y-102797209D01*
X147904744Y-102713325D01*
X147910363Y-102677851D01*
X147910363Y-102677848D01*
X147897759Y-102598277D01*
X147891458Y-102558491D01*
X147891457Y-102558489D01*
X147891456Y-102558486D01*
X147836597Y-102450818D01*
X147836596Y-102450817D01*
X147836595Y-102450815D01*
X147751143Y-102365363D01*
X147751140Y-102365361D01*
X147751139Y-102365360D01*
X147643471Y-102310501D01*
X147643465Y-102310499D01*
X147524109Y-102291595D01*
X147524105Y-102291595D01*
X147411979Y-102309353D01*
X147384369Y-102302724D01*
X147379942Y-102298944D01*
X145060191Y-99979193D01*
X145049325Y-99952959D01*
X145060191Y-99926725D01*
X145086425Y-99915859D01*
X146048404Y-99915859D01*
X146065245Y-99919902D01*
X146078635Y-99926725D01*
X146109455Y-99942429D01*
X146109466Y-99942433D01*
X146262971Y-99992310D01*
X146262973Y-99992310D01*
X146262978Y-99992312D01*
X146422409Y-100017561D01*
X146503117Y-100017560D01*
X146511403Y-100017560D01*
X146518781Y-100017560D01*
X146518785Y-100017559D01*
X153126191Y-100017559D01*
X153133429Y-100017559D01*
X153135508Y-100017616D01*
X153353479Y-100029855D01*
X153357602Y-100030320D01*
X153571803Y-100066710D01*
X153575847Y-100067633D01*
X153749925Y-100117782D01*
X153784617Y-100127776D01*
X153788544Y-100129150D01*
X153989267Y-100212288D01*
X153993007Y-100214088D01*
X154183164Y-100319181D01*
X154186683Y-100321392D01*
X154363875Y-100447111D01*
X154367128Y-100449705D01*
X154529515Y-100594816D01*
X154531028Y-100596246D01*
X157676276Y-103741494D01*
X157677712Y-103743014D01*
X157820638Y-103903033D01*
X157823764Y-103906532D01*
X157826364Y-103909796D01*
X157856277Y-103952021D01*
X157952499Y-104087849D01*
X157954719Y-104091389D01*
X158060033Y-104282499D01*
X158061841Y-104286267D01*
X158144997Y-104488013D01*
X158146369Y-104491960D01*
X158206309Y-104701765D01*
X158207229Y-104705841D01*
X158243197Y-104921069D01*
X158243652Y-104925222D01*
X158255269Y-105144638D01*
X158255321Y-105146721D01*
X158255280Y-105159068D01*
X158255323Y-105159340D01*
X158253862Y-117681973D01*
X158253861Y-117681987D01*
X158253861Y-117693360D01*
X158253782Y-117695786D01*
X158235692Y-117971818D01*
X158235058Y-117976629D01*
X158181335Y-118246728D01*
X158180079Y-118251416D01*
X158091558Y-118512199D01*
X158089701Y-118516682D01*
X157967902Y-118763674D01*
X157965476Y-118767877D01*
X157812475Y-118996864D01*
X157809521Y-119000714D01*
X157627943Y-119207770D01*
X157624511Y-119211202D01*
X157417459Y-119392786D01*
X157413609Y-119395740D01*
X157184631Y-119548743D01*
X157180428Y-119551170D01*
X156933434Y-119672979D01*
X156928951Y-119674836D01*
X156668171Y-119763364D01*
X156663483Y-119764620D01*
X156393385Y-119818350D01*
X156388574Y-119818984D01*
X156113428Y-119837022D01*
X156111001Y-119837101D01*
X141110396Y-119837097D01*
X141103227Y-119837097D01*
X141100987Y-119837029D01*
X140820453Y-119820061D01*
X140816006Y-119819521D01*
X140540664Y-119769064D01*
X140536314Y-119767992D01*
X140269065Y-119684717D01*
X140264876Y-119683129D01*
X140009604Y-119568243D01*
X140005637Y-119566161D01*
X139980838Y-119551170D01*
X139766078Y-119421345D01*
X139762391Y-119418800D01*
X139732956Y-119395740D01*
X139682489Y-119356202D01*
X139542033Y-119246164D01*
X139538680Y-119243193D01*
X139340743Y-119045261D01*
X139337772Y-119041908D01*
X139280295Y-118968546D01*
X139165125Y-118821547D01*
X139162590Y-118817874D01*
X139017764Y-118578310D01*
X139015683Y-118574345D01*
X138989730Y-118516682D01*
X138900789Y-118319073D01*
X138899209Y-118314906D01*
X138815920Y-118047639D01*
X138814848Y-118043289D01*
X138791589Y-117916383D01*
X138764384Y-117767944D01*
X138763845Y-117763502D01*
X138759173Y-117686294D01*
X138746929Y-117483927D01*
X138746861Y-117481686D01*
X138746861Y-111670406D01*
X139738404Y-111670406D01*
X139764403Y-111767435D01*
X139802669Y-111833714D01*
X139814628Y-111854428D01*
X142486617Y-114526417D01*
X142573611Y-114576643D01*
X142670639Y-114602641D01*
X145812620Y-114602641D01*
X145829905Y-114602641D01*
X145835709Y-114603098D01*
X145862844Y-114607396D01*
X145862845Y-114607396D01*
X145862846Y-114607396D01*
X145889981Y-114603098D01*
X145895785Y-114602641D01*
X145913069Y-114602641D01*
X145913070Y-114602641D01*
X145936799Y-114596282D01*
X145946400Y-114595019D01*
X147802298Y-114595019D01*
X147811902Y-114596284D01*
X147813655Y-114596753D01*
X147816641Y-114597554D01*
X147816643Y-114597554D01*
X147833953Y-114597555D01*
X147839738Y-114598011D01*
X147866904Y-114602314D01*
X147894025Y-114598017D01*
X147899823Y-114597561D01*
X147917092Y-114597564D01*
X147927431Y-114594794D01*
X147931355Y-114593744D01*
X147940953Y-114592481D01*
X150310961Y-114592481D01*
X150328246Y-114592481D01*
X150334050Y-114592938D01*
X150361185Y-114597236D01*
X150361186Y-114597236D01*
X150361187Y-114597236D01*
X150388322Y-114592938D01*
X150394126Y-114592481D01*
X150721284Y-114592481D01*
X150721286Y-114592481D01*
X150818315Y-114566482D01*
X150905308Y-114516257D01*
X150976337Y-114445228D01*
X152233640Y-113187925D01*
X152233640Y-113187923D01*
X152236694Y-113184870D01*
X152236696Y-113184867D01*
X152240851Y-113180713D01*
X152263311Y-113136630D01*
X152264213Y-113134970D01*
X152283866Y-113100931D01*
X152285478Y-113094910D01*
X152288258Y-113087669D01*
X152295714Y-113073037D01*
X152301736Y-113035009D01*
X152302534Y-113031255D01*
X152309864Y-113003903D01*
X152309864Y-112986617D01*
X152310321Y-112980813D01*
X152314619Y-112953679D01*
X152314619Y-112953676D01*
X152310321Y-112926541D01*
X152309864Y-112920737D01*
X152309864Y-111512048D01*
X152311128Y-111502446D01*
X152311164Y-111502311D01*
X152312404Y-111497684D01*
X152312404Y-111497676D01*
X152312412Y-111497615D01*
X152312414Y-111497609D01*
X152312410Y-111480356D01*
X152312866Y-111474560D01*
X152317159Y-111447459D01*
X152315403Y-111436375D01*
X152312861Y-111420322D01*
X152312404Y-111414518D01*
X152312404Y-109870697D01*
X152308587Y-109856450D01*
X152307323Y-109846849D01*
X152307323Y-108007277D01*
X152307780Y-108001473D01*
X152317159Y-107942260D01*
X152317159Y-107942257D01*
X152300651Y-107838033D01*
X152298254Y-107822900D01*
X152298253Y-107822898D01*
X152298252Y-107822895D01*
X152243393Y-107715227D01*
X152243392Y-107715226D01*
X152243391Y-107715224D01*
X152157939Y-107629772D01*
X152157936Y-107629770D01*
X152157935Y-107629769D01*
X152050267Y-107574910D01*
X152050261Y-107574908D01*
X151930905Y-107556004D01*
X151930903Y-107556004D01*
X151811546Y-107574908D01*
X151811540Y-107574910D01*
X151703872Y-107629769D01*
X151618415Y-107715226D01*
X151612095Y-107727628D01*
X151611171Y-107729330D01*
X151570322Y-107800086D01*
X151570322Y-107800087D01*
X151565943Y-107816426D01*
X151564079Y-107821283D01*
X151563554Y-107822900D01*
X151562911Y-107826958D01*
X151562104Y-107830751D01*
X151544323Y-107897116D01*
X151544323Y-109882900D01*
X151543866Y-109888704D01*
X151539568Y-109915839D01*
X151539568Y-109915842D01*
X151543866Y-109942976D01*
X151544323Y-109948780D01*
X151544323Y-109966066D01*
X151548140Y-109980309D01*
X151549404Y-109989912D01*
X151549404Y-111385411D01*
X151548140Y-111395011D01*
X151546861Y-111399782D01*
X151546859Y-111399804D01*
X151546854Y-111399840D01*
X151546859Y-111430570D01*
X151546403Y-111436375D01*
X151544649Y-111447458D01*
X151544649Y-111447459D01*
X151546407Y-111458557D01*
X151546864Y-111464362D01*
X151546864Y-112780287D01*
X151535998Y-112806521D01*
X150523904Y-113818615D01*
X150497670Y-113829481D01*
X150394126Y-113829481D01*
X150388322Y-113829024D01*
X150361187Y-113824726D01*
X150361185Y-113824726D01*
X150334050Y-113829024D01*
X150328246Y-113829481D01*
X147872020Y-113829481D01*
X147821795Y-113829476D01*
X147821794Y-113829476D01*
X147821788Y-113829476D01*
X147821764Y-113829479D01*
X147817003Y-113830755D01*
X147807402Y-113832019D01*
X145820242Y-113832019D01*
X145796512Y-113838377D01*
X145786912Y-113839641D01*
X142894255Y-113839641D01*
X142868021Y-113828775D01*
X140512270Y-111473024D01*
X140501404Y-111446790D01*
X140501404Y-110794348D01*
X140512270Y-110768114D01*
X140538504Y-110757248D01*
X140560227Y-110766245D01*
X140561067Y-110765090D01*
X140563429Y-110766806D01*
X140607540Y-110789282D01*
X140609241Y-110790205D01*
X140643278Y-110809848D01*
X140643284Y-110809850D01*
X140649261Y-110811451D01*
X140656503Y-110814229D01*
X140671105Y-110821669D01*
X140671107Y-110821669D01*
X140671109Y-110821670D01*
X140709142Y-110827693D01*
X140712932Y-110828497D01*
X140740314Y-110835829D01*
X140740314Y-110835828D01*
X140740315Y-110835829D01*
X140740316Y-110835829D01*
X140740327Y-110835828D01*
X140757562Y-110835824D01*
X140763359Y-110836280D01*
X140790464Y-110840574D01*
X140817647Y-110836268D01*
X140823432Y-110835812D01*
X140840764Y-110835809D01*
X140868060Y-110828488D01*
X140871854Y-110827682D01*
X140909823Y-110821669D01*
X140924499Y-110814190D01*
X140931729Y-110811415D01*
X140937787Y-110809791D01*
X140971786Y-110790152D01*
X140973450Y-110789249D01*
X141017499Y-110766806D01*
X141022884Y-110761419D01*
X141023004Y-110761316D01*
X141024769Y-110759549D01*
X141024771Y-110759549D01*
X141062816Y-110721488D01*
X141102951Y-110681354D01*
X141117327Y-110653137D01*
X141118231Y-110651470D01*
X141123843Y-110641747D01*
X141148505Y-110599032D01*
X141148505Y-110599028D01*
X141148512Y-110599018D01*
X141148528Y-110598978D01*
X141148530Y-110598968D01*
X141148535Y-110598961D01*
X141151517Y-110587819D01*
X141154292Y-110580588D01*
X141157814Y-110573678D01*
X141161147Y-110552626D01*
X141161945Y-110548870D01*
X141162059Y-110548445D01*
X141162075Y-110548423D01*
X141162066Y-110548421D01*
X141164459Y-110539488D01*
X141174504Y-110502003D01*
X141174504Y-110501988D01*
X141174510Y-110501940D01*
X141174514Y-110501928D01*
X141174507Y-110471198D01*
X141174963Y-110465401D01*
X141176719Y-110454319D01*
X141174961Y-110443219D01*
X141174504Y-110437415D01*
X141174504Y-108734658D01*
X141174961Y-108728854D01*
X141179259Y-108701720D01*
X141179259Y-108701717D01*
X141176845Y-108686479D01*
X142578449Y-108686479D01*
X142582747Y-108713613D01*
X142583204Y-108719417D01*
X142583204Y-108736702D01*
X142590527Y-108764035D01*
X142591334Y-108767832D01*
X142597353Y-108805834D01*
X142597353Y-108805835D01*
X142597354Y-108805837D01*
X142597355Y-108805838D01*
X142604811Y-108820473D01*
X142607589Y-108827711D01*
X142609202Y-108833730D01*
X142628847Y-108867756D01*
X142629755Y-108869428D01*
X142651854Y-108912800D01*
X142652218Y-108913515D01*
X142658131Y-108919428D01*
X142658132Y-108919428D01*
X142659426Y-108920722D01*
X142659428Y-108920725D01*
X142730457Y-108991754D01*
X142730459Y-108991755D01*
X142730458Y-108991755D01*
X142737667Y-108998964D01*
X142737669Y-108998965D01*
X142781748Y-109021423D01*
X142783420Y-109022331D01*
X142817450Y-109041979D01*
X142823471Y-109043592D01*
X142830708Y-109046370D01*
X142845345Y-109053828D01*
X142883369Y-109059849D01*
X142887131Y-109060649D01*
X142914479Y-109067978D01*
X142931764Y-109067978D01*
X142937568Y-109068435D01*
X142964703Y-109072733D01*
X142964704Y-109072733D01*
X142964705Y-109072733D01*
X142991840Y-109068435D01*
X142997644Y-109067978D01*
X145064709Y-109067978D01*
X145064711Y-109067978D01*
X145161740Y-109041979D01*
X145248733Y-108991754D01*
X145319762Y-108920725D01*
X145319762Y-108920724D01*
X147791180Y-106449305D01*
X147798391Y-106442094D01*
X147820847Y-106398018D01*
X147821771Y-106396319D01*
X147827365Y-106386628D01*
X147841406Y-106362311D01*
X147843018Y-106356292D01*
X147845799Y-106349048D01*
X147853253Y-106334420D01*
X147853253Y-106334419D01*
X147853254Y-106334418D01*
X147859275Y-106296395D01*
X147860078Y-106292624D01*
X147867405Y-106265284D01*
X147867405Y-106247991D01*
X147867862Y-106242187D01*
X147872159Y-106215060D01*
X147872159Y-106215057D01*
X147867862Y-106187929D01*
X147867405Y-106182125D01*
X147867405Y-106164835D01*
X147867405Y-106164834D01*
X147860074Y-106137478D01*
X147859274Y-106133716D01*
X147853254Y-106095700D01*
X147845798Y-106081067D01*
X147843019Y-106073830D01*
X147841406Y-106067806D01*
X147821748Y-106033757D01*
X147820849Y-106032100D01*
X147805385Y-106001750D01*
X147798391Y-105988023D01*
X147791181Y-105980813D01*
X147791181Y-105980814D01*
X147791180Y-105980812D01*
X147720151Y-105909783D01*
X147720148Y-105909781D01*
X147718854Y-105908487D01*
X147718854Y-105908486D01*
X147712938Y-105902571D01*
X147712936Y-105902570D01*
X147668885Y-105880124D01*
X147667179Y-105879198D01*
X147633163Y-105859559D01*
X147633156Y-105859556D01*
X147627131Y-105857942D01*
X147619892Y-105855163D01*
X147605264Y-105847709D01*
X147567265Y-105841690D01*
X147563469Y-105840883D01*
X147536129Y-105833558D01*
X147518838Y-105833558D01*
X147513034Y-105833101D01*
X147485905Y-105828804D01*
X147485903Y-105828804D01*
X147458774Y-105833101D01*
X147452970Y-105833558D01*
X147435679Y-105833558D01*
X147408337Y-105840883D01*
X147404541Y-105841690D01*
X147376532Y-105846127D01*
X147366545Y-105847709D01*
X147366543Y-105847709D01*
X147366540Y-105847711D01*
X147351911Y-105855164D01*
X147344677Y-105857941D01*
X147338656Y-105859555D01*
X147338644Y-105859560D01*
X147304635Y-105879194D01*
X147302930Y-105880120D01*
X147258869Y-105902571D01*
X147258868Y-105902572D01*
X147251659Y-105909779D01*
X147251660Y-105909780D01*
X147251659Y-105909781D01*
X147251657Y-105909783D01*
X146058826Y-107102615D01*
X144867329Y-108294112D01*
X144841095Y-108304978D01*
X142997644Y-108304978D01*
X142991840Y-108304521D01*
X142964705Y-108300223D01*
X142964703Y-108300223D01*
X142937568Y-108304521D01*
X142931764Y-108304978D01*
X142914479Y-108304978D01*
X142887145Y-108312301D01*
X142883349Y-108313108D01*
X142861437Y-108316579D01*
X142845345Y-108319128D01*
X142845343Y-108319128D01*
X142845339Y-108319130D01*
X142830705Y-108326585D01*
X142823474Y-108329361D01*
X142817457Y-108330974D01*
X142817451Y-108330976D01*
X142783422Y-108350621D01*
X142781718Y-108351546D01*
X142737666Y-108373992D01*
X142730459Y-108381198D01*
X142730460Y-108381199D01*
X142730459Y-108381200D01*
X142730457Y-108381202D01*
X142659428Y-108452231D01*
X142659426Y-108452233D01*
X142659425Y-108452234D01*
X142659424Y-108452233D01*
X142652218Y-108459440D01*
X142629772Y-108503492D01*
X142628847Y-108505196D01*
X142609202Y-108539225D01*
X142609200Y-108539231D01*
X142607587Y-108545248D01*
X142604811Y-108552479D01*
X142597356Y-108567113D01*
X142597354Y-108567121D01*
X142591334Y-108605123D01*
X142590527Y-108608919D01*
X142583204Y-108636253D01*
X142583204Y-108653537D01*
X142582747Y-108659341D01*
X142578449Y-108686476D01*
X142578449Y-108686479D01*
X141176845Y-108686479D01*
X141174961Y-108674582D01*
X141174504Y-108668778D01*
X141174504Y-107343402D01*
X141185369Y-107317169D01*
X141878148Y-106624390D01*
X141878151Y-106624389D01*
X141949180Y-106553360D01*
X141999405Y-106466367D01*
X142025404Y-106369338D01*
X142025404Y-104850998D01*
X142025861Y-104845194D01*
X142030159Y-104818060D01*
X142030159Y-104818057D01*
X142025861Y-104790922D01*
X142025404Y-104785118D01*
X142025404Y-104767835D01*
X142018079Y-104740500D01*
X142018075Y-104740486D01*
X142017275Y-104736724D01*
X142011254Y-104698700D01*
X142003795Y-104684060D01*
X142001017Y-104676823D01*
X141999405Y-104670806D01*
X141999405Y-104670805D01*
X141979757Y-104636775D01*
X141978844Y-104635093D01*
X141956390Y-104591022D01*
X141949181Y-104583813D01*
X141949181Y-104583814D01*
X141949180Y-104583812D01*
X141878151Y-104512783D01*
X141878148Y-104512781D01*
X141876854Y-104511487D01*
X141876854Y-104511486D01*
X141870941Y-104505573D01*
X141870226Y-104505209D01*
X141826854Y-104483110D01*
X141825182Y-104482202D01*
X141791156Y-104462557D01*
X141785137Y-104460944D01*
X141777899Y-104458166D01*
X141777298Y-104457860D01*
X141763263Y-104450709D01*
X141763261Y-104450708D01*
X141763260Y-104450708D01*
X141725258Y-104444689D01*
X141721461Y-104443882D01*
X141694129Y-104436559D01*
X141676844Y-104436559D01*
X141671040Y-104436102D01*
X141643905Y-104431804D01*
X141643903Y-104431804D01*
X141616768Y-104436102D01*
X141610964Y-104436559D01*
X141593679Y-104436559D01*
X141566345Y-104443882D01*
X141562549Y-104444689D01*
X141540637Y-104448160D01*
X141524545Y-104450709D01*
X141524543Y-104450709D01*
X141524539Y-104450711D01*
X141509905Y-104458166D01*
X141502674Y-104460942D01*
X141496657Y-104462555D01*
X141496651Y-104462557D01*
X141462622Y-104482202D01*
X141460918Y-104483127D01*
X141416866Y-104505573D01*
X141409659Y-104512779D01*
X141409660Y-104512780D01*
X141409659Y-104512781D01*
X141409657Y-104512783D01*
X141338628Y-104583812D01*
X141338626Y-104583814D01*
X141338625Y-104583815D01*
X141338624Y-104583814D01*
X141331418Y-104591021D01*
X141308972Y-104635073D01*
X141308047Y-104636777D01*
X141288402Y-104670806D01*
X141288400Y-104670812D01*
X141286787Y-104676829D01*
X141284011Y-104684060D01*
X141276556Y-104698694D01*
X141276554Y-104698698D01*
X141276554Y-104698700D01*
X141275423Y-104705841D01*
X141270534Y-104736704D01*
X141269727Y-104740500D01*
X141262404Y-104767834D01*
X141262404Y-104785118D01*
X141261947Y-104790922D01*
X141257649Y-104818057D01*
X141257649Y-104818060D01*
X141261947Y-104845194D01*
X141262404Y-104850998D01*
X141262404Y-106145722D01*
X141251538Y-106171955D01*
X140624711Y-106798782D01*
X140624711Y-106798783D01*
X140564738Y-106858756D01*
X140538504Y-106869622D01*
X140512270Y-106858756D01*
X140501404Y-106832522D01*
X140501404Y-103467449D01*
X140512269Y-103441216D01*
X141187180Y-102766306D01*
X141187180Y-102766304D01*
X141190234Y-102763251D01*
X141190236Y-102763248D01*
X141194391Y-102759094D01*
X141216859Y-102714995D01*
X141217744Y-102713366D01*
X141237406Y-102679312D01*
X141239018Y-102673292D01*
X141241799Y-102666047D01*
X141249253Y-102651419D01*
X141249254Y-102651418D01*
X141255275Y-102613396D01*
X141256078Y-102609625D01*
X141263405Y-102582284D01*
X141263405Y-102564991D01*
X141263862Y-102559187D01*
X141268159Y-102532060D01*
X141268159Y-102532057D01*
X141263862Y-102504929D01*
X141263405Y-102499125D01*
X141263405Y-102481835D01*
X141263405Y-102481834D01*
X141256074Y-102454478D01*
X141255274Y-102450716D01*
X141249254Y-102412700D01*
X141241798Y-102398067D01*
X141239019Y-102390830D01*
X141237406Y-102384806D01*
X141217748Y-102350757D01*
X141216849Y-102349100D01*
X141196597Y-102309353D01*
X141194391Y-102305023D01*
X141187181Y-102297813D01*
X141187181Y-102297814D01*
X141187180Y-102297812D01*
X141116151Y-102226783D01*
X141116148Y-102226781D01*
X141114854Y-102225487D01*
X141114854Y-102225486D01*
X141108938Y-102219571D01*
X141108936Y-102219570D01*
X141064885Y-102197124D01*
X141063179Y-102196198D01*
X141029163Y-102176559D01*
X141029156Y-102176556D01*
X141023131Y-102174942D01*
X141015892Y-102172163D01*
X141001264Y-102164709D01*
X140963265Y-102158690D01*
X140959469Y-102157883D01*
X140932129Y-102150558D01*
X140914838Y-102150558D01*
X140909034Y-102150101D01*
X140881905Y-102145804D01*
X140881903Y-102145804D01*
X140854774Y-102150101D01*
X140848970Y-102150558D01*
X140831679Y-102150558D01*
X140804337Y-102157883D01*
X140800541Y-102158690D01*
X140772532Y-102163127D01*
X140762545Y-102164709D01*
X140762543Y-102164709D01*
X140762540Y-102164711D01*
X140747911Y-102172164D01*
X140740677Y-102174941D01*
X140734656Y-102176555D01*
X140734644Y-102176560D01*
X140700635Y-102196194D01*
X140698930Y-102197120D01*
X140654869Y-102219571D01*
X140654868Y-102219572D01*
X140647659Y-102226779D01*
X140647660Y-102226780D01*
X140647659Y-102226781D01*
X140647657Y-102226783D01*
X139885657Y-102988783D01*
X139885656Y-102988782D01*
X139814628Y-103059811D01*
X139812149Y-103064105D01*
X139764403Y-103146805D01*
X139738404Y-103243834D01*
X139738404Y-111670406D01*
X138746861Y-111670406D01*
X138746861Y-100278081D01*
X138757727Y-100251847D01*
X138783961Y-100240981D01*
X140996365Y-100240981D01*
X141022599Y-100251847D01*
X141030641Y-100263884D01*
X141035330Y-100275204D01*
X141035332Y-100275208D01*
X141092633Y-100332508D01*
X141092634Y-100332508D01*
X142799392Y-102039266D01*
X142810258Y-102065500D01*
X142810258Y-107149234D01*
X142799392Y-107175467D01*
X142750115Y-107224744D01*
X142750115Y-107224745D01*
X142695255Y-107332414D01*
X142695253Y-107332420D01*
X142676349Y-107451776D01*
X142676349Y-107451779D01*
X142695253Y-107571135D01*
X142695255Y-107571141D01*
X142750114Y-107678809D01*
X142750115Y-107678810D01*
X142750117Y-107678813D01*
X142835569Y-107764265D01*
X142835571Y-107764266D01*
X142835572Y-107764267D01*
X142943240Y-107819126D01*
X142943243Y-107819127D01*
X142943245Y-107819128D01*
X142992681Y-107826958D01*
X143062603Y-107838033D01*
X143062604Y-107838033D01*
X143062605Y-107838033D01*
X143108580Y-107830751D01*
X143181963Y-107819128D01*
X143219336Y-107800086D01*
X143289635Y-107764267D01*
X143289634Y-107764267D01*
X143289639Y-107764265D01*
X143375091Y-107678813D01*
X143429954Y-107571137D01*
X143448859Y-107451778D01*
X143429954Y-107332419D01*
X143429953Y-107332417D01*
X143429952Y-107332414D01*
X143389885Y-107253778D01*
X143387657Y-107225470D01*
X143406098Y-107203879D01*
X143428744Y-107200292D01*
X143470478Y-107206902D01*
X143496557Y-107211033D01*
X143496558Y-107211033D01*
X143496559Y-107211033D01*
X143541726Y-107203879D01*
X143615917Y-107192128D01*
X143723593Y-107137265D01*
X143809045Y-107051813D01*
X143863908Y-106944137D01*
X143877431Y-106858756D01*
X143882813Y-106824779D01*
X143882813Y-106824776D01*
X143868643Y-106735313D01*
X143863908Y-106705419D01*
X143863907Y-106705417D01*
X143863906Y-106705414D01*
X143809047Y-106597746D01*
X143809046Y-106597745D01*
X143809045Y-106597743D01*
X143723593Y-106512291D01*
X143723590Y-106512289D01*
X143723589Y-106512288D01*
X143615921Y-106457429D01*
X143615915Y-106457427D01*
X143604554Y-106455628D01*
X143580343Y-106440790D01*
X143573259Y-106418988D01*
X143573258Y-101924998D01*
X143573259Y-101924996D01*
X143573258Y-101894326D01*
X143584124Y-101868094D01*
X143610357Y-101857227D01*
X143636591Y-101868093D01*
X143636592Y-101868093D01*
X146149654Y-104381153D01*
X146160520Y-104407387D01*
X146160520Y-104656492D01*
X146149654Y-104682726D01*
X146140265Y-104689547D01*
X146137191Y-104691113D01*
X146051733Y-104776571D01*
X145996874Y-104884239D01*
X145996872Y-104884245D01*
X145977968Y-105003601D01*
X145977968Y-105003604D01*
X145996872Y-105122960D01*
X145996874Y-105122966D01*
X146051733Y-105230634D01*
X146051734Y-105230635D01*
X146051736Y-105230638D01*
X146137188Y-105316090D01*
X146137190Y-105316091D01*
X146137191Y-105316092D01*
X146244859Y-105370951D01*
X146244862Y-105370952D01*
X146244864Y-105370953D01*
X146297829Y-105379342D01*
X146364222Y-105389858D01*
X146364223Y-105389858D01*
X146364224Y-105389858D01*
X146406392Y-105383179D01*
X146483582Y-105370953D01*
X146591258Y-105316090D01*
X146676710Y-105230638D01*
X146731573Y-105122962D01*
X146750478Y-105003603D01*
X146743241Y-104957914D01*
X146731573Y-104884245D01*
X146731571Y-104884239D01*
X146676712Y-104776571D01*
X146676711Y-104776570D01*
X146676710Y-104776568D01*
X146591258Y-104691116D01*
X146591255Y-104691114D01*
X146591254Y-104691113D01*
X146588175Y-104689544D01*
X146569735Y-104667952D01*
X146567920Y-104656494D01*
X146567920Y-104378440D01*
X146578786Y-104352207D01*
X146605020Y-104341341D01*
X146631254Y-104352207D01*
X148702531Y-106423484D01*
X148702530Y-106423484D01*
X148734675Y-106455628D01*
X148759833Y-106480786D01*
X148834701Y-106511797D01*
X149896749Y-106511797D01*
X149922983Y-106522663D01*
X149929804Y-106532052D01*
X149931374Y-106535132D01*
X150016826Y-106620584D01*
X150016828Y-106620585D01*
X150016829Y-106620586D01*
X150124497Y-106675445D01*
X150124500Y-106675446D01*
X150124502Y-106675447D01*
X150184181Y-106684899D01*
X150243860Y-106694352D01*
X150243861Y-106694352D01*
X150243862Y-106694352D01*
X150283647Y-106688050D01*
X150363220Y-106675447D01*
X150470896Y-106620584D01*
X150556348Y-106535132D01*
X150611211Y-106427456D01*
X150630116Y-106308097D01*
X150628267Y-106296426D01*
X150620134Y-106245073D01*
X150611967Y-106193513D01*
X150618595Y-106165904D01*
X150642806Y-106151068D01*
X150654411Y-106151068D01*
X150659361Y-106151852D01*
X150778720Y-106132947D01*
X150886396Y-106078084D01*
X150971848Y-105992632D01*
X151026711Y-105884956D01*
X151039314Y-105805383D01*
X151045616Y-105765598D01*
X151045616Y-105765595D01*
X151030075Y-105667476D01*
X151026711Y-105646238D01*
X151026710Y-105646236D01*
X151026709Y-105646233D01*
X150971850Y-105538565D01*
X150971849Y-105538564D01*
X150971848Y-105538562D01*
X150886396Y-105453110D01*
X150886393Y-105453108D01*
X150886392Y-105453107D01*
X150778724Y-105398248D01*
X150778718Y-105398246D01*
X150659362Y-105379342D01*
X150659358Y-105379342D01*
X150593273Y-105389808D01*
X150565663Y-105383179D01*
X150561236Y-105379399D01*
X150197050Y-105015216D01*
X150197050Y-105015215D01*
X150139748Y-104957914D01*
X150087246Y-104936167D01*
X150087246Y-104936166D01*
X150064879Y-104926902D01*
X149983841Y-104926903D01*
X148846477Y-104926903D01*
X148820243Y-104916037D01*
X147673248Y-103769042D01*
X153106749Y-103769042D01*
X153111047Y-103796176D01*
X153111504Y-103801980D01*
X153111504Y-103819266D01*
X153118825Y-103846595D01*
X153119632Y-103850389D01*
X153125654Y-103888403D01*
X153133109Y-103903033D01*
X153135887Y-103910268D01*
X153137501Y-103916290D01*
X153137505Y-103916298D01*
X153157143Y-103950316D01*
X153158069Y-103952021D01*
X153180515Y-103996073D01*
X153180516Y-103996075D01*
X153186431Y-104001991D01*
X153186432Y-104001991D01*
X153187726Y-104003285D01*
X153187728Y-104003288D01*
X154459538Y-105275098D01*
X154470404Y-105301331D01*
X154470404Y-106555118D01*
X154469947Y-106560922D01*
X154465649Y-106588057D01*
X154465649Y-106588060D01*
X154469947Y-106615194D01*
X154470404Y-106620998D01*
X154470404Y-106638283D01*
X154477727Y-106665616D01*
X154478534Y-106669413D01*
X154484553Y-106707415D01*
X154484553Y-106707416D01*
X154484554Y-106707418D01*
X154491705Y-106721453D01*
X154492011Y-106722054D01*
X154494789Y-106729292D01*
X154496402Y-106735311D01*
X154516047Y-106769337D01*
X154516955Y-106771009D01*
X154539054Y-106814381D01*
X154539418Y-106815096D01*
X154545331Y-106821009D01*
X154545332Y-106821009D01*
X154546626Y-106822303D01*
X154546628Y-106822306D01*
X154617657Y-106893335D01*
X154617659Y-106893336D01*
X154617658Y-106893336D01*
X154624867Y-106900545D01*
X154624869Y-106900546D01*
X154668948Y-106923004D01*
X154670620Y-106923912D01*
X154704650Y-106943560D01*
X154710671Y-106945173D01*
X154717908Y-106947951D01*
X154732545Y-106955409D01*
X154770569Y-106961430D01*
X154774331Y-106962230D01*
X154801679Y-106969559D01*
X154818964Y-106969559D01*
X154824768Y-106970016D01*
X154851903Y-106974314D01*
X154851904Y-106974314D01*
X154851905Y-106974314D01*
X154879040Y-106970016D01*
X154884844Y-106969559D01*
X154902130Y-106969559D01*
X154917732Y-106965377D01*
X154929465Y-106962233D01*
X154933233Y-106961431D01*
X154971263Y-106955409D01*
X154985896Y-106947952D01*
X154993139Y-106945172D01*
X154999158Y-106943560D01*
X155033176Y-106923918D01*
X155034868Y-106922999D01*
X155078939Y-106900546D01*
X155083093Y-106896391D01*
X155083096Y-106896389D01*
X155086149Y-106893335D01*
X155086151Y-106893335D01*
X155157180Y-106822306D01*
X155157180Y-106822304D01*
X155160234Y-106819251D01*
X155160236Y-106819248D01*
X155164391Y-106815094D01*
X155186844Y-106771023D01*
X155187768Y-106769323D01*
X155207405Y-106735313D01*
X155209018Y-106729292D01*
X155211798Y-106722050D01*
X155219253Y-106707420D01*
X155219253Y-106707419D01*
X155219254Y-106707418D01*
X155225276Y-106669388D01*
X155226079Y-106665617D01*
X155233404Y-106638284D01*
X155233404Y-106620998D01*
X155233861Y-106615194D01*
X155238159Y-106588060D01*
X155238159Y-106588057D01*
X155233861Y-106560922D01*
X155233404Y-106555118D01*
X155233404Y-105181163D01*
X155233405Y-105181150D01*
X155233405Y-105077717D01*
X155220924Y-105031138D01*
X155207406Y-104980688D01*
X155157180Y-104893694D01*
X153727251Y-103463765D01*
X153727248Y-103463763D01*
X153725954Y-103462469D01*
X153725954Y-103462468D01*
X153720038Y-103456553D01*
X153720036Y-103456552D01*
X153675984Y-103434106D01*
X153674279Y-103433180D01*
X153640261Y-103413542D01*
X153640253Y-103413538D01*
X153634231Y-103411924D01*
X153626996Y-103409146D01*
X153612366Y-103401691D01*
X153574352Y-103395669D01*
X153570558Y-103394862D01*
X153543230Y-103387541D01*
X153543229Y-103387541D01*
X153525944Y-103387541D01*
X153520140Y-103387084D01*
X153493005Y-103382786D01*
X153493003Y-103382786D01*
X153465868Y-103387084D01*
X153460064Y-103387541D01*
X153442778Y-103387541D01*
X153415449Y-103394862D01*
X153411655Y-103395669D01*
X153373645Y-103401691D01*
X153373639Y-103401693D01*
X153359005Y-103409149D01*
X153351769Y-103411927D01*
X153345750Y-103413539D01*
X153345746Y-103413541D01*
X153311736Y-103433176D01*
X153310031Y-103434102D01*
X153265968Y-103456554D01*
X153265967Y-103456555D01*
X153258759Y-103463761D01*
X153258760Y-103463762D01*
X153258759Y-103463763D01*
X153258757Y-103463765D01*
X153187728Y-103534794D01*
X153187726Y-103534796D01*
X153187725Y-103534797D01*
X153187724Y-103534796D01*
X153180518Y-103542004D01*
X153180517Y-103542005D01*
X153158065Y-103586068D01*
X153157139Y-103587773D01*
X153137504Y-103621783D01*
X153137502Y-103621787D01*
X153135890Y-103627806D01*
X153133112Y-103635042D01*
X153125656Y-103649676D01*
X153125654Y-103649682D01*
X153119632Y-103687692D01*
X153118825Y-103691486D01*
X153111504Y-103718814D01*
X153111504Y-103736100D01*
X153111047Y-103741904D01*
X153106749Y-103769039D01*
X153106749Y-103769042D01*
X147673248Y-103769042D01*
X146354895Y-102450689D01*
X143820064Y-99915859D01*
X144414802Y-99915859D01*
X144414806Y-99915859D01*
X144417070Y-99916732D01*
G37*
%TD.AperFunction*%
%TD*%
%TA.AperFunction,Conductor*%
%TO.N,GND*%
G36*
X144417070Y-99916732D02*
G01*
X144429966Y-99925118D01*
X147130618Y-102625770D01*
X147141484Y-102652004D01*
X147141027Y-102657807D01*
X147137853Y-102677848D01*
X147137853Y-102677851D01*
X147156757Y-102797207D01*
X147156759Y-102797213D01*
X147211618Y-102904881D01*
X147211619Y-102904882D01*
X147211621Y-102904885D01*
X147297073Y-102990337D01*
X147297075Y-102990338D01*
X147297076Y-102990339D01*
X147404744Y-103045198D01*
X147404747Y-103045199D01*
X147404749Y-103045200D01*
X147464428Y-103054652D01*
X147524107Y-103064105D01*
X147524108Y-103064105D01*
X147524109Y-103064105D01*
X147563894Y-103057803D01*
X147643467Y-103045200D01*
X147751143Y-102990337D01*
X147836595Y-102904885D01*
X147891458Y-102797209D01*
X147904744Y-102713325D01*
X147910363Y-102677851D01*
X147910363Y-102677848D01*
X147897759Y-102598277D01*
X147891458Y-102558491D01*
X147891457Y-102558489D01*
X147891456Y-102558486D01*
X147836597Y-102450818D01*
X147836596Y-102450817D01*
X147836595Y-102450815D01*
X147751143Y-102365363D01*
X147751140Y-102365361D01*
X147751139Y-102365360D01*
X147643471Y-102310501D01*
X147643465Y-102310499D01*
X147524109Y-102291595D01*
X147524105Y-102291595D01*
X147411979Y-102309353D01*
X147384369Y-102302724D01*
X147379942Y-102298944D01*
X145060191Y-99979193D01*
X145049325Y-99952959D01*
X145060191Y-99926725D01*
X145086425Y-99915859D01*
X146048404Y-99915859D01*
X146065245Y-99919902D01*
X146078635Y-99926725D01*
X146109455Y-99942429D01*
X146109466Y-99942433D01*
X146262971Y-99992310D01*
X146262973Y-99992310D01*
X146262978Y-99992312D01*
X146422409Y-100017561D01*
X146503117Y-100017560D01*
X146511403Y-100017560D01*
X146518781Y-100017560D01*
X146518785Y-100017559D01*
X153126191Y-100017559D01*
X153133429Y-100017559D01*
X153135508Y-100017616D01*
X153353479Y-100029855D01*
X153357602Y-100030320D01*
X153571803Y-100066710D01*
X153575847Y-100067633D01*
X153749925Y-100117782D01*
X153784617Y-100127776D01*
X153788544Y-100129150D01*
X153989267Y-100212288D01*
X153993007Y-100214088D01*
X154183164Y-100319181D01*
X154186683Y-100321392D01*
X154363875Y-100447111D01*
X154367128Y-100449705D01*
X154529515Y-100594816D01*
X154531028Y-100596246D01*
X157676276Y-103741494D01*
X157677712Y-103743014D01*
X157820638Y-103903033D01*
X157823764Y-103906532D01*
X157826364Y-103909796D01*
X157856277Y-103952021D01*
X157952499Y-104087849D01*
X157954719Y-104091389D01*
X158060033Y-104282499D01*
X158061841Y-104286267D01*
X158144997Y-104488013D01*
X158146369Y-104491960D01*
X158206309Y-104701765D01*
X158207229Y-104705841D01*
X158243197Y-104921069D01*
X158243652Y-104925222D01*
X158255269Y-105144638D01*
X158255321Y-105146721D01*
X158255280Y-105159068D01*
X158255323Y-105159340D01*
X158253862Y-117681973D01*
X158253861Y-117681987D01*
X158253861Y-117693360D01*
X158253782Y-117695786D01*
X158235692Y-117971818D01*
X158235058Y-117976629D01*
X158181335Y-118246728D01*
X158180079Y-118251416D01*
X158091558Y-118512199D01*
X158089701Y-118516682D01*
X157967902Y-118763674D01*
X157965476Y-118767877D01*
X157812475Y-118996864D01*
X157809521Y-119000714D01*
X157627943Y-119207770D01*
X157624511Y-119211202D01*
X157417459Y-119392786D01*
X157413609Y-119395740D01*
X157184631Y-119548743D01*
X157180428Y-119551170D01*
X156933434Y-119672979D01*
X156928951Y-119674836D01*
X156668171Y-119763364D01*
X156663483Y-119764620D01*
X156393385Y-119818350D01*
X156388574Y-119818984D01*
X156113428Y-119837022D01*
X156111001Y-119837101D01*
X141110396Y-119837097D01*
X141103227Y-119837097D01*
X141100987Y-119837029D01*
X140820453Y-119820061D01*
X140816006Y-119819521D01*
X140540664Y-119769064D01*
X140536314Y-119767992D01*
X140269065Y-119684717D01*
X140264876Y-119683129D01*
X140009604Y-119568243D01*
X140005637Y-119566161D01*
X139980838Y-119551170D01*
X139766078Y-119421345D01*
X139762391Y-119418800D01*
X139732956Y-119395740D01*
X139682489Y-119356202D01*
X139542033Y-119246164D01*
X139538680Y-119243193D01*
X139340743Y-119045261D01*
X139337772Y-119041908D01*
X139280295Y-118968546D01*
X139165125Y-118821547D01*
X139162590Y-118817874D01*
X139017764Y-118578310D01*
X139015683Y-118574345D01*
X138989730Y-118516682D01*
X138900789Y-118319073D01*
X138899209Y-118314906D01*
X138815920Y-118047639D01*
X138814848Y-118043289D01*
X138791589Y-117916383D01*
X138764384Y-117767944D01*
X138763845Y-117763502D01*
X138759173Y-117686294D01*
X138746929Y-117483927D01*
X138746861Y-117481686D01*
X138746861Y-111670406D01*
X139738404Y-111670406D01*
X139764403Y-111767435D01*
X139802669Y-111833714D01*
X139814628Y-111854428D01*
X142486617Y-114526417D01*
X142573611Y-114576643D01*
X142670639Y-114602641D01*
X145812620Y-114602641D01*
X145829905Y-114602641D01*
X145835709Y-114603098D01*
X145862844Y-114607396D01*
X145862845Y-114607396D01*
X145862846Y-114607396D01*
X145889981Y-114603098D01*
X145895785Y-114602641D01*
X145913069Y-114602641D01*
X145913070Y-114602641D01*
X145936799Y-114596282D01*
X145946400Y-114595019D01*
X147802298Y-114595019D01*
X147811902Y-114596284D01*
X147813655Y-114596753D01*
X147816641Y-114597554D01*
X147816643Y-114597554D01*
X147833953Y-114597555D01*
X147839738Y-114598011D01*
X147866904Y-114602314D01*
X147894025Y-114598017D01*
X147899823Y-114597561D01*
X147917092Y-114597564D01*
X147927431Y-114594794D01*
X147931355Y-114593744D01*
X147940953Y-114592481D01*
X150310961Y-114592481D01*
X150328246Y-114592481D01*
X150334050Y-114592938D01*
X150361185Y-114597236D01*
X150361186Y-114597236D01*
X150361187Y-114597236D01*
X150388322Y-114592938D01*
X150394126Y-114592481D01*
X150721284Y-114592481D01*
X150721286Y-114592481D01*
X150818315Y-114566482D01*
X150905308Y-114516257D01*
X150976337Y-114445228D01*
X152233640Y-113187925D01*
X152233640Y-113187923D01*
X152236694Y-113184870D01*
X152236696Y-113184867D01*
X152240851Y-113180713D01*
X152263311Y-113136630D01*
X152264213Y-113134970D01*
X152283866Y-113100931D01*
X152285478Y-113094910D01*
X152288258Y-113087669D01*
X152295714Y-113073037D01*
X152301736Y-113035009D01*
X152302534Y-113031255D01*
X152309864Y-113003903D01*
X152309864Y-112986617D01*
X152310321Y-112980813D01*
X152314619Y-112953679D01*
X152314619Y-112953676D01*
X152310321Y-112926541D01*
X152309864Y-112920737D01*
X152309864Y-111512048D01*
X152311128Y-111502446D01*
X152311164Y-111502311D01*
X152312404Y-111497684D01*
X152312404Y-111497676D01*
X152312412Y-111497615D01*
X152312414Y-111497609D01*
X152312410Y-111480356D01*
X152312866Y-111474560D01*
X152317159Y-111447459D01*
X152315403Y-111436375D01*
X152312861Y-111420322D01*
X152312404Y-111414518D01*
X152312404Y-109870697D01*
X152308587Y-109856450D01*
X152307323Y-109846849D01*
X152307323Y-108007277D01*
X152307780Y-108001473D01*
X152317159Y-107942260D01*
X152317159Y-107942257D01*
X152300651Y-107838033D01*
X152298254Y-107822900D01*
X152298253Y-107822898D01*
X152298252Y-107822895D01*
X152243393Y-107715227D01*
X152243392Y-107715226D01*
X152243391Y-107715224D01*
X152157939Y-107629772D01*
X152157936Y-107629770D01*
X152157935Y-107629769D01*
X152050267Y-107574910D01*
X152050261Y-107574908D01*
X151930905Y-107556004D01*
X151930903Y-107556004D01*
X151811546Y-107574908D01*
X151811540Y-107574910D01*
X151703872Y-107629769D01*
X151618415Y-107715226D01*
X151612095Y-107727628D01*
X151611171Y-107729330D01*
X151570322Y-107800086D01*
X151570322Y-107800087D01*
X151565943Y-107816426D01*
X151564079Y-107821283D01*
X151563554Y-107822900D01*
X151562911Y-107826958D01*
X151562104Y-107830751D01*
X151544323Y-107897116D01*
X151544323Y-109882900D01*
X151543866Y-109888704D01*
X151539568Y-109915839D01*
X151539568Y-109915842D01*
X151543866Y-109942976D01*
X151544323Y-109948780D01*
X151544323Y-109966066D01*
X151548140Y-109980309D01*
X151549404Y-109989912D01*
X151549404Y-111385411D01*
X151548140Y-111395011D01*
X151546861Y-111399782D01*
X151546859Y-111399804D01*
X151546854Y-111399840D01*
X151546859Y-111430570D01*
X151546403Y-111436375D01*
X151544649Y-111447458D01*
X151544649Y-111447459D01*
X151546407Y-111458557D01*
X151546864Y-111464362D01*
X151546864Y-112780287D01*
X151535998Y-112806521D01*
X150523904Y-113818615D01*
X150497670Y-113829481D01*
X150394126Y-113829481D01*
X150388322Y-113829024D01*
X150361187Y-113824726D01*
X150361185Y-113824726D01*
X150334050Y-113829024D01*
X150328246Y-113829481D01*
X147872020Y-113829481D01*
X147821795Y-113829476D01*
X147821794Y-113829476D01*
X147821788Y-113829476D01*
X147821764Y-113829479D01*
X147817003Y-113830755D01*
X147807402Y-113832019D01*
X145820242Y-113832019D01*
X145796512Y-113838377D01*
X145786912Y-113839641D01*
X142894255Y-113839641D01*
X142868021Y-113828775D01*
X140512270Y-111473024D01*
X140501404Y-111446790D01*
X140501404Y-110794348D01*
X140512270Y-110768114D01*
X140538504Y-110757248D01*
X140560227Y-110766245D01*
X140561067Y-110765090D01*
X140563429Y-110766806D01*
X140607540Y-110789282D01*
X140609241Y-110790205D01*
X140643278Y-110809848D01*
X140643284Y-110809850D01*
X140649261Y-110811451D01*
X140656503Y-110814229D01*
X140671105Y-110821669D01*
X140671107Y-110821669D01*
X140671109Y-110821670D01*
X140709142Y-110827693D01*
X140712932Y-110828497D01*
X140740314Y-110835829D01*
X140740314Y-110835828D01*
X140740315Y-110835829D01*
X140740316Y-110835829D01*
X140740327Y-110835828D01*
X140757562Y-110835824D01*
X140763359Y-110836280D01*
X140790464Y-110840574D01*
X140817647Y-110836268D01*
X140823432Y-110835812D01*
X140840764Y-110835809D01*
X140868060Y-110828488D01*
X140871854Y-110827682D01*
X140909823Y-110821669D01*
X140924499Y-110814190D01*
X140931729Y-110811415D01*
X140937787Y-110809791D01*
X140971786Y-110790152D01*
X140973450Y-110789249D01*
X141017499Y-110766806D01*
X141022884Y-110761419D01*
X141023004Y-110761316D01*
X141024769Y-110759549D01*
X141024771Y-110759549D01*
X141062816Y-110721488D01*
X141102951Y-110681354D01*
X141117327Y-110653137D01*
X141118231Y-110651470D01*
X141123843Y-110641747D01*
X141148505Y-110599032D01*
X141148505Y-110599028D01*
X141148512Y-110599018D01*
X141148528Y-110598978D01*
X141148530Y-110598968D01*
X141148535Y-110598961D01*
X141151517Y-110587819D01*
X141154292Y-110580588D01*
X141157814Y-110573678D01*
X141161147Y-110552626D01*
X141161945Y-110548870D01*
X141162059Y-110548445D01*
X141162075Y-110548423D01*
X141162066Y-110548421D01*
X141164459Y-110539488D01*
X141174504Y-110502003D01*
X141174504Y-110501988D01*
X141174510Y-110501940D01*
X141174514Y-110501928D01*
X141174507Y-110471198D01*
X141174963Y-110465401D01*
X141176719Y-110454319D01*
X141174961Y-110443219D01*
X141174504Y-110437415D01*
X141174504Y-108734658D01*
X141174961Y-108728854D01*
X141179259Y-108701720D01*
X141179259Y-108701717D01*
X141176845Y-108686479D01*
X142578449Y-108686479D01*
X142582747Y-108713613D01*
X142583204Y-108719417D01*
X142583204Y-108736702D01*
X142590527Y-108764035D01*
X142591334Y-108767832D01*
X142597353Y-108805834D01*
X142597353Y-108805835D01*
X142597354Y-108805837D01*
X142597355Y-108805838D01*
X142604811Y-108820473D01*
X142607589Y-108827711D01*
X142609202Y-108833730D01*
X142628847Y-108867756D01*
X142629755Y-108869428D01*
X142651854Y-108912800D01*
X142652218Y-108913515D01*
X142658131Y-108919428D01*
X142658132Y-108919428D01*
X142659426Y-108920722D01*
X142659428Y-108920725D01*
X142730457Y-108991754D01*
X142730459Y-108991755D01*
X142730458Y-108991755D01*
X142737667Y-108998964D01*
X142737669Y-108998965D01*
X142781748Y-109021423D01*
X142783420Y-109022331D01*
X142817450Y-109041979D01*
X142823471Y-109043592D01*
X142830708Y-109046370D01*
X142845345Y-109053828D01*
X142883369Y-109059849D01*
X142887131Y-109060649D01*
X142914479Y-109067978D01*
X142931764Y-109067978D01*
X142937568Y-109068435D01*
X142964703Y-109072733D01*
X142964704Y-109072733D01*
X142964705Y-109072733D01*
X142991840Y-109068435D01*
X142997644Y-109067978D01*
X145064709Y-109067978D01*
X145064711Y-109067978D01*
X145161740Y-109041979D01*
X145248733Y-108991754D01*
X145319762Y-108920725D01*
X145319762Y-108920724D01*
X147791180Y-106449305D01*
X147798391Y-106442094D01*
X147820847Y-106398018D01*
X147821771Y-106396319D01*
X147827365Y-106386628D01*
X147841406Y-106362311D01*
X147843018Y-106356292D01*
X147845799Y-106349048D01*
X147853253Y-106334420D01*
X147853253Y-106334419D01*
X147853254Y-106334418D01*
X147859275Y-106296395D01*
X147860078Y-106292624D01*
X147867405Y-106265284D01*
X147867405Y-106247991D01*
X147867862Y-106242187D01*
X147872159Y-106215060D01*
X147872159Y-106215057D01*
X147867862Y-106187929D01*
X147867405Y-106182125D01*
X147867405Y-106164835D01*
X147867405Y-106164834D01*
X147860074Y-106137478D01*
X147859274Y-106133716D01*
X147853254Y-106095700D01*
X147845798Y-106081067D01*
X147843019Y-106073830D01*
X147841406Y-106067806D01*
X147821748Y-106033757D01*
X147820849Y-106032100D01*
X147805385Y-106001750D01*
X147798391Y-105988023D01*
X147791181Y-105980813D01*
X147791181Y-105980814D01*
X147791180Y-105980812D01*
X147720151Y-105909783D01*
X147720148Y-105909781D01*
X147718854Y-105908487D01*
X147718854Y-105908486D01*
X147712938Y-105902571D01*
X147712936Y-105902570D01*
X147668885Y-105880124D01*
X147667179Y-105879198D01*
X147633163Y-105859559D01*
X147633156Y-105859556D01*
X147627131Y-105857942D01*
X147619892Y-105855163D01*
X147605264Y-105847709D01*
X147567265Y-105841690D01*
X147563469Y-105840883D01*
X147536129Y-105833558D01*
X147518838Y-105833558D01*
X147513034Y-105833101D01*
X147485905Y-105828804D01*
X147485903Y-105828804D01*
X147458774Y-105833101D01*
X147452970Y-105833558D01*
X147435679Y-105833558D01*
X147408337Y-105840883D01*
X147404541Y-105841690D01*
X147376532Y-105846127D01*
X147366545Y-105847709D01*
X147366543Y-105847709D01*
X147366540Y-105847711D01*
X147351911Y-105855164D01*
X147344677Y-105857941D01*
X147338656Y-105859555D01*
X147338644Y-105859560D01*
X147304635Y-105879194D01*
X147302930Y-105880120D01*
X147258869Y-105902571D01*
X147258868Y-105902572D01*
X147251659Y-105909779D01*
X147251660Y-105909780D01*
X147251659Y-105909781D01*
X147251657Y-105909783D01*
X146058826Y-107102615D01*
X144867329Y-108294112D01*
X144841095Y-108304978D01*
X142997644Y-108304978D01*
X142991840Y-108304521D01*
X142964705Y-108300223D01*
X142964703Y-108300223D01*
X142937568Y-108304521D01*
X142931764Y-108304978D01*
X142914479Y-108304978D01*
X142887145Y-108312301D01*
X142883349Y-108313108D01*
X142861437Y-108316579D01*
X142845345Y-108319128D01*
X142845343Y-108319128D01*
X142845339Y-108319130D01*
X142830705Y-108326585D01*
X142823474Y-108329361D01*
X142817457Y-108330974D01*
X142817451Y-108330976D01*
X142783422Y-108350621D01*
X142781718Y-108351546D01*
X142737666Y-108373992D01*
X142730459Y-108381198D01*
X142730460Y-108381199D01*
X142730459Y-108381200D01*
X142730457Y-108381202D01*
X142659428Y-108452231D01*
X142659426Y-108452233D01*
X142659425Y-108452234D01*
X142659424Y-108452233D01*
X142652218Y-108459440D01*
X142629772Y-108503492D01*
X142628847Y-108505196D01*
X142609202Y-108539225D01*
X142609200Y-108539231D01*
X142607587Y-108545248D01*
X142604811Y-108552479D01*
X142597356Y-108567113D01*
X142597354Y-108567121D01*
X142591334Y-108605123D01*
X142590527Y-108608919D01*
X142583204Y-108636253D01*
X142583204Y-108653537D01*
X142582747Y-108659341D01*
X142578449Y-108686476D01*
X142578449Y-108686479D01*
X141176845Y-108686479D01*
X141174961Y-108674582D01*
X141174504Y-108668778D01*
X141174504Y-107343402D01*
X141185369Y-107317169D01*
X141878148Y-106624390D01*
X141878151Y-106624389D01*
X141949180Y-106553360D01*
X141999405Y-106466367D01*
X142025404Y-106369338D01*
X142025404Y-104850998D01*
X142025861Y-104845194D01*
X142030159Y-104818060D01*
X142030159Y-104818057D01*
X142025861Y-104790922D01*
X142025404Y-104785118D01*
X142025404Y-104767835D01*
X142018079Y-104740500D01*
X142018075Y-104740486D01*
X142017275Y-104736724D01*
X142011254Y-104698700D01*
X142003795Y-104684060D01*
X142001017Y-104676823D01*
X141999405Y-104670806D01*
X141999405Y-104670805D01*
X141979757Y-104636775D01*
X141978844Y-104635093D01*
X141956390Y-104591022D01*
X141949181Y-104583813D01*
X141949181Y-104583814D01*
X141949180Y-104583812D01*
X141878151Y-104512783D01*
X141878148Y-104512781D01*
X141876854Y-104511487D01*
X141876854Y-104511486D01*
X141870941Y-104505573D01*
X141870226Y-104505209D01*
X141826854Y-104483110D01*
X141825182Y-104482202D01*
X141791156Y-104462557D01*
X141785137Y-104460944D01*
X141777899Y-104458166D01*
X141777298Y-104457860D01*
X141763263Y-104450709D01*
X141763261Y-104450708D01*
X141763260Y-104450708D01*
X141725258Y-104444689D01*
X141721461Y-104443882D01*
X141694129Y-104436559D01*
X141676844Y-104436559D01*
X141671040Y-104436102D01*
X141643905Y-104431804D01*
X141643903Y-104431804D01*
X141616768Y-104436102D01*
X141610964Y-104436559D01*
X141593679Y-104436559D01*
X141566345Y-104443882D01*
X141562549Y-104444689D01*
X141540637Y-104448160D01*
X141524545Y-104450709D01*
X141524543Y-104450709D01*
X141524539Y-104450711D01*
X141509905Y-104458166D01*
X141502674Y-104460942D01*
X141496657Y-104462555D01*
X141496651Y-104462557D01*
X141462622Y-104482202D01*
X141460918Y-104483127D01*
X141416866Y-104505573D01*
X141409659Y-104512779D01*
X141409660Y-104512780D01*
X141409659Y-104512781D01*
X141409657Y-104512783D01*
X141338628Y-104583812D01*
X141338626Y-104583814D01*
X141338625Y-104583815D01*
X141338624Y-104583814D01*
X141331418Y-104591021D01*
X141308972Y-104635073D01*
X141308047Y-104636777D01*
X141288402Y-104670806D01*
X141288400Y-104670812D01*
X141286787Y-104676829D01*
X141284011Y-104684060D01*
X141276556Y-104698694D01*
X141276554Y-104698698D01*
X141276554Y-104698700D01*
X141275423Y-104705841D01*
X141270534Y-104736704D01*
X141269727Y-104740500D01*
X141262404Y-104767834D01*
X141262404Y-104785118D01*
X141261947Y-104790922D01*
X141257649Y-104818057D01*
X141257649Y-104818060D01*
X141261947Y-104845194D01*
X141262404Y-104850998D01*
X141262404Y-106145722D01*
X141251538Y-106171955D01*
X140624711Y-106798782D01*
X140624711Y-106798783D01*
X140564738Y-106858756D01*
X140538504Y-106869622D01*
X140512270Y-106858756D01*
X140501404Y-106832522D01*
X140501404Y-103467449D01*
X140512269Y-103441216D01*
X141187180Y-102766306D01*
X141187180Y-102766304D01*
X141190234Y-102763251D01*
X141190236Y-102763248D01*
X141194391Y-102759094D01*
X141216859Y-102714995D01*
X141217744Y-102713366D01*
X141237406Y-102679312D01*
X141239018Y-102673292D01*
X141241799Y-102666047D01*
X141249253Y-102651419D01*
X141249254Y-102651418D01*
X141255275Y-102613396D01*
X141256078Y-102609625D01*
X141263405Y-102582284D01*
X141263405Y-102564991D01*
X141263862Y-102559187D01*
X141268159Y-102532060D01*
X141268159Y-102532057D01*
X141263862Y-102504929D01*
X141263405Y-102499125D01*
X141263405Y-102481835D01*
X141263405Y-102481834D01*
X141256074Y-102454478D01*
X141255274Y-102450716D01*
X141249254Y-102412700D01*
X141241798Y-102398067D01*
X141239019Y-102390830D01*
X141237406Y-102384806D01*
X141217748Y-102350757D01*
X141216849Y-102349100D01*
X141196597Y-102309353D01*
X141194391Y-102305023D01*
X141187181Y-102297813D01*
X141187181Y-102297814D01*
X141187180Y-102297812D01*
X141116151Y-102226783D01*
X141116148Y-102226781D01*
X141114854Y-102225487D01*
X141114854Y-102225486D01*
X141108938Y-102219571D01*
X141108936Y-102219570D01*
X141064885Y-102197124D01*
X141063179Y-102196198D01*
X141029163Y-102176559D01*
X141029156Y-102176556D01*
X141023131Y-102174942D01*
X141015892Y-102172163D01*
X141001264Y-102164709D01*
X140963265Y-102158690D01*
X140959469Y-102157883D01*
X140932129Y-102150558D01*
X140914838Y-102150558D01*
X140909034Y-102150101D01*
X140881905Y-102145804D01*
X140881903Y-102145804D01*
X140854774Y-102150101D01*
X140848970Y-102150558D01*
X140831679Y-102150558D01*
X140804337Y-102157883D01*
X140800541Y-102158690D01*
X140772532Y-102163127D01*
X140762545Y-102164709D01*
X140762543Y-102164709D01*
X140762540Y-102164711D01*
X140747911Y-102172164D01*
X140740677Y-102174941D01*
X140734656Y-102176555D01*
X140734644Y-102176560D01*
X140700635Y-102196194D01*
X140698930Y-102197120D01*
X140654869Y-102219571D01*
X140654868Y-102219572D01*
X140647659Y-102226779D01*
X140647660Y-102226780D01*
X140647659Y-102226781D01*
X140647657Y-102226783D01*
X139885657Y-102988783D01*
X139885656Y-102988782D01*
X139814628Y-103059811D01*
X139812149Y-103064105D01*
X139764403Y-103146805D01*
X139738404Y-103243834D01*
X139738404Y-111670406D01*
X138746861Y-111670406D01*
X138746861Y-100278081D01*
X138757727Y-100251847D01*
X138783961Y-100240981D01*
X140996365Y-100240981D01*
X141022599Y-100251847D01*
X141030641Y-100263884D01*
X141035330Y-100275204D01*
X141035332Y-100275208D01*
X141092633Y-100332508D01*
X141092634Y-100332508D01*
X142799392Y-102039266D01*
X142810258Y-102065500D01*
X142810258Y-107149234D01*
X142799392Y-107175467D01*
X142750115Y-107224744D01*
X142750115Y-107224745D01*
X142695255Y-107332414D01*
X142695253Y-107332420D01*
X142676349Y-107451776D01*
X142676349Y-107451779D01*
X142695253Y-107571135D01*
X142695255Y-107571141D01*
X142750114Y-107678809D01*
X142750115Y-107678810D01*
X142750117Y-107678813D01*
X142835569Y-107764265D01*
X142835571Y-107764266D01*
X142835572Y-107764267D01*
X142943240Y-107819126D01*
X142943243Y-107819127D01*
X142943245Y-107819128D01*
X142992681Y-107826958D01*
X143062603Y-107838033D01*
X143062604Y-107838033D01*
X143062605Y-107838033D01*
X143108580Y-107830751D01*
X143181963Y-107819128D01*
X143219336Y-107800086D01*
X143289635Y-107764267D01*
X143289634Y-107764267D01*
X143289639Y-107764265D01*
X143375091Y-107678813D01*
X143429954Y-107571137D01*
X143448859Y-107451778D01*
X143429954Y-107332419D01*
X143429953Y-107332417D01*
X143429952Y-107332414D01*
X143389885Y-107253778D01*
X143387657Y-107225470D01*
X143406098Y-107203879D01*
X143428744Y-107200292D01*
X143470478Y-107206902D01*
X143496557Y-107211033D01*
X143496558Y-107211033D01*
X143496559Y-107211033D01*
X143541726Y-107203879D01*
X143615917Y-107192128D01*
X143723593Y-107137265D01*
X143809045Y-107051813D01*
X143863908Y-106944137D01*
X143877431Y-106858756D01*
X143882813Y-106824779D01*
X143882813Y-106824776D01*
X143868643Y-106735313D01*
X143863908Y-106705419D01*
X143863907Y-106705417D01*
X143863906Y-106705414D01*
X143809047Y-106597746D01*
X143809046Y-106597745D01*
X143809045Y-106597743D01*
X143723593Y-106512291D01*
X143723590Y-106512289D01*
X143723589Y-106512288D01*
X143615921Y-106457429D01*
X143615915Y-106457427D01*
X143604554Y-106455628D01*
X143580343Y-106440790D01*
X143573259Y-106418988D01*
X143573258Y-101924998D01*
X143573259Y-101924996D01*
X143573258Y-101894326D01*
X143584124Y-101868094D01*
X143610357Y-101857227D01*
X143636591Y-101868093D01*
X143636592Y-101868093D01*
X146149654Y-104381153D01*
X146160520Y-104407387D01*
X146160520Y-104656492D01*
X146149654Y-104682726D01*
X146140265Y-104689547D01*
X146137191Y-104691113D01*
X146051733Y-104776571D01*
X145996874Y-104884239D01*
X145996872Y-104884245D01*
X145977968Y-105003601D01*
X145977968Y-105003604D01*
X145996872Y-105122960D01*
X145996874Y-105122966D01*
X146051733Y-105230634D01*
X146051734Y-105230635D01*
X146051736Y-105230638D01*
X146137188Y-105316090D01*
X146137190Y-105316091D01*
X146137191Y-105316092D01*
X146244859Y-105370951D01*
X146244862Y-105370952D01*
X146244864Y-105370953D01*
X146297829Y-105379342D01*
X146364222Y-105389858D01*
X146364223Y-105389858D01*
X146364224Y-105389858D01*
X146406392Y-105383179D01*
X146483582Y-105370953D01*
X146591258Y-105316090D01*
X146676710Y-105230638D01*
X146731573Y-105122962D01*
X146750478Y-105003603D01*
X146743241Y-104957914D01*
X146731573Y-104884245D01*
X146731571Y-104884239D01*
X146676712Y-104776571D01*
X146676711Y-104776570D01*
X146676710Y-104776568D01*
X146591258Y-104691116D01*
X146591255Y-104691114D01*
X146591254Y-104691113D01*
X146588175Y-104689544D01*
X146569735Y-104667952D01*
X146567920Y-104656494D01*
X146567920Y-104378440D01*
X146578786Y-104352207D01*
X146605020Y-104341341D01*
X146631254Y-104352207D01*
X148702531Y-106423484D01*
X148702530Y-106423484D01*
X148734675Y-106455628D01*
X148759833Y-106480786D01*
X148834701Y-106511797D01*
X149896749Y-106511797D01*
X149922983Y-106522663D01*
X149929804Y-106532052D01*
X149931374Y-106535132D01*
X150016826Y-106620584D01*
X150016828Y-106620585D01*
X150016829Y-106620586D01*
X150124497Y-106675445D01*
X150124500Y-106675446D01*
X150124502Y-106675447D01*
X150184181Y-106684899D01*
X150243860Y-106694352D01*
X150243861Y-106694352D01*
X150243862Y-106694352D01*
X150283647Y-106688050D01*
X150363220Y-106675447D01*
X150470896Y-106620584D01*
X150556348Y-106535132D01*
X150611211Y-106427456D01*
X150630116Y-106308097D01*
X150628267Y-106296426D01*
X150620134Y-106245073D01*
X150611967Y-106193513D01*
X150618595Y-106165904D01*
X150642806Y-106151068D01*
X150654411Y-106151068D01*
X150659361Y-106151852D01*
X150778720Y-106132947D01*
X150886396Y-106078084D01*
X150971848Y-105992632D01*
X151026711Y-105884956D01*
X151039314Y-105805383D01*
X151045616Y-105765598D01*
X151045616Y-105765595D01*
X151030075Y-105667476D01*
X151026711Y-105646238D01*
X151026710Y-105646236D01*
X151026709Y-105646233D01*
X150971850Y-105538565D01*
X150971849Y-105538564D01*
X150971848Y-105538562D01*
X150886396Y-105453110D01*
X150886393Y-105453108D01*
X150886392Y-105453107D01*
X150778724Y-105398248D01*
X150778718Y-105398246D01*
X150659362Y-105379342D01*
X150659358Y-105379342D01*
X150593273Y-105389808D01*
X150565663Y-105383179D01*
X150561236Y-105379399D01*
X150197050Y-105015216D01*
X150197050Y-105015215D01*
X150139748Y-104957914D01*
X150087246Y-104936167D01*
X150087246Y-104936166D01*
X150064879Y-104926902D01*
X149983841Y-104926903D01*
X148846477Y-104926903D01*
X148820243Y-104916037D01*
X147673248Y-103769042D01*
X153106749Y-103769042D01*
X153111047Y-103796176D01*
X153111504Y-103801980D01*
X153111504Y-103819266D01*
X153118825Y-103846595D01*
X153119632Y-103850389D01*
X153125654Y-103888403D01*
X153133109Y-103903033D01*
X153135887Y-103910268D01*
X153137501Y-103916290D01*
X153137505Y-103916298D01*
X153157143Y-103950316D01*
X153158069Y-103952021D01*
X153180515Y-103996073D01*
X153180516Y-103996075D01*
X153186431Y-104001991D01*
X153186432Y-104001991D01*
X153187726Y-104003285D01*
X153187728Y-104003288D01*
X154459538Y-105275098D01*
X154470404Y-105301331D01*
X154470404Y-106555118D01*
X154469947Y-106560922D01*
X154465649Y-106588057D01*
X154465649Y-106588060D01*
X154469947Y-106615194D01*
X154470404Y-106620998D01*
X154470404Y-106638283D01*
X154477727Y-106665616D01*
X154478534Y-106669413D01*
X154484553Y-106707415D01*
X154484553Y-106707416D01*
X154484554Y-106707418D01*
X154491705Y-106721453D01*
X154492011Y-106722054D01*
X154494789Y-106729292D01*
X154496402Y-106735311D01*
X154516047Y-106769337D01*
X154516955Y-106771009D01*
X154539054Y-106814381D01*
X154539418Y-106815096D01*
X154545331Y-106821009D01*
X154545332Y-106821009D01*
X154546626Y-106822303D01*
X154546628Y-106822306D01*
X154617657Y-106893335D01*
X154617659Y-106893336D01*
X154617658Y-106893336D01*
X154624867Y-106900545D01*
X154624869Y-106900546D01*
X154668948Y-106923004D01*
X154670620Y-106923912D01*
X154704650Y-106943560D01*
X154710671Y-106945173D01*
X154717908Y-106947951D01*
X154732545Y-106955409D01*
X154770569Y-106961430D01*
X154774331Y-106962230D01*
X154801679Y-106969559D01*
X154818964Y-106969559D01*
X154824768Y-106970016D01*
X154851903Y-106974314D01*
X154851904Y-106974314D01*
X154851905Y-106974314D01*
X154879040Y-106970016D01*
X154884844Y-106969559D01*
X154902130Y-106969559D01*
X154917732Y-106965377D01*
X154929465Y-106962233D01*
X154933233Y-106961431D01*
X154971263Y-106955409D01*
X154985896Y-106947952D01*
X154993139Y-106945172D01*
X154999158Y-106943560D01*
X155033176Y-106923918D01*
X155034868Y-106922999D01*
X155078939Y-106900546D01*
X155083093Y-106896391D01*
X155083096Y-106896389D01*
X155086149Y-106893335D01*
X155086151Y-106893335D01*
X155157180Y-106822306D01*
X155157180Y-106822304D01*
X155160234Y-106819251D01*
X155160236Y-106819248D01*
X155164391Y-106815094D01*
X155186844Y-106771023D01*
X155187768Y-106769323D01*
X155207405Y-106735313D01*
X155209018Y-106729292D01*
X155211798Y-106722050D01*
X155219253Y-106707420D01*
X155219253Y-106707419D01*
X155219254Y-106707418D01*
X155225276Y-106669388D01*
X155226079Y-106665617D01*
X155233404Y-106638284D01*
X155233404Y-106620998D01*
X155233861Y-106615194D01*
X155238159Y-106588060D01*
X155238159Y-106588057D01*
X155233861Y-106560922D01*
X155233404Y-106555118D01*
X155233404Y-105181163D01*
X155233405Y-105181150D01*
X155233405Y-105077717D01*
X155220924Y-105031138D01*
X155207406Y-104980688D01*
X155157180Y-104893694D01*
X153727251Y-103463765D01*
X153727248Y-103463763D01*
X153725954Y-103462469D01*
X153725954Y-103462468D01*
X153720038Y-103456553D01*
X153720036Y-103456552D01*
X153675984Y-103434106D01*
X153674279Y-103433180D01*
X153640261Y-103413542D01*
X153640253Y-103413538D01*
X153634231Y-103411924D01*
X153626996Y-103409146D01*
X153612366Y-103401691D01*
X153574352Y-103395669D01*
X153570558Y-103394862D01*
X153543230Y-103387541D01*
X153543229Y-103387541D01*
X153525944Y-103387541D01*
X153520140Y-103387084D01*
X153493005Y-103382786D01*
X153493003Y-103382786D01*
X153465868Y-103387084D01*
X153460064Y-103387541D01*
X153442778Y-103387541D01*
X153415449Y-103394862D01*
X153411655Y-103395669D01*
X153373645Y-103401691D01*
X153373639Y-103401693D01*
X153359005Y-103409149D01*
X153351769Y-103411927D01*
X153345750Y-103413539D01*
X153345746Y-103413541D01*
X153311736Y-103433176D01*
X153310031Y-103434102D01*
X153265968Y-103456554D01*
X153265967Y-103456555D01*
X153258759Y-103463761D01*
X153258760Y-103463762D01*
X153258759Y-103463763D01*
X153258757Y-103463765D01*
X153187728Y-103534794D01*
X153187726Y-103534796D01*
X153187725Y-103534797D01*
X153187724Y-103534796D01*
X153180518Y-103542004D01*
X153180517Y-103542005D01*
X153158065Y-103586068D01*
X153157139Y-103587773D01*
X153137504Y-103621783D01*
X153137502Y-103621787D01*
X153135890Y-103627806D01*
X153133112Y-103635042D01*
X153125656Y-103649676D01*
X153125654Y-103649682D01*
X153119632Y-103687692D01*
X153118825Y-103691486D01*
X153111504Y-103718814D01*
X153111504Y-103736100D01*
X153111047Y-103741904D01*
X153106749Y-103769039D01*
X153106749Y-103769042D01*
X147673248Y-103769042D01*
X146354895Y-102450689D01*
X143820064Y-99915859D01*
X144414802Y-99915859D01*
X144414806Y-99915859D01*
X144417070Y-99916732D01*
G37*
%TD.AperFunction*%
%TD*%
%TA.AperFunction,Conductor*%
%TO.N,GND*%
G36*
X143624859Y-99171310D02*
G01*
X143629965Y-99173217D01*
X143761239Y-99262382D01*
X143763122Y-99263983D01*
X144176271Y-99699944D01*
X144176279Y-99699952D01*
X144176286Y-99699959D01*
X144470923Y-99966659D01*
X144470923Y-99969200D01*
X144077223Y-100167319D01*
X144001341Y-100097135D01*
X143400762Y-99496557D01*
X143398801Y-99493935D01*
X143370177Y-99441421D01*
X143368776Y-99435920D01*
X143368776Y-99220158D01*
X143370129Y-99214746D01*
X143384187Y-99188387D01*
X143390694Y-99182890D01*
X143475351Y-99154670D01*
X143480334Y-99154161D01*
X143624859Y-99171310D01*
G37*
%TD.AperFunction*%
%TD*%
M02*
