%TF.GenerationSoftware,KiCad,Pcbnew,8.99.0-unknown-4e8e14ae3a~177~ubuntu22.04.1*%
%TF.CreationDate,2024-03-17T18:05:33+10:00*%
%TF.ProjectId,AVEFlex,41564546-6c65-4782-9e6b-696361645f70,rev?*%
%TF.SameCoordinates,Original*%
%TF.FileFunction,Paste,Top*%
%TF.FilePolarity,Positive*%
%FSLAX46Y46*%
G04 Gerber Fmt 4.6, Leading zero omitted, Abs format (unit mm)*
G04 Created by KiCad (PCBNEW 8.99.0-unknown-4e8e14ae3a~177~ubuntu22.04.1) date 2024-03-17 18:05:33*
%MOMM*%
%LPD*%
G01*
G04 APERTURE LIST*
G04 Aperture macros list*
%AMRoundRect*
0 Rectangle with rounded corners*
0 $1 Rounding radius*
0 $2 $3 $4 $5 $6 $7 $8 $9 X,Y pos of 4 corners*
0 Add a 4 corners polygon primitive as box body*
4,1,4,$2,$3,$4,$5,$6,$7,$8,$9,$2,$3,0*
0 Add four circle primitives for the rounded corners*
1,1,$1+$1,$2,$3*
1,1,$1+$1,$4,$5*
1,1,$1+$1,$6,$7*
1,1,$1+$1,$8,$9*
0 Add four rect primitives between the rounded corners*
20,1,$1+$1,$2,$3,$4,$5,0*
20,1,$1+$1,$4,$5,$6,$7,0*
20,1,$1+$1,$6,$7,$8,$9,0*
20,1,$1+$1,$8,$9,$2,$3,0*%
G04 Aperture macros list end*
%ADD10RoundRect,0.101600X0.198400X0.248400X-0.198400X0.248400X-0.198400X-0.248400X0.198400X-0.248400X0*%
%ADD11RoundRect,0.101600X-0.198400X-0.248400X0.198400X-0.248400X0.198400X0.248400X-0.198400X0.248400X0*%
%ADD12RoundRect,0.101600X0.248400X-0.198400X0.248400X0.198400X-0.248400X0.198400X-0.248400X-0.198400X0*%
%ADD13RoundRect,0.101600X-0.248400X0.198400X-0.248400X-0.198400X0.248400X-0.198400X0.248400X0.198400X0*%
%ADD14RoundRect,0.150000X0.350000X0.350000X-0.350000X0.350000X-0.350000X-0.350000X0.350000X-0.350000X0*%
%ADD15RoundRect,0.600000X-1.400000X1.400000X-1.400000X-1.400000X1.400000X-1.400000X1.400000X1.400000X0*%
%ADD16RoundRect,0.101600X-0.498400X0.048400X-0.498400X-0.048400X0.498400X-0.048400X0.498400X0.048400X0*%
%ADD17RoundRect,0.101600X-0.048400X0.498400X-0.048400X-0.498400X0.048400X-0.498400X0.048400X0.498400X0*%
G04 APERTURE END LIST*
D10*
%TO.C,C2*%
X149143358Y-102082597D03*
X150143358Y-102082597D03*
%TD*%
D11*
%TO.C,R5*%
X156113904Y-107866059D03*
X155113904Y-107866059D03*
%TD*%
%TO.C,R4*%
X156113904Y-109263059D03*
X155113904Y-109263059D03*
%TD*%
%TO.C,R3*%
X156113904Y-112057059D03*
X155113904Y-112057059D03*
%TD*%
%TO.C,R2*%
X156113904Y-113454059D03*
X155113904Y-113454059D03*
%TD*%
D12*
%TO.C,C11*%
X154851904Y-104572059D03*
X154851904Y-105572059D03*
%TD*%
D13*
%TO.C,C5*%
X139739898Y-112163481D03*
X139739898Y-111163481D03*
%TD*%
D14*
%TO.C,C1*%
X144805558Y-118135403D03*
X146505558Y-118135403D03*
%TD*%
D10*
%TO.C,C3*%
X145587361Y-102082603D03*
X146587361Y-102082603D03*
%TD*%
D13*
%TO.C,C4*%
X139740448Y-107799519D03*
X139740448Y-106799519D03*
%TD*%
D10*
%TO.C,C6*%
X144977758Y-116763800D03*
X145977758Y-116763800D03*
%TD*%
D13*
%TO.C,C7*%
X148119361Y-118076603D03*
X148119361Y-117076603D03*
%TD*%
D10*
%TO.C,C8*%
X149772167Y-116881513D03*
X150772167Y-116881513D03*
%TD*%
%TO.C,C9*%
X153409564Y-114792641D03*
X154409564Y-114792641D03*
%TD*%
D11*
%TO.C,C10*%
X156113904Y-110660059D03*
X155113904Y-110660059D03*
%TD*%
D13*
%TO.C,R1*%
X152370142Y-117212700D03*
X152370142Y-116212700D03*
%TD*%
D15*
%TO.C,IC1*%
X147611358Y-109702603D03*
D16*
X153311358Y-105952603D03*
X153311358Y-106452603D03*
X153311358Y-106952603D03*
X153311358Y-107452603D03*
X153311358Y-107952603D03*
X153311358Y-108452603D03*
X153311358Y-108952603D03*
X153311358Y-109452603D03*
X153311358Y-109952603D03*
X153311358Y-110452603D03*
X153311358Y-110952603D03*
X153311358Y-111452603D03*
X153311358Y-111952603D03*
X153311358Y-112452603D03*
X153311358Y-112952603D03*
X153311358Y-113452603D03*
D17*
X151361358Y-115402603D03*
X150861358Y-115402603D03*
X150361358Y-115402603D03*
X149861358Y-115402603D03*
X149361358Y-115402603D03*
X148861358Y-115402603D03*
X148361358Y-115402603D03*
X147861358Y-115402603D03*
X147361358Y-115402603D03*
X146861358Y-115402603D03*
X146361358Y-115402603D03*
X145861358Y-115402603D03*
X145361358Y-115402603D03*
X144861358Y-115402603D03*
X144361358Y-115402603D03*
X143861358Y-115402603D03*
D16*
X141911358Y-113452603D03*
X141911358Y-112952603D03*
X141911358Y-112452603D03*
X141911358Y-111952603D03*
X141911358Y-111452603D03*
X141911358Y-110952603D03*
X141911358Y-110452603D03*
X141911358Y-109952603D03*
X141911358Y-109452603D03*
X141911358Y-108952603D03*
X141911358Y-108452603D03*
X141911358Y-107952603D03*
X141911358Y-107452603D03*
X141911358Y-106952603D03*
X141911358Y-106452603D03*
X141911358Y-105952603D03*
D17*
X143861358Y-104002603D03*
X144361358Y-104002603D03*
X144861358Y-104002603D03*
X145361358Y-104002603D03*
X145861358Y-104002603D03*
X146361358Y-104002603D03*
X146861358Y-104002603D03*
X147361358Y-104002603D03*
X147861358Y-104002603D03*
X148361358Y-104002603D03*
X148861358Y-104002603D03*
X149361358Y-104002603D03*
X149861358Y-104002603D03*
X150361358Y-104002603D03*
X150861358Y-104002603D03*
X151361358Y-104002603D03*
%TD*%
M02*
