%TF.GenerationSoftware,KiCad,Pcbnew,8.99.0-unknown-4e8e14ae3a~177~ubuntu22.04.1*%
%TF.CreationDate,2024-03-17T18:05:33+10:00*%
%TF.ProjectId,AVEFlex,41564546-6c65-4782-9e6b-696361645f70,rev?*%
%TF.SameCoordinates,Original*%
%TF.FileFunction,Copper,L1,Top*%
%TF.FilePolarity,Positive*%
%FSLAX46Y46*%
G04 Gerber Fmt 4.6, Leading zero omitted, Abs format (unit mm)*
G04 Created by KiCad (PCBNEW 8.99.0-unknown-4e8e14ae3a~177~ubuntu22.04.1) date 2024-03-17 18:05:33*
%MOMM*%
%LPD*%
G01*
G04 APERTURE LIST*
G04 Aperture macros list*
%AMRoundRect*
0 Rectangle with rounded corners*
0 $1 Rounding radius*
0 $2 $3 $4 $5 $6 $7 $8 $9 X,Y pos of 4 corners*
0 Add a 4 corners polygon primitive as box body*
4,1,4,$2,$3,$4,$5,$6,$7,$8,$9,$2,$3,0*
0 Add four circle primitives for the rounded corners*
1,1,$1+$1,$2,$3*
1,1,$1+$1,$4,$5*
1,1,$1+$1,$6,$7*
1,1,$1+$1,$8,$9*
0 Add four rect primitives between the rounded corners*
20,1,$1+$1,$2,$3,$4,$5,0*
20,1,$1+$1,$4,$5,$6,$7,0*
20,1,$1+$1,$6,$7,$8,$9,0*
20,1,$1+$1,$8,$9,$2,$3,0*%
G04 Aperture macros list end*
%TA.AperFunction,SMDPad,CuDef*%
%ADD10RoundRect,0.101600X0.198400X0.248400X-0.198400X0.248400X-0.198400X-0.248400X0.198400X-0.248400X0*%
%TD*%
%TA.AperFunction,SMDPad,CuDef*%
%ADD11RoundRect,0.101600X-0.198400X-0.248400X0.198400X-0.248400X0.198400X0.248400X-0.198400X0.248400X0*%
%TD*%
%TA.AperFunction,SMDPad,CuDef*%
%ADD12RoundRect,0.101600X0.248400X-0.198400X0.248400X0.198400X-0.248400X0.198400X-0.248400X-0.198400X0*%
%TD*%
%TA.AperFunction,SMDPad,CuDef*%
%ADD13RoundRect,0.101600X-0.248400X0.198400X-0.248400X-0.198400X0.248400X-0.198400X0.248400X0.198400X0*%
%TD*%
%TA.AperFunction,SMDPad,CuDef*%
%ADD14RoundRect,0.150000X0.350000X0.350000X-0.350000X0.350000X-0.350000X-0.350000X0.350000X-0.350000X0*%
%TD*%
%TA.AperFunction,SMDPad,CuDef*%
%ADD15RoundRect,0.600000X-1.400000X1.400000X-1.400000X-1.400000X1.400000X-1.400000X1.400000X1.400000X0*%
%TD*%
%TA.AperFunction,SMDPad,CuDef*%
%ADD16RoundRect,0.101600X-0.498400X0.048400X-0.498400X-0.048400X0.498400X-0.048400X0.498400X0.048400X0*%
%TD*%
%TA.AperFunction,SMDPad,CuDef*%
%ADD17RoundRect,0.101600X-0.048400X0.498400X-0.048400X-0.498400X0.048400X-0.498400X0.048400X0.498400X0*%
%TD*%
%TA.AperFunction,SMDPad,CuDef*%
%ADD18RoundRect,0.500000X-0.000010X-0.000010X0.000010X-0.000010X0.000010X0.000010X-0.000010X0.000010X0*%
%TD*%
%TA.AperFunction,SMDPad,CuDef*%
%ADD19RoundRect,0.500000X-0.000014X0.000000X0.000000X-0.000014X0.000014X0.000000X0.000000X0.000014X0*%
%TD*%
%TA.AperFunction,SMDPad,CuDef*%
%ADD20RoundRect,0.150000X-0.350000X-0.350000X0.350000X-0.350000X0.350000X0.350000X-0.350000X0.350000X0*%
%TD*%
%TA.AperFunction,SMDPad,CuDef*%
%ADD21RoundRect,0.101600X-0.215900X-0.533400X0.215900X-0.533400X0.215900X0.533400X-0.215900X0.533400X0*%
%TD*%
%TA.AperFunction,ViaPad*%
%ADD22C,0.508000*%
%TD*%
%TA.AperFunction,Conductor*%
%ADD23C,0.152400*%
%TD*%
%TA.AperFunction,Conductor*%
%ADD24C,0.304800*%
%TD*%
%TA.AperFunction,Conductor*%
%ADD25C,0.203200*%
%TD*%
%TA.AperFunction,Conductor*%
%ADD26C,0.609600*%
%TD*%
%TA.AperFunction,Conductor*%
%ADD27C,0.254000*%
%TD*%
%TA.AperFunction,Conductor*%
%ADD28C,1.016000*%
%TD*%
G04 APERTURE END LIST*
D10*
%TO.P,C2,2*%
%TO.N,GND*%
X149143358Y-102082597D03*
%TO.P,C2,1*%
%TO.N,+1V8*%
X150143358Y-102082597D03*
%TD*%
D11*
%TO.P,R5,2*%
%TO.N,GND*%
X156113904Y-107866059D03*
%TO.P,R5,1*%
%TO.N,B/PR*%
X155113904Y-107866059D03*
%TD*%
%TO.P,R4,2*%
%TO.N,GND*%
X156113904Y-109263059D03*
%TO.P,R4,1*%
%TO.N,G/PB*%
X155113904Y-109263059D03*
%TD*%
%TO.P,R3,2*%
%TO.N,GND*%
X156113904Y-112057059D03*
%TO.P,R3,1*%
%TO.N,R/Y*%
X155113904Y-112057059D03*
%TD*%
%TO.P,R2,2*%
%TO.N,GND*%
X156113904Y-113454059D03*
%TO.P,R2,1*%
%TO.N,CVBS*%
X155113904Y-113454059D03*
%TD*%
D12*
%TO.P,C11,2*%
%TO.N,GND*%
X154851904Y-104572059D03*
%TO.P,C11,1*%
%TO.N,+3V3*%
X154851904Y-105572059D03*
%TD*%
D13*
%TO.P,C5,2*%
%TO.N,GND*%
X139739898Y-112163481D03*
%TO.P,C5,1*%
%TO.N,+1V8*%
X139739898Y-111163481D03*
%TD*%
D14*
%TO.P,C1,2*%
%TO.N,GND*%
X144805558Y-118135403D03*
%TO.P,C1,1*%
%TO.N,N$5*%
X146505558Y-118135403D03*
%TD*%
D10*
%TO.P,C3,2*%
%TO.N,GND*%
X145587361Y-102082603D03*
%TO.P,C3,1*%
%TO.N,+1V8*%
X146587361Y-102082603D03*
%TD*%
D13*
%TO.P,C4,2*%
%TO.N,GND*%
X139740448Y-107799519D03*
%TO.P,C4,1*%
%TO.N,+1V8*%
X139740448Y-106799519D03*
%TD*%
D10*
%TO.P,C6,2*%
%TO.N,GND*%
X144977758Y-116763800D03*
%TO.P,C6,1*%
%TO.N,+3V3*%
X145977758Y-116763800D03*
%TD*%
D13*
%TO.P,C7,2*%
%TO.N,GND*%
X148119361Y-118076603D03*
%TO.P,C7,1*%
%TO.N,+3V3*%
X148119361Y-117076603D03*
%TD*%
D10*
%TO.P,C8,2*%
%TO.N,GND*%
X149772167Y-116881513D03*
%TO.P,C8,1*%
%TO.N,+3V3*%
X150772167Y-116881513D03*
%TD*%
%TO.P,C9,2*%
%TO.N,GND*%
X153409564Y-114792641D03*
%TO.P,C9,1*%
%TO.N,+3V3*%
X154409564Y-114792641D03*
%TD*%
D11*
%TO.P,C10,2*%
%TO.N,GND*%
X156113904Y-110660059D03*
%TO.P,C10,1*%
%TO.N,+3V3*%
X155113904Y-110660059D03*
%TD*%
D13*
%TO.P,R1,2*%
%TO.N,GND*%
X152370142Y-117212700D03*
%TO.P,R1,1*%
%TO.N,IREF*%
X152370142Y-116212700D03*
%TD*%
D15*
%TO.P,IC1,P$1*%
%TO.N,GND*%
X147611358Y-109702603D03*
D16*
%TO.P,IC1,64*%
%TO.N,VD0*%
X153311358Y-105952603D03*
%TO.P,IC1,63*%
%TO.N,GND*%
X153311358Y-106452603D03*
%TO.P,IC1,62*%
%TO.N,N/C*%
X153311358Y-106952603D03*
%TO.P,IC1,61*%
%TO.N,GND*%
X153311358Y-107452603D03*
%TO.P,IC1,60*%
%TO.N,+3V3*%
X153311358Y-107952603D03*
%TO.P,IC1,59*%
%TO.N,B/PR*%
X153311358Y-108452603D03*
%TO.P,IC1,58*%
%TO.N,GND*%
X153311358Y-108952603D03*
%TO.P,IC1,57*%
%TO.N,G/PB*%
X153311358Y-109452603D03*
%TO.P,IC1,56*%
%TO.N,+3V3*%
X153311358Y-109952603D03*
%TO.P,IC1,55*%
%TO.N,GND*%
X153311358Y-110452603D03*
%TO.P,IC1,54*%
%TO.N,R/Y*%
X153311358Y-110952603D03*
%TO.P,IC1,53*%
%TO.N,+3V3*%
X153311358Y-111452603D03*
%TO.P,IC1,52*%
%TO.N,GND*%
X153311358Y-111952603D03*
%TO.P,IC1,51*%
%TO.N,CVBS*%
X153311358Y-112452603D03*
%TO.P,IC1,50*%
%TO.N,+3V3*%
X153311358Y-112952603D03*
%TO.P,IC1,49*%
%TO.N,GND*%
X153311358Y-113452603D03*
D17*
%TO.P,IC1,48*%
X151361358Y-115402603D03*
%TO.P,IC1,47*%
%TO.N,IREF*%
X150861358Y-115402603D03*
%TO.P,IC1,46*%
%TO.N,+3V3*%
X150361358Y-115402603D03*
%TO.P,IC1,45*%
%TO.N,GND*%
X149861358Y-115402603D03*
%TO.P,IC1,44*%
X149361358Y-115402603D03*
%TO.P,IC1,43*%
%TO.N,LEFT*%
X148861358Y-115402603D03*
%TO.P,IC1,42*%
%TO.N,GND*%
X148361358Y-115402603D03*
%TO.P,IC1,41*%
%TO.N,+3V3*%
X147861358Y-115402603D03*
%TO.P,IC1,40*%
%TO.N,N$5*%
X147361358Y-115402603D03*
%TO.P,IC1,39*%
%TO.N,RIGHT*%
X146861358Y-115402603D03*
%TO.P,IC1,38*%
%TO.N,GND*%
X146361358Y-115402603D03*
%TO.P,IC1,37*%
%TO.N,+3V3*%
X145861358Y-115402603D03*
%TO.P,IC1,36*%
%TO.N,GND*%
X145361358Y-115402603D03*
%TO.P,IC1,35*%
X144861358Y-115402603D03*
%TO.P,IC1,34*%
%TO.N,V*%
X144361358Y-115402603D03*
%TO.P,IC1,33*%
%TO.N,H*%
X143861358Y-115402603D03*
D16*
%TO.P,IC1,32*%
%TO.N,GND*%
X141911358Y-113452603D03*
%TO.P,IC1,31*%
%TO.N,C*%
X141911358Y-112952603D03*
%TO.P,IC1,30*%
%TO.N,GND*%
X141911358Y-112452603D03*
%TO.P,IC1,29*%
%TO.N,D*%
X141911358Y-111952603D03*
%TO.P,IC1,28*%
%TO.N,GND*%
X141911358Y-111452603D03*
%TO.P,IC1,27*%
%TO.N,W*%
X141911358Y-110952603D03*
%TO.P,IC1,26*%
%TO.N,+1V8*%
X141911358Y-110452603D03*
%TO.P,IC1,25*%
%TO.N,M*%
X141911358Y-109952603D03*
%TO.P,IC1,24*%
%TO.N,GND*%
X141911358Y-109452603D03*
%TO.P,IC1,23*%
%TO.N,+1V8*%
X141911358Y-108952603D03*
%TO.P,IC1,22*%
X141911358Y-108452603D03*
%TO.P,IC1,21*%
%TO.N,GND*%
X141911358Y-107952603D03*
%TO.P,IC1,20*%
%TO.N,SCL*%
X141911358Y-107452603D03*
%TO.P,IC1,19*%
%TO.N,SDA*%
X141911358Y-106952603D03*
%TO.P,IC1,18*%
%TO.N,GND*%
X141911358Y-106452603D03*
%TO.P,IC1,17*%
X141911358Y-105952603D03*
D17*
%TO.P,IC1,16*%
X143861358Y-104002603D03*
%TO.P,IC1,15*%
X144361358Y-104002603D03*
%TO.P,IC1,14*%
%TO.N,VD7*%
X144861358Y-104002603D03*
%TO.P,IC1,13*%
%TO.N,VD6*%
X145361358Y-104002603D03*
%TO.P,IC1,12*%
%TO.N,GND*%
X145861358Y-104002603D03*
%TO.P,IC1,11*%
%TO.N,CSEL*%
X146361358Y-104002603D03*
%TO.P,IC1,10*%
%TO.N,GND*%
X146861358Y-104002603D03*
%TO.P,IC1,9*%
%TO.N,+1V8*%
X147361358Y-104002603D03*
%TO.P,IC1,8*%
%TO.N,54MHZ*%
X147861358Y-104002603D03*
%TO.P,IC1,7*%
%TO.N,VD5*%
X148361358Y-104002603D03*
%TO.P,IC1,6*%
%TO.N,VD4*%
X148861358Y-104002603D03*
%TO.P,IC1,5*%
%TO.N,GND*%
X149361358Y-104002603D03*
%TO.P,IC1,4*%
%TO.N,+1V8*%
X149861358Y-104002603D03*
%TO.P,IC1,3*%
%TO.N,VD3*%
X150361358Y-104002603D03*
%TO.P,IC1,2*%
%TO.N,VD2*%
X150861358Y-104002603D03*
%TO.P,IC1,1*%
%TO.N,VD1*%
X151361358Y-104002603D03*
%TD*%
D18*
%TO.P,TP1,TP*%
%TO.N,R/Y*%
X157518904Y-112946059D03*
%TD*%
%TO.P,TP2,TP*%
%TO.N,G/PB*%
X157518904Y-109644059D03*
%TD*%
%TO.P,TP3,TP*%
%TO.N,B/PR*%
X157518904Y-106469059D03*
%TD*%
%TO.P,TP4,TP*%
%TO.N,H*%
X141515364Y-119100600D03*
%TD*%
%TO.P,TP5,TP*%
%TO.N,V*%
X143039361Y-119100597D03*
%TD*%
%TO.P,TP6,TP*%
%TO.N,CVBS*%
X157518904Y-116375059D03*
%TD*%
%TO.P,TP7,TP*%
%TO.N,RIGHT*%
X150406904Y-119169059D03*
%TD*%
%TO.P,TP8,TP*%
%TO.N,LEFT*%
X151930904Y-119169059D03*
%TD*%
%TO.P,TP11,TP*%
%TO.N,GND*%
X157518904Y-114089059D03*
%TD*%
%TO.P,TP12,TP*%
%TO.N,GND*%
X157518904Y-110787059D03*
%TD*%
%TO.P,TP13,TP*%
%TO.N,GND*%
X157518904Y-107612059D03*
%TD*%
%TO.P,TP15,TP*%
%TO.N,GND*%
X139803401Y-117802656D03*
%TD*%
%TO.P,TP16,TP*%
%TO.N,GND*%
X153454904Y-119169059D03*
%TD*%
D19*
%TO.P,TP18,TP*%
%TO.N,GND*%
X157518904Y-117518059D03*
%TD*%
D20*
%TO.P,TP21,TP*%
%TO.N,+1V8*%
X139865904Y-104818059D03*
%TD*%
%TO.P,TP20,TP*%
%TO.N,+3V3*%
X139865904Y-102532059D03*
%TD*%
%TO.P,TP22,TP*%
%TO.N,GND*%
X139865904Y-103675059D03*
%TD*%
D21*
%TO.P,JP1,2*%
%TO.N,+3V3*%
X153480304Y-102278059D03*
%TO.P,JP1,1*%
%TO.N,MODE*%
X152667504Y-102278059D03*
%TD*%
D22*
%TO.N,MODE*%
X144931358Y-92830603D03*
%TO.N,N$22*%
X141931358Y-95830603D03*
%TO.N,N$12*%
X141931358Y-91830600D03*
%TO.N,N$11*%
X142931358Y-91830600D03*
%TO.N,N$8*%
X144931361Y-91830600D03*
%TO.N,SCL*%
X143062604Y-107451778D03*
X143931358Y-91830600D03*
%TO.N,SDA*%
X143496558Y-106824778D03*
X142931358Y-92830600D03*
%TO.N,M*%
X143931358Y-90830597D03*
%TO.N,W*%
X141931358Y-90830603D03*
%TO.N,D*%
X142931358Y-90830603D03*
%TO.N,54MHZ*%
X147524108Y-102677850D03*
X141931361Y-93830603D03*
%TO.N,CSEL*%
X146364223Y-105003603D03*
X142931358Y-93830600D03*
%TO.N,VD7*%
X141931358Y-92830600D03*
%TO.N,VD6*%
X143931358Y-92830600D03*
%TO.N,VD5*%
X143931358Y-93830603D03*
%TO.N,VD4*%
X142931361Y-94830600D03*
%TO.N,VD3*%
X149770358Y-105765600D03*
X141931361Y-94830600D03*
%TO.N,VD2*%
X143931358Y-94830600D03*
%TO.N,VD1*%
X150659361Y-105765597D03*
X142931358Y-95830597D03*
%TO.N,VD0*%
X150243861Y-106308097D03*
X140931358Y-95830600D03*
%TO.N,C*%
X144931361Y-90830603D03*
%TO.N,+1V8*%
X147485904Y-106215059D03*
X142964704Y-108686478D03*
X140793004Y-108701719D03*
X141643904Y-104818059D03*
X140858958Y-107104059D03*
X140790464Y-110454319D03*
%TO.N,+3V3*%
X154851904Y-106588059D03*
X151930904Y-111447459D03*
X151928364Y-112953678D03*
X151925823Y-109915841D03*
X151930904Y-107942259D03*
X153493004Y-103769041D03*
X140881904Y-102532059D03*
X145862845Y-114221141D03*
X147866904Y-114216059D03*
X150361186Y-114210981D03*
%TO.N,GND*%
X152189986Y-115282856D03*
X152311904Y-104310059D03*
X139398545Y-101274759D03*
X147480823Y-118706778D03*
X140800883Y-111398938D03*
X156955023Y-118396900D03*
X152720845Y-118295300D03*
X154978904Y-102405059D03*
X140737126Y-116959256D03*
X151245104Y-112572678D03*
X149103886Y-113545497D03*
X147267467Y-113558197D03*
X145095767Y-119230016D03*
X152891023Y-114078900D03*
X151250183Y-110154600D03*
X154336286Y-112112941D03*
X154305804Y-110649900D03*
X154305804Y-108922700D03*
X156498436Y-114290222D03*
X156574636Y-111369222D03*
X156604504Y-108551859D03*
X145166886Y-105338763D03*
X147155704Y-105427659D03*
X148466342Y-101670997D03*
X143475242Y-108046400D03*
X143180604Y-109428159D03*
X143970545Y-102994341D03*
X139479826Y-108706797D03*
X141290845Y-104058600D03*
X141290845Y-103296600D03*
X143931358Y-95830597D03*
X155838036Y-104511222D03*
X140782845Y-103677600D03*
X140836186Y-106215059D03*
X151938526Y-106949119D03*
X144293126Y-117213256D03*
X150531364Y-117733959D03*
X140475764Y-112971200D03*
X148905764Y-118683919D03*
X146468358Y-109702603D03*
X147611361Y-110845603D03*
X148754361Y-109702603D03*
X147611358Y-108559600D03*
X147611358Y-109702603D03*
%TD*%
D23*
%TO.N,MODE*%
X150490636Y-100837791D02*
X151930904Y-102278059D01*
X151930904Y-102278059D02*
X152667504Y-102278059D01*
X144278883Y-99060878D02*
X145675008Y-100457003D01*
X144278883Y-96930363D02*
X144278883Y-99060878D01*
X144931358Y-96277888D02*
X144278883Y-96930363D01*
X144931358Y-92830603D02*
X144931358Y-96277888D01*
X147416086Y-100457003D02*
X147796873Y-100837791D01*
X145675008Y-100457003D02*
X147416086Y-100457003D01*
X147796873Y-100837791D02*
X150490636Y-100837791D01*
D24*
%TO.N,N$5*%
X147361361Y-117357259D02*
X146505558Y-118135403D01*
X147361358Y-115402603D02*
X147361361Y-117357259D01*
D25*
%TO.N,IREF*%
X152351642Y-116231200D02*
X151126833Y-116231200D01*
X152351642Y-116231200D02*
X152370142Y-116212700D01*
X150860839Y-115965206D02*
X151126833Y-116231200D01*
X150860839Y-115403122D02*
X150860839Y-115965206D01*
X150861358Y-115402603D02*
X150860839Y-115403122D01*
D23*
%TO.N,LEFT*%
X151099092Y-118337247D02*
X149471811Y-118337244D01*
X148861358Y-117726791D02*
X148861358Y-115402603D01*
X149471811Y-118337244D02*
X148861358Y-117726791D01*
X151930904Y-119169059D02*
X151099092Y-118337247D01*
%TO.N,RIGHT*%
X146861361Y-116976741D02*
X146861361Y-116545878D01*
X146462283Y-117375819D02*
X146861361Y-116976741D01*
X146031423Y-117375819D02*
X146462283Y-117375819D01*
X145715154Y-117692088D02*
X146031423Y-117375819D01*
X150249304Y-119326659D02*
X146346426Y-119326659D01*
X150406904Y-119169059D02*
X150249304Y-119326659D01*
X145715151Y-118695384D02*
X146346426Y-119326659D01*
X145715151Y-118695384D02*
X145715154Y-117692088D01*
X146861361Y-116545878D02*
X146861358Y-115402603D01*
%TO.N,B/PR*%
X156500742Y-106469059D02*
X157518904Y-106469059D01*
X155113904Y-107866059D02*
X155113904Y-107855897D01*
X156500742Y-106469059D02*
X155113904Y-107855897D01*
X154626220Y-107866059D02*
X155113904Y-107866059D01*
X154626220Y-107866059D02*
X154039676Y-108452603D01*
X153311358Y-108452603D02*
X154039676Y-108452603D01*
%TO.N,G/PB*%
X155113904Y-109263059D02*
X155825104Y-109974259D01*
X155029758Y-109263059D02*
G75*
G02*
X155173424Y-109322539I42J-203141D01*
G01*
X154704583Y-109263059D02*
X155029758Y-109263059D01*
X155113904Y-109263059D02*
X155173404Y-109322559D01*
X154515039Y-109452603D02*
X154704583Y-109263059D01*
X153311358Y-109452603D02*
X154515039Y-109452603D01*
X155825104Y-109974259D02*
X156480042Y-109974259D01*
X156810242Y-109644059D02*
X156480042Y-109974259D01*
X157518904Y-109644059D02*
X156810242Y-109644059D01*
%TO.N,R/Y*%
X156726423Y-112768259D02*
X155875908Y-112768259D01*
X155164708Y-112057059D02*
X155113904Y-112057059D01*
X155875908Y-112768259D02*
X155164708Y-112057059D01*
X156904223Y-112946059D02*
X156726423Y-112768259D01*
X157518904Y-112946059D02*
X156904223Y-112946059D01*
X154935595Y-112057059D02*
X153831139Y-110952606D01*
X155113904Y-112057059D02*
X154935595Y-112057059D01*
X153311358Y-110952603D02*
X153831139Y-110952606D01*
%TO.N,CVBS*%
X155113904Y-113970059D02*
X155113904Y-113454059D01*
X157518904Y-116375059D02*
X155113904Y-113970059D01*
X157335561Y-116375059D02*
X157518904Y-116375059D01*
X155030086Y-113454059D02*
X154028629Y-112452603D01*
X155030086Y-113454059D02*
X155113904Y-113454059D01*
X153311358Y-112452603D02*
X154028629Y-112452603D01*
%TO.N,V*%
X142512211Y-118159444D02*
X144361358Y-116310297D01*
X142512211Y-118573447D02*
X142512211Y-118159444D01*
X144361358Y-116310297D02*
X144361358Y-115402603D01*
X143039361Y-119100597D02*
X142512211Y-118573447D01*
%TO.N,H*%
X142113429Y-118127169D02*
X142113429Y-118566031D01*
X143861358Y-116379241D02*
X142113429Y-118127169D01*
X141578861Y-119100600D02*
X141515364Y-119100600D01*
X142113429Y-118566031D02*
X141578861Y-119100600D01*
X143861358Y-115402603D02*
X143861358Y-116379241D01*
%TO.N,SCL*%
X141911358Y-107452603D02*
X143061783Y-107452600D01*
X143061783Y-107452600D02*
X143062604Y-107451778D01*
%TO.N,SDA*%
X141911358Y-106952603D02*
X142942395Y-106952600D01*
X143069733Y-106824778D02*
X143496558Y-106824778D01*
X143069733Y-106824778D02*
X142942395Y-106952600D01*
%TO.N,M*%
X139203958Y-100015169D02*
X139203961Y-92875503D01*
X142482104Y-103293316D02*
X139203958Y-100015169D01*
X142482104Y-103293316D02*
X142482104Y-105044428D01*
X144029958Y-106592281D02*
X142482104Y-105044428D01*
X144029958Y-106664659D02*
X144029958Y-106592281D01*
X143394961Y-110083603D02*
X144029961Y-109448603D01*
X142892039Y-110083603D02*
X143394961Y-110083603D01*
X142761039Y-109952600D02*
X142892039Y-110083603D01*
X141911358Y-109952603D02*
X142761039Y-109952600D01*
X141731658Y-90347803D02*
X139203961Y-92875503D01*
X144029961Y-109448603D02*
X144029958Y-106664659D01*
X143448558Y-90347800D02*
X141731658Y-90347803D01*
X143931358Y-90830597D02*
X143448558Y-90347800D01*
%TO.N,W*%
X142786904Y-103167059D02*
X139508758Y-99888913D01*
X139508758Y-99888913D02*
X139508758Y-93117144D01*
X144334758Y-106466025D02*
X144334758Y-109580684D01*
X142786904Y-104918172D02*
X144334758Y-106466025D01*
X142786904Y-104918172D02*
X142786904Y-103167059D01*
X144334758Y-109580684D02*
X142962842Y-110952600D01*
X142962842Y-110952600D02*
X141911358Y-110952603D01*
X139508758Y-93117144D02*
X141795301Y-90830603D01*
X141931358Y-90830603D02*
X141795301Y-90830603D01*
%TO.N,D*%
X139813558Y-99735769D02*
X139813558Y-93263725D01*
X143117104Y-103039316D02*
X139813558Y-99735769D01*
X143117104Y-104817316D02*
X143117104Y-103039316D01*
X144639561Y-106339772D02*
X143117104Y-104817316D01*
X144639561Y-106412147D02*
X144639561Y-106339772D01*
X143293358Y-111053144D02*
X144639558Y-109706944D01*
X144639558Y-109706944D02*
X144639561Y-106412147D01*
X143293358Y-111571603D02*
X143293358Y-111053144D01*
X142912358Y-111952603D02*
X143293358Y-111571603D01*
X142931358Y-90830603D02*
X142448758Y-91313197D01*
X141911358Y-111952603D02*
X142912358Y-111952603D01*
X141764079Y-91313197D02*
X139813558Y-93263725D01*
X142448758Y-91313197D02*
X141764079Y-91313197D01*
%TO.N,54MHZ*%
X147861358Y-103015103D02*
X147861358Y-104002603D01*
X147524108Y-102677850D02*
X147861358Y-103015103D01*
%TO.N,CSEL*%
X146364220Y-104005466D02*
X146364223Y-105003603D01*
X146361358Y-104002603D02*
X146364220Y-104005466D01*
%TO.N,VD7*%
X141007358Y-93601544D02*
X141778301Y-92830600D01*
X141007361Y-94970603D02*
X141007358Y-93601544D01*
X140448758Y-95529203D02*
X141007361Y-94970603D01*
X141778301Y-92830600D02*
X141931358Y-92830600D01*
X140448758Y-96665500D02*
X140448758Y-95529203D01*
X142067358Y-98284097D02*
X140448758Y-96665500D01*
X142067358Y-100289119D02*
X142067358Y-98284097D01*
X144861358Y-103083119D02*
X142067358Y-100289119D01*
X144861358Y-104002603D02*
X144861358Y-103083119D01*
%TO.N,VD6*%
X141448758Y-96301000D02*
X142447539Y-97299784D01*
X141448764Y-93630700D02*
X141759861Y-93319603D01*
X143442358Y-93319600D02*
X141759861Y-93319603D01*
X142447539Y-97299784D02*
X142447539Y-100124263D01*
X141448764Y-93630700D02*
X141448758Y-96301000D01*
X143931358Y-92830600D02*
X143442358Y-93319600D01*
X142447539Y-100124263D02*
X145361358Y-103038081D01*
X145361358Y-104002603D02*
X145361358Y-103038081D01*
%TO.N,VD5*%
X144256026Y-101447600D02*
X146983979Y-101447600D01*
X142912358Y-100103938D02*
X144256026Y-101447600D01*
X142912358Y-97002600D02*
X142912358Y-100103938D01*
X142417058Y-96507303D02*
X142912358Y-97002600D01*
X142417058Y-94576897D02*
X142417058Y-96507303D01*
X142658358Y-94335597D02*
X142417058Y-94576897D01*
X143426358Y-94335603D02*
X142658358Y-94335597D01*
X143931358Y-93830603D02*
X143426358Y-94335603D01*
X146983979Y-101447600D02*
X148361358Y-102824981D01*
X148361358Y-104002603D02*
X148361358Y-102824981D01*
%TO.N,VD4*%
X143420358Y-100098863D02*
X143420358Y-95319600D01*
X144388095Y-101066600D02*
X143420358Y-100098863D01*
X143420358Y-95319600D02*
X142931361Y-94830600D01*
X147094995Y-101066603D02*
X144388095Y-101066600D01*
X148861358Y-102832966D02*
X147094995Y-101066603D01*
X148861358Y-104002603D02*
X148861358Y-102832966D01*
%TO.N,VD3*%
X149897364Y-105765600D02*
X149770358Y-105765600D01*
X150361361Y-105301603D02*
X149897364Y-105765600D01*
X150361358Y-104002603D02*
X150361361Y-105301603D01*
%TO.N,VD2*%
X147665751Y-101137719D02*
X150148814Y-101137722D01*
X150148814Y-101137722D02*
X150861358Y-101850259D01*
X144941817Y-100761803D02*
X147289833Y-100761803D01*
X147289833Y-100761803D02*
X147665751Y-101137719D01*
X143948676Y-96728284D02*
X144413958Y-96263000D01*
X143948676Y-99768663D02*
X143948676Y-96728284D01*
X143948676Y-99768663D02*
X144941817Y-100761803D01*
X144413961Y-95313203D02*
X143931358Y-94830600D01*
X144413958Y-96263000D02*
X144413961Y-95313203D01*
X150861358Y-101850259D02*
X150861358Y-104002603D01*
%TO.N,VD1*%
X150913358Y-105765597D02*
X150659361Y-105765597D01*
X151361358Y-105317597D02*
X150913358Y-105765597D01*
X151361358Y-104002603D02*
X151361358Y-105317597D01*
%TO.N,VD0*%
X151005861Y-106308097D02*
X151361361Y-105952603D01*
X150243861Y-106308097D02*
X151005861Y-106308097D01*
X153311358Y-105952603D02*
X151361361Y-105952603D01*
%TO.N,C*%
X143421904Y-102913059D02*
X143421904Y-104691059D01*
X140118358Y-99609513D02*
X143421904Y-102913059D01*
X140118358Y-93501363D02*
X140118358Y-99609513D01*
X143421904Y-104691059D02*
X144944361Y-106213516D01*
X142837358Y-112952600D02*
X143612658Y-112177300D01*
X143612658Y-112177300D02*
X143612658Y-111164900D01*
X143612658Y-111164900D02*
X144944361Y-109833203D01*
X144944361Y-106213516D02*
X144944361Y-109833203D01*
X144436358Y-91325600D02*
X144436358Y-92008100D01*
X141911358Y-112952603D02*
X142837358Y-112952600D01*
X144109158Y-92335300D02*
X141284423Y-92335300D01*
X141284423Y-92335300D02*
X140118358Y-93501363D01*
X144436358Y-92008100D02*
X144109158Y-92335300D01*
X144931361Y-90830603D02*
X144436358Y-91325600D01*
D24*
%TO.N,+1V8*%
X148014111Y-105326059D02*
X148374904Y-104965266D01*
X147993904Y-105326059D02*
X148014111Y-105326059D01*
X147993904Y-105707059D02*
X147485904Y-106215059D01*
X147993904Y-105326059D02*
X147993904Y-105707059D01*
X147635648Y-104967803D02*
X147993904Y-105326059D01*
X147635648Y-104965266D02*
X147635648Y-104967803D01*
X147361358Y-104690975D02*
X147635648Y-104965266D01*
X148374904Y-104965266D02*
X147635648Y-104965266D01*
X149624695Y-104965266D02*
X148374904Y-104965266D01*
X147361358Y-104002603D02*
X147361358Y-104690975D01*
X149624695Y-104965266D02*
X149861358Y-104728603D01*
X149861358Y-104002603D02*
X149861358Y-104728603D01*
X142698579Y-108952603D02*
X142964704Y-108686478D01*
X141911358Y-108952603D02*
X142698579Y-108952603D01*
X142730829Y-108452603D02*
X142964704Y-108686478D01*
X141911358Y-108452603D02*
X142730829Y-108452603D01*
X141043889Y-108952603D02*
X140793004Y-108701719D01*
X141911358Y-108952603D02*
X141043889Y-108952603D01*
X141042120Y-108452603D02*
X140793004Y-108701719D01*
X141911358Y-108452603D02*
X141042120Y-108452603D01*
X140449208Y-110454319D02*
X139740048Y-111163481D01*
X140790464Y-110454319D02*
X140449208Y-110454319D01*
X140867489Y-110452603D02*
X140828117Y-110491972D01*
X139740048Y-111163481D02*
X139739898Y-111163481D01*
X141911358Y-110452603D02*
X140867489Y-110452603D01*
D23*
X141910533Y-110451778D02*
X141911358Y-110452603D01*
D26*
X139865904Y-104818059D02*
X141643904Y-104818059D01*
D24*
X140109658Y-107104059D02*
X140858958Y-107104059D01*
X140109658Y-107104059D02*
X139805117Y-106799519D01*
X139740448Y-106799519D02*
X139805117Y-106799519D01*
X140828117Y-110491972D02*
X140790464Y-110454319D01*
X146666101Y-102580572D02*
X147361358Y-103275828D01*
X147361358Y-103275828D02*
X147361358Y-104002603D01*
X146666101Y-102161344D02*
X146666101Y-102580572D01*
X146587361Y-102082603D02*
X146666101Y-102161344D01*
X150151361Y-102090600D02*
X150143358Y-102082597D01*
X150151354Y-102750622D02*
X150151361Y-102090600D01*
X149861358Y-103040619D02*
X150151354Y-102750622D01*
X149861358Y-104002603D02*
X149861358Y-103040619D01*
%TO.N,+3V3*%
X145861358Y-116119572D02*
X145977758Y-116235972D01*
X145977758Y-116235972D02*
X145977758Y-116763800D01*
X145861358Y-115402603D02*
X145861358Y-116119572D01*
X150772167Y-116807850D02*
X150361358Y-116397041D01*
X150772167Y-116807850D02*
X150772167Y-116881513D01*
X150361358Y-115402603D02*
X150361358Y-116397041D01*
X151936048Y-111452603D02*
X151930904Y-111447459D01*
X153311358Y-111452603D02*
X151936048Y-111452603D01*
X153310283Y-112953678D02*
X151928364Y-112953678D01*
X153311358Y-112952603D02*
X153310283Y-112953678D01*
X151962586Y-109952603D02*
X151925823Y-109915841D01*
X153311358Y-109952603D02*
X151962586Y-109952603D01*
X151941248Y-107952603D02*
X151930904Y-107942259D01*
X153311358Y-107952603D02*
X151941248Y-107952603D01*
X154420104Y-113388022D02*
X154420104Y-114782100D01*
X153984686Y-112952603D02*
X154420104Y-113388022D01*
X154420104Y-114782100D02*
X154409564Y-114792641D01*
X153311358Y-112952603D02*
X153984686Y-112952603D01*
X153951073Y-107952603D02*
X154369304Y-107576100D01*
X153311358Y-107952603D02*
X153951073Y-107952603D01*
X154369304Y-107070659D02*
X154369304Y-107576100D01*
X154851904Y-105572059D02*
X154851904Y-106588059D01*
X154851904Y-106588059D02*
X154369304Y-107070659D01*
X153493004Y-102290759D02*
X153493004Y-103769041D01*
X153480304Y-102278059D02*
X153493004Y-102290759D01*
D26*
X139865904Y-102532059D02*
X140881904Y-102532059D01*
D24*
X145861358Y-114222628D02*
X145862845Y-114221141D01*
X145861358Y-115402603D02*
X145861358Y-114222628D01*
X147861358Y-114221606D02*
X147866904Y-114216059D01*
X147861358Y-115402603D02*
X147861358Y-114221606D01*
X150361358Y-114211153D02*
X150361186Y-114210981D01*
X150361358Y-115402603D02*
X150361358Y-114211153D01*
X148119361Y-116449222D02*
X148119361Y-117076603D01*
X148119361Y-116449222D02*
X147861361Y-116191213D01*
X147861358Y-115402603D02*
X147861361Y-116191213D01*
X155113904Y-110578609D02*
X154487895Y-109952603D01*
X155113904Y-110660059D02*
X155113904Y-110578609D01*
X153311358Y-109952603D02*
X154487895Y-109952603D01*
D27*
%TO.N,GND*%
X154434770Y-108551859D02*
X154034026Y-108952603D01*
X154676645Y-108551859D02*
X154434770Y-108551859D01*
X154235954Y-108758872D02*
X154135626Y-108859200D01*
X154667754Y-108758872D02*
X154235954Y-108758872D01*
X154676645Y-108551859D02*
X154874767Y-108551859D01*
X154305804Y-108922700D02*
X154676645Y-108551859D01*
X154874767Y-108551859D02*
X154983986Y-108551859D01*
X154667754Y-108758872D02*
X154874767Y-108551859D01*
X154374386Y-109052241D02*
X154667754Y-108758872D01*
X154667754Y-108697909D02*
X154667754Y-108758872D01*
X154138164Y-109052241D02*
X154374386Y-109052241D01*
X154044764Y-108958841D02*
X154138164Y-109052241D01*
X154044764Y-108950063D02*
X154044764Y-108958841D01*
X154542026Y-112145963D02*
X154542026Y-112443138D01*
X154336286Y-112112941D02*
X154509004Y-112112941D01*
X154542026Y-112145963D02*
X154509004Y-112112941D01*
X154351208Y-111952603D02*
X154524245Y-112125641D01*
X154051489Y-111952603D02*
X154351208Y-111952603D01*
X154540754Y-112317409D02*
X154540754Y-112441869D01*
X154336286Y-112112941D02*
X154540754Y-112317409D01*
X154175948Y-111952603D02*
X154336286Y-112112941D01*
X153311358Y-111952603D02*
X154175948Y-111952603D01*
X154305804Y-110456863D02*
X153767323Y-110456856D01*
X154305804Y-110649900D02*
X154305804Y-110456863D01*
X154354061Y-110649900D02*
X154421373Y-110582588D01*
X154305804Y-110649900D02*
X154354061Y-110649900D01*
X154421373Y-110582588D02*
X154326123Y-110487338D01*
X154547104Y-110708319D02*
X154421373Y-110582588D01*
X154547104Y-111091859D02*
X154547104Y-110708319D01*
X153311358Y-110452603D02*
X154225348Y-110452603D01*
X154108508Y-110452603D02*
X154305804Y-110649900D01*
X153311358Y-110452603D02*
X154108508Y-110452603D01*
D28*
X139865904Y-103675059D02*
X139441726Y-103675059D01*
X140782845Y-103675059D02*
X140782845Y-103677600D01*
X139865904Y-103675059D02*
X140782845Y-103675059D01*
D25*
X155486904Y-111333159D02*
X156574636Y-111369222D01*
D27*
X154983986Y-108551859D02*
X156604504Y-108551859D01*
X154978904Y-108556941D02*
X154983986Y-108551859D01*
D24*
X153706364Y-105199059D02*
X153454904Y-105199059D01*
X154216904Y-105709600D02*
X153706364Y-105199059D01*
X152416361Y-111952603D02*
X152184904Y-112184059D01*
X153311358Y-111952603D02*
X152416361Y-111952603D01*
X143505723Y-108076881D02*
X143475242Y-108046400D01*
X143505723Y-108076881D02*
X143505723Y-109103041D01*
X143180604Y-109428159D02*
X143505723Y-109103041D01*
X143156161Y-109452603D02*
X143180604Y-109428159D01*
X141911358Y-109452603D02*
X143156161Y-109452603D01*
X142850589Y-107952603D02*
X142944386Y-108046400D01*
X142944386Y-108046400D02*
X143475242Y-108046400D01*
X141911358Y-107952603D02*
X142850589Y-107952603D01*
D25*
X142177304Y-103525200D02*
X141905523Y-103253419D01*
X142177304Y-104431981D02*
X142177304Y-103525200D01*
X142177304Y-104431981D02*
X142177304Y-105277797D01*
X142177304Y-104431981D02*
X141803923Y-104058600D01*
X141290845Y-104058600D02*
X141803923Y-104058600D01*
D24*
X154216904Y-105709600D02*
X154216904Y-105207059D01*
X154216904Y-106265859D02*
X154216904Y-105709600D01*
X154216904Y-105207059D02*
X154851904Y-104572059D01*
X154030161Y-106452603D02*
X154216904Y-106265859D01*
X153311358Y-106452603D02*
X154030161Y-106452603D01*
X152442011Y-107452603D02*
X151938526Y-106949119D01*
X153311358Y-107452603D02*
X152442011Y-107452603D01*
X152435042Y-106452603D02*
X151938526Y-106949119D01*
X153311358Y-106452603D02*
X152435042Y-106452603D01*
X151548186Y-110452603D02*
X151250183Y-110154600D01*
X153311358Y-110452603D02*
X151548186Y-110452603D01*
D27*
X154897626Y-112798741D02*
X155423026Y-112798741D01*
X154540754Y-112441869D02*
X154897626Y-112798741D01*
X154051489Y-111952603D02*
X154540754Y-112441869D01*
X156078345Y-113454059D02*
X155423026Y-112798741D01*
X156078345Y-113454059D02*
X156113904Y-113454059D01*
X153311358Y-111952603D02*
X154051489Y-111952603D01*
X154630926Y-111175681D02*
X154788404Y-111333159D01*
X154547104Y-111091859D02*
X154610604Y-111155359D01*
X153907848Y-110452603D02*
X154547104Y-111091859D01*
X155486904Y-111333159D02*
X155700264Y-111333159D01*
X154788404Y-111333159D02*
X155486904Y-111333159D01*
X153311358Y-110452603D02*
X153907848Y-110452603D01*
X154667754Y-108697909D02*
X154808723Y-108556941D01*
X154506464Y-108859200D02*
X154667754Y-108697909D01*
X155306564Y-108556941D02*
X154978904Y-108556941D01*
X154808723Y-108556941D02*
X154978904Y-108556941D01*
X154135626Y-108859200D02*
X154506464Y-108859200D01*
X154044764Y-108950063D02*
X154042223Y-108952603D01*
X154135626Y-108859200D02*
X154044764Y-108950063D01*
X154034026Y-108952603D02*
X154042223Y-108952603D01*
X153311358Y-108952603D02*
X154034026Y-108952603D01*
D24*
X147096083Y-105368038D02*
X146866183Y-104713938D01*
X147155704Y-105427659D02*
X147096083Y-105368038D01*
X146866486Y-104007731D02*
X146861358Y-104002603D01*
X146866486Y-104007731D02*
X146866183Y-104713938D01*
X145861358Y-104768747D02*
X145636786Y-104993319D01*
X145861358Y-104002603D02*
X145861358Y-104768747D01*
D25*
X145861358Y-103429319D02*
X146116670Y-103174006D01*
X145861358Y-104002603D02*
X145861358Y-103429319D01*
X146313098Y-103174006D02*
X146320045Y-103167059D01*
X146116670Y-103174006D02*
X146313098Y-103174006D01*
X146909242Y-103372334D02*
X146861358Y-103324450D01*
X146909242Y-103954719D02*
X146909242Y-103372334D01*
X146861358Y-104002603D02*
X146909242Y-103954719D01*
X146349851Y-103174006D02*
X146342904Y-103167059D01*
X146606045Y-103174006D02*
X146349851Y-103174006D01*
X146813617Y-103381578D02*
X146606045Y-103174006D01*
X146813617Y-103954863D02*
X146813617Y-103381578D01*
X146861358Y-104002603D02*
X146813617Y-103954863D01*
X146320045Y-103167059D02*
X145861358Y-103167059D01*
X146342904Y-103167059D02*
X146320045Y-103167059D01*
X146703967Y-103167059D02*
X146342904Y-103167059D01*
X146861358Y-103324450D02*
X146703967Y-103167059D01*
X146192673Y-102661203D02*
X145682529Y-102151059D01*
X145682529Y-102151059D02*
X145587361Y-102151059D01*
X146198111Y-102661203D02*
X146192673Y-102661203D01*
X146586936Y-103050028D02*
X146198111Y-102661203D01*
X146703967Y-103167059D02*
X146586936Y-103050028D01*
X146861358Y-104002603D02*
X146861358Y-103324450D01*
D24*
X147155704Y-105427659D02*
X147155704Y-105312522D01*
X144361358Y-103385153D02*
X143970545Y-102994341D01*
X144361358Y-104002603D02*
X144361358Y-103385153D01*
X143861358Y-103103528D02*
X143970545Y-102994341D01*
X143861358Y-104002603D02*
X143861358Y-103103528D01*
D26*
X141290845Y-104058600D02*
X140782845Y-103677600D01*
X141290845Y-103296600D02*
X141290845Y-104058600D01*
X140782845Y-103677600D02*
X141290845Y-103296600D01*
D23*
X146586936Y-103050028D02*
X146322967Y-102786059D01*
X146861358Y-103324450D02*
X146586936Y-103050028D01*
X146322967Y-102786059D02*
X145861358Y-102786059D01*
D24*
X147681361Y-109702603D02*
X147611358Y-109702603D01*
D26*
X139865904Y-103675059D02*
X139868445Y-103677600D01*
X140782845Y-103677600D02*
X139868445Y-103677600D01*
D24*
X141073729Y-106452603D02*
X141911358Y-106452603D01*
X140836186Y-106215059D02*
X141073729Y-106452603D01*
X141098642Y-105952603D02*
X140836186Y-106215059D01*
X141911358Y-105952603D02*
X141098642Y-105952603D01*
X140541726Y-107952603D02*
X140388642Y-107799519D01*
X140388642Y-107799519D02*
X139740448Y-107799519D01*
X141911358Y-107952603D02*
X140541726Y-107952603D01*
X148119361Y-118076603D02*
X148300908Y-118076603D01*
X148905764Y-118683919D02*
X148300908Y-118076603D01*
X145587358Y-102481763D02*
X145861358Y-102755763D01*
X145861358Y-103167059D02*
X145861358Y-104002603D01*
X145861358Y-102786059D02*
X145861358Y-103167059D01*
X145861358Y-102755763D02*
X145861358Y-102786059D01*
X145587361Y-102151059D02*
X145587358Y-102481763D01*
X145587361Y-102082603D02*
X145587361Y-102151059D01*
X149143358Y-102494866D02*
X149143358Y-102082597D01*
X149356276Y-102707788D02*
X149143358Y-102494866D01*
X149361358Y-104002603D02*
X149356276Y-103997522D01*
X149356276Y-102707788D02*
X149356276Y-103997522D01*
%TD*%
%TA.AperFunction,Conductor*%
%TO.N,GND*%
G36*
X146018111Y-99895887D02*
G01*
X146105197Y-99940259D01*
X146109460Y-99942431D01*
X146262978Y-99992312D01*
X146422409Y-100017561D01*
X146503117Y-100017560D01*
X146511403Y-100017560D01*
X146521307Y-100017560D01*
X146521311Y-100017559D01*
X153126191Y-100017559D01*
X153133073Y-100017559D01*
X153135865Y-100017637D01*
X153352760Y-100029815D01*
X153358306Y-100030439D01*
X153571110Y-100066592D01*
X153576523Y-100067828D01*
X153783930Y-100127578D01*
X153789201Y-100129422D01*
X153988612Y-100212017D01*
X153993641Y-100214439D01*
X154182549Y-100318841D01*
X154187268Y-100321807D01*
X154209418Y-100337522D01*
X154363290Y-100446696D01*
X154367656Y-100450177D01*
X154529252Y-100594581D01*
X154531283Y-100596501D01*
X157676018Y-103741236D01*
X157677946Y-103743276D01*
X157823294Y-103906006D01*
X157826778Y-103910381D01*
X157865959Y-103965688D01*
X157952085Y-104087264D01*
X157955063Y-104092014D01*
X157969662Y-104118505D01*
X158059689Y-104281875D01*
X158062115Y-104286932D01*
X158144723Y-104487348D01*
X158146565Y-104492646D01*
X158206112Y-104701075D01*
X158207347Y-104706547D01*
X158243079Y-104920364D01*
X158243690Y-104925939D01*
X158255250Y-105144272D01*
X158255320Y-105147069D01*
X158255274Y-105161002D01*
X158255323Y-105161318D01*
X158255207Y-106148186D01*
X158240617Y-106183398D01*
X158205401Y-106197980D01*
X158170189Y-106183390D01*
X158162795Y-106173952D01*
X158076913Y-106031887D01*
X157956076Y-105911050D01*
X157809833Y-105822642D01*
X157809830Y-105822641D01*
X157809828Y-105822640D01*
X157646683Y-105771802D01*
X157611229Y-105768580D01*
X157575777Y-105765359D01*
X157575775Y-105765359D01*
X157462033Y-105765359D01*
X157391125Y-105771802D01*
X157391123Y-105771803D01*
X157227979Y-105822640D01*
X157227975Y-105822642D01*
X157106843Y-105895870D01*
X157081729Y-105911052D01*
X156960897Y-106031884D01*
X156960895Y-106031886D01*
X156960895Y-106031887D01*
X156880349Y-106165124D01*
X156849651Y-106187712D01*
X156837733Y-106189159D01*
X156463892Y-106189159D01*
X156392706Y-106208233D01*
X156392700Y-106208236D01*
X156328880Y-106245082D01*
X155276188Y-107297773D01*
X155240974Y-107312359D01*
X154869927Y-107312359D01*
X154869917Y-107312360D01*
X154844397Y-107315320D01*
X154795319Y-107336990D01*
X154757214Y-107337870D01*
X154729647Y-107311548D01*
X154725404Y-107291433D01*
X154725404Y-107238788D01*
X154739990Y-107203574D01*
X154883219Y-107060345D01*
X154914354Y-107047448D01*
X154914184Y-107046266D01*
X154917703Y-107045759D01*
X154917711Y-107045759D01*
X155043995Y-107008679D01*
X155154716Y-106937523D01*
X155240906Y-106838055D01*
X155295580Y-106718334D01*
X155314311Y-106588059D01*
X155310002Y-106558093D01*
X155298100Y-106475313D01*
X155295580Y-106457784D01*
X155240906Y-106338063D01*
X155220166Y-106314128D01*
X155208004Y-106281517D01*
X155208004Y-106089089D01*
X155222590Y-106053875D01*
X155237687Y-106043533D01*
X155275829Y-106026693D01*
X155356538Y-105945984D01*
X155402642Y-105841568D01*
X155405604Y-105816038D01*
X155405603Y-105328081D01*
X155405426Y-105326559D01*
X155404824Y-105321366D01*
X155402642Y-105302550D01*
X155356538Y-105198134D01*
X155275829Y-105117425D01*
X155275828Y-105117424D01*
X155171417Y-105071322D01*
X155171414Y-105071321D01*
X155171413Y-105071321D01*
X155145883Y-105068359D01*
X154557927Y-105068359D01*
X154557917Y-105068360D01*
X154532397Y-105071320D01*
X154427979Y-105117424D01*
X154347269Y-105198134D01*
X154301167Y-105302545D01*
X154301166Y-105302551D01*
X154298204Y-105328078D01*
X154298204Y-105816035D01*
X154298205Y-105816045D01*
X154301165Y-105841565D01*
X154301165Y-105841567D01*
X154301166Y-105841568D01*
X154311775Y-105865595D01*
X154347269Y-105945983D01*
X154347270Y-105945984D01*
X154427979Y-106026693D01*
X154466119Y-106043533D01*
X154492441Y-106071098D01*
X154495804Y-106089089D01*
X154495804Y-106281517D01*
X154483641Y-106314129D01*
X154462902Y-106338063D01*
X154462901Y-106338063D01*
X154408229Y-106457781D01*
X154408227Y-106457787D01*
X154398773Y-106523540D01*
X154384694Y-106551666D01*
X154160797Y-106775562D01*
X154125583Y-106790148D01*
X154090369Y-106775562D01*
X154080026Y-106760463D01*
X154065992Y-106728678D01*
X153985282Y-106647968D01*
X153880871Y-106601866D01*
X153880868Y-106601865D01*
X153880867Y-106601865D01*
X153855337Y-106598903D01*
X152767381Y-106598903D01*
X152767371Y-106598904D01*
X152741851Y-106601864D01*
X152637433Y-106647968D01*
X152556723Y-106728678D01*
X152510621Y-106833089D01*
X152510620Y-106833095D01*
X152507658Y-106858622D01*
X152507658Y-107046579D01*
X152507659Y-107046589D01*
X152510619Y-107072109D01*
X152556723Y-107176527D01*
X152637433Y-107257237D01*
X152741572Y-107303219D01*
X152741849Y-107303341D01*
X152767379Y-107306303D01*
X153855336Y-107306302D01*
X153880867Y-107303341D01*
X153943289Y-107275778D01*
X153981394Y-107274899D01*
X154008961Y-107301221D01*
X154013204Y-107321336D01*
X154013204Y-107395357D01*
X153998618Y-107430571D01*
X153996723Y-107432369D01*
X153828604Y-107583715D01*
X153795285Y-107596503D01*
X152254108Y-107596503D01*
X152227184Y-107588597D01*
X152123001Y-107521642D01*
X152122997Y-107521640D01*
X152122995Y-107521639D01*
X151996711Y-107484559D01*
X151865097Y-107484559D01*
X151738813Y-107521639D01*
X151738811Y-107521639D01*
X151738806Y-107521642D01*
X151628092Y-107592794D01*
X151628090Y-107592795D01*
X151541905Y-107692258D01*
X151541901Y-107692263D01*
X151487229Y-107811981D01*
X151487227Y-107811988D01*
X151468497Y-107942257D01*
X151468497Y-107942260D01*
X151487227Y-108072529D01*
X151487229Y-108072536D01*
X151541901Y-108192254D01*
X151541905Y-108192259D01*
X151628090Y-108291722D01*
X151628092Y-108291723D01*
X151738806Y-108362875D01*
X151738807Y-108362875D01*
X151738813Y-108362879D01*
X151865097Y-108399959D01*
X151865098Y-108399959D01*
X151996710Y-108399959D01*
X151996711Y-108399959D01*
X152122995Y-108362879D01*
X152194995Y-108316607D01*
X152221917Y-108308703D01*
X152457858Y-108308703D01*
X152493072Y-108323289D01*
X152507658Y-108358503D01*
X152507658Y-108546579D01*
X152507659Y-108546589D01*
X152510619Y-108572109D01*
X152556723Y-108676527D01*
X152556724Y-108676528D01*
X152637433Y-108757237D01*
X152741849Y-108803341D01*
X152767379Y-108806303D01*
X153855336Y-108806302D01*
X153880867Y-108803341D01*
X153985283Y-108757237D01*
X153995431Y-108747089D01*
X154030645Y-108732503D01*
X154076526Y-108732503D01*
X154147713Y-108713428D01*
X154211538Y-108676579D01*
X154593488Y-108294628D01*
X154628701Y-108280043D01*
X154663915Y-108294629D01*
X154739979Y-108370693D01*
X154844395Y-108416797D01*
X154869925Y-108419759D01*
X155357882Y-108419758D01*
X155383413Y-108416797D01*
X155487829Y-108370693D01*
X155568538Y-108289984D01*
X155614642Y-108185568D01*
X155617604Y-108160038D01*
X155617603Y-107768661D01*
X155632188Y-107733449D01*
X156602094Y-106763545D01*
X156637308Y-106748959D01*
X156837733Y-106748959D01*
X156872947Y-106763545D01*
X156880347Y-106772989D01*
X156960895Y-106906231D01*
X157081732Y-107027068D01*
X157227975Y-107115476D01*
X157391127Y-107166316D01*
X157462031Y-107172759D01*
X157575776Y-107172758D01*
X157646681Y-107166316D01*
X157809833Y-107115476D01*
X157956076Y-107027068D01*
X158076913Y-106906231D01*
X158162716Y-106764295D01*
X158193415Y-106741708D01*
X158231097Y-106747443D01*
X158253686Y-106778143D01*
X158255133Y-106790067D01*
X158254837Y-109322573D01*
X158240247Y-109357785D01*
X158205031Y-109372367D01*
X158169819Y-109357777D01*
X158162422Y-109348335D01*
X158076913Y-109206887D01*
X157956076Y-109086050D01*
X157809833Y-108997642D01*
X157809830Y-108997641D01*
X157809828Y-108997640D01*
X157646683Y-108946802D01*
X157610838Y-108943545D01*
X157575777Y-108940359D01*
X157575775Y-108940359D01*
X157462033Y-108940359D01*
X157391125Y-108946802D01*
X157391123Y-108946803D01*
X157227979Y-108997640D01*
X157227975Y-108997642D01*
X157139409Y-109051183D01*
X157081729Y-109086052D01*
X156960897Y-109206884D01*
X156960895Y-109206886D01*
X156960895Y-109206887D01*
X156880349Y-109340124D01*
X156849651Y-109362712D01*
X156837733Y-109364159D01*
X156773392Y-109364159D01*
X156702206Y-109383233D01*
X156702199Y-109383236D01*
X156638379Y-109420082D01*
X156378690Y-109679773D01*
X156343476Y-109694359D01*
X155961670Y-109694359D01*
X155926456Y-109679773D01*
X155632189Y-109385506D01*
X155617603Y-109350292D01*
X155617603Y-108969082D01*
X155617602Y-108969072D01*
X155614642Y-108943552D01*
X155614642Y-108943551D01*
X155614642Y-108943550D01*
X155568538Y-108839134D01*
X155487829Y-108758425D01*
X155487828Y-108758424D01*
X155383417Y-108712322D01*
X155383414Y-108712321D01*
X155383413Y-108712321D01*
X155357883Y-108709359D01*
X154869927Y-108709359D01*
X154869917Y-108709360D01*
X154844397Y-108712320D01*
X154739979Y-108758424D01*
X154659269Y-108839134D01*
X154613167Y-108943545D01*
X154613166Y-108943551D01*
X154610038Y-108970510D01*
X154609273Y-108970421D01*
X154593632Y-109002728D01*
X154585426Y-109008653D01*
X154532721Y-109039082D01*
X154413687Y-109158117D01*
X154378473Y-109172703D01*
X154030645Y-109172703D01*
X153995431Y-109158117D01*
X153985282Y-109147968D01*
X153880871Y-109101866D01*
X153880868Y-109101865D01*
X153880867Y-109101865D01*
X153855337Y-109098903D01*
X152767381Y-109098903D01*
X152767371Y-109098904D01*
X152741851Y-109101864D01*
X152637433Y-109147968D01*
X152556723Y-109228678D01*
X152510621Y-109333089D01*
X152510620Y-109333093D01*
X152510620Y-109333094D01*
X152509632Y-109341604D01*
X152507658Y-109358622D01*
X152507658Y-109358623D01*
X152507659Y-109546703D01*
X152493073Y-109581917D01*
X152457859Y-109596503D01*
X152277482Y-109596503D01*
X152242268Y-109581917D01*
X152239845Y-109579314D01*
X152228635Y-109566376D01*
X152117920Y-109495224D01*
X152117916Y-109495222D01*
X152117914Y-109495221D01*
X151991630Y-109458141D01*
X151860016Y-109458141D01*
X151733732Y-109495221D01*
X151733730Y-109495221D01*
X151733725Y-109495224D01*
X151623011Y-109566376D01*
X151623009Y-109566377D01*
X151536824Y-109665840D01*
X151536820Y-109665845D01*
X151482148Y-109785563D01*
X151482146Y-109785570D01*
X151463416Y-109915839D01*
X151463416Y-109915842D01*
X151482146Y-110046111D01*
X151482148Y-110046118D01*
X151536820Y-110165836D01*
X151536824Y-110165841D01*
X151623009Y-110265304D01*
X151623011Y-110265305D01*
X151733725Y-110336457D01*
X151733726Y-110336457D01*
X151733732Y-110336461D01*
X151860016Y-110373541D01*
X151860017Y-110373541D01*
X151991629Y-110373541D01*
X151991630Y-110373541D01*
X152117914Y-110336461D01*
X152148805Y-110316608D01*
X152175728Y-110308703D01*
X153264477Y-110308703D01*
X154319766Y-110308703D01*
X154354980Y-110323289D01*
X154595618Y-110563926D01*
X154610204Y-110599140D01*
X154610204Y-110954035D01*
X154610205Y-110954045D01*
X154613165Y-110979565D01*
X154659269Y-111083983D01*
X154739979Y-111164693D01*
X154766780Y-111176527D01*
X154844395Y-111210797D01*
X154869925Y-111213759D01*
X155357882Y-111213758D01*
X155383413Y-111210797D01*
X155487829Y-111164693D01*
X155568538Y-111083984D01*
X155614642Y-110979568D01*
X155617604Y-110954038D01*
X155617603Y-110366081D01*
X155614642Y-110340550D01*
X155578521Y-110258743D01*
X155577641Y-110220638D01*
X155603963Y-110193071D01*
X155642068Y-110192191D01*
X155650292Y-110196814D01*
X155650415Y-110196603D01*
X155653242Y-110198235D01*
X155717067Y-110235084D01*
X155788254Y-110254159D01*
X156516892Y-110254159D01*
X156588079Y-110235084D01*
X156651904Y-110198235D01*
X156843614Y-110006524D01*
X156878827Y-109991939D01*
X156914041Y-110006525D01*
X156921444Y-110015975D01*
X156960893Y-110081229D01*
X156960895Y-110081231D01*
X157081732Y-110202068D01*
X157227975Y-110290476D01*
X157391127Y-110341316D01*
X157462031Y-110347759D01*
X157575776Y-110347758D01*
X157646681Y-110341316D01*
X157809833Y-110290476D01*
X157956076Y-110202068D01*
X158076913Y-110081231D01*
X158162346Y-109939907D01*
X158193044Y-109917321D01*
X158230726Y-109923056D01*
X158253315Y-109953756D01*
X158254762Y-109965680D01*
X158254452Y-112623936D01*
X158239862Y-112659148D01*
X158204646Y-112673730D01*
X158169434Y-112659140D01*
X158162037Y-112649698D01*
X158076913Y-112508887D01*
X157956076Y-112388050D01*
X157809833Y-112299642D01*
X157809830Y-112299641D01*
X157809828Y-112299640D01*
X157646683Y-112248802D01*
X157611229Y-112245580D01*
X157575777Y-112242359D01*
X157575775Y-112242359D01*
X157462033Y-112242359D01*
X157391125Y-112248802D01*
X157391123Y-112248803D01*
X157227979Y-112299640D01*
X157227975Y-112299642D01*
X157100726Y-112376568D01*
X157081729Y-112388052D01*
X156960896Y-112508885D01*
X156954083Y-112520155D01*
X156923381Y-112542743D01*
X156886566Y-112537517D01*
X156834464Y-112507436D01*
X156834461Y-112507435D01*
X156834460Y-112507434D01*
X156834458Y-112507433D01*
X156834457Y-112507433D01*
X156763273Y-112488359D01*
X156012474Y-112488359D01*
X155977260Y-112473773D01*
X155632189Y-112128702D01*
X155617603Y-112093488D01*
X155617603Y-111763082D01*
X155617602Y-111763072D01*
X155614642Y-111737552D01*
X155614642Y-111737550D01*
X155568538Y-111633134D01*
X155487829Y-111552425D01*
X155487828Y-111552424D01*
X155383417Y-111506322D01*
X155383414Y-111506321D01*
X155383413Y-111506321D01*
X155357883Y-111503359D01*
X154869927Y-111503359D01*
X154869917Y-111503360D01*
X154844395Y-111506320D01*
X154831411Y-111512053D01*
X154793305Y-111512932D01*
X154776083Y-111501710D01*
X154122339Y-110847968D01*
X154111997Y-110832871D01*
X154065992Y-110728678D01*
X153985283Y-110647969D01*
X153985282Y-110647968D01*
X153880871Y-110601866D01*
X153880868Y-110601865D01*
X153880867Y-110601865D01*
X153855337Y-110598903D01*
X152767381Y-110598903D01*
X152767371Y-110598904D01*
X152741851Y-110601864D01*
X152637433Y-110647968D01*
X152556723Y-110728678D01*
X152510621Y-110833089D01*
X152510620Y-110833095D01*
X152507658Y-110858622D01*
X152507658Y-110858623D01*
X152507659Y-111046703D01*
X152493073Y-111081917D01*
X152457859Y-111096503D01*
X152246016Y-111096503D01*
X152219092Y-111088597D01*
X152123001Y-111026842D01*
X152122997Y-111026840D01*
X152122995Y-111026839D01*
X151996711Y-110989759D01*
X151865097Y-110989759D01*
X151738813Y-111026839D01*
X151738811Y-111026839D01*
X151738806Y-111026842D01*
X151628092Y-111097994D01*
X151628090Y-111097995D01*
X151541905Y-111197458D01*
X151541901Y-111197463D01*
X151487229Y-111317181D01*
X151487227Y-111317188D01*
X151468497Y-111447457D01*
X151468497Y-111447460D01*
X151487227Y-111577729D01*
X151487229Y-111577736D01*
X151541901Y-111697454D01*
X151541905Y-111697459D01*
X151628090Y-111796922D01*
X151628092Y-111796923D01*
X151738806Y-111868075D01*
X151738807Y-111868075D01*
X151738813Y-111868079D01*
X151865097Y-111905159D01*
X151865098Y-111905159D01*
X151996710Y-111905159D01*
X151996711Y-111905159D01*
X152122995Y-111868079D01*
X152203084Y-111816608D01*
X152230008Y-111808703D01*
X153358239Y-111808703D01*
X153360866Y-111807999D01*
X153373757Y-111806302D01*
X153855335Y-111806302D01*
X153855336Y-111806302D01*
X153880867Y-111803341D01*
X153985283Y-111757237D01*
X154065992Y-111676528D01*
X154065993Y-111676525D01*
X154068599Y-111672722D01*
X154070049Y-111673715D01*
X154092738Y-111652040D01*
X154130844Y-111652911D01*
X154145954Y-111663259D01*
X154595618Y-112112922D01*
X154610204Y-112148136D01*
X154610204Y-112351035D01*
X154610205Y-112351045D01*
X154613165Y-112376565D01*
X154659269Y-112480983D01*
X154739979Y-112561693D01*
X154830962Y-112601866D01*
X154844395Y-112607797D01*
X154869925Y-112610759D01*
X155301941Y-112610758D01*
X155337155Y-112625344D01*
X155704046Y-112992235D01*
X155767871Y-113029084D01*
X155839058Y-113048159D01*
X155912758Y-113048159D01*
X156589857Y-113048159D01*
X156625071Y-113062745D01*
X156732361Y-113170035D01*
X156796185Y-113206884D01*
X156846160Y-113220275D01*
X156875887Y-113242612D01*
X156960895Y-113383231D01*
X157081732Y-113504068D01*
X157227975Y-113592476D01*
X157391127Y-113643316D01*
X157462031Y-113649759D01*
X157575776Y-113649758D01*
X157646681Y-113643316D01*
X157809833Y-113592476D01*
X157956076Y-113504068D01*
X158076913Y-113383231D01*
X158161961Y-113242545D01*
X158192659Y-113219958D01*
X158230341Y-113225693D01*
X158252930Y-113256393D01*
X158254377Y-113268317D01*
X158254052Y-116052274D01*
X158239462Y-116087486D01*
X158204246Y-116102068D01*
X158169034Y-116087478D01*
X158161636Y-116078035D01*
X158076913Y-115937887D01*
X157956076Y-115817050D01*
X157809833Y-115728642D01*
X157809830Y-115728641D01*
X157809828Y-115728640D01*
X157646683Y-115677802D01*
X157611229Y-115674580D01*
X157575777Y-115671359D01*
X157575775Y-115671359D01*
X157462033Y-115671359D01*
X157391124Y-115677802D01*
X157287479Y-115710098D01*
X157249520Y-115706648D01*
X157237450Y-115697767D01*
X155528316Y-113988633D01*
X155513730Y-113953419D01*
X155528316Y-113918205D01*
X155568538Y-113877984D01*
X155614642Y-113773568D01*
X155617604Y-113748038D01*
X155617603Y-113160081D01*
X155614642Y-113134550D01*
X155568538Y-113030134D01*
X155487829Y-112949425D01*
X155487828Y-112949424D01*
X155383417Y-112903322D01*
X155383414Y-112903321D01*
X155383413Y-112903321D01*
X155366393Y-112901346D01*
X155357884Y-112900359D01*
X155357883Y-112900359D01*
X154892853Y-112900359D01*
X154857639Y-112885773D01*
X154200490Y-112228626D01*
X154136670Y-112191780D01*
X154136667Y-112191779D01*
X154136666Y-112191778D01*
X154136664Y-112191777D01*
X154136663Y-112191777D01*
X154065479Y-112172703D01*
X154030645Y-112172703D01*
X153995431Y-112158117D01*
X153985282Y-112147968D01*
X153880871Y-112101866D01*
X153880868Y-112101865D01*
X153880867Y-112101865D01*
X153855337Y-112098903D01*
X152767381Y-112098903D01*
X152767371Y-112098904D01*
X152741851Y-112101864D01*
X152637433Y-112147968D01*
X152556723Y-112228678D01*
X152510621Y-112333089D01*
X152510620Y-112333095D01*
X152507658Y-112358622D01*
X152507658Y-112358623D01*
X152507659Y-112547778D01*
X152493073Y-112582992D01*
X152457859Y-112597578D01*
X152235472Y-112597578D01*
X152208548Y-112589672D01*
X152120461Y-112533061D01*
X152120457Y-112533059D01*
X152120455Y-112533058D01*
X151994171Y-112495978D01*
X151862557Y-112495978D01*
X151736273Y-112533058D01*
X151736271Y-112533058D01*
X151736266Y-112533061D01*
X151625552Y-112604213D01*
X151625550Y-112604214D01*
X151539365Y-112703677D01*
X151539361Y-112703682D01*
X151484689Y-112823400D01*
X151484687Y-112823407D01*
X151465957Y-112953676D01*
X151465957Y-112953679D01*
X151484687Y-113083948D01*
X151484689Y-113083955D01*
X151539361Y-113203673D01*
X151539365Y-113203678D01*
X151625550Y-113303141D01*
X151625552Y-113303142D01*
X151736266Y-113374294D01*
X151736267Y-113374294D01*
X151736273Y-113374298D01*
X151862557Y-113411378D01*
X151862558Y-113411378D01*
X151994170Y-113411378D01*
X151994171Y-113411378D01*
X152120455Y-113374298D01*
X152208548Y-113317683D01*
X152235472Y-113309778D01*
X153357164Y-113309778D01*
X153360400Y-113309352D01*
X153360440Y-113309663D01*
X153367732Y-113308703D01*
X153816556Y-113308703D01*
X153851770Y-113323289D01*
X154049418Y-113520937D01*
X154064004Y-113556151D01*
X154064004Y-114243033D01*
X154049418Y-114278247D01*
X154039293Y-114285183D01*
X154039443Y-114285402D01*
X154035637Y-114288008D01*
X153954929Y-114368716D01*
X153908827Y-114473127D01*
X153908826Y-114473133D01*
X153905864Y-114498660D01*
X153905864Y-115086617D01*
X153905865Y-115086627D01*
X153908825Y-115112147D01*
X153954929Y-115216565D01*
X153954930Y-115216566D01*
X154035639Y-115297275D01*
X154140055Y-115343379D01*
X154165585Y-115346341D01*
X154653542Y-115346340D01*
X154679073Y-115343379D01*
X154783489Y-115297275D01*
X154864198Y-115216566D01*
X154910302Y-115112150D01*
X154913264Y-115086620D01*
X154913263Y-114498663D01*
X154910302Y-114473132D01*
X154864198Y-114368716D01*
X154790790Y-114295308D01*
X154776204Y-114260094D01*
X154776204Y-114130800D01*
X154790790Y-114095586D01*
X154826004Y-114081000D01*
X154861218Y-114095586D01*
X154869132Y-114105901D01*
X154889926Y-114141919D01*
X156841612Y-116093605D01*
X156856198Y-116128819D01*
X156853943Y-116143634D01*
X156821647Y-116247278D01*
X156820567Y-116259166D01*
X156815787Y-116311776D01*
X156815204Y-116318187D01*
X156815204Y-116431929D01*
X156819773Y-116482209D01*
X156821647Y-116502836D01*
X156828180Y-116523803D01*
X156869173Y-116655355D01*
X156872487Y-116665988D01*
X156960895Y-116812231D01*
X157081732Y-116933068D01*
X157227975Y-117021476D01*
X157391127Y-117072316D01*
X157462031Y-117078759D01*
X157575776Y-117078758D01*
X157646681Y-117072316D01*
X157809833Y-117021476D01*
X157956076Y-116933068D01*
X158076913Y-116812231D01*
X158161561Y-116672207D01*
X158192259Y-116649620D01*
X158229941Y-116655355D01*
X158252530Y-116686055D01*
X158253977Y-116697979D01*
X158253862Y-117680496D01*
X158253861Y-117680512D01*
X158253861Y-117692956D01*
X158253754Y-117696213D01*
X158235747Y-117970982D01*
X158234897Y-117977440D01*
X158181497Y-118245913D01*
X158179811Y-118252205D01*
X158091827Y-118511406D01*
X158089335Y-118517424D01*
X157968266Y-118762935D01*
X157965008Y-118768577D01*
X157812938Y-118996170D01*
X157808973Y-119001338D01*
X157628491Y-119207145D01*
X157623885Y-119211751D01*
X157418088Y-119392235D01*
X157412920Y-119396201D01*
X157185322Y-119548282D01*
X157179681Y-119551539D01*
X156934182Y-119672610D01*
X156928164Y-119675103D01*
X156668958Y-119763097D01*
X156662665Y-119764783D01*
X156394195Y-119818189D01*
X156387737Y-119819039D01*
X156113855Y-119836994D01*
X156110597Y-119837101D01*
X152364699Y-119837101D01*
X152329485Y-119822515D01*
X152314899Y-119787301D01*
X152329485Y-119752087D01*
X152338930Y-119744687D01*
X152368076Y-119727068D01*
X152488913Y-119606231D01*
X152577321Y-119459988D01*
X152628161Y-119296836D01*
X152634604Y-119225932D01*
X152634603Y-119112187D01*
X152628161Y-119041282D01*
X152577321Y-118878130D01*
X152488913Y-118731887D01*
X152368076Y-118611050D01*
X152221833Y-118522642D01*
X152221830Y-118522641D01*
X152221828Y-118522640D01*
X152058683Y-118471802D01*
X152023229Y-118468580D01*
X151987777Y-118465359D01*
X151987775Y-118465359D01*
X151874033Y-118465359D01*
X151803124Y-118471802D01*
X151699479Y-118504098D01*
X151661520Y-118500648D01*
X151649450Y-118491767D01*
X151270953Y-118113270D01*
X151207133Y-118076424D01*
X151207130Y-118076423D01*
X151207129Y-118076422D01*
X151207127Y-118076421D01*
X151207126Y-118076421D01*
X151199630Y-118074412D01*
X151189391Y-118071669D01*
X151189389Y-118071668D01*
X151135942Y-118057346D01*
X151135944Y-118057346D01*
X149608377Y-118057344D01*
X149573163Y-118042758D01*
X149155844Y-117625439D01*
X149141258Y-117590225D01*
X149141258Y-116121890D01*
X149155844Y-116086676D01*
X149158390Y-116084130D01*
X149165992Y-116076528D01*
X149212096Y-115972112D01*
X149215058Y-115946582D01*
X149215057Y-114858625D01*
X149212096Y-114833094D01*
X149165992Y-114728678D01*
X149085283Y-114647969D01*
X149085282Y-114647968D01*
X148980871Y-114601866D01*
X148980868Y-114601865D01*
X148980867Y-114601865D01*
X148955337Y-114598903D01*
X148767381Y-114598903D01*
X148767371Y-114598904D01*
X148741851Y-114601864D01*
X148637433Y-114647968D01*
X148556723Y-114728678D01*
X148510621Y-114833089D01*
X148510620Y-114833095D01*
X148507658Y-114858622D01*
X148507658Y-115946579D01*
X148507659Y-115946589D01*
X148510619Y-115972109D01*
X148556723Y-116076527D01*
X148566872Y-116086676D01*
X148581458Y-116121890D01*
X148581458Y-116562395D01*
X148566872Y-116597609D01*
X148531658Y-116612195D01*
X148511546Y-116607953D01*
X148505149Y-116605129D01*
X148478825Y-116577564D01*
X148475461Y-116559571D01*
X148475461Y-116418331D01*
X148475462Y-116402347D01*
X148475461Y-116402343D01*
X148475461Y-116402341D01*
X148455720Y-116328664D01*
X148455720Y-116328661D01*
X148451289Y-116312122D01*
X148451201Y-116311786D01*
X148451194Y-116311775D01*
X148451194Y-116311772D01*
X148404312Y-116230571D01*
X148359062Y-116185321D01*
X148359062Y-116185320D01*
X148232045Y-116058299D01*
X148217459Y-116023088D01*
X148217458Y-115355721D01*
X148217458Y-114529000D01*
X148229621Y-114496388D01*
X148255906Y-114466055D01*
X148310580Y-114346334D01*
X148329311Y-114216059D01*
X148328581Y-114210982D01*
X149898779Y-114210982D01*
X149910903Y-114295308D01*
X149917510Y-114341256D01*
X149972184Y-114460977D01*
X149993094Y-114485109D01*
X150005258Y-114517720D01*
X150005258Y-116443923D01*
X150005357Y-116444291D01*
X150029525Y-116534491D01*
X150029527Y-116534494D01*
X150076406Y-116615691D01*
X150253881Y-116793166D01*
X150268467Y-116828380D01*
X150268467Y-117175489D01*
X150268468Y-117175499D01*
X150271428Y-117201019D01*
X150317532Y-117305437D01*
X150317533Y-117305438D01*
X150398242Y-117386147D01*
X150502658Y-117432251D01*
X150528188Y-117435213D01*
X151016145Y-117435212D01*
X151041676Y-117432251D01*
X151146092Y-117386147D01*
X151226801Y-117305438D01*
X151272905Y-117201022D01*
X151275867Y-117175492D01*
X151275866Y-116587535D01*
X151275866Y-116586300D01*
X151290452Y-116551086D01*
X151325666Y-116536500D01*
X151810926Y-116536500D01*
X151846140Y-116551086D01*
X151856483Y-116566185D01*
X151865507Y-116586624D01*
X151946217Y-116667334D01*
X152015621Y-116697979D01*
X152050633Y-116713438D01*
X152076163Y-116716400D01*
X152664120Y-116716399D01*
X152689651Y-116713438D01*
X152794067Y-116667334D01*
X152874776Y-116586625D01*
X152920880Y-116482209D01*
X152923842Y-116456679D01*
X152923841Y-115968722D01*
X152920880Y-115943191D01*
X152874776Y-115838775D01*
X152794067Y-115758066D01*
X152794066Y-115758065D01*
X152689655Y-115711963D01*
X152689652Y-115711962D01*
X152689651Y-115711962D01*
X152664121Y-115709000D01*
X152076165Y-115709000D01*
X152076155Y-115709001D01*
X152050635Y-115711961D01*
X151946217Y-115758065D01*
X151865507Y-115838775D01*
X151840146Y-115896215D01*
X151812579Y-115922537D01*
X151794589Y-115925900D01*
X151273920Y-115925900D01*
X151238706Y-115911314D01*
X151229643Y-115902251D01*
X151215057Y-115867037D01*
X151215057Y-114858626D01*
X151215056Y-114858616D01*
X151212096Y-114833096D01*
X151212096Y-114833095D01*
X151212096Y-114833094D01*
X151165992Y-114728678D01*
X151085283Y-114647969D01*
X151085282Y-114647968D01*
X150980871Y-114601866D01*
X150980868Y-114601865D01*
X150980867Y-114601865D01*
X150963847Y-114599890D01*
X150955338Y-114598903D01*
X150767258Y-114598903D01*
X150732044Y-114584317D01*
X150717458Y-114549103D01*
X150717458Y-114517323D01*
X150729621Y-114484712D01*
X150750188Y-114460977D01*
X150804862Y-114341256D01*
X150822132Y-114221141D01*
X150823593Y-114210982D01*
X150823593Y-114210979D01*
X150817349Y-114167556D01*
X150804862Y-114080706D01*
X150750188Y-113960985D01*
X150713119Y-113918205D01*
X150663999Y-113861517D01*
X150663997Y-113861516D01*
X150553283Y-113790364D01*
X150553279Y-113790362D01*
X150553277Y-113790361D01*
X150426993Y-113753281D01*
X150295379Y-113753281D01*
X150169095Y-113790361D01*
X150169093Y-113790361D01*
X150169088Y-113790364D01*
X150058374Y-113861516D01*
X150058372Y-113861517D01*
X149972187Y-113960980D01*
X149972183Y-113960985D01*
X149917511Y-114080703D01*
X149917509Y-114080710D01*
X149898779Y-114210979D01*
X149898779Y-114210982D01*
X148328581Y-114210982D01*
X148310580Y-114085784D01*
X148255906Y-113966063D01*
X148214437Y-113918205D01*
X148169717Y-113866595D01*
X148169715Y-113866594D01*
X148059001Y-113795442D01*
X148058997Y-113795440D01*
X148058995Y-113795439D01*
X147932711Y-113758359D01*
X147801097Y-113758359D01*
X147674813Y-113795439D01*
X147674811Y-113795439D01*
X147674806Y-113795442D01*
X147564092Y-113866594D01*
X147564090Y-113866595D01*
X147477905Y-113966058D01*
X147477901Y-113966063D01*
X147423229Y-114085781D01*
X147423227Y-114085788D01*
X147404497Y-114216057D01*
X147404497Y-114216060D01*
X147414841Y-114288007D01*
X147423228Y-114346334D01*
X147477902Y-114466055D01*
X147493094Y-114483588D01*
X147505258Y-114516199D01*
X147505258Y-114549103D01*
X147490672Y-114584317D01*
X147455458Y-114598903D01*
X147267381Y-114598903D01*
X147267371Y-114598904D01*
X147241851Y-114601864D01*
X147133211Y-114649833D01*
X147132422Y-114648046D01*
X147102197Y-114654416D01*
X147089756Y-114649263D01*
X147089505Y-114649833D01*
X146980871Y-114601866D01*
X146980868Y-114601865D01*
X146980867Y-114601865D01*
X146955337Y-114598903D01*
X146767381Y-114598903D01*
X146767371Y-114598904D01*
X146741851Y-114601864D01*
X146637433Y-114647968D01*
X146556723Y-114728678D01*
X146510621Y-114833089D01*
X146510620Y-114833095D01*
X146507658Y-114858622D01*
X146507658Y-115946579D01*
X146507659Y-115946589D01*
X146510619Y-115972109D01*
X146556723Y-116076527D01*
X146566873Y-116086677D01*
X146581459Y-116121891D01*
X146581461Y-116509028D01*
X146581461Y-116840174D01*
X146566875Y-116875388D01*
X146566471Y-116875792D01*
X146531257Y-116890378D01*
X146496043Y-116875792D01*
X146481457Y-116840578D01*
X146481457Y-116469823D01*
X146481456Y-116469813D01*
X146478496Y-116444293D01*
X146478496Y-116444292D01*
X146478496Y-116444291D01*
X146432392Y-116339875D01*
X146351683Y-116259166D01*
X146348444Y-116255927D01*
X146333858Y-116220713D01*
X146333858Y-116189090D01*
X146332376Y-116183563D01*
X146329414Y-116172507D01*
X146309591Y-116098522D01*
X146302547Y-116086321D01*
X146266037Y-116023086D01*
X146262709Y-116017321D01*
X146232044Y-115986656D01*
X146217458Y-115951442D01*
X146217458Y-114529398D01*
X146229622Y-114496785D01*
X146232598Y-114493351D01*
X146251847Y-114471137D01*
X146306521Y-114351416D01*
X146325252Y-114221141D01*
X146324521Y-114216060D01*
X146319008Y-114177716D01*
X146306521Y-114090866D01*
X146251847Y-113971145D01*
X146251843Y-113971140D01*
X146165658Y-113871677D01*
X146165656Y-113871676D01*
X146054942Y-113800524D01*
X146054938Y-113800522D01*
X146054936Y-113800521D01*
X145928652Y-113763441D01*
X145797038Y-113763441D01*
X145670754Y-113800521D01*
X145670752Y-113800521D01*
X145670747Y-113800524D01*
X145560033Y-113871676D01*
X145560031Y-113871677D01*
X145473846Y-113971140D01*
X145473842Y-113971145D01*
X145419170Y-114090863D01*
X145419168Y-114090870D01*
X145400438Y-114221139D01*
X145400438Y-114221142D01*
X145418438Y-114346336D01*
X145419169Y-114351416D01*
X145473843Y-114471137D01*
X145493093Y-114493353D01*
X145505258Y-114525965D01*
X145505258Y-116166454D01*
X145515958Y-116206388D01*
X145529525Y-116257022D01*
X145529527Y-116257025D01*
X145538402Y-116272397D01*
X145543377Y-116310186D01*
X145530490Y-116332509D01*
X145523123Y-116339876D01*
X145477021Y-116444286D01*
X145477020Y-116444292D01*
X145474058Y-116469819D01*
X145474058Y-117057776D01*
X145474059Y-117057786D01*
X145477019Y-117083306D01*
X145523123Y-117187724D01*
X145603833Y-117268434D01*
X145633846Y-117281686D01*
X145660168Y-117309253D01*
X145659288Y-117347358D01*
X145648945Y-117362457D01*
X145491181Y-117520222D01*
X145491177Y-117520227D01*
X145484821Y-117531237D01*
X145454331Y-117584045D01*
X145454329Y-117584049D01*
X145435253Y-117655236D01*
X145435251Y-118658533D01*
X145435251Y-118732234D01*
X145454325Y-118803418D01*
X145454328Y-118803425D01*
X145483733Y-118854357D01*
X145491175Y-118867246D01*
X146174564Y-119550635D01*
X146238389Y-119587484D01*
X146309576Y-119606559D01*
X146383276Y-119606559D01*
X149828595Y-119606559D01*
X149863809Y-119621145D01*
X149969732Y-119727068D01*
X149998870Y-119744683D01*
X150021459Y-119775381D01*
X150015724Y-119813062D01*
X149985024Y-119835652D01*
X149973106Y-119837099D01*
X143359914Y-119837097D01*
X143324700Y-119822511D01*
X143310114Y-119787297D01*
X143324700Y-119752083D01*
X143334141Y-119744685D01*
X143476533Y-119658606D01*
X143597370Y-119537769D01*
X143685778Y-119391526D01*
X143736618Y-119228374D01*
X143743061Y-119157470D01*
X143743060Y-119043725D01*
X143736618Y-118972820D01*
X143685778Y-118809668D01*
X143597370Y-118663425D01*
X143476533Y-118542588D01*
X143330290Y-118454180D01*
X143330287Y-118454179D01*
X143330285Y-118454178D01*
X143167140Y-118403340D01*
X143131686Y-118400118D01*
X143096234Y-118396897D01*
X143096232Y-118396897D01*
X142982490Y-118396897D01*
X142911582Y-118403340D01*
X142911580Y-118403341D01*
X142856727Y-118420434D01*
X142818768Y-118416985D01*
X142794366Y-118387705D01*
X142792111Y-118372889D01*
X142792111Y-118296010D01*
X142806697Y-118260796D01*
X143681346Y-117386147D01*
X144585334Y-116482159D01*
X144622183Y-116418334D01*
X144641258Y-116347147D01*
X144641258Y-116273447D01*
X144641258Y-116121890D01*
X144655844Y-116086676D01*
X144658390Y-116084130D01*
X144665992Y-116076528D01*
X144712096Y-115972112D01*
X144715058Y-115946582D01*
X144715057Y-114858625D01*
X144712096Y-114833094D01*
X144665992Y-114728678D01*
X144585283Y-114647969D01*
X144585282Y-114647968D01*
X144480871Y-114601866D01*
X144480868Y-114601865D01*
X144480867Y-114601865D01*
X144455337Y-114598903D01*
X144267381Y-114598903D01*
X144267371Y-114598904D01*
X144241851Y-114601864D01*
X144133211Y-114649833D01*
X144132422Y-114648046D01*
X144102197Y-114654416D01*
X144089756Y-114649263D01*
X144089505Y-114649833D01*
X143980871Y-114601866D01*
X143980868Y-114601865D01*
X143980867Y-114601865D01*
X143955337Y-114598903D01*
X143767381Y-114598903D01*
X143767371Y-114598904D01*
X143741851Y-114601864D01*
X143637433Y-114647968D01*
X143556723Y-114728678D01*
X143510621Y-114833089D01*
X143510620Y-114833095D01*
X143507658Y-114858622D01*
X143507658Y-115946579D01*
X143507659Y-115946589D01*
X143510619Y-115972109D01*
X143556723Y-116076527D01*
X143566872Y-116086676D01*
X143581458Y-116121890D01*
X143581458Y-116242674D01*
X143566872Y-116277888D01*
X141889452Y-117955307D01*
X141852603Y-118019131D01*
X141852604Y-118019132D01*
X141833529Y-118090318D01*
X141833529Y-118394990D01*
X141818943Y-118430204D01*
X141783729Y-118444790D01*
X141768913Y-118442535D01*
X141643143Y-118403343D01*
X141607689Y-118400121D01*
X141572237Y-118396900D01*
X141572235Y-118396900D01*
X141458493Y-118396900D01*
X141387585Y-118403343D01*
X141387583Y-118403344D01*
X141224439Y-118454181D01*
X141224435Y-118454183D01*
X141111192Y-118522642D01*
X141078189Y-118542593D01*
X140957357Y-118663425D01*
X140957355Y-118663427D01*
X140957355Y-118663428D01*
X140888551Y-118777242D01*
X140868947Y-118809671D01*
X140868945Y-118809675D01*
X140818107Y-118972820D01*
X140811664Y-119043728D01*
X140811664Y-119157470D01*
X140818107Y-119228378D01*
X140818108Y-119228380D01*
X140868945Y-119391524D01*
X140868946Y-119391526D01*
X140868947Y-119391529D01*
X140957355Y-119537772D01*
X141078192Y-119658609D01*
X141191436Y-119727068D01*
X141220568Y-119744679D01*
X141243157Y-119775380D01*
X141237422Y-119813061D01*
X141206721Y-119835650D01*
X141194804Y-119837097D01*
X141103613Y-119837097D01*
X141100606Y-119837006D01*
X140821218Y-119820107D01*
X140815249Y-119819382D01*
X140541420Y-119769203D01*
X140535581Y-119767764D01*
X140269797Y-119684945D01*
X140264174Y-119682813D01*
X140010303Y-119568557D01*
X140004978Y-119565762D01*
X139829994Y-119459983D01*
X139766733Y-119421741D01*
X139761787Y-119418327D01*
X139728482Y-119392235D01*
X139606715Y-119296838D01*
X139542638Y-119246638D01*
X139538137Y-119242650D01*
X139341286Y-119045804D01*
X139337298Y-119041303D01*
X139337278Y-119041278D01*
X139240370Y-118917587D01*
X139165608Y-118822163D01*
X139162191Y-118817214D01*
X139018160Y-118578965D01*
X139015366Y-118573640D01*
X138961600Y-118454183D01*
X138901110Y-118319784D01*
X138898978Y-118314165D01*
X138816146Y-118048367D01*
X138814709Y-118042532D01*
X138810420Y-118019132D01*
X138776643Y-117834832D01*
X138764524Y-117768705D01*
X138763799Y-117762736D01*
X138746952Y-117484307D01*
X138746861Y-117481299D01*
X138746861Y-108701720D01*
X140330597Y-108701720D01*
X140349327Y-108831989D01*
X140349329Y-108831996D01*
X140404001Y-108951714D01*
X140404005Y-108951719D01*
X140490190Y-109051182D01*
X140490192Y-109051183D01*
X140600906Y-109122335D01*
X140600907Y-109122335D01*
X140600913Y-109122339D01*
X140727197Y-109159419D01*
X140727204Y-109159419D01*
X140730724Y-109159926D01*
X140730553Y-109161108D01*
X140761689Y-109174005D01*
X140825238Y-109237554D01*
X140906439Y-109284436D01*
X140997008Y-109308703D01*
X142745460Y-109308703D01*
X142836029Y-109284436D01*
X142917230Y-109237554D01*
X142996020Y-109158764D01*
X143027154Y-109145867D01*
X143026984Y-109144685D01*
X143030503Y-109144178D01*
X143030511Y-109144178D01*
X143156795Y-109107098D01*
X143267516Y-109035942D01*
X143353706Y-108936474D01*
X143408380Y-108816753D01*
X143423989Y-108708190D01*
X143427111Y-108686479D01*
X143427111Y-108686476D01*
X143410667Y-108572109D01*
X143408380Y-108556203D01*
X143353706Y-108436482D01*
X143353702Y-108436477D01*
X143267517Y-108337014D01*
X143267515Y-108337013D01*
X143156801Y-108265861D01*
X143156797Y-108265859D01*
X143156795Y-108265858D01*
X143030511Y-108228778D01*
X143030510Y-108228778D01*
X143026984Y-108228271D01*
X143027154Y-108227088D01*
X142996020Y-108214192D01*
X142949479Y-108167651D01*
X142868282Y-108120772D01*
X142868283Y-108120772D01*
X142868279Y-108120770D01*
X142817645Y-108107203D01*
X142777711Y-108096503D01*
X142777710Y-108096503D01*
X141958239Y-108096503D01*
X140995239Y-108096503D01*
X140995237Y-108096503D01*
X140915368Y-108117903D01*
X140904670Y-108120770D01*
X140904667Y-108120771D01*
X140904666Y-108120772D01*
X140823469Y-108167651D01*
X140761688Y-108229433D01*
X140730553Y-108242329D01*
X140730724Y-108243512D01*
X140727197Y-108244019D01*
X140600913Y-108281099D01*
X140600911Y-108281099D01*
X140600906Y-108281102D01*
X140490192Y-108352254D01*
X140490190Y-108352255D01*
X140404005Y-108451718D01*
X140404001Y-108451723D01*
X140349329Y-108571441D01*
X140349327Y-108571448D01*
X140330597Y-108701717D01*
X140330597Y-108701720D01*
X138746861Y-108701720D01*
X138746861Y-100265381D01*
X138761447Y-100230167D01*
X138796661Y-100215581D01*
X138987904Y-100215581D01*
X139023118Y-100230167D01*
X140731495Y-101938545D01*
X140746081Y-101973759D01*
X140731495Y-102008973D01*
X140696281Y-102023559D01*
X140563209Y-102023559D01*
X140527995Y-102008973D01*
X140518469Y-101995630D01*
X140507744Y-101973691D01*
X140424272Y-101890219D01*
X140318224Y-101838376D01*
X140308401Y-101836945D01*
X140249473Y-101828359D01*
X140249467Y-101828359D01*
X139482335Y-101828359D01*
X139413583Y-101838376D01*
X139307535Y-101890219D01*
X139224064Y-101973690D01*
X139172221Y-102079738D01*
X139172221Y-102079740D01*
X139162204Y-102148490D01*
X139162204Y-102148494D01*
X139162204Y-102148495D01*
X139162204Y-102915627D01*
X139172221Y-102984379D01*
X139224064Y-103090427D01*
X139224065Y-103090428D01*
X139307535Y-103173898D01*
X139413585Y-103225742D01*
X139482335Y-103235759D01*
X140249472Y-103235758D01*
X140318223Y-103225742D01*
X140424273Y-103173898D01*
X140507743Y-103090428D01*
X140517748Y-103069962D01*
X140518469Y-103068488D01*
X140547038Y-103043258D01*
X140563209Y-103040559D01*
X140948849Y-103040559D01*
X141078178Y-103005906D01*
X141194130Y-102938960D01*
X141288805Y-102844285D01*
X141355751Y-102728333D01*
X141368407Y-102681098D01*
X141391610Y-102650860D01*
X141429399Y-102645885D01*
X141451724Y-102658774D01*
X142187618Y-103394668D01*
X142202204Y-103429882D01*
X142202204Y-104582206D01*
X142187618Y-104617420D01*
X142152404Y-104632006D01*
X142117190Y-104617420D01*
X142109276Y-104607106D01*
X142050805Y-104505833D01*
X141956129Y-104411157D01*
X141877465Y-104365740D01*
X141840178Y-104344212D01*
X141767873Y-104324838D01*
X141710850Y-104309559D01*
X141710849Y-104309559D01*
X140563209Y-104309559D01*
X140527995Y-104294973D01*
X140518469Y-104281630D01*
X140507744Y-104259691D01*
X140424272Y-104176219D01*
X140318224Y-104124376D01*
X140308401Y-104122945D01*
X140249473Y-104114359D01*
X140249467Y-104114359D01*
X139482335Y-104114359D01*
X139413583Y-104124376D01*
X139307535Y-104176219D01*
X139224064Y-104259690D01*
X139172221Y-104365738D01*
X139172221Y-104365740D01*
X139162204Y-104434490D01*
X139162204Y-104434494D01*
X139162204Y-104434495D01*
X139162204Y-105201627D01*
X139172221Y-105270379D01*
X139224064Y-105376427D01*
X139224065Y-105376428D01*
X139307535Y-105459898D01*
X139413585Y-105511742D01*
X139482335Y-105521759D01*
X140249472Y-105521758D01*
X140318223Y-105511742D01*
X140424273Y-105459898D01*
X140507743Y-105376428D01*
X140518469Y-105354488D01*
X140547038Y-105329258D01*
X140563209Y-105326559D01*
X141710849Y-105326559D01*
X141840178Y-105291906D01*
X141956130Y-105224960D01*
X142050805Y-105130285D01*
X142109276Y-105029010D01*
X142139515Y-105005808D01*
X142177304Y-105010783D01*
X142200507Y-105041022D01*
X142202204Y-105053911D01*
X142202204Y-105081278D01*
X142206448Y-105097116D01*
X142221278Y-105152463D01*
X142221281Y-105152469D01*
X142258127Y-105216289D01*
X143354522Y-106312684D01*
X143369108Y-106347898D01*
X143354522Y-106383112D01*
X143333338Y-106395680D01*
X143326108Y-106397803D01*
X143304468Y-106404157D01*
X143304460Y-106404161D01*
X143193746Y-106475313D01*
X143193744Y-106475314D01*
X143148361Y-106527690D01*
X143114278Y-106544751D01*
X143110725Y-106544878D01*
X143109805Y-106544878D01*
X143108664Y-106544804D01*
X143069467Y-106544878D01*
X143032866Y-106544878D01*
X143032478Y-106544930D01*
X143032360Y-106544945D01*
X142996883Y-106554523D01*
X142996796Y-106554546D01*
X142961689Y-106563954D01*
X142961216Y-106564152D01*
X142961200Y-106564158D01*
X142929292Y-106582660D01*
X142929213Y-106582705D01*
X142897853Y-106600811D01*
X142897590Y-106601015D01*
X142897458Y-106601115D01*
X142871475Y-106627197D01*
X142843913Y-106654759D01*
X142843168Y-106655610D01*
X142840747Y-106658041D01*
X142805564Y-106672700D01*
X142630642Y-106672700D01*
X142595428Y-106658114D01*
X142585282Y-106647968D01*
X142480871Y-106601866D01*
X142480868Y-106601865D01*
X142480867Y-106601865D01*
X142455337Y-106598903D01*
X141367381Y-106598903D01*
X141367371Y-106598904D01*
X141341851Y-106601864D01*
X141237433Y-106647968D01*
X141171297Y-106714104D01*
X141136083Y-106728690D01*
X141109159Y-106720784D01*
X141051055Y-106683442D01*
X141051051Y-106683440D01*
X141051049Y-106683439D01*
X140924765Y-106646359D01*
X140793151Y-106646359D01*
X140666867Y-106683439D01*
X140666865Y-106683439D01*
X140666860Y-106683442D01*
X140578774Y-106740053D01*
X140551850Y-106747959D01*
X140343947Y-106747959D01*
X140308733Y-106733373D01*
X140294147Y-106698159D01*
X140294147Y-106555542D01*
X140294146Y-106555532D01*
X140291186Y-106530012D01*
X140291186Y-106530011D01*
X140291186Y-106530010D01*
X140245082Y-106425594D01*
X140164373Y-106344885D01*
X140164372Y-106344884D01*
X140059961Y-106298782D01*
X140059958Y-106298781D01*
X140059957Y-106298781D01*
X140034427Y-106295819D01*
X139446471Y-106295819D01*
X139446461Y-106295820D01*
X139420941Y-106298780D01*
X139316523Y-106344884D01*
X139235813Y-106425594D01*
X139189711Y-106530005D01*
X139189710Y-106530009D01*
X139189710Y-106530010D01*
X139188722Y-106538520D01*
X139186748Y-106555538D01*
X139186748Y-107043495D01*
X139186749Y-107043505D01*
X139189709Y-107069025D01*
X139189709Y-107069027D01*
X139189710Y-107069028D01*
X139191072Y-107072112D01*
X139235813Y-107173443D01*
X139316523Y-107254153D01*
X139381821Y-107282985D01*
X139420939Y-107300257D01*
X139446469Y-107303219D01*
X139784587Y-107303218D01*
X139819801Y-107317804D01*
X139824706Y-107322709D01*
X139824707Y-107322710D01*
X139891007Y-107389010D01*
X139972208Y-107435892D01*
X140062777Y-107460159D01*
X140156540Y-107460159D01*
X140551850Y-107460159D01*
X140578774Y-107468065D01*
X140666860Y-107524675D01*
X140666861Y-107524675D01*
X140666867Y-107524679D01*
X140793151Y-107561759D01*
X140793152Y-107561759D01*
X140924764Y-107561759D01*
X140924765Y-107561759D01*
X141046648Y-107525971D01*
X141084543Y-107530046D01*
X141108459Y-107559724D01*
X141110144Y-107568014D01*
X141110619Y-107572110D01*
X141156723Y-107676527D01*
X141237433Y-107757237D01*
X141337092Y-107801241D01*
X141341849Y-107803341D01*
X141367379Y-107806303D01*
X142455336Y-107806302D01*
X142480867Y-107803341D01*
X142585283Y-107757237D01*
X142595431Y-107747087D01*
X142630640Y-107732500D01*
X142677484Y-107732500D01*
X142712698Y-107747086D01*
X142715120Y-107749688D01*
X142759790Y-107801241D01*
X142759792Y-107801242D01*
X142870506Y-107872394D01*
X142870507Y-107872394D01*
X142870513Y-107872398D01*
X142996797Y-107909478D01*
X142996798Y-107909478D01*
X143128410Y-107909478D01*
X143128411Y-107909478D01*
X143254695Y-107872398D01*
X143365416Y-107801242D01*
X143451606Y-107701774D01*
X143506280Y-107582053D01*
X143525011Y-107451778D01*
X143522726Y-107435889D01*
X143515986Y-107389010D01*
X143508848Y-107339365D01*
X143518274Y-107302434D01*
X143551053Y-107282985D01*
X143558141Y-107282478D01*
X143562364Y-107282478D01*
X143562365Y-107282478D01*
X143686230Y-107246108D01*
X143724125Y-107250183D01*
X143748041Y-107279861D01*
X143750058Y-107293891D01*
X143750059Y-109312037D01*
X143735473Y-109347251D01*
X143293609Y-109789117D01*
X143258395Y-109803703D01*
X143028607Y-109803703D01*
X142993393Y-109789117D01*
X142993393Y-109789116D01*
X142932902Y-109728623D01*
X142906582Y-109713428D01*
X142906581Y-109713428D01*
X142869079Y-109691776D01*
X142869076Y-109691775D01*
X142801046Y-109673546D01*
X142798554Y-109672700D01*
X142797891Y-109672700D01*
X142797888Y-109672700D01*
X142738429Y-109672700D01*
X142724192Y-109672700D01*
X142724191Y-109672700D01*
X142630642Y-109672700D01*
X142595428Y-109658114D01*
X142585282Y-109647968D01*
X142480871Y-109601866D01*
X142480868Y-109601865D01*
X142480867Y-109601865D01*
X142455337Y-109598903D01*
X141367381Y-109598903D01*
X141367371Y-109598904D01*
X141341851Y-109601864D01*
X141237433Y-109647968D01*
X141156723Y-109728678D01*
X141110621Y-109833089D01*
X141110620Y-109833095D01*
X141107658Y-109858622D01*
X141107658Y-110022896D01*
X141093072Y-110058110D01*
X141057858Y-110072696D01*
X141030934Y-110064790D01*
X140982561Y-110033702D01*
X140982557Y-110033700D01*
X140982555Y-110033699D01*
X140856271Y-109996619D01*
X140724657Y-109996619D01*
X140598373Y-110033699D01*
X140598371Y-110033699D01*
X140598366Y-110033702D01*
X140510280Y-110090313D01*
X140483356Y-110098219D01*
X140402324Y-110098219D01*
X140319334Y-110120455D01*
X140319334Y-110120456D01*
X140316562Y-110121198D01*
X140311760Y-110122485D01*
X140311754Y-110122488D01*
X140230557Y-110169367D01*
X139754730Y-110645195D01*
X139719516Y-110659781D01*
X139445921Y-110659781D01*
X139445911Y-110659782D01*
X139420391Y-110662742D01*
X139315973Y-110708846D01*
X139235263Y-110789556D01*
X139189161Y-110893967D01*
X139189160Y-110893973D01*
X139186198Y-110919500D01*
X139186198Y-111407457D01*
X139186199Y-111407467D01*
X139189159Y-111432987D01*
X139189159Y-111432989D01*
X139189160Y-111432990D01*
X139195548Y-111447457D01*
X139235263Y-111537405D01*
X139315973Y-111618115D01*
X139418214Y-111663259D01*
X139420389Y-111664219D01*
X139445919Y-111667181D01*
X140033876Y-111667180D01*
X140059407Y-111664219D01*
X140163823Y-111618115D01*
X140244532Y-111537406D01*
X140290636Y-111432990D01*
X140293598Y-111407460D01*
X140293597Y-111134158D01*
X140308182Y-111098946D01*
X140529706Y-110877422D01*
X140564919Y-110862837D01*
X140591843Y-110870743D01*
X140598366Y-110874935D01*
X140598367Y-110874935D01*
X140598373Y-110874939D01*
X140724657Y-110912019D01*
X140724658Y-110912019D01*
X140856270Y-110912019D01*
X140856271Y-110912019D01*
X140982555Y-110874939D01*
X141030935Y-110843846D01*
X141068443Y-110837079D01*
X141099752Y-110858816D01*
X141107658Y-110885741D01*
X141107658Y-111046579D01*
X141107659Y-111046589D01*
X141110619Y-111072109D01*
X141110619Y-111072111D01*
X141110620Y-111072112D01*
X141122468Y-111098945D01*
X141156723Y-111176527D01*
X141237433Y-111257237D01*
X141337602Y-111301466D01*
X141341849Y-111303341D01*
X141367379Y-111306303D01*
X142455336Y-111306302D01*
X142480867Y-111303341D01*
X142585283Y-111257237D01*
X142595431Y-111247087D01*
X142630639Y-111232500D01*
X142963658Y-111232500D01*
X142998872Y-111247086D01*
X143013458Y-111282300D01*
X143013458Y-111435036D01*
X142998872Y-111470250D01*
X142811006Y-111658117D01*
X142775792Y-111672703D01*
X142630645Y-111672703D01*
X142595431Y-111658117D01*
X142585282Y-111647968D01*
X142480871Y-111601866D01*
X142480868Y-111601865D01*
X142480867Y-111601865D01*
X142455337Y-111598903D01*
X141367381Y-111598903D01*
X141367371Y-111598904D01*
X141341851Y-111601864D01*
X141237433Y-111647968D01*
X141156723Y-111728678D01*
X141110621Y-111833089D01*
X141110620Y-111833095D01*
X141107658Y-111858622D01*
X141107658Y-112046579D01*
X141107659Y-112046589D01*
X141110619Y-112072109D01*
X141110619Y-112072111D01*
X141110620Y-112072112D01*
X141122449Y-112098903D01*
X141156723Y-112176527D01*
X141237433Y-112257237D01*
X141333471Y-112299642D01*
X141341849Y-112303341D01*
X141367379Y-112306303D01*
X142455336Y-112306302D01*
X142480867Y-112303341D01*
X142585283Y-112257237D01*
X142595431Y-112247089D01*
X142630645Y-112232503D01*
X142949208Y-112232503D01*
X143020395Y-112213428D01*
X143072069Y-112183593D01*
X143109858Y-112178619D01*
X143140097Y-112201822D01*
X143145072Y-112239611D01*
X143132183Y-112261936D01*
X142736005Y-112658114D01*
X142700791Y-112672700D01*
X142630642Y-112672700D01*
X142595428Y-112658114D01*
X142585282Y-112647968D01*
X142480871Y-112601866D01*
X142480868Y-112601865D01*
X142480867Y-112601865D01*
X142455337Y-112598903D01*
X141367381Y-112598903D01*
X141367371Y-112598904D01*
X141341851Y-112601864D01*
X141237433Y-112647968D01*
X141156723Y-112728678D01*
X141110621Y-112833089D01*
X141110620Y-112833095D01*
X141107658Y-112858622D01*
X141107658Y-113046579D01*
X141107659Y-113046589D01*
X141110619Y-113072109D01*
X141110619Y-113072111D01*
X141110620Y-113072112D01*
X141115849Y-113083955D01*
X141156723Y-113176527D01*
X141156724Y-113176528D01*
X141237433Y-113257237D01*
X141341849Y-113303341D01*
X141367379Y-113306303D01*
X142455336Y-113306302D01*
X142480867Y-113303341D01*
X142585283Y-113257237D01*
X142595434Y-113247086D01*
X142630648Y-113232500D01*
X142874209Y-113232500D01*
X142945396Y-113213425D01*
X142982245Y-113192149D01*
X143009220Y-113176576D01*
X143836634Y-112349162D01*
X143873483Y-112285337D01*
X143892558Y-112214150D01*
X143892558Y-112140450D01*
X143892558Y-111301466D01*
X143907144Y-111266252D01*
X143975938Y-111197458D01*
X145168337Y-110005066D01*
X145205185Y-109941241D01*
X145205186Y-109941240D01*
X145224261Y-109870053D01*
X145224261Y-106176666D01*
X145205186Y-106105479D01*
X145205186Y-106105478D01*
X145168337Y-106041653D01*
X144130288Y-105003604D01*
X145901816Y-105003604D01*
X145920546Y-105133873D01*
X145920548Y-105133880D01*
X145975220Y-105253598D01*
X145975224Y-105253603D01*
X146061409Y-105353066D01*
X146061411Y-105353067D01*
X146172125Y-105424219D01*
X146172126Y-105424219D01*
X146172132Y-105424223D01*
X146298416Y-105461303D01*
X146298417Y-105461303D01*
X146430029Y-105461303D01*
X146430030Y-105461303D01*
X146556314Y-105424223D01*
X146667035Y-105353067D01*
X146674043Y-105344980D01*
X146700074Y-105314938D01*
X146753225Y-105253599D01*
X146807899Y-105133878D01*
X146825598Y-105010783D01*
X146826630Y-105003604D01*
X146826630Y-105003601D01*
X146813118Y-104909626D01*
X146807899Y-104873328D01*
X146753225Y-104753607D01*
X146693562Y-104684753D01*
X146681525Y-104648589D01*
X146685641Y-104632025D01*
X146712096Y-104572112D01*
X146715058Y-104546582D01*
X146715057Y-103458625D01*
X146712096Y-103433094D01*
X146665992Y-103328678D01*
X146585283Y-103247969D01*
X146585282Y-103247968D01*
X146480871Y-103201866D01*
X146480868Y-103201865D01*
X146480867Y-103201865D01*
X146455337Y-103198903D01*
X146267381Y-103198903D01*
X146267371Y-103198904D01*
X146241851Y-103201864D01*
X146137433Y-103247968D01*
X146056723Y-103328678D01*
X146010621Y-103433089D01*
X146010620Y-103433095D01*
X146007658Y-103458622D01*
X146007658Y-104546579D01*
X146007659Y-104546589D01*
X146010619Y-104572109D01*
X146010619Y-104572111D01*
X146010620Y-104572112D01*
X146020541Y-104594580D01*
X146039008Y-104636406D01*
X146039888Y-104674511D01*
X146031088Y-104689131D01*
X146002704Y-104721890D01*
X145975221Y-104753607D01*
X145975220Y-104753607D01*
X145920548Y-104873325D01*
X145920546Y-104873332D01*
X145901816Y-105003601D01*
X145901816Y-105003604D01*
X144130288Y-105003604D01*
X143716390Y-104589706D01*
X143701804Y-104554492D01*
X143701804Y-102876208D01*
X143693249Y-102844284D01*
X143682729Y-102805022D01*
X143645880Y-102741197D01*
X143593766Y-102689083D01*
X141205278Y-100300595D01*
X141190692Y-100265381D01*
X141205278Y-100230167D01*
X141240492Y-100215581D01*
X141737658Y-100215581D01*
X141772872Y-100230167D01*
X141787458Y-100265381D01*
X141787458Y-100325969D01*
X141806532Y-100397153D01*
X141806535Y-100397160D01*
X141843381Y-100460980D01*
X144566872Y-103184471D01*
X144581458Y-103219685D01*
X144581458Y-103283316D01*
X144566872Y-103318530D01*
X144556723Y-103328678D01*
X144510621Y-103433089D01*
X144510620Y-103433095D01*
X144507658Y-103458622D01*
X144507658Y-104546579D01*
X144507659Y-104546589D01*
X144510619Y-104572109D01*
X144510619Y-104572111D01*
X144510620Y-104572112D01*
X144520541Y-104594580D01*
X144556723Y-104676527D01*
X144637433Y-104757237D01*
X144711174Y-104789797D01*
X144741849Y-104803341D01*
X144767379Y-104806303D01*
X144955336Y-104806302D01*
X144980867Y-104803341D01*
X145085283Y-104757237D01*
X145085282Y-104757237D01*
X145089505Y-104755373D01*
X145090295Y-104757162D01*
X145120500Y-104750785D01*
X145132958Y-104755945D01*
X145133211Y-104755373D01*
X145211174Y-104789797D01*
X145241849Y-104803341D01*
X145267379Y-104806303D01*
X145455336Y-104806302D01*
X145480867Y-104803341D01*
X145585283Y-104757237D01*
X145665992Y-104676528D01*
X145712096Y-104572112D01*
X145715058Y-104546582D01*
X145715057Y-103458625D01*
X145712096Y-103433094D01*
X145665992Y-103328678D01*
X145655844Y-103318530D01*
X145641258Y-103283316D01*
X145641258Y-103001230D01*
X145624572Y-102938960D01*
X145622183Y-102930044D01*
X145585334Y-102866219D01*
X145533220Y-102814105D01*
X145533219Y-102814104D01*
X144531629Y-101812514D01*
X144517043Y-101777300D01*
X144531629Y-101742086D01*
X144566843Y-101727500D01*
X146034841Y-101727500D01*
X146070055Y-101742086D01*
X146084641Y-101777300D01*
X146084309Y-101783041D01*
X146083661Y-101788624D01*
X146083661Y-102376579D01*
X146083662Y-102376589D01*
X146086622Y-102402109D01*
X146132726Y-102506527D01*
X146132727Y-102506528D01*
X146213436Y-102587237D01*
X146288920Y-102620566D01*
X146315242Y-102648133D01*
X146316908Y-102653234D01*
X146334266Y-102718017D01*
X146334270Y-102718025D01*
X146381149Y-102799222D01*
X146450286Y-102868359D01*
X146450292Y-102868364D01*
X146990672Y-103408744D01*
X147005258Y-103443958D01*
X147005258Y-103955722D01*
X147005258Y-104737856D01*
X147029525Y-104828425D01*
X147076407Y-104909626D01*
X147142707Y-104975926D01*
X147142708Y-104975926D01*
X147342596Y-105175816D01*
X147350506Y-105186124D01*
X147350694Y-105186450D01*
X147350697Y-105186454D01*
X147493767Y-105329524D01*
X147623218Y-105458974D01*
X147637804Y-105494188D01*
X147637804Y-105538929D01*
X147623218Y-105574143D01*
X147454588Y-105742773D01*
X147423453Y-105755669D01*
X147423624Y-105756852D01*
X147420097Y-105757359D01*
X147293813Y-105794439D01*
X147293811Y-105794439D01*
X147293806Y-105794442D01*
X147183092Y-105865594D01*
X147183090Y-105865595D01*
X147096905Y-105965058D01*
X147096901Y-105965063D01*
X147042229Y-106084781D01*
X147042227Y-106084788D01*
X147023497Y-106215057D01*
X147023497Y-106215060D01*
X147042227Y-106345329D01*
X147042229Y-106345336D01*
X147096901Y-106465054D01*
X147096905Y-106465059D01*
X147183090Y-106564522D01*
X147183092Y-106564523D01*
X147293806Y-106635675D01*
X147293807Y-106635675D01*
X147293813Y-106635679D01*
X147420097Y-106672759D01*
X147420098Y-106672759D01*
X147551710Y-106672759D01*
X147551711Y-106672759D01*
X147677995Y-106635679D01*
X147788716Y-106564523D01*
X147789038Y-106564152D01*
X147810011Y-106539947D01*
X147874906Y-106465055D01*
X147929580Y-106345334D01*
X147939034Y-106279576D01*
X147953112Y-106251451D01*
X148208454Y-105996108D01*
X148208459Y-105996105D01*
X148212553Y-105992010D01*
X148212555Y-105992010D01*
X148278855Y-105925710D01*
X148325737Y-105844509D01*
X148345218Y-105771802D01*
X148346944Y-105765361D01*
X148346944Y-105765359D01*
X148350004Y-105753940D01*
X148350004Y-105514395D01*
X148364590Y-105479181D01*
X148507819Y-105335952D01*
X148543033Y-105321366D01*
X149445408Y-105321366D01*
X149480622Y-105335952D01*
X149495208Y-105371166D01*
X149480622Y-105406380D01*
X149472331Y-105413061D01*
X149467544Y-105416136D01*
X149381359Y-105515599D01*
X149381355Y-105515604D01*
X149326683Y-105635322D01*
X149326681Y-105635329D01*
X149307951Y-105765598D01*
X149307951Y-105765601D01*
X149326681Y-105895870D01*
X149326683Y-105895877D01*
X149381355Y-106015595D01*
X149381359Y-106015600D01*
X149467544Y-106115063D01*
X149467546Y-106115064D01*
X149578260Y-106186216D01*
X149578261Y-106186216D01*
X149578267Y-106186220D01*
X149704551Y-106223300D01*
X149736174Y-106223300D01*
X149771388Y-106237886D01*
X149785974Y-106273100D01*
X149785467Y-106280188D01*
X149781454Y-106308096D01*
X149781454Y-106308098D01*
X149800184Y-106438367D01*
X149800186Y-106438374D01*
X149854858Y-106558091D01*
X149854862Y-106558097D01*
X149941047Y-106657560D01*
X149941049Y-106657561D01*
X150051763Y-106728713D01*
X150051764Y-106728713D01*
X150051770Y-106728717D01*
X150178054Y-106765797D01*
X150178055Y-106765797D01*
X150309667Y-106765797D01*
X150309668Y-106765797D01*
X150435952Y-106728717D01*
X150546673Y-106657561D01*
X150554985Y-106647969D01*
X150592058Y-106605185D01*
X150626141Y-106588124D01*
X150629694Y-106587997D01*
X151042711Y-106587997D01*
X151094716Y-106574062D01*
X151113896Y-106568923D01*
X151113900Y-106568921D01*
X151132655Y-106558093D01*
X151177721Y-106532075D01*
X151436700Y-106273100D01*
X151462712Y-106247089D01*
X151497926Y-106232503D01*
X152592071Y-106232503D01*
X152627285Y-106247089D01*
X152637433Y-106257237D01*
X152734490Y-106300092D01*
X152741849Y-106303341D01*
X152767379Y-106306303D01*
X153855336Y-106306302D01*
X153880867Y-106303341D01*
X153985283Y-106257237D01*
X154065992Y-106176528D01*
X154112096Y-106072112D01*
X154115058Y-106046582D01*
X154115057Y-105858625D01*
X154112096Y-105833094D01*
X154065992Y-105728678D01*
X153985283Y-105647969D01*
X153985282Y-105647968D01*
X153880871Y-105601866D01*
X153880868Y-105601865D01*
X153880867Y-105601865D01*
X153855337Y-105598903D01*
X152767381Y-105598903D01*
X152767371Y-105598904D01*
X152741851Y-105601864D01*
X152637433Y-105647968D01*
X152627285Y-105658117D01*
X152592071Y-105672703D01*
X151522318Y-105672703D01*
X151487104Y-105658117D01*
X151472518Y-105622903D01*
X151487104Y-105587689D01*
X151535864Y-105538929D01*
X151585334Y-105489459D01*
X151622183Y-105425634D01*
X151641258Y-105354447D01*
X151641258Y-105280747D01*
X151641258Y-104721890D01*
X151655844Y-104686676D01*
X151657767Y-104684753D01*
X151665992Y-104676528D01*
X151712096Y-104572112D01*
X151715058Y-104546582D01*
X151715057Y-103458625D01*
X151712096Y-103433094D01*
X151665992Y-103328678D01*
X151585283Y-103247969D01*
X151585282Y-103247968D01*
X151480871Y-103201866D01*
X151480868Y-103201865D01*
X151480867Y-103201865D01*
X151455337Y-103198903D01*
X151267381Y-103198903D01*
X151267371Y-103198904D01*
X151241849Y-103201864D01*
X151211172Y-103215409D01*
X151173067Y-103216289D01*
X151145501Y-103189966D01*
X151141258Y-103169852D01*
X151141258Y-102004479D01*
X151155844Y-101969265D01*
X151191058Y-101954679D01*
X151226272Y-101969265D01*
X151706928Y-102449921D01*
X151759042Y-102502035D01*
X151822867Y-102538884D01*
X151894054Y-102557959D01*
X152096505Y-102557959D01*
X152131719Y-102572545D01*
X152146305Y-102607759D01*
X152146305Y-102857045D01*
X152149265Y-102882565D01*
X152149265Y-102882567D01*
X152149266Y-102882568D01*
X152158362Y-102903169D01*
X152195369Y-102986983D01*
X152276079Y-103067693D01*
X152370629Y-103109441D01*
X152380495Y-103113797D01*
X152406025Y-103116759D01*
X152928982Y-103116758D01*
X152954513Y-103113797D01*
X153053790Y-103069961D01*
X153091894Y-103069082D01*
X153094015Y-103069960D01*
X153107218Y-103075790D01*
X153133541Y-103103356D01*
X153136904Y-103121347D01*
X153136904Y-103462499D01*
X153124741Y-103495111D01*
X153104002Y-103519045D01*
X153104001Y-103519045D01*
X153049329Y-103638763D01*
X153049327Y-103638770D01*
X153030597Y-103769039D01*
X153030597Y-103769042D01*
X153049327Y-103899311D01*
X153049329Y-103899318D01*
X153104001Y-104019036D01*
X153104005Y-104019041D01*
X153190190Y-104118504D01*
X153190192Y-104118505D01*
X153300906Y-104189657D01*
X153300907Y-104189657D01*
X153300913Y-104189661D01*
X153427197Y-104226741D01*
X153427198Y-104226741D01*
X153558810Y-104226741D01*
X153558811Y-104226741D01*
X153685095Y-104189661D01*
X153795816Y-104118505D01*
X153882006Y-104019037D01*
X153936680Y-103899316D01*
X153955411Y-103769041D01*
X153951706Y-103743276D01*
X153947445Y-103713638D01*
X153936680Y-103638766D01*
X153882006Y-103519045D01*
X153861266Y-103495110D01*
X153849104Y-103462499D01*
X153849104Y-103109441D01*
X153863690Y-103074227D01*
X153870764Y-103068354D01*
X153871726Y-103067694D01*
X153871729Y-103067693D01*
X153952438Y-102986984D01*
X153998542Y-102882568D01*
X154001504Y-102857038D01*
X154001503Y-101699081D01*
X153998542Y-101673550D01*
X153952438Y-101569134D01*
X153871729Y-101488425D01*
X153871728Y-101488424D01*
X153767317Y-101442322D01*
X153767314Y-101442321D01*
X153767313Y-101442321D01*
X153741783Y-101439359D01*
X153218827Y-101439359D01*
X153218817Y-101439360D01*
X153193297Y-101442320D01*
X153094019Y-101486155D01*
X153055914Y-101487035D01*
X153053789Y-101486155D01*
X152954517Y-101442322D01*
X152954514Y-101442321D01*
X152954513Y-101442321D01*
X152928983Y-101439359D01*
X152406027Y-101439359D01*
X152406017Y-101439360D01*
X152380497Y-101442320D01*
X152276079Y-101488424D01*
X152195369Y-101569134D01*
X152149267Y-101673545D01*
X152149266Y-101673551D01*
X152146304Y-101699078D01*
X152146304Y-101948359D01*
X152131718Y-101983573D01*
X152096504Y-101998159D01*
X152067470Y-101998159D01*
X152032256Y-101983573D01*
X150662497Y-100613814D01*
X150598677Y-100576968D01*
X150598674Y-100576967D01*
X150598673Y-100576966D01*
X150598671Y-100576965D01*
X150598670Y-100576965D01*
X150527486Y-100557891D01*
X147933439Y-100557891D01*
X147898225Y-100543305D01*
X147822237Y-100467317D01*
X147587949Y-100233027D01*
X147587948Y-100233026D01*
X147524128Y-100196180D01*
X147524125Y-100196179D01*
X147524124Y-100196178D01*
X147524122Y-100196177D01*
X147524121Y-100196177D01*
X147452937Y-100177103D01*
X147452936Y-100177103D01*
X145811574Y-100177103D01*
X145776360Y-100162517D01*
X145589316Y-99975473D01*
X145574730Y-99940259D01*
X145589316Y-99905045D01*
X145624530Y-99890459D01*
X145995503Y-99890459D01*
X146018111Y-99895887D01*
G37*
%TD.AperFunction*%
%TA.AperFunction,Conductor*%
G36*
X147717735Y-117541083D02*
G01*
X147784795Y-117570693D01*
X147799852Y-117577341D01*
X147825382Y-117580303D01*
X148413339Y-117580302D01*
X148438870Y-117577341D01*
X148511545Y-117545251D01*
X148549648Y-117544372D01*
X148577215Y-117570693D01*
X148581458Y-117590809D01*
X148581458Y-117689941D01*
X148581458Y-117763641D01*
X148600533Y-117834828D01*
X148637382Y-117898653D01*
X149247835Y-118509106D01*
X149299949Y-118561220D01*
X149363774Y-118598069D01*
X149434960Y-118617144D01*
X149843410Y-118617144D01*
X149878624Y-118631730D01*
X149893210Y-118666944D01*
X149878624Y-118702158D01*
X149848897Y-118731884D01*
X149848895Y-118731886D01*
X149848895Y-118731887D01*
X149788698Y-118831464D01*
X149760487Y-118878130D01*
X149760485Y-118878134D01*
X149718841Y-119011775D01*
X149694439Y-119041055D01*
X149671296Y-119046759D01*
X146482992Y-119046759D01*
X146447778Y-119032173D01*
X146339721Y-118924116D01*
X146325135Y-118888902D01*
X146339721Y-118853688D01*
X146374935Y-118839102D01*
X146889127Y-118839102D01*
X146899143Y-118837642D01*
X146957877Y-118829086D01*
X147063927Y-118777242D01*
X147147397Y-118693772D01*
X147199241Y-118587722D01*
X147209258Y-118518972D01*
X147209257Y-117998879D01*
X147223843Y-117963666D01*
X147225532Y-117962054D01*
X147568621Y-117650100D01*
X147577220Y-117643821D01*
X147580012Y-117642210D01*
X147606368Y-117615852D01*
X147608060Y-117614240D01*
X147633830Y-117590809D01*
X147635610Y-117589191D01*
X147637350Y-117586481D01*
X147644033Y-117578188D01*
X147646312Y-117575910D01*
X147654491Y-117561741D01*
X147684728Y-117538538D01*
X147717735Y-117541083D01*
G37*
%TD.AperFunction*%
%TA.AperFunction,Conductor*%
G36*
X150012250Y-101417620D02*
G01*
X150047460Y-101432205D01*
X150047462Y-101432207D01*
X150047463Y-101432208D01*
X150059139Y-101443885D01*
X150073724Y-101479099D01*
X150059136Y-101514312D01*
X150023924Y-101528897D01*
X149899381Y-101528897D01*
X149899371Y-101528898D01*
X149873851Y-101531858D01*
X149769433Y-101577962D01*
X149688723Y-101658672D01*
X149642621Y-101763083D01*
X149642620Y-101763089D01*
X149639658Y-101788616D01*
X149639658Y-102376573D01*
X149639659Y-102376583D01*
X149642619Y-102402103D01*
X149642619Y-102402105D01*
X149642620Y-102402106D01*
X149642623Y-102402112D01*
X149688723Y-102506521D01*
X149755074Y-102572872D01*
X149769660Y-102608086D01*
X149755074Y-102643300D01*
X149576406Y-102821968D01*
X149531593Y-102899587D01*
X149529525Y-102903169D01*
X149529524Y-102903173D01*
X149505258Y-102993736D01*
X149505258Y-104559366D01*
X149490672Y-104594580D01*
X149455458Y-104609166D01*
X149263709Y-104609166D01*
X149228495Y-104594580D01*
X149213909Y-104559366D01*
X149214241Y-104553628D01*
X149215057Y-104546588D01*
X149215058Y-104546582D01*
X149215057Y-103458625D01*
X149212096Y-103433094D01*
X149165992Y-103328678D01*
X149155844Y-103318530D01*
X149141258Y-103283316D01*
X149141258Y-102796115D01*
X149126542Y-102741197D01*
X149122183Y-102724929D01*
X149085334Y-102661104D01*
X149033220Y-102608990D01*
X147926863Y-101502633D01*
X147912277Y-101467419D01*
X147926863Y-101432205D01*
X147962076Y-101417619D01*
X150012250Y-101417620D01*
G37*
%TD.AperFunction*%
%TD*%
M02*
