%TF.GenerationSoftware,KiCad,Pcbnew,8.99.0-unknown-4e8e14ae3a~177~ubuntu22.04.1*%
%TF.CreationDate,2024-03-17T18:05:33+10:00*%
%TF.ProjectId,AVEFlex,41564546-6c65-4782-9e6b-696361645f70,rev?*%
%TF.SameCoordinates,Original*%
%TF.FileFunction,Legend,Top*%
%TF.FilePolarity,Positive*%
%FSLAX46Y46*%
G04 Gerber Fmt 4.6, Leading zero omitted, Abs format (unit mm)*
G04 Created by KiCad (PCBNEW 8.99.0-unknown-4e8e14ae3a~177~ubuntu22.04.1) date 2024-03-17 18:05:33*
%MOMM*%
%LPD*%
G01*
G04 APERTURE LIST*
%ADD10C,0.300000*%
%ADD11C,0.127000*%
%ADD12C,0.101600*%
%ADD13C,0.152400*%
%ADD14C,0.000000*%
%ADD15C,0.254000*%
%ADD16C,0.203200*%
G04 APERTURE END LIST*
D10*
X140845089Y-90418650D02*
G75*
G02*
X141532833Y-90144603I687745J-725953D01*
G01*
D11*
X157358904Y-114960059D02*
X157300904Y-114996059D01*
X157300904Y-114996059D02*
X157242904Y-115069059D01*
X157242904Y-115069059D02*
X157213904Y-115141059D01*
X157213904Y-115141059D02*
X157213904Y-115286059D01*
X157213904Y-115286059D02*
X157242904Y-115359059D01*
X157242904Y-115359059D02*
X157300904Y-115432059D01*
X157300904Y-115432059D02*
X157358904Y-115468059D01*
X157358904Y-115468059D02*
X157445904Y-115504059D01*
X157445904Y-115504059D02*
X157591904Y-115504059D01*
X157591904Y-115504059D02*
X157678904Y-115468059D01*
X157678904Y-115468059D02*
X157736904Y-115432059D01*
X157736904Y-115432059D02*
X157794904Y-115359059D01*
X157794904Y-115359059D02*
X157823904Y-115286059D01*
X157823904Y-115286059D02*
X157823904Y-115141059D01*
X157823904Y-115141059D02*
X157794904Y-115069059D01*
X157794904Y-115069059D02*
X157736904Y-114996059D01*
X157736904Y-114996059D02*
X157678904Y-114960059D01*
X157213904Y-111966059D02*
X157503904Y-111966059D01*
X157503904Y-111966059D02*
X157823904Y-111966059D01*
X157213904Y-111966059D02*
X157213904Y-111640059D01*
X157213904Y-111640059D02*
X157242904Y-111531059D01*
X157242904Y-111531059D02*
X157271904Y-111495059D01*
X157271904Y-111495059D02*
X157329904Y-111458059D01*
X157329904Y-111458059D02*
X157387904Y-111458059D01*
X157387904Y-111458059D02*
X157445904Y-111495059D01*
X157445904Y-111495059D02*
X157474904Y-111531059D01*
X157474904Y-111531059D02*
X157503904Y-111640059D01*
X157503904Y-111640059D02*
X157503904Y-111712059D01*
X157503904Y-111712059D02*
X157503904Y-111966059D01*
X157503904Y-111712059D02*
X157823904Y-111458059D01*
X157358904Y-108211059D02*
X157300904Y-108247059D01*
X157300904Y-108247059D02*
X157242904Y-108320059D01*
X157242904Y-108320059D02*
X157213904Y-108392059D01*
X157213904Y-108392059D02*
X157213904Y-108537059D01*
X157213904Y-108537059D02*
X157242904Y-108610059D01*
X157242904Y-108610059D02*
X157300904Y-108682059D01*
X157300904Y-108682059D02*
X157358904Y-108719059D01*
X157358904Y-108719059D02*
X157445904Y-108755059D01*
X157445904Y-108755059D02*
X157591904Y-108755059D01*
X157591904Y-108755059D02*
X157678904Y-108719059D01*
X157678904Y-108719059D02*
X157736904Y-108682059D01*
X157736904Y-108682059D02*
X157794904Y-108610059D01*
X157794904Y-108610059D02*
X157823904Y-108537059D01*
X157823904Y-108537059D02*
X157823904Y-108392059D01*
X157823904Y-108392059D02*
X157794904Y-108320059D01*
X157794904Y-108320059D02*
X157736904Y-108247059D01*
X157736904Y-108247059D02*
X157678904Y-108211059D01*
X157678904Y-108211059D02*
X157591904Y-108211059D01*
X157591904Y-108392059D02*
X157591904Y-108211059D01*
X157213904Y-105598059D02*
X157503904Y-105598059D01*
X157503904Y-105598059D02*
X157823904Y-105598059D01*
X157213904Y-105598059D02*
X157213904Y-105272059D01*
X157213904Y-105272059D02*
X157242904Y-105163059D01*
X157242904Y-105163059D02*
X157271904Y-105126059D01*
X157271904Y-105126059D02*
X157329904Y-105090059D01*
X157329904Y-105090059D02*
X157387904Y-105090059D01*
X157387904Y-105090059D02*
X157445904Y-105126059D01*
X157445904Y-105126059D02*
X157474904Y-105163059D01*
X157474904Y-105163059D02*
X157503904Y-105272059D01*
X157503904Y-105598059D02*
X157503904Y-105272059D01*
X157503904Y-105272059D02*
X157533904Y-105163059D01*
X157533904Y-105163059D02*
X157562904Y-105126059D01*
X157562904Y-105126059D02*
X157620904Y-105090059D01*
X157620904Y-105090059D02*
X157707904Y-105090059D01*
X157707904Y-105090059D02*
X157765904Y-105126059D01*
X157765904Y-105126059D02*
X157794904Y-105163059D01*
X157794904Y-105163059D02*
X157823904Y-105272059D01*
X157823904Y-105272059D02*
X157823904Y-105598059D01*
X141027345Y-117533100D02*
X141027345Y-117823100D01*
X141027345Y-117823100D02*
X141027345Y-118143100D01*
X141535345Y-117533100D02*
X141535345Y-117823100D01*
X141535345Y-117823100D02*
X141535345Y-118143100D01*
X141027345Y-117823100D02*
X141535345Y-117823100D01*
X143209204Y-117545797D02*
X143500204Y-118155797D01*
X143790204Y-117517859D02*
X143500204Y-118155797D01*
X150279904Y-100525059D02*
X150279904Y-100642059D01*
X150279904Y-100642059D02*
X150279904Y-100932059D01*
X150279904Y-100642059D02*
X150388904Y-100554059D01*
X150388904Y-100554059D02*
X150460904Y-100525059D01*
X150460904Y-100525059D02*
X150569904Y-100525059D01*
X150569904Y-100525059D02*
X150642904Y-100554059D01*
X150642904Y-100554059D02*
X150678904Y-100642059D01*
X150678904Y-100642059D02*
X150678904Y-100932059D01*
X150678904Y-100642059D02*
X150787904Y-100554059D01*
X150787904Y-100554059D02*
X150860904Y-100525059D01*
X150860904Y-100525059D02*
X150968904Y-100525059D01*
X150968904Y-100525059D02*
X151041904Y-100554059D01*
X151041904Y-100554059D02*
X151077904Y-100642059D01*
X151077904Y-100642059D02*
X151077904Y-100932059D01*
X151513904Y-100525059D02*
X151440904Y-100554059D01*
X151440904Y-100554059D02*
X151368904Y-100612059D01*
X151368904Y-100612059D02*
X151331904Y-100700059D01*
X151331904Y-100700059D02*
X151331904Y-100758059D01*
X151331904Y-100758059D02*
X151368904Y-100845059D01*
X151368904Y-100845059D02*
X151440904Y-100903059D01*
X151440904Y-100903059D02*
X151513904Y-100932059D01*
X151513904Y-100932059D02*
X151622904Y-100932059D01*
X151622904Y-100932059D02*
X151694904Y-100903059D01*
X151694904Y-100903059D02*
X151767904Y-100845059D01*
X151767904Y-100845059D02*
X151803904Y-100758059D01*
X151803904Y-100758059D02*
X151803904Y-100700059D01*
X151803904Y-100700059D02*
X151767904Y-100612059D01*
X151767904Y-100612059D02*
X151694904Y-100554059D01*
X151694904Y-100554059D02*
X151622904Y-100525059D01*
X151622904Y-100525059D02*
X151513904Y-100525059D01*
X152456904Y-100322059D02*
X152456904Y-100612059D01*
X152456904Y-100612059D02*
X152456904Y-100845059D01*
X152456904Y-100845059D02*
X152456904Y-100932059D01*
X152456904Y-100612059D02*
X152384904Y-100554059D01*
X152384904Y-100554059D02*
X152311904Y-100525059D01*
X152311904Y-100525059D02*
X152202904Y-100525059D01*
X152202904Y-100525059D02*
X152130904Y-100554059D01*
X152130904Y-100554059D02*
X152057904Y-100612059D01*
X152057904Y-100612059D02*
X152021904Y-100700059D01*
X152021904Y-100700059D02*
X152021904Y-100758059D01*
X152021904Y-100758059D02*
X152057904Y-100845059D01*
X152057904Y-100845059D02*
X152130904Y-100903059D01*
X152130904Y-100903059D02*
X152202904Y-100932059D01*
X152202904Y-100932059D02*
X152311904Y-100932059D01*
X152311904Y-100932059D02*
X152384904Y-100903059D01*
X152384904Y-100903059D02*
X152456904Y-100845059D01*
X152710904Y-100700059D02*
X153146904Y-100700059D01*
X153146904Y-100700059D02*
X153146904Y-100642059D01*
X153146904Y-100642059D02*
X153109904Y-100583059D01*
X153109904Y-100583059D02*
X153073904Y-100554059D01*
X153073904Y-100554059D02*
X153000904Y-100525059D01*
X153000904Y-100525059D02*
X152892904Y-100525059D01*
X152892904Y-100525059D02*
X152819904Y-100554059D01*
X152819904Y-100554059D02*
X152746904Y-100612059D01*
X152746904Y-100612059D02*
X152710904Y-100700059D01*
X152710904Y-100700059D02*
X152710904Y-100758059D01*
X152710904Y-100758059D02*
X152746904Y-100845059D01*
X152746904Y-100845059D02*
X152819904Y-100903059D01*
X152819904Y-100903059D02*
X152892904Y-100932059D01*
X152892904Y-100932059D02*
X153000904Y-100932059D01*
X153000904Y-100932059D02*
X153073904Y-100903059D01*
X153073904Y-100903059D02*
X153146904Y-100845059D01*
X151224564Y-117865841D02*
X151224564Y-118475841D01*
X151224564Y-118475841D02*
X151659564Y-118475841D01*
X149442145Y-117853141D02*
X149442145Y-118143141D01*
X149442145Y-118143141D02*
X149442145Y-118463141D01*
X149442145Y-117853141D02*
X149769145Y-117853141D01*
X149769145Y-117853141D02*
X149878145Y-117882141D01*
X149878145Y-117882141D02*
X149914145Y-117911141D01*
X149914145Y-117911141D02*
X149950145Y-117969141D01*
X149950145Y-117969141D02*
X149950145Y-118027141D01*
X149950145Y-118027141D02*
X149914145Y-118085141D01*
X149914145Y-118085141D02*
X149878145Y-118114141D01*
X149878145Y-118114141D02*
X149769145Y-118143141D01*
X149769145Y-118143141D02*
X149696145Y-118143141D01*
X149696145Y-118143141D02*
X149442145Y-118143141D01*
X149696145Y-118143141D02*
X149950145Y-118463141D01*
X153733667Y-116412759D02*
X153733667Y-116529759D01*
X153733667Y-116529759D02*
X153733667Y-116819759D01*
X153733667Y-116529759D02*
X153858667Y-116441759D01*
X153858667Y-116441759D02*
X153942667Y-116412759D01*
X153942667Y-116412759D02*
X154067667Y-116412759D01*
X154067667Y-116412759D02*
X154150667Y-116441759D01*
X154150667Y-116441759D02*
X154192667Y-116529759D01*
X154192667Y-116529759D02*
X154192667Y-116819759D01*
X154192667Y-116529759D02*
X154317667Y-116441759D01*
X154317667Y-116441759D02*
X154401667Y-116412759D01*
X154401667Y-116412759D02*
X154526667Y-116412759D01*
X154526667Y-116412759D02*
X154609667Y-116441759D01*
X154609667Y-116441759D02*
X154651667Y-116529759D01*
X154651667Y-116529759D02*
X154651667Y-116819759D01*
X154985667Y-116209759D02*
X154985667Y-116703759D01*
X154985667Y-116703759D02*
X154985667Y-116819759D01*
X155402667Y-116412759D02*
X154985667Y-116703759D01*
X155152667Y-116587759D02*
X155444667Y-116819759D01*
X156111667Y-116499759D02*
X156070667Y-116441759D01*
X156070667Y-116441759D02*
X155945667Y-116412759D01*
X155945667Y-116412759D02*
X155819667Y-116412759D01*
X155819667Y-116412759D02*
X155694667Y-116441759D01*
X155694667Y-116441759D02*
X155652667Y-116499759D01*
X155652667Y-116499759D02*
X155694667Y-116558759D01*
X155694667Y-116558759D02*
X155778667Y-116587759D01*
X155778667Y-116587759D02*
X155986667Y-116616759D01*
X155986667Y-116616759D02*
X156070667Y-116645759D01*
X156070667Y-116645759D02*
X156111667Y-116703759D01*
X156111667Y-116703759D02*
X156111667Y-116732759D01*
X156111667Y-116732759D02*
X156070667Y-116790759D01*
X156070667Y-116790759D02*
X155945667Y-116819759D01*
X155945667Y-116819759D02*
X155819667Y-116819759D01*
X155819667Y-116819759D02*
X155694667Y-116790759D01*
X155694667Y-116790759D02*
X155652667Y-116732759D01*
X153388667Y-117243759D02*
X153388667Y-117214759D01*
X153388667Y-117214759D02*
X153430667Y-117156759D01*
X153430667Y-117156759D02*
X153472667Y-117127759D01*
X153472667Y-117127759D02*
X153555667Y-117098759D01*
X153555667Y-117098759D02*
X153722667Y-117098759D01*
X153722667Y-117098759D02*
X153805667Y-117127759D01*
X153805667Y-117127759D02*
X153847667Y-117156759D01*
X153847667Y-117156759D02*
X153889667Y-117214759D01*
X153889667Y-117214759D02*
X153889667Y-117272759D01*
X153889667Y-117272759D02*
X153847667Y-117330759D01*
X153847667Y-117330759D02*
X153764667Y-117418759D01*
X153764667Y-117418759D02*
X153346667Y-117708759D01*
X153346667Y-117708759D02*
X153931667Y-117708759D01*
X154431667Y-117098759D02*
X154306667Y-117127759D01*
X154306667Y-117127759D02*
X154223667Y-117214759D01*
X154223667Y-117214759D02*
X154181667Y-117359759D01*
X154181667Y-117359759D02*
X154181667Y-117447759D01*
X154181667Y-117447759D02*
X154223667Y-117592759D01*
X154223667Y-117592759D02*
X154306667Y-117679759D01*
X154306667Y-117679759D02*
X154431667Y-117708759D01*
X154431667Y-117708759D02*
X154515667Y-117708759D01*
X154515667Y-117708759D02*
X154640667Y-117679759D01*
X154640667Y-117679759D02*
X154724667Y-117592759D01*
X154724667Y-117592759D02*
X154765667Y-117447759D01*
X154765667Y-117447759D02*
X154765667Y-117359759D01*
X154765667Y-117359759D02*
X154724667Y-117214759D01*
X154724667Y-117214759D02*
X154640667Y-117127759D01*
X154640667Y-117127759D02*
X154515667Y-117098759D01*
X154515667Y-117098759D02*
X154431667Y-117098759D01*
X155057667Y-117243759D02*
X155057667Y-117214759D01*
X155057667Y-117214759D02*
X155099667Y-117156759D01*
X155099667Y-117156759D02*
X155141667Y-117127759D01*
X155141667Y-117127759D02*
X155224667Y-117098759D01*
X155224667Y-117098759D02*
X155391667Y-117098759D01*
X155391667Y-117098759D02*
X155475667Y-117127759D01*
X155475667Y-117127759D02*
X155516667Y-117156759D01*
X155516667Y-117156759D02*
X155558667Y-117214759D01*
X155558667Y-117214759D02*
X155558667Y-117272759D01*
X155558667Y-117272759D02*
X155516667Y-117330759D01*
X155516667Y-117330759D02*
X155433667Y-117418759D01*
X155433667Y-117418759D02*
X155016667Y-117708759D01*
X155016667Y-117708759D02*
X155600667Y-117708759D01*
X155934667Y-117098759D02*
X156393667Y-117098759D01*
X156393667Y-117098759D02*
X156142667Y-117330759D01*
X156142667Y-117330759D02*
X156267667Y-117330759D01*
X156267667Y-117330759D02*
X156351667Y-117359759D01*
X156351667Y-117359759D02*
X156393667Y-117388759D01*
X156393667Y-117388759D02*
X156434667Y-117476759D01*
X156434667Y-117476759D02*
X156434667Y-117534759D01*
X156434667Y-117534759D02*
X156393667Y-117621759D01*
X156393667Y-117621759D02*
X156309667Y-117679759D01*
X156309667Y-117679759D02*
X156184667Y-117708759D01*
X156184667Y-117708759D02*
X156059667Y-117708759D01*
X156059667Y-117708759D02*
X155934667Y-117679759D01*
X155934667Y-117679759D02*
X155892667Y-117650759D01*
X155892667Y-117650759D02*
X155850667Y-117592759D01*
D12*
X142329904Y-101915059D02*
X142329904Y-102234059D01*
X142329904Y-102234059D02*
X142135904Y-102060059D01*
X142135904Y-102060059D02*
X142135904Y-102147059D01*
X142135904Y-102147059D02*
X142111904Y-102205059D01*
X142111904Y-102205059D02*
X142087904Y-102234059D01*
X142087904Y-102234059D02*
X142014904Y-102263059D01*
X142014904Y-102263059D02*
X141966904Y-102263059D01*
X141966904Y-102263059D02*
X141893904Y-102234059D01*
X141893904Y-102234059D02*
X141845904Y-102176059D01*
X141845904Y-102176059D02*
X141821904Y-102089059D01*
X141821904Y-102089059D02*
X141821904Y-102002059D01*
X141821904Y-102002059D02*
X141845904Y-101915059D01*
X141845904Y-101915059D02*
X141869904Y-101886059D01*
X141869904Y-101886059D02*
X141918904Y-101857059D01*
X141942904Y-102467059D02*
X141918904Y-102438059D01*
X141918904Y-102438059D02*
X141893904Y-102467059D01*
X141893904Y-102467059D02*
X141918904Y-102496059D01*
X141918904Y-102496059D02*
X141942904Y-102467059D01*
X142329904Y-102728059D02*
X142329904Y-103047059D01*
X142329904Y-103047059D02*
X142135904Y-102873059D01*
X142135904Y-102873059D02*
X142135904Y-102960059D01*
X142135904Y-102960059D02*
X142111904Y-103018059D01*
X142111904Y-103018059D02*
X142087904Y-103047059D01*
X142087904Y-103047059D02*
X142014904Y-103076059D01*
X142014904Y-103076059D02*
X141966904Y-103076059D01*
X141966904Y-103076059D02*
X141893904Y-103047059D01*
X141893904Y-103047059D02*
X141845904Y-102989059D01*
X141845904Y-102989059D02*
X141821904Y-102902059D01*
X141821904Y-102902059D02*
X141821904Y-102815059D01*
X141821904Y-102815059D02*
X141845904Y-102728059D01*
X141845904Y-102728059D02*
X141869904Y-102699059D01*
X141869904Y-102699059D02*
X141918904Y-102670059D01*
X142086983Y-103896059D02*
X142134983Y-103867059D01*
X142134983Y-103867059D02*
X142183983Y-103809059D01*
X142183983Y-103809059D02*
X142207983Y-103751059D01*
X142207983Y-103751059D02*
X142207983Y-103635059D01*
X142207983Y-103635059D02*
X142183983Y-103577059D01*
X142183983Y-103577059D02*
X142134983Y-103519059D01*
X142134983Y-103519059D02*
X142086983Y-103490059D01*
X142086983Y-103490059D02*
X142013983Y-103461059D01*
X142013983Y-103461059D02*
X141892983Y-103461059D01*
X141892983Y-103461059D02*
X141820983Y-103490059D01*
X141820983Y-103490059D02*
X141771983Y-103519059D01*
X141771983Y-103519059D02*
X141723983Y-103577059D01*
X141723983Y-103577059D02*
X141699983Y-103635059D01*
X141699983Y-103635059D02*
X141699983Y-103751059D01*
X141699983Y-103751059D02*
X141723983Y-103809059D01*
X141723983Y-103809059D02*
X141771983Y-103867059D01*
X141771983Y-103867059D02*
X141820983Y-103896059D01*
X141820983Y-103896059D02*
X141892983Y-103896059D01*
X141892983Y-103751059D02*
X141892983Y-103896059D01*
X141084823Y-104388378D02*
X141108823Y-104446378D01*
X141108823Y-104446378D02*
X141181823Y-104533378D01*
X141181823Y-104533378D02*
X140673823Y-104533378D01*
X140794823Y-104911378D02*
X140770823Y-104882378D01*
X140770823Y-104882378D02*
X140745823Y-104911378D01*
X140745823Y-104911378D02*
X140770823Y-104940378D01*
X140770823Y-104940378D02*
X140794823Y-104911378D01*
X141181823Y-105259378D02*
X141157823Y-105172378D01*
X141157823Y-105172378D02*
X141108823Y-105143378D01*
X141108823Y-105143378D02*
X141060823Y-105143378D01*
X141060823Y-105143378D02*
X141011823Y-105172378D01*
X141011823Y-105172378D02*
X140987823Y-105230378D01*
X140987823Y-105230378D02*
X140963823Y-105346378D01*
X140963823Y-105346378D02*
X140939823Y-105433378D01*
X140939823Y-105433378D02*
X140890823Y-105491378D01*
X140890823Y-105491378D02*
X140842823Y-105520378D01*
X140842823Y-105520378D02*
X140770823Y-105520378D01*
X140770823Y-105520378D02*
X140721823Y-105491378D01*
X140721823Y-105491378D02*
X140697823Y-105462378D01*
X140697823Y-105462378D02*
X140673823Y-105375378D01*
X140673823Y-105375378D02*
X140673823Y-105259378D01*
X140673823Y-105259378D02*
X140697823Y-105172378D01*
X140697823Y-105172378D02*
X140721823Y-105143378D01*
X140721823Y-105143378D02*
X140770823Y-105114378D01*
X140770823Y-105114378D02*
X140842823Y-105114378D01*
X140842823Y-105114378D02*
X140890823Y-105143378D01*
X140890823Y-105143378D02*
X140939823Y-105201378D01*
X140939823Y-105201378D02*
X140963823Y-105288378D01*
X140963823Y-105288378D02*
X140987823Y-105404378D01*
X140987823Y-105404378D02*
X141011823Y-105462378D01*
X141011823Y-105462378D02*
X141060823Y-105491378D01*
X141060823Y-105491378D02*
X141108823Y-105491378D01*
X141108823Y-105491378D02*
X141157823Y-105462378D01*
X141157823Y-105462378D02*
X141181823Y-105375378D01*
X141181823Y-105375378D02*
X141181823Y-105259378D01*
D11*
X155072886Y-118917619D02*
X155036886Y-118859619D01*
X155036886Y-118859619D02*
X154963886Y-118801619D01*
X154963886Y-118801619D02*
X154891886Y-118772619D01*
X154891886Y-118772619D02*
X154745886Y-118772619D01*
X154745886Y-118772619D02*
X154673886Y-118801619D01*
X154673886Y-118801619D02*
X154600886Y-118859619D01*
X154600886Y-118859619D02*
X154564886Y-118917619D01*
X154564886Y-118917619D02*
X154528886Y-119004619D01*
X154528886Y-119004619D02*
X154528886Y-119150619D01*
X154528886Y-119150619D02*
X154564886Y-119237619D01*
X154564886Y-119237619D02*
X154600886Y-119295619D01*
X154600886Y-119295619D02*
X154673886Y-119353619D01*
X154673886Y-119353619D02*
X154745886Y-119382619D01*
X154745886Y-119382619D02*
X154891886Y-119382619D01*
X154891886Y-119382619D02*
X154963886Y-119353619D01*
X154963886Y-119353619D02*
X155036886Y-119295619D01*
X155036886Y-119295619D02*
X155072886Y-119237619D01*
X155072886Y-119237619D02*
X155072886Y-119150619D01*
X154891886Y-119150619D02*
X155072886Y-119150619D01*
X155326886Y-118772619D02*
X155326886Y-119382619D01*
X155326886Y-118772619D02*
X155834886Y-119382619D01*
X155834886Y-118772619D02*
X155834886Y-119382619D01*
X156124886Y-118772619D02*
X156124886Y-119382619D01*
X156124886Y-118772619D02*
X156378886Y-118772619D01*
X156378886Y-118772619D02*
X156487886Y-118801619D01*
X156487886Y-118801619D02*
X156560886Y-118859619D01*
X156560886Y-118859619D02*
X156596886Y-118917619D01*
X156596886Y-118917619D02*
X156632886Y-119004619D01*
X156632886Y-119004619D02*
X156632886Y-119150619D01*
X156632886Y-119150619D02*
X156596886Y-119237619D01*
X156596886Y-119237619D02*
X156560886Y-119295619D01*
X156560886Y-119295619D02*
X156487886Y-119353619D01*
X156487886Y-119353619D02*
X156378886Y-119382619D01*
X156378886Y-119382619D02*
X156124886Y-119382619D01*
X139891286Y-115244759D02*
X139949286Y-115208759D01*
X139949286Y-115208759D02*
X140007286Y-115135759D01*
X140007286Y-115135759D02*
X140036286Y-115063759D01*
X140036286Y-115063759D02*
X140036286Y-114917759D01*
X140036286Y-114917759D02*
X140007286Y-114845759D01*
X140007286Y-114845759D02*
X139949286Y-114772759D01*
X139949286Y-114772759D02*
X139891286Y-114736759D01*
X139891286Y-114736759D02*
X139804286Y-114700759D01*
X139804286Y-114700759D02*
X139658286Y-114700759D01*
X139658286Y-114700759D02*
X139571286Y-114736759D01*
X139571286Y-114736759D02*
X139513286Y-114772759D01*
X139513286Y-114772759D02*
X139455286Y-114845759D01*
X139455286Y-114845759D02*
X139426286Y-114917759D01*
X139426286Y-114917759D02*
X139426286Y-115063759D01*
X139426286Y-115063759D02*
X139455286Y-115135759D01*
X139455286Y-115135759D02*
X139513286Y-115208759D01*
X139513286Y-115208759D02*
X139571286Y-115244759D01*
X139571286Y-115244759D02*
X139658286Y-115244759D01*
X139658286Y-115063759D02*
X139658286Y-115244759D01*
X140036286Y-115498759D02*
X139426286Y-115498759D01*
X140036286Y-115498759D02*
X139426286Y-116006759D01*
X140036286Y-116006759D02*
X139426286Y-116006759D01*
X140036286Y-116296759D02*
X139426286Y-116296759D01*
X140036286Y-116296759D02*
X140036286Y-116550759D01*
X140036286Y-116550759D02*
X140007286Y-116659759D01*
X140007286Y-116659759D02*
X139949286Y-116732759D01*
X139949286Y-116732759D02*
X139891286Y-116768759D01*
X139891286Y-116768759D02*
X139804286Y-116804759D01*
X139804286Y-116804759D02*
X139658286Y-116804759D01*
X139658286Y-116804759D02*
X139571286Y-116768759D01*
X139571286Y-116768759D02*
X139513286Y-116732759D01*
X139513286Y-116732759D02*
X139455286Y-116659759D01*
X139455286Y-116659759D02*
X139426286Y-116550759D01*
X139426286Y-116550759D02*
X139426286Y-116296759D01*
D13*
%TO.C,C2*%
X149398358Y-101858597D02*
X149888358Y-101858597D01*
X149888358Y-102306597D02*
X149398358Y-102306597D01*
%TO.C,C11*%
X155075904Y-104827059D02*
X155075904Y-105317059D01*
X154627904Y-105317059D02*
X154627904Y-104827059D01*
%TO.C,C5*%
X139515898Y-111908481D02*
X139515898Y-111418481D01*
X139963898Y-111418481D02*
X139963898Y-111908481D01*
D11*
%TO.C,C1*%
X146111558Y-117703403D02*
X145199558Y-117703403D01*
X146111558Y-118567403D02*
X145199558Y-118567403D01*
D13*
%TO.C,C3*%
X145842361Y-101858603D02*
X146332361Y-101858603D01*
X146332361Y-102306603D02*
X145842361Y-102306603D01*
%TO.C,C4*%
X139516448Y-107544519D02*
X139516448Y-107054519D01*
X139964448Y-107054519D02*
X139964448Y-107544519D01*
%TO.C,C6*%
X145232758Y-116539800D02*
X145722758Y-116539800D01*
X145722758Y-116987800D02*
X145232758Y-116987800D01*
%TO.C,C7*%
X147895361Y-117821603D02*
X147895361Y-117331603D01*
X148343361Y-117331603D02*
X148343361Y-117821603D01*
%TO.C,C8*%
X150027167Y-116657513D02*
X150517167Y-116657513D01*
X150517167Y-117105513D02*
X150027167Y-117105513D01*
%TO.C,C9*%
X153664564Y-114568641D02*
X154154564Y-114568641D01*
X154154564Y-115016641D02*
X153664564Y-115016641D01*
%TO.C,C10*%
X155858904Y-110884059D02*
X155368904Y-110884059D01*
X155368904Y-110436059D02*
X155858904Y-110436059D01*
D14*
%TO.C,IC1*%
G36*
X153611358Y-106052603D02*
G01*
X152411358Y-106052603D01*
X152411358Y-105852603D01*
X153611358Y-105852603D01*
X153611358Y-106052603D01*
G37*
G36*
X153611358Y-106552603D02*
G01*
X152411358Y-106552603D01*
X152411358Y-106352603D01*
X153611358Y-106352603D01*
X153611358Y-106552603D01*
G37*
G36*
X153611358Y-107052603D02*
G01*
X152411358Y-107052603D01*
X152411358Y-106852603D01*
X153611358Y-106852603D01*
X153611358Y-107052603D01*
G37*
G36*
X153611358Y-107552603D02*
G01*
X152411358Y-107552603D01*
X152411358Y-107352603D01*
X153611358Y-107352603D01*
X153611358Y-107552603D01*
G37*
G36*
X153611358Y-108052603D02*
G01*
X152411358Y-108052603D01*
X152411358Y-107852603D01*
X153611358Y-107852603D01*
X153611358Y-108052603D01*
G37*
G36*
X153611358Y-108552603D02*
G01*
X152411358Y-108552603D01*
X152411358Y-108352603D01*
X153611358Y-108352603D01*
X153611358Y-108552603D01*
G37*
G36*
X153611358Y-109052603D02*
G01*
X152411358Y-109052603D01*
X152411358Y-108852603D01*
X153611358Y-108852603D01*
X153611358Y-109052603D01*
G37*
G36*
X153611358Y-109552603D02*
G01*
X152411358Y-109552603D01*
X152411358Y-109352603D01*
X153611358Y-109352603D01*
X153611358Y-109552603D01*
G37*
G36*
X153611358Y-110052603D02*
G01*
X152411358Y-110052603D01*
X152411358Y-109852603D01*
X153611358Y-109852603D01*
X153611358Y-110052603D01*
G37*
G36*
X153611358Y-110552603D02*
G01*
X152411358Y-110552603D01*
X152411358Y-110352603D01*
X153611358Y-110352603D01*
X153611358Y-110552603D01*
G37*
G36*
X153611358Y-111052603D02*
G01*
X152411358Y-111052603D01*
X152411358Y-110852603D01*
X153611358Y-110852603D01*
X153611358Y-111052603D01*
G37*
G36*
X153611358Y-111552603D02*
G01*
X152411358Y-111552603D01*
X152411358Y-111352603D01*
X153611358Y-111352603D01*
X153611358Y-111552603D01*
G37*
G36*
X153611358Y-112052603D02*
G01*
X152411358Y-112052603D01*
X152411358Y-111852603D01*
X153611358Y-111852603D01*
X153611358Y-112052603D01*
G37*
G36*
X153611358Y-112552603D02*
G01*
X152411358Y-112552603D01*
X152411358Y-112352603D01*
X153611358Y-112352603D01*
X153611358Y-112552603D01*
G37*
G36*
X153611358Y-113052603D02*
G01*
X152411358Y-113052603D01*
X152411358Y-112852603D01*
X153611358Y-112852603D01*
X153611358Y-113052603D01*
G37*
G36*
X153611358Y-113552603D02*
G01*
X152411358Y-113552603D01*
X152411358Y-113352603D01*
X153611358Y-113352603D01*
X153611358Y-113552603D01*
G37*
G36*
X151461358Y-115702603D02*
G01*
X151261358Y-115702603D01*
X151261358Y-114502603D01*
X151461358Y-114502603D01*
X151461358Y-115702603D01*
G37*
G36*
X150961358Y-115702603D02*
G01*
X150761358Y-115702603D01*
X150761358Y-114502603D01*
X150961358Y-114502603D01*
X150961358Y-115702603D01*
G37*
G36*
X150461358Y-115702603D02*
G01*
X150261358Y-115702603D01*
X150261358Y-114502603D01*
X150461358Y-114502603D01*
X150461358Y-115702603D01*
G37*
G36*
X149961358Y-115702603D02*
G01*
X149761358Y-115702603D01*
X149761358Y-114502603D01*
X149961358Y-114502603D01*
X149961358Y-115702603D01*
G37*
G36*
X149461358Y-115702603D02*
G01*
X149261358Y-115702603D01*
X149261358Y-114502603D01*
X149461358Y-114502603D01*
X149461358Y-115702603D01*
G37*
G36*
X148961358Y-115702603D02*
G01*
X148761358Y-115702603D01*
X148761358Y-114502603D01*
X148961358Y-114502603D01*
X148961358Y-115702603D01*
G37*
G36*
X148461358Y-115702603D02*
G01*
X148261358Y-115702603D01*
X148261358Y-114502603D01*
X148461358Y-114502603D01*
X148461358Y-115702603D01*
G37*
G36*
X147961358Y-115702603D02*
G01*
X147761358Y-115702603D01*
X147761358Y-114502603D01*
X147961358Y-114502603D01*
X147961358Y-115702603D01*
G37*
G36*
X147461358Y-115702603D02*
G01*
X147261358Y-115702603D01*
X147261358Y-114502603D01*
X147461358Y-114502603D01*
X147461358Y-115702603D01*
G37*
G36*
X146961358Y-115702603D02*
G01*
X146761358Y-115702603D01*
X146761358Y-114502603D01*
X146961358Y-114502603D01*
X146961358Y-115702603D01*
G37*
G36*
X146461358Y-115702603D02*
G01*
X146261358Y-115702603D01*
X146261358Y-114502603D01*
X146461358Y-114502603D01*
X146461358Y-115702603D01*
G37*
G36*
X145961358Y-115702603D02*
G01*
X145761358Y-115702603D01*
X145761358Y-114502603D01*
X145961358Y-114502603D01*
X145961358Y-115702603D01*
G37*
G36*
X145461358Y-115702603D02*
G01*
X145261358Y-115702603D01*
X145261358Y-114502603D01*
X145461358Y-114502603D01*
X145461358Y-115702603D01*
G37*
G36*
X144961358Y-115702603D02*
G01*
X144761358Y-115702603D01*
X144761358Y-114502603D01*
X144961358Y-114502603D01*
X144961358Y-115702603D01*
G37*
G36*
X144461358Y-115702603D02*
G01*
X144261358Y-115702603D01*
X144261358Y-114502603D01*
X144461358Y-114502603D01*
X144461358Y-115702603D01*
G37*
G36*
X143961358Y-115702603D02*
G01*
X143761358Y-115702603D01*
X143761358Y-114502603D01*
X143961358Y-114502603D01*
X143961358Y-115702603D01*
G37*
G36*
X142811358Y-113552603D02*
G01*
X141611358Y-113552603D01*
X141611358Y-113352603D01*
X142811358Y-113352603D01*
X142811358Y-113552603D01*
G37*
G36*
X142811358Y-113052603D02*
G01*
X141611358Y-113052603D01*
X141611358Y-112852603D01*
X142811358Y-112852603D01*
X142811358Y-113052603D01*
G37*
G36*
X142811358Y-112552603D02*
G01*
X141611358Y-112552603D01*
X141611358Y-112352603D01*
X142811358Y-112352603D01*
X142811358Y-112552603D01*
G37*
G36*
X142811358Y-112052603D02*
G01*
X141611358Y-112052603D01*
X141611358Y-111852603D01*
X142811358Y-111852603D01*
X142811358Y-112052603D01*
G37*
G36*
X142811358Y-111552603D02*
G01*
X141611358Y-111552603D01*
X141611358Y-111352603D01*
X142811358Y-111352603D01*
X142811358Y-111552603D01*
G37*
G36*
X142811358Y-111052603D02*
G01*
X141611358Y-111052603D01*
X141611358Y-110852603D01*
X142811358Y-110852603D01*
X142811358Y-111052603D01*
G37*
G36*
X142811358Y-110552603D02*
G01*
X141611358Y-110552603D01*
X141611358Y-110352603D01*
X142811358Y-110352603D01*
X142811358Y-110552603D01*
G37*
G36*
X142811358Y-110052603D02*
G01*
X141611358Y-110052603D01*
X141611358Y-109852603D01*
X142811358Y-109852603D01*
X142811358Y-110052603D01*
G37*
G36*
X142811358Y-109552603D02*
G01*
X141611358Y-109552603D01*
X141611358Y-109352603D01*
X142811358Y-109352603D01*
X142811358Y-109552603D01*
G37*
G36*
X142811358Y-109052603D02*
G01*
X141611358Y-109052603D01*
X141611358Y-108852603D01*
X142811358Y-108852603D01*
X142811358Y-109052603D01*
G37*
G36*
X142811358Y-108552603D02*
G01*
X141611358Y-108552603D01*
X141611358Y-108352603D01*
X142811358Y-108352603D01*
X142811358Y-108552603D01*
G37*
G36*
X142811358Y-108052603D02*
G01*
X141611358Y-108052603D01*
X141611358Y-107852603D01*
X142811358Y-107852603D01*
X142811358Y-108052603D01*
G37*
G36*
X142811358Y-107552603D02*
G01*
X141611358Y-107552603D01*
X141611358Y-107352603D01*
X142811358Y-107352603D01*
X142811358Y-107552603D01*
G37*
G36*
X142811358Y-107052603D02*
G01*
X141611358Y-107052603D01*
X141611358Y-106852603D01*
X142811358Y-106852603D01*
X142811358Y-107052603D01*
G37*
G36*
X142811358Y-106552603D02*
G01*
X141611358Y-106552603D01*
X141611358Y-106352603D01*
X142811358Y-106352603D01*
X142811358Y-106552603D01*
G37*
G36*
X142811358Y-106052603D02*
G01*
X141611358Y-106052603D01*
X141611358Y-105852603D01*
X142811358Y-105852603D01*
X142811358Y-106052603D01*
G37*
G36*
X143961358Y-104902603D02*
G01*
X143761358Y-104902603D01*
X143761358Y-103702603D01*
X143961358Y-103702603D01*
X143961358Y-104902603D01*
G37*
G36*
X144461358Y-104902603D02*
G01*
X144261358Y-104902603D01*
X144261358Y-103702603D01*
X144461358Y-103702603D01*
X144461358Y-104902603D01*
G37*
G36*
X144961358Y-104902603D02*
G01*
X144761358Y-104902603D01*
X144761358Y-103702603D01*
X144961358Y-103702603D01*
X144961358Y-104902603D01*
G37*
G36*
X145461358Y-104902603D02*
G01*
X145261358Y-104902603D01*
X145261358Y-103702603D01*
X145461358Y-103702603D01*
X145461358Y-104902603D01*
G37*
G36*
X145961358Y-104902603D02*
G01*
X145761358Y-104902603D01*
X145761358Y-103702603D01*
X145961358Y-103702603D01*
X145961358Y-104902603D01*
G37*
G36*
X146461358Y-104902603D02*
G01*
X146261358Y-104902603D01*
X146261358Y-103702603D01*
X146461358Y-103702603D01*
X146461358Y-104902603D01*
G37*
G36*
X146961358Y-104902603D02*
G01*
X146761358Y-104902603D01*
X146761358Y-103702603D01*
X146961358Y-103702603D01*
X146961358Y-104902603D01*
G37*
G36*
X147461358Y-104902603D02*
G01*
X147261358Y-104902603D01*
X147261358Y-103702603D01*
X147461358Y-103702603D01*
X147461358Y-104902603D01*
G37*
G36*
X147961358Y-104902603D02*
G01*
X147761358Y-104902603D01*
X147761358Y-103702603D01*
X147961358Y-103702603D01*
X147961358Y-104902603D01*
G37*
G36*
X148461358Y-104902603D02*
G01*
X148261358Y-104902603D01*
X148261358Y-103702603D01*
X148461358Y-103702603D01*
X148461358Y-104902603D01*
G37*
G36*
X148961358Y-104902603D02*
G01*
X148761358Y-104902603D01*
X148761358Y-103702603D01*
X148961358Y-103702603D01*
X148961358Y-104902603D01*
G37*
G36*
X149461358Y-104902603D02*
G01*
X149261358Y-104902603D01*
X149261358Y-103702603D01*
X149461358Y-103702603D01*
X149461358Y-104902603D01*
G37*
G36*
X149961358Y-104902603D02*
G01*
X149761358Y-104902603D01*
X149761358Y-103702603D01*
X149961358Y-103702603D01*
X149961358Y-104902603D01*
G37*
G36*
X150461358Y-104902603D02*
G01*
X150261358Y-104902603D01*
X150261358Y-103702603D01*
X150461358Y-103702603D01*
X150461358Y-104902603D01*
G37*
G36*
X150961358Y-104902603D02*
G01*
X150761358Y-104902603D01*
X150761358Y-103702603D01*
X150961358Y-103702603D01*
X150961358Y-104902603D01*
G37*
G36*
X151461358Y-104902603D02*
G01*
X151261358Y-104902603D01*
X151261358Y-103702603D01*
X151461358Y-103702603D01*
X151461358Y-104902603D01*
G37*
D15*
X151894058Y-105702603D02*
G75*
G02*
X151328658Y-105702603I-282700J0D01*
G01*
X151328658Y-105702603D02*
G75*
G02*
X151894058Y-105702603I282700J0D01*
G01*
D16*
X143211358Y-104902603D02*
X152011358Y-104902603D01*
X142811358Y-105302603D02*
X143211358Y-104902603D01*
X142811358Y-114102603D02*
X142811358Y-105302603D01*
X143211358Y-114502603D02*
X142811358Y-114102603D01*
X152011358Y-114502603D02*
X143211358Y-114502603D01*
X152411358Y-114102603D02*
X152011358Y-114502603D01*
X152411358Y-105302603D02*
X152411358Y-114102603D01*
X152011358Y-104902603D02*
X152411358Y-105302603D01*
D13*
%TO.C,JP1*%
X152210304Y-101262059D02*
X153937504Y-101262059D01*
X151956304Y-103040059D02*
X151956304Y-101516059D01*
X154191504Y-103040059D02*
X154191504Y-101516059D01*
X154191504Y-103040059D02*
G75*
G02*
X153937504Y-103294059I-254000J0D01*
G01*
X152210304Y-103294059D02*
G75*
G02*
X151956304Y-103040059I0J254000D01*
G01*
X151956304Y-101516059D02*
G75*
G02*
X152210304Y-101262059I254000J0D01*
G01*
X153937504Y-101262059D02*
G75*
G02*
X154191504Y-101516059I0J-254000D01*
G01*
X153937504Y-103294059D02*
X152210304Y-103294059D01*
%TD*%
G36*
X144216734Y-96549509D02*
G01*
X144218537Y-96549814D01*
X144449462Y-96608136D01*
X144451185Y-96608720D01*
X144628385Y-96684849D01*
X144629483Y-96685391D01*
X144785215Y-96772971D01*
X144786427Y-96773757D01*
X144948179Y-96893691D01*
X144949250Y-96894591D01*
X145103052Y-97040685D01*
X145104092Y-97041814D01*
X145234017Y-97203294D01*
X145234886Y-97204532D01*
X145335071Y-97369446D01*
X145335705Y-97370644D01*
X145403873Y-97520065D01*
X145404361Y-97521327D01*
X145468016Y-97719881D01*
X145468401Y-97721460D01*
X145510011Y-97965565D01*
X145510170Y-97967833D01*
X145499248Y-98341063D01*
X145498987Y-98343186D01*
X145465988Y-98493934D01*
X145465668Y-98495100D01*
X145395800Y-98705479D01*
X145395085Y-98707167D01*
X145283948Y-98920499D01*
X145282968Y-98922061D01*
X145147623Y-99103545D01*
X145146746Y-99104586D01*
X145005680Y-99253258D01*
X145004555Y-99254296D01*
X144843225Y-99384334D01*
X144841871Y-99385273D01*
X144654367Y-99496406D01*
X144652935Y-99497125D01*
X144465136Y-99575535D01*
X144463475Y-99576085D01*
X144264547Y-99625445D01*
X144263435Y-99625663D01*
X144121941Y-99646275D01*
X144121067Y-99646368D01*
X143928505Y-99659526D01*
X143926636Y-99659502D01*
X143692714Y-99637340D01*
X143691714Y-99637200D01*
X143633374Y-99626446D01*
X143633372Y-99626447D01*
X143488366Y-99997516D01*
X143343404Y-100423529D01*
X143232444Y-100806162D01*
X143152761Y-101126401D01*
X143090954Y-101410163D01*
X143038281Y-101679979D01*
X143033417Y-101687315D01*
X143026996Y-101689276D01*
X142353534Y-101689381D01*
X142345402Y-101686014D01*
X142342032Y-101677883D01*
X142342760Y-101673856D01*
X142441462Y-101409719D01*
X142583525Y-100982721D01*
X142743883Y-100454488D01*
X142939598Y-99767885D01*
X142939598Y-99767884D01*
X142678173Y-99775884D01*
X142557641Y-99820128D01*
X142455756Y-99887960D01*
X142365935Y-99977986D01*
X142365928Y-99977995D01*
X142290509Y-100089232D01*
X142290503Y-100089242D01*
X142235241Y-100198446D01*
X142545383Y-100189059D01*
X142553613Y-100192180D01*
X142557226Y-100200206D01*
X142556735Y-100203896D01*
X142406013Y-100700133D01*
X142400427Y-100706935D01*
X142394775Y-100708289D01*
X142058016Y-100701444D01*
X141929280Y-101156334D01*
X141929153Y-101156754D01*
X141777747Y-101623042D01*
X141777511Y-101623699D01*
X141665841Y-101907671D01*
X141665431Y-101908592D01*
X141544459Y-102151282D01*
X141543745Y-102152517D01*
X141433496Y-102318435D01*
X141431278Y-102320907D01*
X141308357Y-102423285D01*
X141305777Y-102424908D01*
X141206585Y-102470235D01*
X141204695Y-102470906D01*
X141086354Y-102501626D01*
X141083361Y-102501995D01*
X140893168Y-102500288D01*
X140890271Y-102499890D01*
X140843070Y-102487134D01*
X140843073Y-102487122D01*
X140842978Y-102487109D01*
X140842935Y-102487097D01*
X140842935Y-102487096D01*
X140795338Y-102473854D01*
X140793547Y-102473191D01*
X140660208Y-102410793D01*
X140659110Y-102410205D01*
X140537212Y-102336138D01*
X140536006Y-102335295D01*
X140342869Y-102181008D01*
X140342169Y-102180401D01*
X140223353Y-102068680D01*
X140219736Y-102060656D01*
X140222853Y-102052424D01*
X140230877Y-102048807D01*
X140234152Y-102049179D01*
X140342531Y-102077640D01*
X140667699Y-102080362D01*
X140810730Y-102035231D01*
X140810732Y-102035230D01*
X140935649Y-101954392D01*
X141019204Y-101868268D01*
X141098200Y-101735144D01*
X141187248Y-101521353D01*
X141262449Y-101302312D01*
X141262454Y-101302295D01*
X141432354Y-100709363D01*
X141432354Y-100709362D01*
X141428062Y-100705009D01*
X141428059Y-100705008D01*
X141155089Y-100701382D01*
X141153883Y-100701302D01*
X141002948Y-100683344D01*
X141001032Y-100682949D01*
X140860673Y-100641245D01*
X140858179Y-100640169D01*
X140770161Y-100589126D01*
X140768119Y-100587619D01*
X140673857Y-100500394D01*
X140414606Y-100515975D01*
X140413253Y-100515977D01*
X140189488Y-100503051D01*
X140187925Y-100502852D01*
X140068025Y-100479191D01*
X140066903Y-100478911D01*
X139868447Y-100418517D01*
X139866977Y-100417957D01*
X139698481Y-100340216D01*
X139697021Y-100339409D01*
X139530407Y-100230849D01*
X139529290Y-100230021D01*
X139342108Y-100072835D01*
X139340876Y-100071633D01*
X139186436Y-99896436D01*
X139185475Y-99895181D01*
X139065705Y-99714320D01*
X139065029Y-99713156D01*
X138996307Y-99577132D01*
X138995876Y-99576172D01*
X138937704Y-99428957D01*
X138937235Y-99427490D01*
X138894947Y-99256390D01*
X138894726Y-99255252D01*
X138873275Y-99104563D01*
X138873160Y-99102956D01*
X138872805Y-98810692D01*
X138872952Y-98808845D01*
X138904064Y-98616182D01*
X138904372Y-98614813D01*
X138956444Y-98435166D01*
X138956872Y-98433948D01*
X139016735Y-98290149D01*
X139017452Y-98288718D01*
X139126603Y-98104043D01*
X139127346Y-98102937D01*
X139223067Y-97976933D01*
X139223962Y-97975891D01*
X139406568Y-97787288D01*
X139407750Y-97786225D01*
X139570143Y-97659344D01*
X139571310Y-97658543D01*
X139759226Y-97545889D01*
X139760984Y-97545029D01*
X139965224Y-97465884D01*
X139966700Y-97465423D01*
X140139268Y-97424086D01*
X140140394Y-97423875D01*
X140297194Y-97402505D01*
X140298747Y-97402400D01*
X140557571Y-97402400D01*
X140559155Y-97402510D01*
X140716983Y-97424464D01*
X140718227Y-97424707D01*
X140904043Y-97471842D01*
X140905686Y-97472394D01*
X141128329Y-97566352D01*
X141130204Y-97567356D01*
X141377537Y-97731000D01*
X141379313Y-97732450D01*
X141633580Y-97986108D01*
X141634728Y-97987443D01*
X141736151Y-98125572D01*
X141736763Y-98126496D01*
X141833049Y-98288260D01*
X141833764Y-98289676D01*
X141903096Y-98454180D01*
X141903544Y-98455444D01*
X141951643Y-98621339D01*
X141951915Y-98622496D01*
X141985551Y-98808665D01*
X141985734Y-98810697D01*
X141986099Y-99124233D01*
X141985922Y-99126258D01*
X141950335Y-99326501D01*
X141949942Y-99328063D01*
X141881488Y-99537390D01*
X141880761Y-99539121D01*
X141812726Y-99669960D01*
X141805986Y-99675621D01*
X141797218Y-99674858D01*
X141791557Y-99668118D01*
X141791063Y-99665619D01*
X141777953Y-99509701D01*
X141777951Y-99509688D01*
X141738194Y-99276684D01*
X141675399Y-99022724D01*
X141573973Y-98727675D01*
X141573969Y-98727665D01*
X141454599Y-98457685D01*
X141329891Y-98230443D01*
X141161475Y-97976445D01*
X141161456Y-97976419D01*
X141070164Y-97861978D01*
X141070165Y-97861978D01*
X140941248Y-97820151D01*
X140829347Y-97798473D01*
X140829331Y-97798471D01*
X140575774Y-97777847D01*
X140406210Y-97792284D01*
X140315373Y-98169800D01*
X140315100Y-98170752D01*
X140176688Y-98585325D01*
X140176382Y-98586138D01*
X140061449Y-98859670D01*
X140061053Y-98860514D01*
X139892169Y-99185779D01*
X139891961Y-99186163D01*
X139684578Y-99551009D01*
X139684443Y-99551240D01*
X139491353Y-99873247D01*
X139491354Y-99873248D01*
X139529941Y-99903015D01*
X139701520Y-99996927D01*
X139915426Y-100085687D01*
X140143111Y-100144645D01*
X140143115Y-100144646D01*
X140270202Y-100162940D01*
X140385363Y-100165568D01*
X140442731Y-100000598D01*
X140442848Y-100000259D01*
X140565300Y-99641172D01*
X140571113Y-99634563D01*
X140577697Y-99633484D01*
X140850248Y-99669642D01*
X140987614Y-99656374D01*
X141114169Y-99614900D01*
X141114180Y-99614895D01*
X141162501Y-99589945D01*
X141171271Y-99589207D01*
X141177995Y-99594887D01*
X141179264Y-99599626D01*
X141202622Y-100098923D01*
X141212623Y-100108993D01*
X141544831Y-99941600D01*
X141705622Y-99790283D01*
X141763342Y-99715470D01*
X141770976Y-99711089D01*
X141779472Y-99713390D01*
X141783853Y-99721024D01*
X141782650Y-99727800D01*
X141768144Y-99755699D01*
X141767146Y-99757288D01*
X141740505Y-99792861D01*
X141740504Y-99792860D01*
X141632955Y-99936472D01*
X141631919Y-99937674D01*
X141450424Y-100120825D01*
X141449581Y-100121594D01*
X141360308Y-100195374D01*
X141601225Y-100196052D01*
X141680797Y-99987878D01*
X141681044Y-99987283D01*
X141767044Y-99795291D01*
X141767490Y-99794401D01*
X141889759Y-99574630D01*
X141889761Y-99574626D01*
X141968339Y-99323593D01*
X141973983Y-99316838D01*
X141978887Y-99315536D01*
X142291925Y-99303900D01*
X142367684Y-99281014D01*
X142463500Y-99175134D01*
X142463502Y-99175131D01*
X142584509Y-98991880D01*
X142664992Y-98832223D01*
X142664996Y-98832216D01*
X142745875Y-98625502D01*
X142813782Y-98392783D01*
X142865491Y-98158438D01*
X142897005Y-97936246D01*
X142917256Y-97701949D01*
X142917258Y-97701919D01*
X142917441Y-97405541D01*
X142917441Y-97405535D01*
X142904603Y-97282606D01*
X142627961Y-97151215D01*
X142613544Y-97265459D01*
X142581249Y-97703135D01*
X142581182Y-97703786D01*
X142553354Y-97915809D01*
X142553123Y-97917042D01*
X142499017Y-98138474D01*
X142498662Y-98139652D01*
X142410177Y-98384556D01*
X142409718Y-98385647D01*
X142350810Y-98507689D01*
X142344241Y-98513548D01*
X142335454Y-98513047D01*
X142329595Y-98506478D01*
X142328953Y-98502672D01*
X142329675Y-98037310D01*
X142306961Y-97814075D01*
X142277215Y-97611007D01*
X142277214Y-97611002D01*
X142235035Y-97396756D01*
X142235030Y-97396736D01*
X142185026Y-97194021D01*
X142132336Y-97001920D01*
X142117600Y-96984619D01*
X141895696Y-96944766D01*
X141895692Y-96944765D01*
X141529912Y-96932224D01*
X141529911Y-96932224D01*
X141498892Y-96950244D01*
X141576657Y-97295612D01*
X141576745Y-97296038D01*
X141636934Y-97620066D01*
X141637008Y-97620514D01*
X141683058Y-97937788D01*
X141680892Y-97946319D01*
X141673329Y-97950821D01*
X141664798Y-97948655D01*
X141662936Y-97946913D01*
X141544861Y-97808807D01*
X141378434Y-97669235D01*
X141225703Y-97567369D01*
X141225701Y-97567367D01*
X141041175Y-97474889D01*
X141041167Y-97474886D01*
X140834899Y-97403137D01*
X140626187Y-97363759D01*
X140626178Y-97363758D01*
X140480076Y-97350839D01*
X140472273Y-97346768D01*
X140469589Y-97339392D01*
X140469588Y-97337996D01*
X140471611Y-97331474D01*
X140576644Y-97178651D01*
X140577350Y-97177727D01*
X140707612Y-97024111D01*
X140708737Y-97022959D01*
X140890372Y-96861284D01*
X140891675Y-96860282D01*
X141072593Y-96740650D01*
X141073759Y-96739973D01*
X141225726Y-96663358D01*
X141227077Y-96662782D01*
X141400014Y-96601763D01*
X141401324Y-96601387D01*
X141610174Y-96554566D01*
X141612686Y-96554287D01*
X142026609Y-96554147D01*
X142028963Y-96554390D01*
X142201040Y-96590317D01*
X142202201Y-96590623D01*
X142363184Y-96642231D01*
X142364565Y-96642774D01*
X142556559Y-96733020D01*
X142557803Y-96733701D01*
X142658302Y-96797096D01*
X142659060Y-96797618D01*
X142820361Y-96918421D01*
X142821603Y-96919499D01*
X143013783Y-97111903D01*
X143014864Y-97113153D01*
X143148795Y-97292673D01*
X143149652Y-97294004D01*
X143251341Y-97478715D01*
X143251967Y-97480047D01*
X143314305Y-97638330D01*
X143314761Y-97639754D01*
X143363329Y-97833946D01*
X143363577Y-97835252D01*
X143387219Y-98016896D01*
X143387307Y-98018799D01*
X143375534Y-98341716D01*
X143375249Y-98343877D01*
X143335511Y-98516507D01*
X143335206Y-98517587D01*
X143282939Y-98673289D01*
X143282329Y-98674759D01*
X143202269Y-98835375D01*
X143201308Y-98836966D01*
X143140860Y-98920890D01*
X143031433Y-99083054D01*
X143029915Y-99084868D01*
X142801592Y-99306781D01*
X142800359Y-99307821D01*
X142663464Y-99407783D01*
X142664570Y-99422971D01*
X142664570Y-99422972D01*
X142701939Y-99434930D01*
X142704717Y-99436251D01*
X142860850Y-99538092D01*
X142861573Y-99538605D01*
X142975403Y-99626059D01*
X142975404Y-99626058D01*
X143039213Y-99387407D01*
X143039214Y-99387404D01*
X143039336Y-99365822D01*
X142944254Y-99288167D01*
X142942681Y-99286607D01*
X142915875Y-99254326D01*
X142913271Y-99245918D01*
X142915959Y-99239532D01*
X143034034Y-99100590D01*
X143034041Y-99100580D01*
X143050373Y-99078393D01*
X143250583Y-99078393D01*
X143399550Y-99147729D01*
X143636654Y-99229491D01*
X143867459Y-99280624D01*
X143867470Y-99280626D01*
X144070286Y-99302250D01*
X144070316Y-99302253D01*
X144192521Y-99309074D01*
X144415563Y-99300797D01*
X144415567Y-99300797D01*
X144532618Y-99286130D01*
X144532630Y-99286129D01*
X144532793Y-99286108D01*
X144649504Y-99271464D01*
X144853100Y-99225015D01*
X144853101Y-99225015D01*
X144898063Y-99133469D01*
X144898065Y-99133465D01*
X145019925Y-98828077D01*
X145019926Y-98828072D01*
X145020289Y-98806543D01*
X144924682Y-98835135D01*
X144922560Y-98835557D01*
X144728906Y-98855411D01*
X144726863Y-98855438D01*
X144454432Y-98834761D01*
X144453316Y-98834621D01*
X144282193Y-98804615D01*
X144274765Y-98799893D01*
X144272852Y-98791302D01*
X144272914Y-98790977D01*
X144319158Y-98565539D01*
X144332053Y-98346116D01*
X144335892Y-98338196D01*
X144344208Y-98335311D01*
X144344496Y-98335331D01*
X144486452Y-98347254D01*
X144487459Y-98347384D01*
X144781021Y-98398429D01*
X144781659Y-98398559D01*
X145075850Y-98467069D01*
X145090037Y-98444599D01*
X145090038Y-98444598D01*
X145111653Y-98320461D01*
X145111654Y-98320458D01*
X145111720Y-98032473D01*
X145072647Y-97993688D01*
X145072643Y-97993685D01*
X144913618Y-97932518D01*
X144659528Y-97870286D01*
X144659515Y-97870283D01*
X144338003Y-97817335D01*
X144331352Y-97813712D01*
X144328081Y-97810104D01*
X144325117Y-97802985D01*
X144309876Y-97513481D01*
X144309874Y-97513474D01*
X144289477Y-97439774D01*
X144289060Y-97436804D01*
X144288967Y-97425940D01*
X144292266Y-97417780D01*
X144300369Y-97414342D01*
X144301606Y-97414399D01*
X144405143Y-97424704D01*
X144406539Y-97424930D01*
X144587843Y-97465908D01*
X144589022Y-97466241D01*
X144820611Y-97545258D01*
X144821896Y-97545786D01*
X145003911Y-97633650D01*
X145005902Y-97634874D01*
X145101213Y-97707833D01*
X145101441Y-97616527D01*
X145070811Y-97470921D01*
X144996723Y-97247691D01*
X144832125Y-97171411D01*
X144535292Y-97057353D01*
X144287371Y-96985976D01*
X144090986Y-96946076D01*
X144090970Y-96946074D01*
X143869956Y-96925228D01*
X143634591Y-96945975D01*
X143628036Y-96952840D01*
X143628036Y-96952841D01*
X143659852Y-97142633D01*
X143660004Y-97144150D01*
X143671826Y-97497642D01*
X143671779Y-97499129D01*
X143647260Y-97753512D01*
X143647125Y-97754479D01*
X143597380Y-98026265D01*
X143597212Y-98027036D01*
X143514410Y-98351858D01*
X143514177Y-98352649D01*
X143402973Y-98686711D01*
X143402779Y-98687249D01*
X143250583Y-99078393D01*
X143050373Y-99078393D01*
X143210456Y-98860925D01*
X143210459Y-98860919D01*
X143312016Y-98656794D01*
X143355573Y-98515375D01*
X143356163Y-98513853D01*
X143374760Y-98474434D01*
X143406210Y-98332686D01*
X143406210Y-98332680D01*
X143417991Y-97978899D01*
X143393242Y-97834621D01*
X143393240Y-97834616D01*
X143354823Y-97702310D01*
X143354698Y-97701842D01*
X143322464Y-97570390D01*
X143189775Y-97304014D01*
X143018156Y-97092735D01*
X143017923Y-97092438D01*
X142940398Y-96990329D01*
X142940398Y-96990328D01*
X142896313Y-96961151D01*
X142891391Y-96953854D01*
X142893070Y-96945214D01*
X142894426Y-96943533D01*
X142962622Y-96873593D01*
X142964442Y-96872076D01*
X143185826Y-96723312D01*
X143187362Y-96722443D01*
X143360878Y-96641178D01*
X143362182Y-96640661D01*
X143544568Y-96581029D01*
X143545761Y-96580709D01*
X143693607Y-96549414D01*
X143694902Y-96549216D01*
X143944074Y-96525590D01*
X143946173Y-96525584D01*
X144216734Y-96549509D01*
G37*
G36*
X140865397Y-98327420D02*
G01*
X140865490Y-98327539D01*
X140880518Y-98347092D01*
X140881417Y-98348451D01*
X141015011Y-98585362D01*
X141015698Y-98586808D01*
X141070400Y-98726119D01*
X141070843Y-98727494D01*
X141118900Y-98916933D01*
X141119145Y-98918190D01*
X141152897Y-99162999D01*
X141152193Y-99168814D01*
X141142495Y-99193240D01*
X141136364Y-99199555D01*
X141131807Y-99200496D01*
X140710431Y-99200484D01*
X140702299Y-99197115D01*
X140700648Y-99195030D01*
X140698341Y-99191297D01*
X140698328Y-99191274D01*
X140698062Y-99190842D01*
X140695193Y-99186188D01*
X140693793Y-99177498D01*
X140694051Y-99176581D01*
X140744197Y-99023113D01*
X140744198Y-99023106D01*
X140792494Y-98779454D01*
X140792496Y-98779436D01*
X140844951Y-98333204D01*
X140849245Y-98325522D01*
X140857715Y-98323126D01*
X140865397Y-98327420D01*
G37*
G36*
X144545995Y-100012006D02*
G01*
X144548353Y-100012371D01*
X144669107Y-100044184D01*
X144671177Y-100044949D01*
X144779692Y-100097343D01*
X144782872Y-100099616D01*
X144892327Y-100210381D01*
X144894463Y-100213381D01*
X144948305Y-100322647D01*
X144949086Y-100324712D01*
X144983982Y-100453007D01*
X144984385Y-100456030D01*
X144984248Y-100799282D01*
X144984140Y-100800853D01*
X144969510Y-100906630D01*
X144965059Y-100914223D01*
X144958126Y-100916554D01*
X143874011Y-100917321D01*
X143860654Y-100938784D01*
X143860654Y-100938785D01*
X143858692Y-101068368D01*
X143907697Y-101139433D01*
X143907700Y-101139435D01*
X143989292Y-101192223D01*
X143989295Y-101192224D01*
X144070375Y-101214168D01*
X144206821Y-101204525D01*
X144206822Y-101204525D01*
X144316778Y-101150728D01*
X144416915Y-101052368D01*
X144425077Y-101049072D01*
X144425105Y-101049073D01*
X144878254Y-101054252D01*
X144886347Y-101057713D01*
X144889622Y-101065882D01*
X144888391Y-101070929D01*
X144815977Y-101214534D01*
X144815220Y-101215821D01*
X144731909Y-101338384D01*
X144730572Y-101340008D01*
X144569276Y-101502990D01*
X144567365Y-101504546D01*
X144390164Y-101619600D01*
X144388284Y-101620587D01*
X144264532Y-101671599D01*
X144263255Y-101672040D01*
X144122028Y-101711655D01*
X144119223Y-101712078D01*
X143828447Y-101719699D01*
X143825118Y-101719297D01*
X143770914Y-101704503D01*
X143770818Y-101704477D01*
X143770361Y-101704348D01*
X143770361Y-101704347D01*
X143715883Y-101689435D01*
X143713868Y-101688674D01*
X143567787Y-101617248D01*
X143564718Y-101615061D01*
X143451580Y-101502260D01*
X143449782Y-101499937D01*
X143396452Y-101409066D01*
X143395499Y-101406997D01*
X143341284Y-101249927D01*
X143340655Y-101246243D01*
X143339105Y-100984244D01*
X143339363Y-100981752D01*
X143375563Y-100813836D01*
X143376130Y-100811984D01*
X143439974Y-100652588D01*
X143983610Y-100652588D01*
X144561988Y-100653171D01*
X144563145Y-100653127D01*
X144563145Y-100644542D01*
X144563019Y-100636148D01*
X144563019Y-100636145D01*
X144533015Y-100536173D01*
X144480445Y-100480258D01*
X144416089Y-100445355D01*
X144416090Y-100445355D01*
X144254134Y-100445222D01*
X144152628Y-100491378D01*
X144049068Y-100571277D01*
X144049063Y-100571282D01*
X143983610Y-100652588D01*
X143439974Y-100652588D01*
X143447614Y-100633515D01*
X143448694Y-100631451D01*
X143586348Y-100423118D01*
X143587760Y-100421377D01*
X143775009Y-100231762D01*
X143776833Y-100230261D01*
X143952923Y-100113411D01*
X143954813Y-100112397D01*
X144116421Y-100044240D01*
X144118557Y-100043575D01*
X144322828Y-100001257D01*
X144325733Y-100001032D01*
X144545995Y-100012006D01*
G37*
G36*
X145716510Y-100018201D02*
G01*
X145724610Y-100021645D01*
X145727001Y-100025237D01*
X145897800Y-100430712D01*
X146312073Y-100016842D01*
X146320196Y-100013478D01*
X146917531Y-100013218D01*
X146925664Y-100016583D01*
X146929036Y-100024713D01*
X146925672Y-100032845D01*
X146087070Y-100872415D01*
X146087069Y-100872415D01*
X146421950Y-101652626D01*
X146422339Y-101653669D01*
X146428999Y-101674561D01*
X146428259Y-101683332D01*
X146421535Y-101689011D01*
X146417934Y-101689553D01*
X145867704Y-101684383D01*
X145859604Y-101680939D01*
X145857273Y-101677485D01*
X145683098Y-101278505D01*
X145272488Y-101685938D01*
X145264390Y-101689275D01*
X144657074Y-101689381D01*
X144648942Y-101686014D01*
X144645572Y-101677883D01*
X144648939Y-101669751D01*
X144649006Y-101669684D01*
X145487610Y-100844470D01*
X145487366Y-100816912D01*
X145171021Y-100079152D01*
X145170991Y-100079083D01*
X145149908Y-100029009D01*
X145149857Y-100020207D01*
X145156044Y-100013947D01*
X145160614Y-100013046D01*
X145716510Y-100018201D01*
G37*
G36*
X144779600Y-90144637D02*
G01*
X144855663Y-90146559D01*
X144880127Y-90149629D01*
X145029969Y-90183834D01*
X145056178Y-90193005D01*
X145193235Y-90259013D01*
X145216746Y-90273787D01*
X145335669Y-90368631D01*
X145355303Y-90388267D01*
X145450144Y-90507202D01*
X145464916Y-90530714D01*
X145530911Y-90667767D01*
X145540081Y-90693977D01*
X145574284Y-90843861D01*
X145577351Y-90868246D01*
X145579317Y-90944361D01*
X145579358Y-90947529D01*
X145579389Y-91059304D01*
X145559723Y-91126349D01*
X145506932Y-91172118D01*
X145455389Y-91183338D01*
X140349105Y-91183338D01*
X140282066Y-91163653D01*
X140236311Y-91110849D01*
X140226367Y-91041691D01*
X140255392Y-90978135D01*
X140263825Y-90969320D01*
X140844032Y-90419651D01*
X140846146Y-90417694D01*
X140907806Y-90361940D01*
X140924187Y-90349436D01*
X141065416Y-90259160D01*
X141086304Y-90248446D01*
X141240664Y-90186943D01*
X141263196Y-90180357D01*
X141427822Y-90148771D01*
X141448281Y-90146584D01*
X141531381Y-90144636D01*
X141534287Y-90144602D01*
X144776468Y-90144597D01*
X144779600Y-90144637D01*
G37*
M02*
