%TF.GenerationSoftware,KiCad,Pcbnew,8.99.0-344-gfbc433deaa*%
%TF.CreationDate,2024-03-17T11:59:04-04:00*%
%TF.ProjectId,AVEFlex,41564546-6c65-4782-9e6b-696361645f70,rev?*%
%TF.SameCoordinates,Original*%
%TF.FileFunction,Legend,Bot*%
%TF.FilePolarity,Positive*%
%FSLAX46Y46*%
G04 Gerber Fmt 4.6, Leading zero omitted, Abs format (unit mm)*
G04 Created by KiCad (PCBNEW 8.99.0-344-gfbc433deaa) date 2024-03-17 11:59:04*
%MOMM*%
%LPD*%
G01*
G04 APERTURE LIST*
%ADD10C,0.127000*%
G04 APERTURE END LIST*
D10*
X147893904Y-115138059D02*
X147977904Y-115078059D01*
X146349904Y-114534059D02*
X146391904Y-114503059D01*
X147476904Y-114987059D02*
X147518904Y-115078059D01*
X144471904Y-114775059D02*
X144430904Y-114866059D01*
X147893904Y-114775059D02*
X147810904Y-114745059D01*
X149604904Y-115078059D02*
X149604904Y-115168059D01*
X147142904Y-115138059D02*
X147059904Y-115168059D01*
X143178904Y-115168059D02*
X143094904Y-115168059D01*
X144680904Y-114745059D02*
X144555904Y-114745059D01*
X145682904Y-115048059D02*
X145640904Y-115138059D01*
X147977904Y-115078059D02*
X147977904Y-115168059D01*
X145807904Y-114745059D02*
X145515904Y-114745059D01*
X146725904Y-114745059D02*
X146725904Y-115168059D01*
X149437904Y-114745059D02*
X149312904Y-114745059D01*
X147518904Y-115078059D02*
X147601904Y-115138059D01*
X143303904Y-114534059D02*
X143303904Y-115048059D01*
X149521904Y-114775059D02*
X149437904Y-114745059D01*
X144555904Y-114745059D02*
X144471904Y-114775059D01*
X144096904Y-115078059D02*
X144012904Y-115138059D01*
X147184904Y-115048059D02*
X147142904Y-115138059D01*
X143929904Y-114745059D02*
X144012904Y-114775059D01*
X148436904Y-115048059D02*
X148394904Y-115138059D01*
X144096904Y-114836059D02*
X144138904Y-114927059D01*
X149604904Y-114534059D02*
X149604904Y-114836059D01*
X145264904Y-115048059D02*
X145223904Y-115078059D01*
X148811904Y-114503059D02*
X148853904Y-114534059D01*
X149229904Y-115138059D02*
X149312904Y-115168059D01*
X148811904Y-114564059D02*
X148770904Y-114534059D01*
X146391904Y-114503059D02*
X146433904Y-114534059D01*
X149604904Y-114836059D02*
X149604904Y-115078059D01*
X148770904Y-114534059D02*
X148811904Y-114503059D01*
X147977904Y-114534059D02*
X147977904Y-114836059D01*
X146391904Y-114745059D02*
X146391904Y-115168059D01*
X144012904Y-114775059D02*
X144096904Y-114836059D01*
X144764904Y-114775059D02*
X144680904Y-114745059D01*
X147977904Y-114836059D02*
X147893904Y-114775059D01*
X143679904Y-114806059D02*
X143720904Y-114775059D01*
X146433904Y-114534059D02*
X146391904Y-114564059D01*
X144430904Y-114866059D02*
X144430904Y-115168059D01*
X149145904Y-114836059D02*
X149103904Y-114927059D01*
X149437904Y-115168059D02*
X149521904Y-115138059D01*
X145223904Y-115078059D02*
X145181904Y-115048059D01*
X143637904Y-114866059D02*
X143679904Y-114806059D01*
X143428904Y-114745059D02*
X143136904Y-114745059D01*
X147601904Y-114775059D02*
X147518904Y-114836059D01*
X147059904Y-115168059D02*
X146933904Y-115168059D01*
X147601904Y-115138059D02*
X147685904Y-115168059D01*
X144012904Y-115138059D02*
X143929904Y-115168059D01*
X148436904Y-114534059D02*
X148436904Y-115048059D01*
X149312904Y-115168059D02*
X149437904Y-115168059D01*
X144889904Y-114866059D02*
X144764904Y-114775059D01*
X143637904Y-114927059D02*
X143637904Y-114866059D01*
X147476904Y-114927059D02*
X147476904Y-114987059D01*
X144138904Y-114987059D02*
X144096904Y-115078059D01*
X143303904Y-115048059D02*
X143261904Y-115138059D01*
X147518904Y-114836059D02*
X147476904Y-114927059D01*
X145640904Y-115138059D02*
X145556904Y-115168059D01*
X148811904Y-114745059D02*
X148811904Y-115168059D01*
X145181904Y-115048059D02*
X145223904Y-115017059D01*
X149521904Y-115138059D02*
X149604904Y-115078059D01*
X144138904Y-114927059D02*
X144138904Y-114987059D01*
X146850904Y-115138059D02*
X146725904Y-115048059D01*
X146057904Y-114534059D02*
X146057904Y-115168059D01*
X145223904Y-115017059D02*
X145264904Y-115048059D01*
X147184904Y-114745059D02*
X147184904Y-115048059D01*
X148394904Y-115138059D02*
X148311904Y-115168059D01*
X149229904Y-114775059D02*
X149145904Y-114836059D01*
X143804904Y-114745059D02*
X143929904Y-114745059D01*
X149312904Y-114745059D02*
X149229904Y-114775059D01*
X143929904Y-115168059D02*
X143804904Y-115168059D01*
X148561904Y-114745059D02*
X148269904Y-114745059D01*
X144889904Y-114745059D02*
X144889904Y-114866059D01*
X143720904Y-115138059D02*
X143637904Y-115078059D01*
X146391904Y-114564059D02*
X146349904Y-114534059D01*
X149145904Y-115078059D02*
X149229904Y-115138059D01*
X147977904Y-114836059D02*
X147977904Y-115078059D01*
X147810904Y-115168059D02*
X147893904Y-115138059D01*
X148311904Y-115168059D02*
X148227904Y-115168059D01*
X145556904Y-115168059D02*
X145473904Y-115168059D01*
X147685904Y-114745059D02*
X147601904Y-114775059D01*
X149604904Y-114836059D02*
X149521904Y-114775059D01*
X148853904Y-114534059D02*
X148811904Y-114564059D01*
X145682904Y-114534059D02*
X145682904Y-115048059D01*
X144138904Y-114927059D02*
X143637904Y-114927059D01*
X149103904Y-114987059D02*
X149145904Y-115078059D01*
X144889904Y-114866059D02*
X144889904Y-115168059D01*
X143720904Y-114775059D02*
X143804904Y-114745059D01*
X146933904Y-115168059D02*
X146850904Y-115138059D01*
X143261904Y-115138059D02*
X143178904Y-115168059D01*
X147685904Y-115168059D02*
X147810904Y-115168059D01*
X149103904Y-114927059D02*
X149103904Y-114987059D01*
X143804904Y-115168059D02*
X143720904Y-115138059D01*
X147810904Y-114745059D02*
X147685904Y-114745059D01*
G36*
X144779600Y-90144637D02*
G01*
X144855663Y-90146559D01*
X144880127Y-90149629D01*
X145029969Y-90183834D01*
X145056178Y-90193005D01*
X145193235Y-90259013D01*
X145216746Y-90273787D01*
X145335669Y-90368631D01*
X145355303Y-90388267D01*
X145450144Y-90507202D01*
X145464916Y-90530714D01*
X145530911Y-90667767D01*
X145540081Y-90693977D01*
X145574284Y-90843861D01*
X145577351Y-90868246D01*
X145579317Y-90944361D01*
X145579358Y-90947528D01*
X145579386Y-91045803D01*
X145559721Y-91112848D01*
X145506930Y-91158618D01*
X145455386Y-91169838D01*
X140363355Y-91169838D01*
X140296316Y-91150153D01*
X140250561Y-91097349D01*
X140240617Y-91028191D01*
X140269642Y-90964635D01*
X140278075Y-90955820D01*
X140844032Y-90419651D01*
X140846146Y-90417694D01*
X140907806Y-90361940D01*
X140924187Y-90349436D01*
X141065416Y-90259160D01*
X141086304Y-90248446D01*
X141240664Y-90186943D01*
X141263196Y-90180357D01*
X141427822Y-90148771D01*
X141448281Y-90146584D01*
X141531381Y-90144636D01*
X141534287Y-90144602D01*
X144776468Y-90144597D01*
X144779600Y-90144637D01*
G37*
G36*
X144099878Y-111121556D02*
G01*
X144103322Y-111129656D01*
X144102421Y-111134225D01*
X144062761Y-111228432D01*
X144062731Y-111228502D01*
X143535204Y-112458762D01*
X143535061Y-112504071D01*
X143535061Y-112504072D01*
X144936482Y-113883122D01*
X144939900Y-113890708D01*
X144940334Y-113898868D01*
X144940339Y-113899987D01*
X144940282Y-113901277D01*
X144936558Y-113909252D01*
X144928793Y-113912269D01*
X143904530Y-113912269D01*
X143896425Y-113908927D01*
X143210347Y-113227272D01*
X142918171Y-113896778D01*
X142911831Y-113902883D01*
X142907741Y-113903677D01*
X141973930Y-113912647D01*
X141965767Y-113909357D01*
X141962321Y-113901258D01*
X141962863Y-113897655D01*
X141977294Y-113852387D01*
X141977682Y-113851346D01*
X142536157Y-112549491D01*
X141125849Y-111138248D01*
X141122483Y-111130115D01*
X141125854Y-111121985D01*
X141133983Y-111118619D01*
X142149470Y-111118619D01*
X142157589Y-111121974D01*
X142851673Y-111813855D01*
X143138029Y-111134046D01*
X143144290Y-111127859D01*
X143148520Y-111127010D01*
X144091715Y-111118263D01*
X144099878Y-111121556D01*
G37*
G36*
X151266111Y-108291610D02*
G01*
X151270538Y-108299218D01*
X151270562Y-108299415D01*
X151360121Y-109061709D01*
X151360123Y-109061721D01*
X151440403Y-109467169D01*
X151440405Y-109467180D01*
X151525284Y-109727190D01*
X151524606Y-109735966D01*
X151524304Y-109736521D01*
X151517734Y-109747869D01*
X151517568Y-109748147D01*
X151517260Y-109748646D01*
X151517073Y-109748940D01*
X151510464Y-109758956D01*
X151503174Y-109763888D01*
X151500865Y-109764122D01*
X150789481Y-109764122D01*
X150781349Y-109760754D01*
X150778818Y-109756929D01*
X150760169Y-109710754D01*
X150759438Y-109704886D01*
X150815766Y-109293841D01*
X150816013Y-109292574D01*
X150896663Y-108974687D01*
X150897107Y-108973308D01*
X150988731Y-108740207D01*
X150989417Y-108738764D01*
X151212654Y-108342967D01*
X151213524Y-108341647D01*
X151249994Y-108293787D01*
X151257602Y-108289360D01*
X151266111Y-108291610D01*
G37*
G36*
X146107589Y-105305940D02*
G01*
X146522685Y-105345235D01*
X146523982Y-105345433D01*
X146771885Y-105397894D01*
X146773076Y-105398214D01*
X147077257Y-105497614D01*
X147078562Y-105498130D01*
X147369342Y-105634284D01*
X147370879Y-105635154D01*
X147740999Y-105883863D01*
X147742820Y-105885381D01*
X147863467Y-106009149D01*
X147866731Y-106017323D01*
X147863259Y-106025411D01*
X147861559Y-106026779D01*
X147780812Y-106079978D01*
X147780812Y-106079979D01*
X147651121Y-106250797D01*
X147650886Y-106251096D01*
X147365080Y-106602723D01*
X147365074Y-106602732D01*
X147143804Y-107046625D01*
X147143803Y-107046629D01*
X147089872Y-107266528D01*
X147089746Y-107266999D01*
X147025793Y-107486983D01*
X147025791Y-107486988D01*
X146984342Y-107728792D01*
X147003779Y-108316469D01*
X147003780Y-108316474D01*
X147056221Y-108553397D01*
X147056223Y-108553400D01*
X147088151Y-108621465D01*
X147088731Y-108622966D01*
X147161050Y-108857948D01*
X147330319Y-109198169D01*
X147330322Y-109198174D01*
X147514143Y-109450217D01*
X147623520Y-109596553D01*
X147825059Y-109834607D01*
X147827743Y-109842990D01*
X147825131Y-109849383D01*
X147776661Y-109907774D01*
X147775068Y-109909351D01*
X147615601Y-110039034D01*
X147615551Y-110074996D01*
X147722070Y-110473394D01*
X147912034Y-110327448D01*
X147912758Y-110326935D01*
X148174638Y-110156136D01*
X148177442Y-110154807D01*
X148240758Y-110134714D01*
X148240759Y-110134714D01*
X148241973Y-110133596D01*
X148241973Y-110109603D01*
X148014369Y-109943569D01*
X148013132Y-109942525D01*
X147630174Y-109570392D01*
X147628652Y-109568573D01*
X147446710Y-109298678D01*
X147345799Y-109158932D01*
X147344831Y-109157333D01*
X147210504Y-108888045D01*
X147209893Y-108886572D01*
X147122069Y-108624945D01*
X147121764Y-108623862D01*
X147055496Y-108335713D01*
X147055211Y-108333555D01*
X147035520Y-107793320D01*
X147035609Y-107791413D01*
X147075258Y-107487631D01*
X147075505Y-107486326D01*
X147156436Y-107163035D01*
X147156891Y-107161617D01*
X147261794Y-106895017D01*
X147262422Y-106893679D01*
X147431519Y-106586696D01*
X147432373Y-106585371D01*
X147656161Y-106285247D01*
X147657245Y-106283993D01*
X147979311Y-105961642D01*
X147980553Y-105960565D01*
X148249553Y-105759143D01*
X148250312Y-105758621D01*
X148419612Y-105651859D01*
X148420862Y-105651175D01*
X148741841Y-105500609D01*
X148743218Y-105500068D01*
X149012405Y-105413873D01*
X149013555Y-105413569D01*
X149298913Y-105353803D01*
X149301271Y-105353559D01*
X149993467Y-105353624D01*
X149995979Y-105353902D01*
X150345353Y-105432149D01*
X150346667Y-105432526D01*
X150637051Y-105534988D01*
X150638400Y-105535564D01*
X150890738Y-105662751D01*
X150891904Y-105663427D01*
X151195412Y-105864066D01*
X151196718Y-105865071D01*
X151501165Y-106136218D01*
X151502291Y-106137372D01*
X151719459Y-106393678D01*
X151720163Y-106394598D01*
X151896830Y-106651659D01*
X151898851Y-106658050D01*
X151898969Y-106669114D01*
X151895688Y-106677282D01*
X151888486Y-106680692D01*
X151636117Y-106703069D01*
X151636105Y-106703070D01*
X151288936Y-106768668D01*
X151288924Y-106768671D01*
X150945186Y-106888379D01*
X150638845Y-107041933D01*
X150638839Y-107041937D01*
X150383679Y-107212021D01*
X150106824Y-107444204D01*
X149892297Y-107694969D01*
X149884451Y-107698958D01*
X149876082Y-107696232D01*
X149872093Y-107688386D01*
X149872177Y-107685841D01*
X149952752Y-107130669D01*
X149952826Y-107130220D01*
X150053336Y-106589247D01*
X150053425Y-106588815D01*
X150183182Y-106014178D01*
X150131893Y-105983646D01*
X149520258Y-106004618D01*
X149520250Y-106004619D01*
X149151741Y-106070991D01*
X149127364Y-106099180D01*
X149039197Y-106420647D01*
X148955868Y-106758513D01*
X148955864Y-106758531D01*
X148885819Y-107114324D01*
X148885818Y-107114329D01*
X148836140Y-107453416D01*
X148798276Y-107826147D01*
X148799529Y-108627477D01*
X148799530Y-108627489D01*
X148801246Y-108636549D01*
X148799450Y-108645166D01*
X148792087Y-108649988D01*
X148783470Y-108648192D01*
X148779590Y-108643688D01*
X148664708Y-108405680D01*
X148664249Y-108404589D01*
X148516502Y-107995669D01*
X148516147Y-107994492D01*
X148425884Y-107625278D01*
X148425653Y-107624044D01*
X148379076Y-107269385D01*
X148379009Y-107268734D01*
X148325170Y-106539053D01*
X148301144Y-106348652D01*
X147840069Y-106567638D01*
X147818677Y-106773180D01*
X147818676Y-106773198D01*
X147818983Y-107266528D01*
X147852577Y-107655727D01*
X147852577Y-107655730D01*
X147905350Y-108028011D01*
X147905354Y-108028035D01*
X147991610Y-108418573D01*
X147991624Y-108418625D01*
X148104796Y-108806405D01*
X148239427Y-109150336D01*
X148373863Y-109417025D01*
X148575242Y-109721851D01*
X148735448Y-109898719D01*
X148860521Y-109936436D01*
X148860530Y-109936437D01*
X149387587Y-109954768D01*
X149395596Y-109958417D01*
X149398307Y-109963330D01*
X149406321Y-109993741D01*
X149531473Y-110387664D01*
X149531478Y-110387676D01*
X149735421Y-110754254D01*
X149735867Y-110755144D01*
X149879422Y-111075622D01*
X149879676Y-111076235D01*
X150011701Y-111423380D01*
X150414410Y-111422678D01*
X150414411Y-111422677D01*
X150265752Y-111299976D01*
X150264904Y-111299202D01*
X149960844Y-110992380D01*
X149959806Y-110991176D01*
X149780315Y-110751391D01*
X149780315Y-110751392D01*
X149734735Y-110690502D01*
X149733736Y-110688912D01*
X149666292Y-110559090D01*
X149693751Y-110559090D01*
X149693752Y-110559093D01*
X149838365Y-110747093D01*
X149838371Y-110747101D01*
X150106362Y-110999296D01*
X150661175Y-111278594D01*
X150676676Y-111262168D01*
X150715986Y-110421878D01*
X150718940Y-110414705D01*
X150721665Y-110411689D01*
X150729616Y-110407914D01*
X150735449Y-110409168D01*
X150824738Y-110454996D01*
X151033777Y-110523583D01*
X151263328Y-110545968D01*
X151703667Y-110489183D01*
X151703685Y-110489181D01*
X151724054Y-110485476D01*
X151732657Y-110487334D01*
X151737011Y-110493122D01*
X151847809Y-110822308D01*
X151942976Y-111096994D01*
X151943189Y-111097604D01*
X151943193Y-111097632D01*
X151943198Y-111097631D01*
X152038352Y-111372277D01*
X152230076Y-111368290D01*
X152441259Y-111338007D01*
X152441260Y-111338007D01*
X152822028Y-111239439D01*
X153177952Y-111091829D01*
X153177963Y-111091824D01*
X153464507Y-110934987D01*
X153464518Y-110934980D01*
X153529163Y-110885940D01*
X153206959Y-110348618D01*
X153206824Y-110348387D01*
X152860422Y-109738963D01*
X152860213Y-109738578D01*
X152579178Y-109197203D01*
X152578783Y-109196360D01*
X152386994Y-108739922D01*
X152386688Y-108739109D01*
X152155602Y-108046945D01*
X152155324Y-108045971D01*
X152014091Y-107453754D01*
X152003886Y-107416463D01*
X151721463Y-107393041D01*
X151298849Y-107427416D01*
X151298846Y-107427416D01*
X151111674Y-107463691D01*
X150897472Y-107533256D01*
X150897471Y-107533257D01*
X150745318Y-107723994D01*
X150745299Y-107724020D01*
X150465305Y-108146261D01*
X150257283Y-108524887D01*
X150057295Y-108977302D01*
X150057294Y-108977306D01*
X149888748Y-109467820D01*
X149888746Y-109467826D01*
X149784089Y-109891090D01*
X149717708Y-110280119D01*
X149693751Y-110559090D01*
X149666292Y-110559090D01*
X149545897Y-110327342D01*
X149545171Y-110325612D01*
X149431002Y-109976213D01*
X149430610Y-109974653D01*
X149370970Y-109639066D01*
X149370793Y-109637038D01*
X149371521Y-109113769D01*
X149371704Y-109111739D01*
X149428111Y-108799756D01*
X149428383Y-108798598D01*
X149509004Y-108520658D01*
X149509454Y-108519390D01*
X149625012Y-108245587D01*
X149625723Y-108244180D01*
X149785908Y-107974894D01*
X149786522Y-107973968D01*
X149956877Y-107741900D01*
X149958025Y-107740564D01*
X150383241Y-107316364D01*
X150385020Y-107314913D01*
X150797994Y-107041833D01*
X150799865Y-107040830D01*
X151171516Y-106883955D01*
X151173158Y-106883404D01*
X151485724Y-106804045D01*
X151486976Y-106803800D01*
X151749686Y-106767406D01*
X151751264Y-106767297D01*
X152183031Y-106767297D01*
X152184580Y-106767402D01*
X152448786Y-106803319D01*
X152449918Y-106803531D01*
X152736451Y-106872210D01*
X152737925Y-106872670D01*
X153080662Y-107005484D01*
X153082423Y-107006345D01*
X153396545Y-107194791D01*
X153397711Y-107195593D01*
X153668579Y-107407330D01*
X153669759Y-107408391D01*
X153974790Y-107723441D01*
X153975685Y-107724484D01*
X154136168Y-107935741D01*
X154136911Y-107936845D01*
X154318674Y-108244342D01*
X154319391Y-108245774D01*
X154419786Y-108486932D01*
X154420214Y-108488150D01*
X154507442Y-108789071D01*
X154507750Y-108790439D01*
X154559580Y-109111315D01*
X154559727Y-109113166D01*
X154559009Y-109603411D01*
X154558894Y-109605019D01*
X154522917Y-109857080D01*
X154522695Y-109858218D01*
X154451909Y-110144227D01*
X154451438Y-110145699D01*
X154354204Y-110391189D01*
X154353777Y-110392138D01*
X154239514Y-110618380D01*
X154238838Y-110619545D01*
X154037952Y-110922935D01*
X154036988Y-110924193D01*
X153778792Y-111216948D01*
X153777560Y-111218149D01*
X153465241Y-111480293D01*
X153464129Y-111481118D01*
X153186182Y-111662332D01*
X153184722Y-111663140D01*
X152902939Y-111793250D01*
X152901466Y-111793811D01*
X152568576Y-111895115D01*
X152567451Y-111895396D01*
X152367344Y-111934819D01*
X152365788Y-111935017D01*
X151993205Y-111956657D01*
X151991857Y-111956656D01*
X151556095Y-111930794D01*
X151400272Y-112076542D01*
X151398185Y-112078091D01*
X151249417Y-112164363D01*
X151246917Y-112165441D01*
X151011427Y-112235252D01*
X151009512Y-112235646D01*
X150756869Y-112265591D01*
X150755666Y-112265670D01*
X150300311Y-112271650D01*
X150300309Y-112271650D01*
X150293792Y-112278292D01*
X150293792Y-112278293D01*
X150577174Y-113267781D01*
X150577180Y-113267802D01*
X150702315Y-113632176D01*
X150702335Y-113632230D01*
X150850475Y-113987927D01*
X150983307Y-114211381D01*
X151122697Y-114354783D01*
X151329859Y-114488677D01*
X151329865Y-114488679D01*
X151568878Y-114564096D01*
X152110193Y-114559362D01*
X152110195Y-114559362D01*
X152320401Y-114503886D01*
X152329124Y-114505067D01*
X152334455Y-114512070D01*
X152333274Y-114520793D01*
X152331215Y-114523382D01*
X152111089Y-114730425D01*
X152110386Y-114731034D01*
X151786266Y-114989860D01*
X151785058Y-114990704D01*
X151582208Y-115113848D01*
X151581114Y-115114434D01*
X151356726Y-115219437D01*
X151354906Y-115220108D01*
X151276231Y-115241777D01*
X151276150Y-115241799D01*
X151275986Y-115241842D01*
X151275987Y-115241843D01*
X151197017Y-115263356D01*
X151194097Y-115263760D01*
X150874462Y-115266630D01*
X150871470Y-115266261D01*
X150672601Y-115214638D01*
X150670710Y-115213967D01*
X150504447Y-115137985D01*
X150501876Y-115136368D01*
X150295212Y-114964570D01*
X150292987Y-114962095D01*
X150107546Y-114683214D01*
X150106828Y-114681973D01*
X149904669Y-114276092D01*
X149904260Y-114275172D01*
X149718259Y-113801930D01*
X149718024Y-113801274D01*
X149465391Y-113023178D01*
X149465263Y-113022758D01*
X149251050Y-112265699D01*
X148684176Y-112277851D01*
X148675974Y-112274658D01*
X148672930Y-112269707D01*
X148415827Y-111426242D01*
X148416678Y-111417482D01*
X148423474Y-111411889D01*
X148427187Y-111411395D01*
X148955975Y-111427968D01*
X148863906Y-111245932D01*
X148863906Y-111245931D01*
X148737483Y-111059391D01*
X148737480Y-111059387D01*
X148588709Y-110910267D01*
X148588706Y-110910265D01*
X148418910Y-110797197D01*
X148216169Y-110722769D01*
X147781552Y-110709134D01*
X147781551Y-110709135D01*
X147801029Y-110771320D01*
X147801119Y-110771621D01*
X148108320Y-111855435D01*
X148375592Y-112735756D01*
X148612179Y-113446777D01*
X148763092Y-113852972D01*
X148780505Y-113896497D01*
X148780398Y-113905298D01*
X148774100Y-113911446D01*
X148769828Y-113912269D01*
X147629806Y-113912269D01*
X147621674Y-113908901D01*
X147618519Y-113902972D01*
X147529491Y-113446894D01*
X147426190Y-112972647D01*
X147292743Y-112437033D01*
X147108949Y-111803140D01*
X147108941Y-111803112D01*
X146867604Y-111093746D01*
X146624851Y-110473018D01*
X146528604Y-110491938D01*
X146527470Y-110492103D01*
X146134740Y-110529277D01*
X146132866Y-110529301D01*
X145812328Y-110507218D01*
X145811465Y-110507126D01*
X145576270Y-110472959D01*
X145575155Y-110472740D01*
X145241390Y-110389964D01*
X145239727Y-110389414D01*
X144926302Y-110258549D01*
X144924872Y-110257831D01*
X144610816Y-110071799D01*
X144609460Y-110070859D01*
X144339753Y-109853464D01*
X144338628Y-109852426D01*
X144102853Y-109603939D01*
X144101976Y-109602898D01*
X143875765Y-109299567D01*
X143874785Y-109298005D01*
X143688986Y-108941361D01*
X143688271Y-108939673D01*
X143571503Y-108588078D01*
X143571183Y-108586912D01*
X143515943Y-108334570D01*
X143515682Y-108332447D01*
X143514638Y-108296750D01*
X144161545Y-108296750D01*
X144197679Y-108504288D01*
X144221326Y-108541740D01*
X144710556Y-108427732D01*
X144711196Y-108427602D01*
X145201648Y-108342320D01*
X145202682Y-108342188D01*
X145448150Y-108322153D01*
X145456529Y-108324849D01*
X145460548Y-108332679D01*
X145460566Y-108332940D01*
X145482478Y-108705861D01*
X145561208Y-109089635D01*
X145559543Y-109098278D01*
X145552254Y-109103211D01*
X145551919Y-109103275D01*
X145259162Y-109154329D01*
X145258055Y-109154467D01*
X144800971Y-109189122D01*
X144798923Y-109189094D01*
X144476084Y-109155817D01*
X144473968Y-109155396D01*
X144313929Y-109107533D01*
X144314039Y-109142178D01*
X144518126Y-109653619D01*
X144593657Y-109806527D01*
X144593658Y-109806528D01*
X144931914Y-109882399D01*
X144931931Y-109882402D01*
X145126372Y-109906804D01*
X145126373Y-109906804D01*
X145126632Y-109906836D01*
X145126631Y-109906836D01*
X145126654Y-109906838D01*
X145321117Y-109931243D01*
X145321130Y-109931244D01*
X145694210Y-109945075D01*
X145896560Y-109933766D01*
X145896584Y-109933764D01*
X146235957Y-109897566D01*
X146235975Y-109897563D01*
X146619975Y-109812447D01*
X146619999Y-109812440D01*
X147014533Y-109676465D01*
X147014553Y-109676457D01*
X147263700Y-109561240D01*
X147245690Y-109518380D01*
X147245567Y-109518076D01*
X147009914Y-108909153D01*
X147009728Y-108908634D01*
X146824235Y-108351398D01*
X146824003Y-108350609D01*
X146685783Y-107808765D01*
X146685614Y-107807992D01*
X146602235Y-107352452D01*
X146602100Y-107351482D01*
X146561397Y-106928014D01*
X146561350Y-106926530D01*
X146581088Y-106336365D01*
X146581240Y-106334848D01*
X146634244Y-106018681D01*
X146622961Y-106006119D01*
X146622959Y-106006118D01*
X146232484Y-105971884D01*
X146232478Y-105971884D01*
X145863453Y-106006648D01*
X145535469Y-106073250D01*
X145122885Y-106191976D01*
X144627532Y-106382311D01*
X144353204Y-106509443D01*
X144229730Y-106881488D01*
X144178492Y-107125494D01*
X144178492Y-107125495D01*
X144179054Y-107276349D01*
X144339128Y-107153982D01*
X144341110Y-107152763D01*
X144644379Y-107006282D01*
X144645667Y-107005753D01*
X145033092Y-106873566D01*
X145034271Y-106873233D01*
X145337335Y-106804736D01*
X145338658Y-106804517D01*
X145520154Y-106785288D01*
X145528596Y-106787781D01*
X145532802Y-106795512D01*
X145532866Y-106796755D01*
X145532790Y-106824961D01*
X145532374Y-106827996D01*
X145497948Y-106952424D01*
X145497947Y-106952428D01*
X145472376Y-107438178D01*
X145469235Y-107445488D01*
X145459383Y-107455873D01*
X145452894Y-107459308D01*
X144914566Y-107547244D01*
X144914565Y-107547245D01*
X144492385Y-107650658D01*
X144226043Y-107753013D01*
X144161545Y-107818082D01*
X144161545Y-108296750D01*
X143514638Y-108296750D01*
X143497419Y-107708263D01*
X143497578Y-107705991D01*
X143567046Y-107299168D01*
X143567430Y-107297596D01*
X143673943Y-106965075D01*
X143674430Y-106963814D01*
X143787772Y-106715105D01*
X143788406Y-106713908D01*
X143955734Y-106438159D01*
X143956600Y-106436922D01*
X144173611Y-106166842D01*
X144174656Y-106165707D01*
X144432668Y-105920623D01*
X144433737Y-105919725D01*
X144703519Y-105719608D01*
X144704732Y-105718821D01*
X144966193Y-105571764D01*
X144967297Y-105571218D01*
X145263657Y-105444084D01*
X145265377Y-105443503D01*
X145651425Y-105346075D01*
X145653230Y-105345769D01*
X146105496Y-105305933D01*
X146107589Y-105305940D01*
G37*
G36*
X145474740Y-111098495D02*
G01*
X145818162Y-111169663D01*
X145820299Y-111170329D01*
X146090969Y-111284557D01*
X146092862Y-111285573D01*
X146387487Y-111481308D01*
X146389306Y-111482807D01*
X146702443Y-111799965D01*
X146703856Y-111801707D01*
X146933317Y-112149141D01*
X146934395Y-112151199D01*
X147054183Y-112449910D01*
X147054750Y-112451762D01*
X147115651Y-112733703D01*
X147115910Y-112736194D01*
X147113527Y-113174334D01*
X147112899Y-113178019D01*
X147022197Y-113441118D01*
X147021248Y-113443182D01*
X146930939Y-113597373D01*
X146929148Y-113599693D01*
X146740159Y-113788685D01*
X146737079Y-113790884D01*
X146490648Y-113911402D01*
X146488633Y-113912163D01*
X146397051Y-113937236D01*
X146397050Y-113937235D01*
X146396420Y-113937411D01*
X146396369Y-113937425D01*
X146304789Y-113962419D01*
X146301460Y-113962821D01*
X145814091Y-113950050D01*
X145811282Y-113949626D01*
X145575834Y-113883494D01*
X145574559Y-113883053D01*
X145365409Y-113796786D01*
X145363526Y-113795797D01*
X145068104Y-113603753D01*
X145066198Y-113602200D01*
X144795828Y-113328999D01*
X144794488Y-113327370D01*
X144655431Y-113122584D01*
X144654677Y-113121302D01*
X144528223Y-112870532D01*
X144527569Y-112861755D01*
X144533313Y-112855086D01*
X144538360Y-112853855D01*
X145308433Y-112845051D01*
X145316602Y-112848326D01*
X145316607Y-112848330D01*
X145486446Y-113014508D01*
X145669705Y-113104169D01*
X145897117Y-113120243D01*
X146032253Y-113083668D01*
X146032256Y-113083667D01*
X146168808Y-112995322D01*
X146168809Y-112995320D01*
X146249917Y-112876574D01*
X146246641Y-112660602D01*
X146225058Y-112625497D01*
X144411081Y-112625497D01*
X144402949Y-112622129D01*
X144399690Y-112615575D01*
X144374106Y-112430868D01*
X144373997Y-112429295D01*
X144373899Y-112185175D01*
X145075836Y-112185175D01*
X145077075Y-112185249D01*
X146042141Y-112184794D01*
X146042142Y-112184793D01*
X145932638Y-112048759D01*
X145932634Y-112048755D01*
X145760566Y-111916006D01*
X145760558Y-111916001D01*
X145592187Y-111838666D01*
X145321525Y-111838666D01*
X145212513Y-111897680D01*
X145212508Y-111897684D01*
X145126051Y-111990249D01*
X145075851Y-112157507D01*
X145075836Y-112170841D01*
X145075836Y-112185175D01*
X144373899Y-112185175D01*
X144373767Y-111855648D01*
X144374170Y-111852625D01*
X144432969Y-111636460D01*
X144433754Y-111634388D01*
X144524485Y-111450554D01*
X144526623Y-111447555D01*
X144710552Y-111261709D01*
X144713726Y-111259442D01*
X144897054Y-111170931D01*
X144899124Y-111170167D01*
X145100591Y-111117078D01*
X145102947Y-111116712D01*
X145471832Y-111098270D01*
X145474740Y-111098495D01*
G37*
M02*
