M48
; DRILL file {KiCad 8.99.0-344-gfbc433deaa} date 2024-03-17T11:58:51-0400
; FORMAT={-:-/ absolute / inch / decimal}
; #@! TF.CreationDate,2024-03-17T11:58:51-04:00
; #@! TF.GenerationSoftware,Kicad,Pcbnew,8.99.0-344-gfbc433deaa
; #@! TF.FileFunction,Plated,1,2,PTH
FMAT,2
INCH
; #@! TA.AperFunction,Plated,PTH,ViaDrill
T1C0.0100
; #@! TA.AperFunction,Plated,PTH,ViaDrill
T2C0.0100
%
G90
G05
T1
X5.4881Y-3.9872
X5.4913Y-4.2798
X5.5305Y-4.4477
X5.5408Y-4.6047
X5.5426Y-4.0818
X5.5429Y-4.3486
X5.543Y-4.2796
X5.5433Y-4.3858
X5.5447Y-4.1817
X5.5456Y-4.2167
X5.5465Y-4.0367
X5.5626Y-4.0668
X5.5626Y-4.0968
X5.5765Y-4.1267
X5.6285Y-4.279
X5.6324Y-4.2304
X5.637Y-4.3082
X5.6486Y-4.2538
X5.6495Y-4.2057
X5.6681Y-4.0549
X5.6808Y-4.6147
X5.7124Y-4.6941
X5.7152Y-4.1472
X5.7426Y-4.4969
X5.7624Y-4.134
X5.7665Y-4.319
X5.7935Y-4.1507
X5.7979Y-4.4708
X5.8063Y-4.6735
X5.8065Y-4.1817
X5.808Y-4.0424
X5.8115Y-4.274
X5.8115Y-4.319
X5.8115Y-4.364
X5.8215Y-4.4967
X5.8451Y-4.0028
X5.8565Y-4.319
X5.8624Y-4.6726
X5.8702Y-4.4703
X5.8965Y-4.164
X5.9151Y-4.1854
X5.9197Y-4.4965
X5.9264Y-4.6352
X5.9315Y-4.164
X5.9545Y-4.432
X5.9547Y-4.3368
X5.9813Y-4.3274
X5.9814Y-4.447
X5.9815Y-4.2497
X5.9815Y-4.3877
X5.9818Y-4.2106
X5.9917Y-4.5387
X5.9965Y-4.1067
X6.0126Y-4.6573
X6.0193Y-4.4913
X6.043Y-4.0854
X6.075Y-4.2883
X6.075Y-4.3563
X6.0762Y-4.4139
X6.0965Y-4.1964
X6.1015Y-4.0317
X6.1354Y-4.1146
X6.1614Y-4.4996
X6.1644Y-4.3846
X6.1655Y-4.2737
X6.1793Y-4.6613
T2
X5.5485Y-3.7729
X5.5878Y-3.576
X5.5878Y-3.6154
X5.5878Y-3.6547
X5.5878Y-3.7729
X5.5878Y-3.6941
X5.5878Y-3.7335
X5.6272Y-3.576
X5.6272Y-3.6154
X5.6272Y-3.6547
X5.6272Y-3.6941
X5.6272Y-3.7729
X5.6272Y-3.7335
X5.6666Y-3.576
X5.6666Y-3.6154
X5.6666Y-3.6547
X5.6666Y-3.6941
X5.6666Y-3.7335
X5.6666Y-3.7729
X5.706Y-3.6547
X5.706Y-3.576
X5.706Y-3.6154
M30
