%TF.GenerationSoftware,KiCad,Pcbnew,8.99.0-344-gfbc433deaa*%
%TF.CreationDate,2024-03-17T11:59:04-04:00*%
%TF.ProjectId,AVEFlex,41564546-6c65-4782-9e6b-696361645f70,rev?*%
%TF.SameCoordinates,Original*%
%TF.FileFunction,Soldermask,Bot*%
%TF.FilePolarity,Negative*%
%FSLAX46Y46*%
G04 Gerber Fmt 4.6, Leading zero omitted, Abs format (unit mm)*
G04 Created by KiCad (PCBNEW 8.99.0-344-gfbc433deaa) date 2024-03-17 11:59:04*
%MOMM*%
%LPD*%
G01*
G04 APERTURE LIST*
%ADD10C,0.255000*%
G04 APERTURE END LIST*
D10*
X142058858Y-91830600D02*
G75*
G02*
X141803858Y-91830600I-127500J0D01*
G01*
X141803858Y-91830600D02*
G75*
G02*
X142058858Y-91830600I127500J0D01*
G01*
X144058858Y-91830600D02*
G75*
G02*
X143803858Y-91830600I-127500J0D01*
G01*
X143803858Y-91830600D02*
G75*
G02*
X144058858Y-91830600I127500J0D01*
G01*
X145058858Y-92830600D02*
G75*
G02*
X144803858Y-92830600I-127500J0D01*
G01*
X144803858Y-92830600D02*
G75*
G02*
X145058858Y-92830600I127500J0D01*
G01*
X142058858Y-95830600D02*
G75*
G02*
X141803858Y-95830600I-127500J0D01*
G01*
X141803858Y-95830600D02*
G75*
G02*
X142058858Y-95830600I127500J0D01*
G01*
X143058858Y-91830600D02*
G75*
G02*
X142803858Y-91830600I-127500J0D01*
G01*
X142803858Y-91830600D02*
G75*
G02*
X143058858Y-91830600I127500J0D01*
G01*
X145058858Y-90830600D02*
G75*
G02*
X144803858Y-90830600I-127500J0D01*
G01*
X144803858Y-90830600D02*
G75*
G02*
X145058858Y-90830600I127500J0D01*
G01*
X143058858Y-92830600D02*
G75*
G02*
X142803858Y-92830600I-127500J0D01*
G01*
X142803858Y-92830600D02*
G75*
G02*
X143058858Y-92830600I127500J0D01*
G01*
X144058858Y-94830600D02*
G75*
G02*
X143803858Y-94830600I-127500J0D01*
G01*
X143803858Y-94830600D02*
G75*
G02*
X144058858Y-94830600I127500J0D01*
G01*
X144058858Y-95830600D02*
G75*
G02*
X143803858Y-95830600I-127500J0D01*
G01*
X143803858Y-95830600D02*
G75*
G02*
X144058858Y-95830600I127500J0D01*
G01*
X141058858Y-95830600D02*
G75*
G02*
X140803858Y-95830600I-127500J0D01*
G01*
X140803858Y-95830600D02*
G75*
G02*
X141058858Y-95830600I127500J0D01*
G01*
X143058858Y-95830600D02*
G75*
G02*
X142803858Y-95830600I-127500J0D01*
G01*
X142803858Y-95830600D02*
G75*
G02*
X143058858Y-95830600I127500J0D01*
G01*
X142058858Y-94830600D02*
G75*
G02*
X141803858Y-94830600I-127500J0D01*
G01*
X141803858Y-94830600D02*
G75*
G02*
X142058858Y-94830600I127500J0D01*
G01*
X144058858Y-90830600D02*
G75*
G02*
X143803858Y-90830600I-127500J0D01*
G01*
X143803858Y-90830600D02*
G75*
G02*
X144058858Y-90830600I127500J0D01*
G01*
X142058858Y-92830600D02*
G75*
G02*
X141803858Y-92830600I-127500J0D01*
G01*
X141803858Y-92830600D02*
G75*
G02*
X142058858Y-92830600I127500J0D01*
G01*
X143058858Y-93830600D02*
G75*
G02*
X142803858Y-93830600I-127500J0D01*
G01*
X142803858Y-93830600D02*
G75*
G02*
X143058858Y-93830600I127500J0D01*
G01*
X143058858Y-90830600D02*
G75*
G02*
X142803858Y-90830600I-127500J0D01*
G01*
X142803858Y-90830600D02*
G75*
G02*
X143058858Y-90830600I127500J0D01*
G01*
X144058858Y-93830600D02*
G75*
G02*
X143803858Y-93830600I-127500J0D01*
G01*
X143803858Y-93830600D02*
G75*
G02*
X144058858Y-93830600I127500J0D01*
G01*
X144058858Y-92830600D02*
G75*
G02*
X143803858Y-92830600I-127500J0D01*
G01*
X143803858Y-92830600D02*
G75*
G02*
X144058858Y-92830600I127500J0D01*
G01*
X143058858Y-94830600D02*
G75*
G02*
X142803858Y-94830600I-127500J0D01*
G01*
X142803858Y-94830600D02*
G75*
G02*
X143058858Y-94830600I127500J0D01*
G01*
X142058858Y-90830600D02*
G75*
G02*
X141803858Y-90830600I-127500J0D01*
G01*
X141803858Y-90830600D02*
G75*
G02*
X142058858Y-90830600I127500J0D01*
G01*
X142058858Y-93830600D02*
G75*
G02*
X141803858Y-93830600I-127500J0D01*
G01*
X141803858Y-93830600D02*
G75*
G02*
X142058858Y-93830600I127500J0D01*
G01*
X145058858Y-91830600D02*
G75*
G02*
X144803858Y-91830600I-127500J0D01*
G01*
X144803858Y-91830600D02*
G75*
G02*
X145058858Y-91830600I127500J0D01*
G01*
M02*
