%TF.GenerationSoftware,KiCad,Pcbnew,8.99.0-344-gfbc433deaa*%
%TF.CreationDate,2024-03-17T11:59:04-04:00*%
%TF.ProjectId,AVEFlex,41564546-6c65-4782-9e6b-696361645f70,rev?*%
%TF.SameCoordinates,Original*%
%TF.FileFunction,Soldermask,Top*%
%TF.FilePolarity,Negative*%
%FSLAX46Y46*%
G04 Gerber Fmt 4.6, Leading zero omitted, Abs format (unit mm)*
G04 Created by KiCad (PCBNEW 8.99.0-344-gfbc433deaa) date 2024-03-17 11:59:04*
%MOMM*%
%LPD*%
G01*
G04 APERTURE LIST*
G04 Aperture macros list*
%AMRoundRect*
0 Rectangle with rounded corners*
0 $1 Rounding radius*
0 $2 $3 $4 $5 $6 $7 $8 $9 X,Y pos of 4 corners*
0 Add a 4 corners polygon primitive as box body*
4,1,4,$2,$3,$4,$5,$6,$7,$8,$9,$2,$3,0*
0 Add four circle primitives for the rounded corners*
1,1,$1+$1,$2,$3*
1,1,$1+$1,$4,$5*
1,1,$1+$1,$6,$7*
1,1,$1+$1,$8,$9*
0 Add four rect primitives between the rounded corners*
20,1,$1+$1,$2,$3,$4,$5,0*
20,1,$1+$1,$4,$5,$6,$7,0*
20,1,$1+$1,$6,$7,$8,$9,0*
20,1,$1+$1,$8,$9,$2,$3,0*%
G04 Aperture macros list end*
%ADD10C,0.255000*%
%ADD11RoundRect,0.150000X-0.350000X-0.350000X0.350000X-0.350000X0.350000X0.350000X-0.350000X0.350000X0*%
%ADD12RoundRect,0.101600X-0.248400X0.198400X-0.248400X-0.198400X0.248400X-0.198400X0.248400X0.198400X0*%
%ADD13RoundRect,0.500000X-0.000010X-0.000010X0.000010X-0.000010X0.000010X0.000010X-0.000010X0.000010X0*%
%ADD14RoundRect,0.101600X0.198400X0.248400X-0.198400X0.248400X-0.198400X-0.248400X0.198400X-0.248400X0*%
%ADD15RoundRect,0.500000X-0.000014X0.000000X0.000000X-0.000014X0.000014X0.000000X0.000000X0.000014X0*%
%ADD16RoundRect,0.101600X0.248400X-0.198400X0.248400X0.198400X-0.248400X0.198400X-0.248400X-0.198400X0*%
%ADD17RoundRect,0.101600X-0.215900X-0.533400X0.215900X-0.533400X0.215900X0.533400X-0.215900X0.533400X0*%
%ADD18RoundRect,0.101600X-0.048400X0.498400X-0.048400X-0.498400X0.048400X-0.498400X0.048400X0.498400X0*%
%ADD19RoundRect,0.101600X-0.498400X0.048400X-0.498400X-0.048400X0.498400X-0.048400X0.498400X0.048400X0*%
%ADD20RoundRect,0.600000X-1.400000X1.400000X-1.400000X-1.400000X1.400000X-1.400000X1.400000X1.400000X0*%
%ADD21RoundRect,0.101600X-0.198400X-0.248400X0.198400X-0.248400X0.198400X0.248400X-0.198400X0.248400X0*%
%ADD22RoundRect,0.150000X0.350000X0.350000X-0.350000X0.350000X-0.350000X-0.350000X0.350000X-0.350000X0*%
G04 APERTURE END LIST*
D10*
X144058858Y-95830600D02*
G75*
G02*
X143803858Y-95830600I-127500J0D01*
G01*
X143803858Y-95830600D02*
G75*
G02*
X144058858Y-95830600I127500J0D01*
G01*
X144058858Y-94830600D02*
G75*
G02*
X143803858Y-94830600I-127500J0D01*
G01*
X143803858Y-94830600D02*
G75*
G02*
X144058858Y-94830600I127500J0D01*
G01*
X145058858Y-92830600D02*
G75*
G02*
X144803858Y-92830600I-127500J0D01*
G01*
X144803858Y-92830600D02*
G75*
G02*
X145058858Y-92830600I127500J0D01*
G01*
X142058858Y-95830600D02*
G75*
G02*
X141803858Y-95830600I-127500J0D01*
G01*
X141803858Y-95830600D02*
G75*
G02*
X142058858Y-95830600I127500J0D01*
G01*
X142058858Y-91830600D02*
G75*
G02*
X141803858Y-91830600I-127500J0D01*
G01*
X141803858Y-91830600D02*
G75*
G02*
X142058858Y-91830600I127500J0D01*
G01*
X144058858Y-92830600D02*
G75*
G02*
X143803858Y-92830600I-127500J0D01*
G01*
X143803858Y-92830600D02*
G75*
G02*
X144058858Y-92830600I127500J0D01*
G01*
X144058858Y-91830600D02*
G75*
G02*
X143803858Y-91830600I-127500J0D01*
G01*
X143803858Y-91830600D02*
G75*
G02*
X144058858Y-91830600I127500J0D01*
G01*
X142058858Y-94830600D02*
G75*
G02*
X141803858Y-94830600I-127500J0D01*
G01*
X141803858Y-94830600D02*
G75*
G02*
X142058858Y-94830600I127500J0D01*
G01*
X142058858Y-90830600D02*
G75*
G02*
X141803858Y-90830600I-127500J0D01*
G01*
X141803858Y-90830600D02*
G75*
G02*
X142058858Y-90830600I127500J0D01*
G01*
X145058858Y-91830600D02*
G75*
G02*
X144803858Y-91830600I-127500J0D01*
G01*
X144803858Y-91830600D02*
G75*
G02*
X145058858Y-91830600I127500J0D01*
G01*
X145058858Y-90830600D02*
G75*
G02*
X144803858Y-90830600I-127500J0D01*
G01*
X144803858Y-90830600D02*
G75*
G02*
X145058858Y-90830600I127500J0D01*
G01*
X143058858Y-91830600D02*
G75*
G02*
X142803858Y-91830600I-127500J0D01*
G01*
X142803858Y-91830600D02*
G75*
G02*
X143058858Y-91830600I127500J0D01*
G01*
X142058858Y-93830600D02*
G75*
G02*
X141803858Y-93830600I-127500J0D01*
G01*
X141803858Y-93830600D02*
G75*
G02*
X142058858Y-93830600I127500J0D01*
G01*
X143058858Y-95830600D02*
G75*
G02*
X142803858Y-95830600I-127500J0D01*
G01*
X142803858Y-95830600D02*
G75*
G02*
X143058858Y-95830600I127500J0D01*
G01*
X143058858Y-94830600D02*
G75*
G02*
X142803858Y-94830600I-127500J0D01*
G01*
X142803858Y-94830600D02*
G75*
G02*
X143058858Y-94830600I127500J0D01*
G01*
X144058858Y-90830600D02*
G75*
G02*
X143803858Y-90830600I-127500J0D01*
G01*
X143803858Y-90830600D02*
G75*
G02*
X144058858Y-90830600I127500J0D01*
G01*
X141058858Y-95830600D02*
G75*
G02*
X140803858Y-95830600I-127500J0D01*
G01*
X140803858Y-95830600D02*
G75*
G02*
X141058858Y-95830600I127500J0D01*
G01*
X142058858Y-92830600D02*
G75*
G02*
X141803858Y-92830600I-127500J0D01*
G01*
X141803858Y-92830600D02*
G75*
G02*
X142058858Y-92830600I127500J0D01*
G01*
X143058858Y-92830600D02*
G75*
G02*
X142803858Y-92830600I-127500J0D01*
G01*
X142803858Y-92830600D02*
G75*
G02*
X143058858Y-92830600I127500J0D01*
G01*
X143058858Y-93830600D02*
G75*
G02*
X142803858Y-93830600I-127500J0D01*
G01*
X142803858Y-93830600D02*
G75*
G02*
X143058858Y-93830600I127500J0D01*
G01*
X143058858Y-90830600D02*
G75*
G02*
X142803858Y-90830600I-127500J0D01*
G01*
X142803858Y-90830600D02*
G75*
G02*
X143058858Y-90830600I127500J0D01*
G01*
X144058858Y-93830600D02*
G75*
G02*
X143803858Y-93830600I-127500J0D01*
G01*
X143803858Y-93830600D02*
G75*
G02*
X144058858Y-93830600I127500J0D01*
G01*
D11*
%TO.C,TP21*%
X139865904Y-104818059D03*
%TD*%
D12*
%TO.C,R1*%
X152370142Y-116212700D03*
X152370142Y-117212700D03*
%TD*%
D13*
%TO.C,TP1*%
X157518904Y-112946059D03*
%TD*%
D11*
%TO.C,TP20*%
X139865904Y-102532059D03*
%TD*%
D13*
%TO.C,TP4*%
X141515364Y-119100600D03*
%TD*%
D14*
%TO.C,C2*%
X150143358Y-102082597D03*
X149143358Y-102082597D03*
%TD*%
D13*
%TO.C,TP2*%
X157518904Y-109644059D03*
%TD*%
D15*
%TO.C,TP18*%
X157518904Y-117518059D03*
%TD*%
D12*
%TO.C,C7*%
X148119361Y-117076603D03*
X148119361Y-118076603D03*
%TD*%
D16*
%TO.C,C11*%
X154851904Y-105572059D03*
X154851904Y-104572059D03*
%TD*%
D17*
%TO.C,JP1*%
X152667504Y-102278059D03*
X153480304Y-102278059D03*
%TD*%
D13*
%TO.C,TP8*%
X151930904Y-119169059D03*
%TD*%
%TO.C,TP16*%
X153454904Y-119169059D03*
%TD*%
D14*
%TO.C,C9*%
X154409564Y-114792641D03*
X153409564Y-114792641D03*
%TD*%
D13*
%TO.C,TP3*%
X157518904Y-106469059D03*
%TD*%
D18*
%TO.C,IC1*%
X151361358Y-104002603D03*
X150861358Y-104002603D03*
X150361358Y-104002603D03*
X149861358Y-104002603D03*
X149361358Y-104002603D03*
X148861358Y-104002603D03*
X148361358Y-104002603D03*
X147861358Y-104002603D03*
X147361358Y-104002603D03*
X146861358Y-104002603D03*
X146361358Y-104002603D03*
X145861358Y-104002603D03*
X145361358Y-104002603D03*
X144861358Y-104002603D03*
X144361358Y-104002603D03*
X143861358Y-104002603D03*
D19*
X141911358Y-105952603D03*
X141911358Y-106452603D03*
X141911358Y-106952603D03*
X141911358Y-107452603D03*
X141911358Y-107952603D03*
X141911358Y-108452603D03*
X141911358Y-108952603D03*
X141911358Y-109452603D03*
X141911358Y-109952603D03*
X141911358Y-110452603D03*
X141911358Y-110952603D03*
X141911358Y-111452603D03*
X141911358Y-111952603D03*
X141911358Y-112452603D03*
X141911358Y-112952603D03*
X141911358Y-113452603D03*
D18*
X143861358Y-115402603D03*
X144361358Y-115402603D03*
X144861358Y-115402603D03*
X145361358Y-115402603D03*
X145861358Y-115402603D03*
X146361358Y-115402603D03*
X146861358Y-115402603D03*
X147361358Y-115402603D03*
X147861358Y-115402603D03*
X148361358Y-115402603D03*
X148861358Y-115402603D03*
X149361358Y-115402603D03*
X149861358Y-115402603D03*
X150361358Y-115402603D03*
X150861358Y-115402603D03*
X151361358Y-115402603D03*
D19*
X153311358Y-113452603D03*
X153311358Y-112952603D03*
X153311358Y-112452603D03*
X153311358Y-111952603D03*
X153311358Y-111452603D03*
X153311358Y-110952603D03*
X153311358Y-110452603D03*
X153311358Y-109952603D03*
X153311358Y-109452603D03*
X153311358Y-108952603D03*
X153311358Y-108452603D03*
X153311358Y-107952603D03*
X153311358Y-107452603D03*
X153311358Y-106952603D03*
X153311358Y-106452603D03*
X153311358Y-105952603D03*
D20*
X147611358Y-109702603D03*
%TD*%
D13*
%TO.C,TP12*%
X157518904Y-110787059D03*
%TD*%
D14*
%TO.C,C8*%
X150772167Y-116881513D03*
X149772167Y-116881513D03*
%TD*%
D13*
%TO.C,TP13*%
X157518904Y-107612059D03*
%TD*%
D12*
%TO.C,C5*%
X139739898Y-111163481D03*
X139739898Y-112163481D03*
%TD*%
D21*
%TO.C,R4*%
X155113904Y-109263059D03*
X156113904Y-109263059D03*
%TD*%
D14*
%TO.C,C3*%
X146587361Y-102082603D03*
X145587361Y-102082603D03*
%TD*%
D22*
%TO.C,C1*%
X146505558Y-118135403D03*
X144805558Y-118135403D03*
%TD*%
D11*
%TO.C,TP22*%
X139865904Y-103675059D03*
%TD*%
D13*
%TO.C,TP7*%
X150406904Y-119169059D03*
%TD*%
D21*
%TO.C,R2*%
X155113904Y-113454059D03*
X156113904Y-113454059D03*
%TD*%
%TO.C,C10*%
X155113904Y-110660059D03*
X156113904Y-110660059D03*
%TD*%
%TO.C,R3*%
X155113904Y-112057059D03*
X156113904Y-112057059D03*
%TD*%
D12*
%TO.C,C4*%
X139740448Y-106799519D03*
X139740448Y-107799519D03*
%TD*%
D13*
%TO.C,TP6*%
X157518904Y-116375059D03*
%TD*%
D21*
%TO.C,R5*%
X155113904Y-107866059D03*
X156113904Y-107866059D03*
%TD*%
D14*
%TO.C,C6*%
X145977758Y-116763800D03*
X144977758Y-116763800D03*
%TD*%
D13*
%TO.C,TP5*%
X143039361Y-119100597D03*
%TD*%
%TO.C,TP15*%
X139803401Y-117802656D03*
%TD*%
%TO.C,TP11*%
X157518904Y-114089059D03*
%TD*%
G36*
X153578536Y-101648968D02*
G01*
X153581904Y-101657100D01*
X153581904Y-102899019D01*
X153578536Y-102907151D01*
X153570404Y-102910519D01*
X152450404Y-102910519D01*
X152442272Y-102907151D01*
X152438904Y-102899019D01*
X152438904Y-101657100D01*
X152442272Y-101648968D01*
X152450404Y-101645600D01*
X153570404Y-101645600D01*
X153578536Y-101648968D01*
G37*
M02*
