  0
SECTION
  2
HEADER
  9
$ACADVER
  1
AC1009
  9
$FILLMODE
 70
0
  9
$EXTMIN
 10
-25.2603
 20
3.7363
 30
0.0000
  9
$EXTMAX
 10
-4.3180
 20
34.5262
 30
0.0000
  0
ENDSEC
  0
SECTION
  2
TABLES
  0
TABLE
  2
LTYPE
 70
1
  0
LTYPE
  2
CONTINUOUS
 70
64
  3
Solid line
 72
65
 73
0
 40
0
  0
ENDTAB
  0
TABLE
  2
LAYER
 70
255
  0
LAYER
  2
20
 70
64
 62
31
  6
CONTINUOUS
  0
LAYER
  2
25
 70
64
 62
7
  6
CONTINUOUS
  0
LAYER
  2
130
 70
64
 62
7
  6
CONTINUOUS
  0
LAYER
  2
133
 70
64
 62
7
  6
CONTINUOUS
  0
LAYER
  2
134
 70
64
 62
7
  6
CONTINUOUS
  0
LAYER
  2
135
 70
64
 62
7
  6
CONTINUOUS
  0
LAYER
  2
136
 70
64
 62
7
  6
CONTINUOUS
  0
LAYER
  2
137
 70
64
 62
7
  6
CONTINUOUS
  0
LAYER
  2
138
 70
64
 62
7
  6
CONTINUOUS
  0
LAYER
  2
139
 70
64
 62
7
  6
CONTINUOUS
  0
LAYER
  2
140
 70
64
 62
7
  6
CONTINUOUS
  0
LAYER
  2
145
 70
64
 62
7
  6
CONTINUOUS
  0
LAYER
  2
146
 70
64
 62
7
  6
CONTINUOUS
  0
LAYER
  2
147
 70
64
 62
7
  6
CONTINUOUS
  0
LAYER
  2
148
 70
64
 62
7
  6
CONTINUOUS
  0
LAYER
  2
149
 70
64
 62
7
  6
CONTINUOUS
  0
LAYER
  2
191
 70
64
 62
7
  6
CONTINUOUS
  0
LAYER
  2
192
 70
64
 62
7
  6
CONTINUOUS
  0
LAYER
  2
193
 70
64
 62
7
  6
CONTINUOUS
  0
LAYER
  2
194
 70
64
 62
7
  6
CONTINUOUS
  0
LAYER
  2
195
 70
64
 62
7
  6
CONTINUOUS
  0
LAYER
  2
196
 70
64
 62
7
  6
CONTINUOUS
  0
ENDTAB
  0
ENDSEC
  0
SECTION
  2
BLOCKS
  0
BLOCK
  8
0
  2
RECT
 70
64
 10
0.0000
 20
0.0000
 30
0.0000
  3
RECT
  0
SOLID
  8
0
 10
-0.5000
 20
-0.5000
 30
0.0000
 11
0.5000
 21
-0.5000
 31
0.0000
 12
-0.5000
 22
0.5000
 32
0.0000
 13
0.5000
 23
0.5000
 33
0.0000
  0
ENDBLK
  8
0
  0
BLOCK
  8
0
  2
PIE
 70
64
 10
0.0000
 20
0.0000
 30
0.0000
  3
PIE
  0
CIRCLE
  8
0
 10
0.0000
 20
0.0000
 30
0.0000
 40
0.5000
  0
ENDBLK
  8
0
  0
BLOCK
  8
0
  2
OCTAGONP
 70
64
 10
0.0000
 20
0.0000
 30
0.0000
  3
OCTAGONP
  0
POLYLINE
  8
0
 66
1
 10
0.0000
 20
0.0000
 30
0.0000
 40
0.0000
 41
0.0000
 70
1
  0
VERTEX
  8
0
 10
-0.5000
 20
-0.2071
 30
0.0000
  0
VERTEX
  8
0
 10
-0.5000
 20
0.2071
 30
0.0000
  0
VERTEX
  8
0
 10
-0.2071
 20
0.5000
 30
0.0000
  0
VERTEX
  8
0
 10
0.2071
 20
0.5000
 30
0.0000
  0
VERTEX
  8
0
 10
0.5000
 20
0.2071
 30
0.0000
  0
VERTEX
  8
0
 10
0.5000
 20
-0.2071
 30
0.0000
  0
VERTEX
  8
0
 10
0.2071
 20
-0.5000
 30
0.0000
  0
VERTEX
  8
0
 10
-0.2071
 20
-0.5000
 30
0.0000
  0
SEQEND
  8
0
  0
ENDBLK
  8
0
  0
BLOCK
  8
0
  2
SQUAREP
 70
64
 10
0.0000
 20
0.0000
 30
0.0000
  3
SQUAREP
  0
SOLID
  8
0
 10
-0.5000
 20
-0.5000
 30
0.0000
 11
0.5000
 21
-0.5000
 31
0.0000
 12
-0.5000
 22
0.5000
 32
0.0000
 13
0.5000
 23
0.5000
 33
0.0000
  0
ENDBLK
  8
0
  0
BLOCK
  8
0
  2
ROUNDP
 70
64
 10
0.0000
 20
0.0000
 30
0.0000
  3
ROUNDP
  0
CIRCLE
  8
0
 10
0.0000
 20
0.0000
 30
0.0000
 40
0.5000
  0
ENDBLK
  8
0
  0
BLOCK
  8
0
  2
ANNULUSP
 70
64
 10
0.0000
 20
0.0000
 30
0.0000
  3
ANNULUSP
  0
CIRCLE
  8
0
 10
0.0000
 20
0.0000
 30
0.0000
 40
0.5000
  0
ENDBLK
  8
0
  0
BLOCK
  8
0
  2
THERMALP
 70
64
 10
0.0000
 20
0.0000
 30
0.0000
  3
THERMALP
  0
POLYLINE
  8
0
 66
1
 10
0.0000
 20
0.0000
 30
0.0000
 40
0.0000
 41
0.0000
 70
1
  0
VERTEX
  8
0
 10
-0.2379
 20
0.4000
 30
0.0000
  0
VERTEX
  8
0
 10
0.2379
 20
0.4000
 30
0.0000
 42
1.0000
  0
VERTEX
  8
0
 10
0.2379
 20
0.5000
 30
0.0000
  0
VERTEX
  8
0
 10
-0.2379
 20
0.5000
 30
0.0000
 42
1.0000
  0
SEQEND
  8
0
  0
POLYLINE
  8
0
 66
1
 10
0.0000
 20
0.0000
 30
0.0000
 40
0.0000
 41
0.0000
 70
1
  0
VERTEX
  8
0
 10
0.4000
 20
0.2379
 30
0.0000
  0
VERTEX
  8
0
 10
0.4000
 20
-0.2379
 30
0.0000
 42
1.0000
  0
VERTEX
  8
0
 10
0.5000
 20
-0.2379
 30
0.0000
  0
VERTEX
  8
0
 10
0.5000
 20
0.2379
 30
0.0000
 42
1.0000
  0
SEQEND
  8
0
  0
POLYLINE
  8
0
 66
1
 10
0.0000
 20
0.0000
 30
0.0000
 40
0.0000
 41
0.0000
 70
1
  0
VERTEX
  8
0
 10
0.2379
 20
-0.4000
 30
0.0000
  0
VERTEX
  8
0
 10
-0.2379
 20
-0.4000
 30
0.0000
 42
1.0000
  0
VERTEX
  8
0
 10
-0.2379
 20
-0.5000
 30
0.0000
  0
VERTEX
  8
0
 10
0.2379
 20
-0.5000
 30
0.0000
 42
1.0000
  0
SEQEND
  8
0
  0
POLYLINE
  8
0
 66
1
 10
0.0000
 20
0.0000
 30
0.0000
 40
0.0000
 41
0.0000
 70
1
  0
VERTEX
  8
0
 10
-0.4000
 20
-0.2379
 30
0.0000
  0
VERTEX
  8
0
 10
-0.4000
 20
0.2379
 30
0.0000
 42
1.0000
  0
VERTEX
  8
0
 10
-0.5000
 20
0.2379
 30
0.0000
  0
VERTEX
  8
0
 10
-0.5000
 20
-0.2379
 30
0.0000
 42
1.0000
  0
SEQEND
  8
0
  0
ENDBLK
  8
0
  0
BLOCK
  8
0
  2
OCTAGONV
 70
64
 10
0.0000
 20
0.0000
 30
0.0000
  3
OCTAGONV
  0
POLYLINE
  8
0
 66
1
 10
0.0000
 20
0.0000
 30
0.0000
 40
0.0000
 41
0.0000
 70
1
  0
VERTEX
  8
0
 10
-0.5000
 20
-0.2071
 30
0.0000
  0
VERTEX
  8
0
 10
-0.5000
 20
0.2071
 30
0.0000
  0
VERTEX
  8
0
 10
-0.2071
 20
0.5000
 30
0.0000
  0
VERTEX
  8
0
 10
0.2071
 20
0.5000
 30
0.0000
  0
VERTEX
  8
0
 10
0.5000
 20
0.2071
 30
0.0000
  0
VERTEX
  8
0
 10
0.5000
 20
-0.2071
 30
0.0000
  0
VERTEX
  8
0
 10
0.2071
 20
-0.5000
 30
0.0000
  0
VERTEX
  8
0
 10
-0.2071
 20
-0.5000
 30
0.0000
  0
SEQEND
  8
0
  0
ENDBLK
  8
0
  0
BLOCK
  8
0
  2
SQUAREV
 70
64
 10
0.0000
 20
0.0000
 30
0.0000
  3
SQUAREV
  0
SOLID
  8
0
 10
-0.5000
 20
-0.5000
 30
0.0000
 11
0.5000
 21
-0.5000
 31
0.0000
 12
-0.5000
 22
0.5000
 32
0.0000
 13
0.5000
 23
0.5000
 33
0.0000
  0
ENDBLK
  8
0
  0
BLOCK
  8
0
  2
ROUNDV
 70
64
 10
0.0000
 20
0.0000
 30
0.0000
  3
ROUNDV
  0
CIRCLE
  8
0
 10
0.0000
 20
0.0000
 30
0.0000
 40
0.5000
  0
ENDBLK
  8
0
  0
BLOCK
  8
0
  2
ANNULUSV
 70
64
 10
0.0000
 20
0.0000
 30
0.0000
  3
ANNULUSV
  0
CIRCLE
  8
0
 10
0.0000
 20
0.0000
 30
0.0000
 40
0.5000
  0
ENDBLK
  8
0
  0
BLOCK
  8
0
  2
THERMALV
 70
64
 10
0.0000
 20
0.0000
 30
0.0000
  3
THERMALV
  0
POLYLINE
  8
0
 66
1
 10
0.0000
 20
0.0000
 30
0.0000
 40
0.0000
 41
0.0000
 70
1
  0
VERTEX
  8
0
 10
-0.2379
 20
0.4000
 30
0.0000
  0
VERTEX
  8
0
 10
0.2379
 20
0.4000
 30
0.0000
 42
1.0000
  0
VERTEX
  8
0
 10
0.2379
 20
0.5000
 30
0.0000
  0
VERTEX
  8
0
 10
-0.2379
 20
0.5000
 30
0.0000
 42
1.0000
  0
SEQEND
  8
0
  0
POLYLINE
  8
0
 66
1
 10
0.0000
 20
0.0000
 30
0.0000
 40
0.0000
 41
0.0000
 70
1
  0
VERTEX
  8
0
 10
0.4000
 20
0.2379
 30
0.0000
  0
VERTEX
  8
0
 10
0.4000
 20
-0.2379
 30
0.0000
 42
1.0000
  0
VERTEX
  8
0
 10
0.5000
 20
-0.2379
 30
0.0000
  0
VERTEX
  8
0
 10
0.5000
 20
0.2379
 30
0.0000
 42
1.0000
  0
SEQEND
  8
0
  0
POLYLINE
  8
0
 66
1
 10
0.0000
 20
0.0000
 30
0.0000
 40
0.0000
 41
0.0000
 70
1
  0
VERTEX
  8
0
 10
0.2379
 20
-0.4000
 30
0.0000
  0
VERTEX
  8
0
 10
-0.2379
 20
-0.4000
 30
0.0000
 42
1.0000
  0
VERTEX
  8
0
 10
-0.2379
 20
-0.5000
 30
0.0000
  0
VERTEX
  8
0
 10
0.2379
 20
-0.5000
 30
0.0000
 42
1.0000
  0
SEQEND
  8
0
  0
POLYLINE
  8
0
 66
1
 10
0.0000
 20
0.0000
 30
0.0000
 40
0.0000
 41
0.0000
 70
1
  0
VERTEX
  8
0
 10
-0.4000
 20
-0.2379
 30
0.0000
  0
VERTEX
  8
0
 10
-0.4000
 20
0.2379
 30
0.0000
 42
1.0000
  0
VERTEX
  8
0
 10
-0.5000
 20
0.2379
 30
0.0000
  0
VERTEX
  8
0
 10
-0.5000
 20
-0.2379
 30
0.0000
 42
1.0000
  0
SEQEND
  8
0
  0
ENDBLK
  8
0
  0
ENDSEC
  0
SECTION
  2
ENTITIES
  0
LINE
  8
25
 10
-22.0098
 20
21.7619
 30
0.0000
 11
-21.9612
 21
21.7488
 31
0.0000
  0
LINE
  8
25
 10
-21.9612
 20
21.7488
 30
0.0000
 11
-21.7680
 21
21.7471
 31
0.0000
  0
LINE
  8
25
 10
-21.7680
 20
21.7471
 30
0.0000
 11
-21.6472
 21
21.7784
 31
0.0000
  0
LINE
  8
25
 10
-21.6472
 20
21.7784
 30
0.0000
 11
-21.5457
 21
21.8248
 31
0.0000
  0
LINE
  8
25
 10
-21.5457
 20
21.8248
 30
0.0000
 11
-21.4203
 21
21.9292
 31
0.0000
  0
LINE
  8
25
 10
-21.4203
 20
21.9292
 30
0.0000
 11
-21.3088
 21
22.0971
 31
0.0000
  0
LINE
  8
25
 10
-21.3088
 20
22.0971
 30
0.0000
 11
-21.1872
 21
22.3409
 31
0.0000
  0
LINE
  8
25
 10
-21.1872
 20
22.3409
 30
0.0000
 11
-21.0753
 21
22.6257
 31
0.0000
  0
LINE
  8
25
 10
-21.0753
 20
22.6257
 30
0.0000
 11
-20.9237
 21
23.0925
 31
0.0000
  0
LINE
  8
25
 10
-20.9237
 20
23.0925
 30
0.0000
 11
-20.7949
 21
23.5476
 31
0.0000
  0
LINE
  8
25
 10
-20.7949
 20
23.5476
 30
0.0000
 11
-20.4494
 21
23.5406
 31
0.0000
  0
LINE
  8
25
 10
-20.4494
 20
23.5406
 30
0.0000
 11
-20.2915
 21
24.0605
 31
0.0000
  0
LINE
  8
25
 10
-20.2915
 20
24.0605
 30
0.0000
 11
-20.6177
 21
24.0506
 31
0.0000
  0
LINE
  8
25
 10
-20.6177
 20
24.0506
 30
0.0000
 11
-20.5624
 21
24.1598
 31
0.0000
  0
LINE
  8
25
 10
-20.5624
 20
24.1598
 30
0.0000
 11
-20.4870
 21
24.2711
 31
0.0000
  0
LINE
  8
25
 10
-20.4870
 20
24.2711
 30
0.0000
 11
-20.3971
 21
24.3611
 31
0.0000
  0
LINE
  8
25
 10
-20.3971
 20
24.3611
 30
0.0000
 11
-20.2953
 21
24.4289
 31
0.0000
  0
LINE
  8
25
 10
-20.2953
 20
24.4289
 30
0.0000
 11
-20.1747
 21
24.4732
 31
0.0000
  0
LINE
  8
25
 10
-20.1747
 20
24.4732
 30
0.0000
 11
-19.9133
 21
24.4812
 31
0.0000
  0
LINE
  8
25
 10
-19.9133
 20
24.4812
 30
0.0000
 11
-20.1090
 21
23.7945
 31
0.0000
  0
LINE
  8
25
 10
-20.1090
 20
23.7945
 30
0.0000
 11
-20.2694
 21
23.2663
 31
0.0000
  0
LINE
  8
25
 10
-20.2694
 20
23.2663
 30
0.0000
 11
-20.4114
 21
22.8394
 31
0.0000
  0
LINE
  8
25
 10
-20.4114
 20
22.8394
 30
0.0000
 11
-20.5159
 21
22.5597
 31
0.0000
  0
LINE
  8
25
 10
-20.5159
 20
22.5597
 30
0.0000
 11
-19.8164
 21
22.5598
 31
0.0000
  0
LINE
  8
25
 10
-19.8164
 20
22.5598
 30
0.0000
 11
-19.7619
 21
22.8389
 31
0.0000
  0
LINE
  8
25
 10
-19.7619
 20
22.8389
 30
0.0000
 11
-19.7001
 21
23.1227
 31
0.0000
  0
LINE
  8
25
 10
-19.7001
 20
23.1227
 30
0.0000
 11
-19.6205
 21
23.4429
 31
0.0000
  0
LINE
  8
25
 10
-19.6205
 20
23.4429
 30
0.0000
 11
-19.5095
 21
23.8255
 31
0.0000
  0
LINE
  8
25
 10
-19.5095
 20
23.8255
 30
0.0000
 11
-19.3645
 21
24.2515
 31
0.0000
  0
LINE
  8
25
 10
-19.3645
 20
24.2515
 30
0.0000
 11
-19.2195
 21
24.6226
 31
0.0000
  0
LINE
  8
25
 10
-19.2195
 20
24.6226
 30
0.0000
 11
-19.1607
 21
24.6118
 31
0.0000
  0
LINE
  8
25
 10
-19.1607
 20
24.6118
 30
0.0000
 11
-18.9253
 21
24.5895
 31
0.0000
  0
LINE
  8
25
 10
-18.9253
 20
24.5895
 30
0.0000
 11
-18.7314
 21
24.6027
 31
0.0000
  0
LINE
  8
25
 10
-18.7314
 20
24.6027
 30
0.0000
 11
-18.5889
 21
24.6235
 31
0.0000
  0
LINE
  8
25
 10
-18.5889
 20
24.6235
 30
0.0000
 11
-18.3886
 21
24.6732
 31
0.0000
  0
LINE
  8
25
 10
-18.3886
 20
24.6732
 30
0.0000
 11
-18.1992
 21
24.7522
 31
0.0000
  0
LINE
  8
25
 10
-18.1992
 20
24.7522
 30
0.0000
 11
-18.0103
 21
24.8642
 31
0.0000
  0
LINE
  8
25
 10
-18.0103
 20
24.8642
 30
0.0000
 11
-17.8478
 21
24.9952
 31
0.0000
  0
LINE
  8
25
 10
-17.8478
 20
24.9952
 30
0.0000
 11
-17.7057
 21
25.1450
 31
0.0000
  0
LINE
  8
25
 10
-17.7057
 20
25.1450
 30
0.0000
 11
-17.5694
 21
25.3277
 31
0.0000
  0
LINE
  8
25
 10
-17.5694
 20
25.3277
 30
0.0000
 11
-17.4574
 21
25.5427
 31
0.0000
  0
LINE
  8
25
 10
-17.4574
 20
25.5427
 30
0.0000
 11
-17.3870
 21
25.7545
 31
0.0000
  0
LINE
  8
25
 10
-17.3870
 20
25.7545
 30
0.0000
 11
-17.3537
 21
25.9069
 31
0.0000
  0
LINE
  8
25
 10
-17.3537
 20
25.9069
 30
0.0000
 11
-17.3427
 21
26.2824
 31
0.0000
  0
LINE
  8
25
 10
-17.3427
 20
26.2824
 30
0.0000
 11
-17.3846
 21
26.5284
 31
0.0000
  0
LINE
  8
25
 10
-17.3846
 20
26.5284
 30
0.0000
 11
-17.4488
 21
26.7284
 31
0.0000
  0
LINE
  8
25
 10
-17.4488
 20
26.7284
 30
0.0000
 11
-17.5175
 21
26.8790
 31
0.0000
  0
LINE
  8
25
 10
-17.5175
 20
26.8790
 30
0.0000
 11
-17.6184
 21
27.0452
 31
0.0000
  0
LINE
  8
25
 10
-17.6184
 20
27.0452
 30
0.0000
 11
-17.7493
 21
27.2078
 31
0.0000
  0
LINE
  8
25
 10
-17.7493
 20
27.2078
 30
0.0000
 11
-17.9042
 21
27.3550
 31
0.0000
  0
LINE
  8
25
 10
-17.9042
 20
27.3550
 30
0.0000
 11
-18.0671
 21
27.4757
 31
0.0000
  0
LINE
  8
25
 10
-18.0671
 20
27.4757
 30
0.0000
 11
-18.2240
 21
27.5640
 31
0.0000
  0
LINE
  8
25
 10
-18.2240
 20
27.5640
 30
0.0000
 11
-18.4026
 21
27.6407
 31
0.0000
  0
LINE
  8
25
 10
-18.4026
 20
27.6407
 30
0.0000
 11
-18.6353
 21
27.6995
 31
0.0000
  0
LINE
  8
25
 10
-18.6353
 20
27.6995
 30
0.0000
 11
-18.9078
 21
27.7236
 31
0.0000
  0
LINE
  8
25
 10
-18.9078
 20
27.7236
 30
0.0000
 11
-19.1587
 21
27.6998
 31
0.0000
  0
LINE
  8
25
 10
-19.1587
 20
27.6998
 30
0.0000
 11
-19.3078
 21
27.6682
 31
0.0000
  0
LINE
  8
25
 10
-19.3078
 20
27.6682
 30
0.0000
 11
-19.4914
 21
27.6082
 31
0.0000
  0
LINE
  8
25
 10
-19.4914
 20
27.6082
 30
0.0000
 11
-19.6663
 21
27.5262
 31
0.0000
  0
LINE
  8
25
 10
-19.6663
 20
27.5262
 30
0.0000
 11
-19.8895
 21
27.3763
 31
0.0000
  0
LINE
  8
25
 10
-19.8895
 20
27.3763
 30
0.0000
 11
-19.9674
 21
27.2964
 31
0.0000
  0
LINE
  8
25
 10
-19.9674
 20
27.2964
 30
0.0000
 11
-19.9675
 21
27.2951
 31
0.0000
  0
LINE
  8
25
 10
-19.9675
 20
27.2951
 30
0.0000
 11
-19.9125
 21
27.2587
 31
0.0000
  0
LINE
  8
25
 10
-19.9125
 20
27.2587
 30
0.0000
 11
-19.8349
 21
27.1565
 31
0.0000
  0
LINE
  8
25
 10
-19.8349
 20
27.1565
 30
0.0000
 11
-19.6631
 21
26.9450
 31
0.0000
  0
LINE
  8
25
 10
-19.6631
 20
26.9450
 30
0.0000
 11
-19.5304
 21
26.6787
 31
0.0000
  0
LINE
  8
25
 10
-19.5304
 20
26.6787
 30
0.0000
 11
-19.4981
 21
26.5470
 31
0.0000
  0
LINE
  8
25
 10
-19.4981
 20
26.5470
 30
0.0000
 11
-19.4597
 21
26.4145
 31
0.0000
  0
LINE
  8
25
 10
-19.4597
 20
26.4145
 30
0.0000
 11
-19.4349
 21
26.2702
 31
0.0000
  0
LINE
  8
25
 10
-19.4349
 20
26.2702
 30
0.0000
 11
-19.4467
 21
25.9164
 31
0.0000
  0
LINE
  8
25
 10
-19.4467
 20
25.9164
 30
0.0000
 11
-19.4781
 21
25.7746
 31
0.0000
  0
LINE
  8
25
 10
-19.4781
 20
25.7746
 30
0.0000
 11
-19.4971
 21
25.7345
 31
0.0000
  0
LINE
  8
25
 10
-19.4971
 20
25.7345
 30
0.0000
 11
-19.5409
 21
25.5923
 31
0.0000
  0
LINE
  8
25
 10
-19.5409
 20
25.5923
 30
0.0000
 11
-19.4500
 21
25.5621
 31
0.0000
  0
LINE
  8
25
 10
-19.4500
 20
25.5621
 30
0.0000
 11
-19.3386
 21
25.8968
 31
0.0000
  0
LINE
  8
25
 10
-19.3386
 20
25.8968
 30
0.0000
 11
-19.2556
 21
26.2224
 31
0.0000
  0
LINE
  8
25
 10
-19.2556
 20
26.2224
 30
0.0000
 11
-19.2057
 21
26.4951
 31
0.0000
  0
LINE
  8
25
 10
-19.2057
 20
26.4951
 30
0.0000
 11
-19.1811
 21
26.7507
 31
0.0000
  0
LINE
  8
25
 10
-19.1811
 20
26.7507
 30
0.0000
 11
-19.1929
 21
27.1057
 31
0.0000
  0
LINE
  8
25
 10
-19.1929
 20
27.1057
 30
0.0000
 11
-19.2249
 21
27.2962
 31
0.0000
  0
LINE
  8
25
 10
-19.2249
 20
27.2962
 30
0.0000
 11
-19.2183
 21
27.3031
 31
0.0000
  0
LINE
  8
25
 10
-19.2183
 20
27.3031
 30
0.0000
 11
-18.9829
 21
27.3238
 31
0.0000
  0
LINE
  8
25
 10
-18.9829
 20
27.3238
 30
0.0000
 11
-18.7619
 21
27.3030
 31
0.0000
  0
LINE
  8
25
 10
-18.7619
 20
27.3030
 30
0.0000
 11
-18.5655
 21
27.2631
 31
0.0000
  0
LINE
  8
25
 10
-18.5655
 20
27.2631
 30
0.0000
 11
-18.3176
 21
27.1917
 31
0.0000
  0
LINE
  8
25
 10
-18.3176
 20
27.1917
 30
0.0000
 11
-18.0208
 21
27.0776
 31
0.0000
  0
LINE
  8
25
 10
-18.0208
 20
27.0776
 30
0.0000
 11
-17.8562
 21
27.0014
 31
0.0000
  0
LINE
  8
25
 10
-17.8562
 20
27.0014
 30
0.0000
 11
-17.7821
 21
26.7781
 31
0.0000
  0
LINE
  8
25
 10
-17.7821
 20
26.7781
 30
0.0000
 11
-17.7515
 21
26.6325
 31
0.0000
  0
LINE
  8
25
 10
-17.7515
 20
26.6325
 30
0.0000
 11
-17.7517
 21
26.5412
 31
0.0000
  0
LINE
  8
25
 10
-17.7517
 20
26.5412
 30
0.0000
 11
-17.8479
 21
26.6149
 31
0.0000
  0
LINE
  8
25
 10
-17.8479
 20
26.6149
 30
0.0000
 11
-18.0316
 21
26.7036
 31
0.0000
  0
LINE
  8
25
 10
-18.0316
 20
26.7036
 30
0.0000
 11
-18.2645
 21
26.7830
 31
0.0000
  0
LINE
  8
25
 10
-18.2645
 20
26.7830
 30
0.0000
 11
-18.4471
 21
26.8243
 31
0.0000
  0
LINE
  8
25
 10
-18.4471
 20
26.8243
 30
0.0000
 11
-18.5640
 21
26.8359
 31
0.0000
  0
LINE
  8
25
 10
-18.5640
 20
26.8359
 30
0.0000
 11
-18.5638
 21
26.8107
 31
0.0000
  0
LINE
  8
25
 10
-18.5638
 20
26.8107
 30
0.0000
 11
-18.5430
 21
26.7356
 31
0.0000
  0
LINE
  8
25
 10
-18.5430
 20
26.7356
 30
0.0000
 11
-18.5276
 21
26.4420
 31
0.0000
  0
LINE
  8
25
 10
-18.5276
 20
26.4420
 30
0.0000
 11
-18.5189
 21
26.4324
 31
0.0000
  0
LINE
  8
25
 10
-18.5189
 20
26.4324
 30
0.0000
 11
-18.1934
 21
26.3788
 31
0.0000
  0
LINE
  8
25
 10
-18.1934
 20
26.3788
 30
0.0000
 11
-17.9393
 21
26.3165
 31
0.0000
  0
LINE
  8
25
 10
-17.9393
 20
26.3165
 30
0.0000
 11
-17.7803
 21
26.2554
 31
0.0000
  0
LINE
  8
25
 10
-17.7803
 20
26.2554
 30
0.0000
 11
-17.7412
 21
26.2166
 31
0.0000
  0
LINE
  8
25
 10
-17.7412
 20
26.2166
 30
0.0000
 11
-17.7413
 21
25.9286
 31
0.0000
  0
LINE
  8
25
 10
-17.7413
 20
25.9286
 30
0.0000
 11
-17.7629
 21
25.8045
 31
0.0000
  0
LINE
  8
25
 10
-17.7629
 20
25.8045
 30
0.0000
 11
-17.7771
 21
25.7820
 31
0.0000
  0
LINE
  8
25
 10
-17.7771
 20
25.7820
 30
0.0000
 11
-18.0716
 21
25.8506
 31
0.0000
  0
LINE
  8
25
 10
-18.0716
 20
25.8506
 30
0.0000
 11
-18.3660
 21
25.9018
 31
0.0000
  0
LINE
  8
25
 10
-18.3660
 20
25.9018
 30
0.0000
 11
-18.5202
 21
25.9147
 31
0.0000
  0
LINE
  8
25
 10
-18.5202
 20
25.9147
 30
0.0000
 11
-18.5337
 21
25.6835
 31
0.0000
  0
LINE
  8
25
 10
-18.5337
 20
25.6835
 30
0.0000
 11
-18.5815
 21
25.4508
 31
0.0000
  0
LINE
  8
25
 10
-18.5815
 20
25.4508
 30
0.0000
 11
-18.5786
 21
25.4458
 31
0.0000
  0
LINE
  8
25
 10
-18.5786
 20
25.4458
 30
0.0000
 11
-18.3990
 21
25.4143
 31
0.0000
  0
LINE
  8
25
 10
-18.3990
 20
25.4143
 30
0.0000
 11
-18.1250
 21
25.3935
 31
0.0000
  0
LINE
  8
25
 10
-18.1250
 20
25.3935
 30
0.0000
 11
-17.9293
 21
25.4136
 31
0.0000
  0
LINE
  8
25
 10
-17.9293
 20
25.4136
 30
0.0000
 11
-17.8326
 21
25.4425
 31
0.0000
  0
LINE
  8
25
 10
-17.8326
 20
25.4425
 30
0.0000
 11
-17.8330
 21
25.4210
 31
0.0000
  0
LINE
  8
25
 10
-17.8330
 20
25.4210
 30
0.0000
 11
-17.9548
 21
25.1156
 31
0.0000
  0
LINE
  8
25
 10
-17.9548
 20
25.1156
 30
0.0000
 11
-17.9998
 21
25.0240
 31
0.0000
  0
LINE
  8
25
 10
-17.9998
 20
25.0240
 30
0.0000
 11
-18.2034
 21
24.9776
 31
0.0000
  0
LINE
  8
25
 10
-18.2034
 20
24.9776
 30
0.0000
 11
-18.3201
 21
24.9630
 31
0.0000
  0
LINE
  8
25
 10
-18.3201
 20
24.9630
 30
0.0000
 11
-18.3202
 21
24.9629
 31
0.0000
  0
LINE
  8
25
 10
-18.3202
 20
24.9629
 30
0.0000
 11
-18.4373
 21
24.9483
 31
0.0000
  0
LINE
  8
25
 10
-18.4373
 20
24.9483
 30
0.0000
 11
-18.6604
 21
24.9400
 31
0.0000
  0
LINE
  8
25
 10
-18.6604
 20
24.9400
 30
0.0000
 11
-18.7826
 21
24.9468
 31
0.0000
  0
LINE
  8
25
 10
-18.7826
 20
24.9468
 30
0.0000
 11
-18.9854
 21
24.9684
 31
0.0000
  0
LINE
  8
25
 10
-18.9854
 20
24.9684
 30
0.0000
 11
-19.2163
 21
25.0196
 31
0.0000
  0
LINE
  8
25
 10
-19.2163
 20
25.0196
 30
0.0000
 11
-19.4534
 21
25.1013
 31
0.0000
  0
LINE
  8
25
 10
-19.4534
 20
25.1013
 30
0.0000
 11
-19.6023
 21
25.1707
 31
0.0000
  0
LINE
  8
25
 10
-19.6023
 20
25.1707
 30
0.0000
 11
-19.4500
 21
25.5621
 31
0.0000
  0
LINE
  8
25
 10
-19.4500
 20
25.5621
 30
0.0000
 11
-19.5409
 21
25.5923
 31
0.0000
  0
LINE
  8
25
 10
-19.5409
 20
25.5923
 30
0.0000
 11
-19.6424
 21
25.3881
 31
0.0000
  0
LINE
  8
25
 10
-19.6424
 20
25.3881
 30
0.0000
 11
-19.8189
 21
25.1485
 31
0.0000
  0
LINE
  8
25
 10
-19.8189
 20
25.1485
 30
0.0000
 11
-19.9432
 21
25.0022
 31
0.0000
  0
LINE
  8
25
 10
-19.9432
 20
25.0022
 30
0.0000
 11
-19.9095
 21
24.9616
 31
0.0000
  0
LINE
  8
25
 10
-19.9095
 20
24.9616
 30
0.0000
 11
-19.8136
 21
24.8832
 31
0.0000
  0
LINE
  8
25
 10
-19.8136
 20
24.8832
 30
0.0000
 11
-19.8137
 21
24.8617
 31
0.0000
  0
LINE
  8
25
 10
-19.8137
 20
24.8617
 30
0.0000
 11
-19.8775
 21
24.6230
 31
0.0000
  0
LINE
  8
25
 10
-19.8775
 20
24.6230
 30
0.0000
 11
-19.9917
 21
24.7107
 31
0.0000
  0
LINE
  8
25
 10
-19.9917
 20
24.7107
 30
0.0000
 11
-20.1495
 21
24.8137
 31
0.0000
  0
LINE
  8
25
 10
-20.1495
 20
24.8137
 30
0.0000
 11
-20.1883
 21
24.8261
 31
0.0000
  0
LINE
  8
25
 10
-20.1883
 20
24.8261
 30
0.0000
 11
-20.1894
 21
24.8413
 31
0.0000
  0
LINE
  8
25
 10
-20.1894
 20
24.8413
 30
0.0000
 11
-20.0519
 21
24.9417
 31
0.0000
  0
LINE
  8
25
 10
-20.0519
 20
24.9417
 30
0.0000
 11
-19.8221
 21
25.1650
 31
0.0000
  0
LINE
  8
25
 10
-19.8221
 20
25.1650
 30
0.0000
 11
-19.7121
 21
25.3281
 31
0.0000
  0
LINE
  8
25
 10
-19.7121
 20
25.3281
 30
0.0000
 11
-19.6511
 21
25.4129
 31
0.0000
  0
LINE
  8
25
 10
-19.6511
 20
25.4129
 30
0.0000
 11
-19.5702
 21
25.5750
 31
0.0000
  0
LINE
  8
25
 10
-19.5702
 20
25.5750
 30
0.0000
 11
-19.5175
 21
25.7320
 31
0.0000
  0
LINE
  8
25
 10
-19.5175
 20
25.7320
 30
0.0000
 11
-19.4774
 21
25.9062
 31
0.0000
  0
LINE
  8
25
 10
-19.4774
 20
25.9062
 30
0.0000
 11
-19.4656
 21
26.2312
 31
0.0000
  0
LINE
  8
25
 10
-19.4656
 20
26.2312
 30
0.0000
 11
-19.4894
 21
26.4145
 31
0.0000
  0
LINE
  8
25
 10
-19.4894
 20
26.4145
 30
0.0000
 11
-19.5383
 21
26.6100
 31
0.0000
  0
LINE
  8
25
 10
-19.5383
 20
26.6100
 30
0.0000
 11
-19.6012
 21
26.7697
 31
0.0000
  0
LINE
  8
25
 10
-19.6012
 20
26.7697
 30
0.0000
 11
-19.7036
 21
26.9558
 31
0.0000
  0
LINE
  8
25
 10
-19.7036
 20
26.9558
 30
0.0000
 11
-19.8385
 21
27.1366
 31
0.0000
  0
LINE
  8
25
 10
-19.8385
 20
27.1366
 30
0.0000
 11
-20.0319
 21
27.3301
 31
0.0000
  0
LINE
  8
25
 10
-20.0319
 20
27.3301
 30
0.0000
 11
-20.1942
 21
27.4517
 31
0.0000
  0
LINE
  8
25
 10
-20.1942
 20
27.4517
 30
0.0000
 11
-20.2957
 21
27.5157
 31
0.0000
  0
LINE
  8
25
 10
-20.2957
 20
27.5157
 30
0.0000
 11
-20.4890
 21
27.6066
 31
0.0000
  0
LINE
  8
25
 10
-20.4890
 20
27.6066
 30
0.0000
 11
-20.6513
 21
27.6586
 31
0.0000
  0
LINE
  8
25
 10
-20.6513
 20
27.6586
 30
0.0000
 11
-20.8251
 21
27.6949
 31
0.0000
  0
LINE
  8
25
 10
-20.8251
 20
27.6949
 30
0.0000
 11
-21.2415
 21
27.6948
 31
0.0000
  0
LINE
  8
25
 10
-21.2415
 20
27.6948
 30
0.0000
 11
-21.4522
 21
27.6475
 31
0.0000
  0
LINE
  8
25
 10
-21.4522
 20
27.6475
 30
0.0000
 11
-21.6265
 21
27.5860
 31
0.0000
  0
LINE
  8
25
 10
-21.6265
 20
27.5860
 30
0.0000
 11
-21.7797
 21
27.5088
 31
0.0000
  0
LINE
  8
25
 10
-21.7797
 20
27.5088
 30
0.0000
 11
-21.9619
 21
27.3883
 31
0.0000
  0
LINE
  8
25
 10
-21.9619
 20
27.3883
 30
0.0000
 11
-22.1448
 21
27.2256
 31
0.0000
  0
LINE
  8
25
 10
-22.1448
 20
27.2256
 30
0.0000
 11
-22.2759
 21
27.0709
 31
0.0000
  0
LINE
  8
25
 10
-22.2759
 20
27.0709
 30
0.0000
 11
-22.3833
 21
26.9146
 31
0.0000
  0
LINE
  8
25
 10
-22.3833
 20
26.9146
 30
0.0000
 11
-22.3833
 21
26.8991
 31
0.0000
  0
LINE
  8
25
 10
-22.3833
 20
26.8991
 30
0.0000
 11
-22.2267
 21
26.8853
 31
0.0000
  0
LINE
  8
25
 10
-22.2267
 20
26.8853
 30
0.0000
 11
-22.0180
 21
26.8459
 31
0.0000
  0
LINE
  8
25
 10
-22.0180
 20
26.8459
 30
0.0000
 11
-21.8117
 21
26.7742
 31
0.0000
  0
LINE
  8
25
 10
-21.8117
 20
26.7742
 30
0.0000
 11
-21.6272
 21
26.6817
 31
0.0000
  0
LINE
  8
25
 10
-21.6272
 20
26.6817
 30
0.0000
 11
-21.4745
 21
26.5798
 31
0.0000
  0
LINE
  8
25
 10
-21.4745
 20
26.5798
 30
0.0000
 11
-21.3080
 21
26.4403
 31
0.0000
  0
LINE
  8
25
 10
-21.3080
 20
26.4403
 30
0.0000
 11
-21.1702
 21
26.2790
 31
0.0000
  0
LINE
  8
25
 10
-21.1702
 20
26.2790
 30
0.0000
 11
-21.1659
 21
26.2844
 31
0.0000
  0
LINE
  8
25
 10
-21.1659
 20
26.2844
 30
0.0000
 11
-21.2159
 21
26.6288
 31
0.0000
  0
LINE
  8
25
 10
-21.2159
 20
26.6288
 30
0.0000
 11
-21.2762
 21
26.9532
 31
0.0000
  0
LINE
  8
25
 10
-21.2762
 20
26.9532
 30
0.0000
 11
-21.3540
 21
27.2988
 31
0.0000
  0
LINE
  8
25
 10
-21.3540
 20
27.2988
 30
0.0000
 11
-21.3230
 21
27.3168
 31
0.0000
  0
LINE
  8
25
 10
-21.3230
 20
27.3168
 30
0.0000
 11
-20.9572
 21
27.3043
 31
0.0000
  0
LINE
  8
25
 10
-20.9572
 20
27.3043
 30
0.0000
 11
-20.7353
 21
27.2644
 31
0.0000
  0
LINE
  8
25
 10
-20.7353
 20
27.2644
 30
0.0000
 11
-20.7206
 21
27.2471
 31
0.0000
  0
LINE
  8
25
 10
-20.7206
 20
27.2471
 30
0.0000
 11
-20.6679
 21
27.0550
 31
0.0000
  0
LINE
  8
25
 10
-20.6679
 20
27.0550
 30
0.0000
 11
-20.6179
 21
26.8523
 31
0.0000
  0
LINE
  8
25
 10
-20.6179
 20
26.8523
 30
0.0000
 11
-20.5757
 21
26.6380
 31
0.0000
  0
LINE
  8
25
 10
-20.5757
 20
26.6380
 30
0.0000
 11
-20.5459
 21
26.4350
 31
0.0000
  0
LINE
  8
25
 10
-20.5459
 20
26.4350
 30
0.0000
 11
-20.5232
 21
26.2117
 31
0.0000
  0
LINE
  8
25
 10
-20.5232
 20
26.2117
 30
0.0000
 11
-20.5240
 21
25.7305
 31
0.0000
  0
LINE
  8
25
 10
-20.5240
 20
25.7305
 30
0.0000
 11
-20.5347
 21
25.6737
 31
0.0000
  0
LINE
  8
25
 10
-20.5347
 20
25.6737
 30
0.0000
 11
-20.4429
 21
25.8639
 31
0.0000
  0
LINE
  8
25
 10
-20.4429
 20
25.8639
 30
0.0000
 11
-20.3540
 21
26.1100
 31
0.0000
  0
LINE
  8
25
 10
-20.3540
 20
26.1100
 30
0.0000
 11
-20.2996
 21
26.3326
 31
0.0000
  0
LINE
  8
25
 10
-20.2996
 20
26.3326
 30
0.0000
 11
-20.2717
 21
26.5456
 31
0.0000
  0
LINE
  8
25
 10
-20.2717
 20
26.5456
 30
0.0000
 11
-20.2394
 21
26.9836
 31
0.0000
  0
LINE
  8
25
 10
-20.2394
 20
26.9836
 30
0.0000
 11
-20.2249
 21
27.0978
 31
0.0000
  0
LINE
  8
25
 10
-20.2249
 20
27.0978
 30
0.0000
 11
-19.9483
 21
26.9665
 31
0.0000
  0
LINE
  8
25
 10
-19.9483
 20
26.9665
 30
0.0000
 11
-19.9355
 21
26.8435
 31
0.0000
  0
LINE
  8
25
 10
-19.9355
 20
26.8435
 30
0.0000
 11
-19.9356
 21
26.5471
 31
0.0000
  0
LINE
  8
25
 10
-19.9356
 20
26.5471
 30
0.0000
 11
-19.9559
 21
26.3128
 31
0.0000
  0
LINE
  8
25
 10
-19.9559
 20
26.3128
 30
0.0000
 11
-19.9874
 21
26.0906
 31
0.0000
  0
LINE
  8
25
 10
-19.9874
 20
26.0906
 30
0.0000
 11
-20.0391
 21
25.8563
 31
0.0000
  0
LINE
  8
25
 10
-20.0391
 20
25.8563
 30
0.0000
 11
-20.1070
 21
25.6236
 31
0.0000
  0
LINE
  8
25
 10
-20.1070
 20
25.6236
 30
0.0000
 11
-20.1879
 21
25.4168
 31
0.0000
  0
LINE
  8
25
 10
-20.1879
 20
25.4168
 30
0.0000
 11
-20.2684
 21
25.2572
 31
0.0000
  0
LINE
  8
25
 10
-20.2684
 20
25.2572
 30
0.0000
 11
-20.3894
 21
25.0739
 31
0.0000
  0
LINE
  8
25
 10
-20.3894
 20
25.0739
 30
0.0000
 11
-20.4852
 21
24.9680
 31
0.0000
  0
LINE
  8
25
 10
-20.4852
 20
24.9680
 30
0.0000
 11
-20.5610
 21
24.9452
 31
0.0000
  0
LINE
  8
25
 10
-20.5610
 20
24.9452
 30
0.0000
 11
-20.8821
 21
24.9332
 31
0.0000
  0
LINE
  8
25
 10
-20.8821
 20
24.9332
 30
0.0000
 11
-20.9631
 21
24.6744
 31
0.0000
  0
LINE
  8
25
 10
-20.9631
 20
24.6744
 30
0.0000
 11
-21.0857
 21
24.4542
 31
0.0000
  0
LINE
  8
25
 10
-21.0857
 20
24.4542
 30
0.0000
 11
-21.1473
 21
24.4588
 31
0.0000
  0
LINE
  8
25
 10
-21.1473
 20
24.4588
 30
0.0000
 11
-21.3081
 21
24.3075
 31
0.0000
  0
LINE
  8
25
 10
-21.3081
 20
24.3075
 30
0.0000
 11
-21.6403
 21
24.1401
 31
0.0000
  0
LINE
  8
25
 10
-21.6403
 20
24.1401
 30
0.0000
 11
-21.6503
 21
24.1501
 31
0.0000
  0
LINE
  8
25
 10
-21.6503
 20
24.1501
 30
0.0000
 11
-21.6739
 21
24.6560
 31
0.0000
  0
LINE
  8
25
 10
-21.6739
 20
24.6560
 30
0.0000
 11
-21.6800
 21
24.6631
 31
0.0000
  0
LINE
  8
25
 10
-21.6800
 20
24.6631
 30
0.0000
 11
-21.6811
 21
24.6639
 31
0.0000
  0
LINE
  8
25
 10
-21.6811
 20
24.6639
 30
0.0000
 11
-21.7387
 21
24.6342
 31
0.0000
  0
LINE
  8
25
 10
-21.7387
 20
24.6342
 30
0.0000
 11
-21.8653
 21
24.5927
 31
0.0000
  0
LINE
  8
25
 10
-21.8653
 20
24.5927
 30
0.0000
 11
-22.0027
 21
24.5794
 31
0.0000
  0
LINE
  8
25
 10
-22.0027
 20
24.5794
 30
0.0000
 11
-22.2846
 21
24.6168
 31
0.0000
  0
LINE
  8
25
 10
-22.2846
 20
24.6168
 30
0.0000
 11
-22.4100
 21
24.2488
 31
0.0000
  0
LINE
  8
25
 10
-22.4100
 20
24.2488
 30
0.0000
 11
-22.4102
 21
24.2485
 31
0.0000
  0
LINE
  8
25
 10
-22.4102
 20
24.2485
 30
0.0000
 11
-22.4675
 21
24.0835
 31
0.0000
  0
LINE
  8
25
 10
-22.4675
 20
24.0835
 30
0.0000
 11
-22.5827
 21
24.0861
 31
0.0000
  0
LINE
  8
25
 10
-22.5827
 20
24.0861
 30
0.0000
 11
-22.7098
 21
24.1044
 31
0.0000
  0
LINE
  8
25
 10
-22.7098
 20
24.1044
 30
0.0000
 11
-22.9375
 21
24.1634
 31
0.0000
  0
LINE
  8
25
 10
-22.9375
 20
24.1634
 30
0.0000
 11
-23.1514
 21
24.2521
 31
0.0000
  0
LINE
  8
25
 10
-23.1514
 20
24.2521
 30
0.0000
 11
-23.3230
 21
24.3460
 31
0.0000
  0
LINE
  8
25
 10
-23.3230
 20
24.3460
 30
0.0000
 11
-23.3616
 21
24.3758
 31
0.0000
  0
LINE
  8
25
 10
-23.3616
 20
24.3758
 30
0.0000
 11
-23.1684
 21
24.6979
 31
0.0000
  0
LINE
  8
25
 10
-23.1684
 20
24.6979
 30
0.0000
 11
-22.9608
 21
25.0631
 31
0.0000
  0
LINE
  8
25
 10
-22.9608
 20
25.0631
 30
0.0000
 11
-22.7916
 21
25.3890
 31
0.0000
  0
LINE
  8
25
 10
-22.7916
 20
25.3890
 30
0.0000
 11
-22.6764
 21
25.6633
 31
0.0000
  0
LINE
  8
25
 10
-22.6764
 20
25.6633
 30
0.0000
 11
-22.5376
 21
26.0788
 31
0.0000
  0
LINE
  8
25
 10
-22.5376
 20
26.0788
 30
0.0000
 11
-22.4467
 21
26.4568
 31
0.0000
  0
LINE
  8
25
 10
-22.4467
 20
26.4568
 30
0.0000
 11
-22.2771
 21
26.4712
 31
0.0000
  0
LINE
  8
25
 10
-22.2771
 20
26.4712
 30
0.0000
 11
-22.0236
 21
26.4506
 31
0.0000
  0
LINE
  8
25
 10
-22.0236
 20
26.4506
 30
0.0000
 11
-21.9117
 21
26.4289
 31
0.0000
  0
LINE
  8
25
 10
-21.9117
 20
26.4289
 30
0.0000
 11
-21.7827
 21
26.3871
 31
0.0000
  0
LINE
  8
25
 10
-21.7827
 20
26.3871
 30
0.0000
 11
-21.6914
 21
26.2726
 31
0.0000
  0
LINE
  8
25
 10
-21.6914
 20
26.2726
 30
0.0000
 11
-21.5230
 21
26.0186
 31
0.0000
  0
LINE
  8
25
 10
-21.5230
 20
26.0186
 30
0.0000
 11
-21.3983
 21
25.7914
 31
0.0000
  0
LINE
  8
25
 10
-21.3983
 20
25.7914
 30
0.0000
 11
-21.2789
 21
25.5214
 31
0.0000
  0
LINE
  8
25
 10
-21.2789
 20
25.5214
 30
0.0000
 11
-21.1775
 21
25.2263
 31
0.0000
  0
LINE
  8
25
 10
-21.1775
 20
25.2263
 30
0.0000
 11
-21.1147
 21
24.9724
 31
0.0000
  0
LINE
  8
25
 10
-21.1147
 20
24.9724
 30
0.0000
 11
-21.0750
 21
24.7394
 31
0.0000
  0
LINE
  8
25
 10
-21.0750
 20
24.7394
 30
0.0000
 11
-21.0608
 21
24.5709
 31
0.0000
  0
LINE
  8
25
 10
-21.0608
 20
24.5709
 30
0.0000
 11
-21.1473
 21
24.4588
 31
0.0000
  0
LINE
  8
25
 10
-21.1473
 20
24.4588
 30
0.0000
 11
-21.0857
 21
24.4542
 31
0.0000
  0
LINE
  8
25
 10
-21.0857
 20
24.4542
 30
0.0000
 11
-21.1720
 21
24.2615
 31
0.0000
  0
LINE
  8
25
 10
-21.1720
 20
24.2615
 30
0.0000
 11
-21.2517
 21
24.0530
 31
0.0000
  0
LINE
  8
25
 10
-21.2517
 20
24.0530
 30
0.0000
 11
-21.4926
 21
24.0537
 31
0.0000
  0
LINE
  8
25
 10
-21.4926
 20
24.0537
 30
0.0000
 11
-21.4029
 21
24.1278
 31
0.0000
  0
LINE
  8
25
 10
-21.4029
 20
24.1278
 30
0.0000
 11
-21.2204
 21
24.3119
 31
0.0000
  0
LINE
  8
25
 10
-21.2204
 20
24.3119
 30
0.0000
 11
-21.0852
 21
24.4925
 31
0.0000
  0
LINE
  8
25
 10
-21.0852
 20
24.4925
 30
0.0000
 11
-20.9717
 21
24.7108
 31
0.0000
  0
LINE
  8
25
 10
-20.9717
 20
24.7108
 30
0.0000
 11
-20.9027
 21
24.9218
 31
0.0000
  0
LINE
  8
25
 10
-20.9027
 20
24.9218
 30
0.0000
 11
-20.8668
 21
25.1238
 31
0.0000
  0
LINE
  8
25
 10
-20.8668
 20
25.1238
 30
0.0000
 11
-20.8672
 21
25.4394
 31
0.0000
  0
LINE
  8
25
 10
-20.8672
 20
25.4394
 30
0.0000
 11
-20.9011
 21
25.6271
 31
0.0000
  0
LINE
  8
25
 10
-20.9011
 20
25.6271
 30
0.0000
 11
-20.9495
 21
25.7943
 31
0.0000
  0
LINE
  8
25
 10
-20.9495
 20
25.7943
 30
0.0000
 11
-21.0195
 21
25.9601
 31
0.0000
  0
LINE
  8
25
 10
-21.0195
 20
25.9601
 30
0.0000
 11
-21.1164
 21
26.1230
 31
0.0000
  0
LINE
  8
25
 10
-21.1164
 20
26.1230
 30
0.0000
 11
-21.2187
 21
26.2623
 31
0.0000
  0
LINE
  8
25
 10
-21.2187
 20
26.2623
 30
0.0000
 11
-21.4744
 21
26.5174
 31
0.0000
  0
LINE
  8
25
 10
-21.4744
 20
26.5174
 30
0.0000
 11
-21.7236
 21
26.6823
 31
0.0000
  0
LINE
  8
25
 10
-21.7236
 20
26.6823
 30
0.0000
 11
-21.9480
 21
26.7770
 31
0.0000
  0
LINE
  8
25
 10
-21.9480
 20
26.7770
 30
0.0000
 11
-22.1353
 21
26.8245
 31
0.0000
  0
LINE
  8
25
 10
-22.1353
 20
26.8245
 30
0.0000
 11
-22.2945
 21
26.8467
 31
0.0000
  0
LINE
  8
25
 10
-22.2945
 20
26.8467
 30
0.0000
 11
-22.5549
 21
26.8467
 31
0.0000
  0
LINE
  8
25
 10
-22.5549
 20
26.8467
 30
0.0000
 11
-22.7131
 21
26.8251
 31
0.0000
  0
LINE
  8
25
 10
-22.7131
 20
26.8251
 30
0.0000
 11
-22.8870
 21
26.7835
 31
0.0000
  0
LINE
  8
25
 10
-22.8870
 20
26.7835
 30
0.0000
 11
-23.0928
 21
26.7037
 31
0.0000
  0
LINE
  8
25
 10
-23.0928
 20
26.7037
 30
0.0000
 11
-23.2822
 21
26.5902
 31
0.0000
  0
LINE
  8
25
 10
-23.2822
 20
26.5902
 30
0.0000
 11
-23.4458
 21
26.4623
 31
0.0000
  0
LINE
  8
25
 10
-23.4458
 20
26.4623
 30
0.0000
 11
-23.6294
 21
26.2727
 31
0.0000
  0
LINE
  8
25
 10
-23.6294
 20
26.2727
 30
0.0000
 11
-23.7260
 21
26.1456
 31
0.0000
  0
LINE
  8
25
 10
-23.7260
 20
26.1456
 30
0.0000
 11
-23.8359
 21
25.9596
 31
0.0000
  0
LINE
  8
25
 10
-23.8359
 20
25.9596
 30
0.0000
 11
-23.8963
 21
25.8145
 31
0.0000
  0
LINE
  8
25
 10
-23.8963
 20
25.8145
 30
0.0000
 11
-23.9487
 21
25.6336
 31
0.0000
  0
LINE
  8
25
 10
-23.9487
 20
25.6336
 30
0.0000
 11
-23.9801
 21
25.4393
 31
0.0000
  0
LINE
  8
25
 10
-23.9801
 20
25.4393
 30
0.0000
 11
-23.9797
 21
25.1453
 31
0.0000
  0
LINE
  8
25
 10
-23.9797
 20
25.1453
 30
0.0000
 11
-23.9581
 21
24.9932
 31
0.0000
  0
LINE
  8
25
 10
-23.9581
 20
24.9932
 30
0.0000
 11
-23.9155
 21
24.8208
 31
0.0000
  0
LINE
  8
25
 10
-23.9155
 20
24.8208
 30
0.0000
 11
-23.8568
 21
24.6724
 31
0.0000
  0
LINE
  8
25
 10
-23.8568
 20
24.6724
 30
0.0000
 11
-23.7876
 21
24.5353
 31
0.0000
  0
LINE
  8
25
 10
-23.7876
 20
24.5353
 30
0.0000
 11
-23.6670
 21
24.3532
 31
0.0000
  0
LINE
  8
25
 10
-23.6670
 20
24.3532
 30
0.0000
 11
-23.5115
 21
24.1768
 31
0.0000
  0
LINE
  8
25
 10
-23.5115
 20
24.1768
 30
0.0000
 11
-23.3231
 21
24.0186
 31
0.0000
  0
LINE
  8
25
 10
-23.3231
 20
24.0186
 30
0.0000
 11
-23.1552
 21
23.9092
 31
0.0000
  0
LINE
  8
25
 10
-23.1552
 20
23.9092
 30
0.0000
 11
-22.9852
 21
23.8308
 31
0.0000
  0
LINE
  8
25
 10
-22.9852
 20
23.8308
 30
0.0000
 11
-22.7855
 21
23.7700
 31
0.0000
  0
LINE
  8
25
 10
-22.7855
 20
23.7700
 30
0.0000
 11
-22.6642
 21
23.7461
 31
0.0000
  0
LINE
  8
25
 10
-22.6642
 20
23.7461
 30
0.0000
 11
-22.4390
 21
23.7330
 31
0.0000
  0
LINE
  8
25
 10
-22.4390
 20
23.7330
 30
0.0000
 11
-22.1790
 21
23.7487
 31
0.0000
  0
LINE
  8
25
 10
-22.1790
 20
23.7487
 30
0.0000
 11
-22.0839
 21
23.6606
 31
0.0000
  0
LINE
  8
25
 10
-22.0839
 20
23.6606
 30
0.0000
 11
-21.9935
 21
23.6082
 31
0.0000
  0
LINE
  8
25
 10
-21.9935
 20
23.6082
 30
0.0000
 11
-21.8509
 21
23.5658
 31
0.0000
  0
LINE
  8
25
 10
-21.8509
 20
23.5658
 30
0.0000
 11
-21.6984
 21
23.5477
 31
0.0000
  0
LINE
  8
25
 10
-21.6984
 20
23.5477
 30
0.0000
 11
-21.4248
 21
23.5441
 31
0.0000
  0
LINE
  8
25
 10
-21.4248
 20
23.5441
 30
0.0000
 11
-21.4206
 21
23.5397
 31
0.0000
  0
LINE
  8
25
 10
-21.4206
 20
23.5397
 30
0.0000
 11
-21.5905
 21
22.9468
 31
0.0000
  0
LINE
  8
25
 10
-21.5905
 20
22.9468
 30
0.0000
 11
-21.6657
 21
22.7277
 31
0.0000
  0
LINE
  8
25
 10
-21.6657
 20
22.7277
 30
0.0000
 11
-21.7547
 21
22.5139
 31
0.0000
  0
LINE
  8
25
 10
-21.7547
 20
22.5139
 30
0.0000
 11
-21.8337
 21
22.3808
 31
0.0000
  0
LINE
  8
25
 10
-21.8337
 20
22.3808
 30
0.0000
 11
-21.9173
 21
22.2947
 31
0.0000
  0
LINE
  8
25
 10
-21.9173
 20
22.2947
 30
0.0000
 11
-22.0422
 21
22.2138
 31
0.0000
  0
LINE
  8
25
 10
-22.0422
 20
22.2138
 30
0.0000
 11
-22.1852
 21
22.1687
 31
0.0000
  0
LINE
  8
25
 10
-22.1852
 20
22.1687
 30
0.0000
 11
-22.5104
 21
22.1714
 31
0.0000
  0
LINE
  8
25
 10
-22.5104
 20
22.1714
 30
0.0000
 11
-22.6625
 21
22.2114
 31
0.0000
  0
LINE
  8
25
 10
-22.6625
 20
22.2114
 30
0.0000
 11
-22.5104
 21
22.0683
 31
0.0000
  0
LINE
  8
25
 10
-22.5104
 20
22.0683
 30
0.0000
 11
-22.3163
 21
21.9133
 31
0.0000
  0
LINE
  8
25
 10
-22.3163
 20
21.9133
 30
0.0000
 11
-22.1933
 21
21.8385
 31
0.0000
  0
LINE
  8
25
 10
-22.1933
 20
21.8385
 30
0.0000
 11
-22.0585
 21
21.7755
 31
0.0000
  0
LINE
  8
25
 10
-22.0585
 20
21.7755
 30
0.0000
 11
-22.0099
 21
21.7620
 31
0.0000
  0
LINE
  8
25
 10
-22.0099
 20
21.7620
 30
0.0000
 11
-22.0098
 21
21.7619
 31
0.0000
  0
LINE
  8
25
 10
-22.1546
 20
25.0578
 30
0.0000
 11
-22.1489
 21
25.0486
 31
0.0000
  0
LINE
  8
25
 10
-22.1489
 20
25.0486
 30
0.0000
 11
-21.7133
 21
25.0486
 31
0.0000
  0
LINE
  8
25
 10
-21.7133
 20
25.0486
 30
0.0000
 11
-21.6996
 21
25.0831
 31
0.0000
  0
LINE
  8
25
 10
-21.6996
 20
25.0831
 30
0.0000
 11
-21.7338
 21
25.3315
 31
0.0000
  0
LINE
  8
25
 10
-21.7338
 20
25.3315
 30
0.0000
 11
-21.7822
 21
25.5223
 31
0.0000
  0
LINE
  8
25
 10
-21.7822
 20
25.5223
 30
0.0000
 11
-21.8375
 21
25.6630
 31
0.0000
  0
LINE
  8
25
 10
-21.8375
 20
25.6630
 30
0.0000
 11
-21.9719
 21
25.9013
 31
0.0000
  0
LINE
  8
25
 10
-21.9719
 20
25.9013
 30
0.0000
 11
-22.0047
 21
25.9439
 31
0.0000
  0
LINE
  8
25
 10
-22.0047
 20
25.9439
 30
0.0000
 11
-22.0604
 21
25.4696
 31
0.0000
  0
LINE
  8
25
 10
-22.0604
 20
25.4696
 30
0.0000
 11
-22.1087
 21
25.2260
 31
0.0000
  0
LINE
  8
25
 10
-22.1087
 20
25.2260
 30
0.0000
 11
-22.1605
 21
25.0674
 31
0.0000
  0
LINE
  8
25
 10
-22.1605
 20
25.0674
 30
0.0000
 11
-22.1548
 21
25.0582
 31
0.0000
  0
LINE
  8
25
 10
-22.1548
 20
25.0582
 30
0.0000
 11
-22.1546
 21
25.0578
 31
0.0000
  0
LINE
  8
25
 10
-19.0821
 20
22.5446
 30
0.0000
 11
-19.0262
 21
22.5293
 31
0.0000
  0
LINE
  8
25
 10
-19.0262
 20
22.5293
 30
0.0000
 11
-18.7323
 21
22.5370
 31
0.0000
  0
LINE
  8
25
 10
-18.7323
 20
22.5370
 30
0.0000
 11
-18.5890
 21
22.5772
 31
0.0000
  0
LINE
  8
25
 10
-18.5890
 20
22.5772
 30
0.0000
 11
-18.4636
 21
22.6289
 31
0.0000
  0
LINE
  8
25
 10
-18.4636
 20
22.6289
 30
0.0000
 11
-18.2845
 21
22.7452
 31
0.0000
  0
LINE
  8
25
 10
-18.2845
 20
22.7452
 30
0.0000
 11
-18.1216
 21
22.9098
 31
0.0000
  0
LINE
  8
25
 10
-18.1216
 20
22.9098
 30
0.0000
 11
-18.0373
 21
23.0339
 31
0.0000
  0
LINE
  8
25
 10
-18.0373
 20
23.0339
 30
0.0000
 11
-17.9562
 21
23.1946
 31
0.0000
  0
LINE
  8
25
 10
-17.9562
 20
23.1946
 30
0.0000
 11
-18.4326
 21
23.2000
 31
0.0000
  0
LINE
  8
25
 10
-18.4326
 20
23.2000
 30
0.0000
 11
-18.5361
 21
23.0983
 31
0.0000
  0
LINE
  8
25
 10
-18.5361
 20
23.0983
 30
0.0000
 11
-18.6461
 21
23.0445
 31
0.0000
  0
LINE
  8
25
 10
-18.6461
 20
23.0445
 30
0.0000
 11
-18.7825
 21
23.0349
 31
0.0000
  0
LINE
  8
25
 10
-18.7825
 20
23.0349
 30
0.0000
 11
-18.8636
 21
23.0568
 31
0.0000
  0
LINE
  8
25
 10
-18.8636
 20
23.0568
 30
0.0000
 11
-18.9452
 21
23.1096
 31
0.0000
  0
LINE
  8
25
 10
-18.9452
 20
23.1096
 30
0.0000
 11
-18.9942
 21
23.1807
 31
0.0000
  0
LINE
  8
25
 10
-18.9942
 20
23.1807
 30
0.0000
 11
-18.9923
 21
23.3103
 31
0.0000
  0
LINE
  8
25
 10
-18.9923
 20
23.3103
 30
0.0000
 11
-18.9789
 21
23.3317
 31
0.0000
  0
LINE
  8
25
 10
-18.9789
 20
23.3317
 30
0.0000
 11
-18.8693
 21
23.5965
 31
0.0000
  0
LINE
  8
25
 10
-18.8693
 20
23.5965
 30
0.0000
 11
-18.8038
 21
23.6778
 31
0.0000
  0
LINE
  8
25
 10
-18.8038
 20
23.6778
 30
0.0000
 11
-18.7003
 21
23.7577
 31
0.0000
  0
LINE
  8
25
 10
-18.7003
 20
23.7577
 30
0.0000
 11
-18.5988
 21
23.8038
 31
0.0000
  0
LINE
  8
25
 10
-18.5988
 20
23.8038
 30
0.0000
 11
-18.4368
 21
23.8037
 31
0.0000
  0
LINE
  8
25
 10
-18.4368
 20
23.8037
 30
0.0000
 11
-18.3725
 21
23.7688
 31
0.0000
  0
LINE
  8
25
 10
-18.3725
 20
23.7688
 30
0.0000
 11
-18.3199
 21
23.7129
 31
0.0000
  0
LINE
  8
25
 10
-18.3199
 20
23.7129
 30
0.0000
 11
-18.2899
 21
23.6129
 31
0.0000
  0
LINE
  8
25
 10
-18.2899
 20
23.6129
 30
0.0000
 11
-18.2898
 21
23.6045
 31
0.0000
  0
LINE
  8
25
 10
-18.2898
 20
23.6045
 30
0.0000
 11
-18.2898
 21
23.5959
 31
0.0000
  0
LINE
  8
25
 10
-18.2898
 20
23.5959
 30
0.0000
 11
-18.2909
 21
23.5959
 31
0.0000
  0
LINE
  8
25
 10
-18.2909
 20
23.5959
 30
0.0000
 11
-18.8693
 21
23.5965
 31
0.0000
  0
LINE
  8
25
 10
-18.8693
 20
23.5965
 30
0.0000
 11
-18.9789
 21
23.3317
 31
0.0000
  0
LINE
  8
25
 10
-18.9789
 20
23.3317
 30
0.0000
 11
-17.8848
 21
23.3325
 31
0.0000
  0
LINE
  8
25
 10
-17.8848
 20
23.3325
 30
0.0000
 11
-17.8687
 21
23.4490
 31
0.0000
  0
LINE
  8
25
 10
-17.8687
 20
23.4490
 30
0.0000
 11
-17.8685
 21
23.7946
 31
0.0000
  0
LINE
  8
25
 10
-17.8685
 20
23.7946
 30
0.0000
 11
-17.9041
 21
23.9254
 31
0.0000
  0
LINE
  8
25
 10
-17.9041
 20
23.9254
 30
0.0000
 11
-17.9593
 21
24.0373
 31
0.0000
  0
LINE
  8
25
 10
-17.9593
 20
24.0373
 30
0.0000
 11
-18.0714
 21
24.1509
 31
0.0000
  0
LINE
  8
25
 10
-18.0714
 20
24.1509
 30
0.0000
 11
-18.1827
 21
24.2046
 31
0.0000
  0
LINE
  8
25
 10
-18.1827
 20
24.2046
 30
0.0000
 11
-18.3057
 21
24.2370
 31
0.0000
  0
LINE
  8
25
 10
-18.3057
 20
24.2370
 30
0.0000
 11
-18.5286
 21
24.2481
 31
0.0000
  0
LINE
  8
25
 10
-18.5286
 20
24.2481
 30
0.0000
 11
-18.7354
 21
24.2053
 31
0.0000
  0
LINE
  8
25
 10
-18.7354
 20
24.2053
 30
0.0000
 11
-18.8991
 21
24.1362
 31
0.0000
  0
LINE
  8
25
 10
-18.8991
 20
24.1362
 30
0.0000
 11
-19.0771
 21
24.0181
 31
0.0000
  0
LINE
  8
25
 10
-19.0771
 20
24.0181
 30
0.0000
 11
-19.2659
 21
23.8269
 31
0.0000
  0
LINE
  8
25
 10
-19.2659
 20
23.8269
 30
0.0000
 11
-19.4049
 21
23.6166
 31
0.0000
  0
LINE
  8
25
 10
-19.4049
 20
23.6166
 30
0.0000
 11
-19.4771
 21
23.4362
 31
0.0000
  0
LINE
  8
25
 10
-19.4771
 20
23.4362
 30
0.0000
 11
-19.5138
 21
23.2661
 31
0.0000
  0
LINE
  8
25
 10
-19.5138
 20
23.2661
 30
0.0000
 11
-19.5122
 21
23.0009
 31
0.0000
  0
LINE
  8
25
 10
-19.5122
 20
23.0009
 30
0.0000
 11
-19.4570
 21
22.8410
 31
0.0000
  0
LINE
  8
25
 10
-19.4570
 20
22.8410
 30
0.0000
 11
-19.4024
 21
22.7478
 31
0.0000
  0
LINE
  8
25
 10
-19.4024
 20
22.7478
 30
0.0000
 11
-19.2868
 21
22.6327
 31
0.0000
  0
LINE
  8
25
 10
-19.2868
 20
22.6327
 30
0.0000
 11
-19.1381
 21
22.5599
 31
0.0000
  0
LINE
  8
25
 10
-19.1381
 20
22.5599
 30
0.0000
 11
-19.0825
 21
22.5447
 31
0.0000
  0
LINE
  8
25
 10
-19.0825
 20
22.5447
 30
0.0000
 11
-19.0821
 21
22.5446
 31
0.0000
  0
LINE
  8
25
 10
-18.2085
 20
22.5673
 30
0.0000
 11
-18.2077
 21
22.5597
 31
0.0000
  0
LINE
  8
25
 10
-18.2077
 20
22.5597
 30
0.0000
 11
-17.5838
 21
22.5598
 31
0.0000
  0
LINE
  8
25
 10
-17.5838
 20
22.5598
 30
0.0000
 11
-17.1698
 21
22.9706
 31
0.0000
  0
LINE
  8
25
 10
-17.1698
 20
22.9706
 30
0.0000
 11
-16.9927
 21
22.5647
 31
0.0000
  0
LINE
  8
25
 10
-16.9927
 20
22.5647
 30
0.0000
 11
-16.4191
 21
22.5594
 31
0.0000
  0
LINE
  8
25
 10
-16.4191
 20
22.5594
 30
0.0000
 11
-16.4307
 21
22.5959
 31
0.0000
  0
LINE
  8
25
 10
-16.4307
 20
22.5959
 30
0.0000
 11
-16.7658
 21
23.3766
 31
0.0000
  0
LINE
  8
25
 10
-16.7658
 20
23.3766
 30
0.0000
 11
-15.9076
 21
24.2359
 31
0.0000
  0
LINE
  8
25
 10
-15.9076
 20
24.2359
 30
0.0000
 11
-16.5375
 21
24.2356
 31
0.0000
  0
LINE
  8
25
 10
-16.5375
 20
24.2356
 30
0.0000
 11
-16.9551
 21
23.8183
 31
0.0000
  0
LINE
  8
25
 10
-16.9551
 20
23.8183
 30
0.0000
 11
-17.1288
 21
24.2308
 31
0.0000
  0
LINE
  8
25
 10
-17.1288
 20
24.2308
 30
0.0000
 11
-17.7084
 21
24.2362
 31
0.0000
  0
LINE
  8
25
 10
-17.7084
 20
24.2362
 30
0.0000
 11
-17.7094
 21
24.2352
 31
0.0000
  0
LINE
  8
25
 10
-17.7094
 20
24.2352
 30
0.0000
 11
-17.6819
 21
24.1700
 31
0.0000
  0
LINE
  8
25
 10
-17.6819
 20
24.1700
 30
0.0000
 11
-17.3655
 21
23.4321
 31
0.0000
  0
LINE
  8
25
 10
-17.3655
 20
23.4321
 30
0.0000
 11
-17.3653
 21
23.4046
 31
0.0000
  0
LINE
  8
25
 10
-17.3653
 20
23.4046
 30
0.0000
 11
-18.2078
 21
22.5756
 31
0.0000
  0
LINE
  8
25
 10
-18.2078
 20
22.5756
 30
0.0000
 11
-18.2085
 21
22.5674
 31
0.0000
  0
LINE
  8
25
 10
-18.2085
 20
22.5674
 30
0.0000
 11
-18.2085
 21
22.5673
 31
0.0000
  0
ARC
  8
20
 10
-23.1315
 20
31.3883
 30
0.0000
 40
1.0000
 50
133.4518
 51
180.0000
  0
ARC
  8
20
 10
-21.3201
 20
33.1045
 30
0.0000
 40
1.0000
 50
90.0000
 51
133.4518
  0
ARC
  8
20
 10
-18.0749
 20
33.3031
 30
0.0000
 40
0.8013
 50
0.0000
 51
90.0000
  0
ARC
  8
20
 10
-16.5376
 20
25.0692
 30
0.0000
 40
0.7344
 50
180.0000
 51
225.0000
  0
ARC
  8
20
 10
-16.3498
 20
25.2570
 30
0.0000
 40
1.0000
 50
224.9999
 51
269.9999
  0
ARC
  8
20
 10
-9.7184
 20
22.2570
 30
0.0000
 40
2.0000
 50
45.0000
 51
90.0000
  0
ARC
  8
20
 10
-6.5721
 20
19.1106
 30
0.0000
 40
2.0000
 50
359.8030
 51
45.0004
  0
ARC
  8
20
 10
-6.7416
 20
6.5545
 30
0.0000
 40
2.1680
 50
270.0000
 51
0.0000
  0
ARC
  8
20
 10
-21.7508
 20
6.7672
 30
0.0000
 40
2.3807
 50
180.0000
 51
270.0000
  0
ARC
  8
20
 10
-23.1315
 20
31.3883
 30
0.0000
 40
1.0000
 50
133.4518
 51
180.0000
  0
LINE
  8
20
 10
-23.8193
 20
32.1143
 30
0.0000
 11
-22.0078
 21
33.8304
 31
0.0000
  0
ARC
  8
20
 10
-21.3201
 20
33.1045
 30
0.0000
 40
1.0000
 50
90.0000
 51
133.4518
  0
LINE
  8
20
 10
-21.3201
 20
34.1045
 30
0.0000
 11
-18.0749
 21
34.1045
 31
0.0000
  0
ARC
  8
20
 10
-18.0749
 20
33.3031
 30
0.0000
 40
0.8013
 50
0.0000
 51
90.0000
  0
LINE
  8
20
 10
-17.2735
 20
33.3031
 30
0.0000
 11
-17.2720
 21
27.6860
 31
0.0000
  0
LINE
  8
20
 10
-17.2720
 20
27.6860
 30
0.0000
 11
-17.2720
 21
25.0692
 31
0.0000
  0
ARC
  8
20
 10
-16.5376
 20
25.0692
 30
0.0000
 40
0.7344
 50
180.0000
 51
225.0000
  0
ARC
  8
20
 10
-16.3498
 20
25.2570
 30
0.0000
 40
1.0000
 50
224.9999
 51
269.9999
  0
LINE
  8
20
 10
-16.3498
 20
24.2570
 30
0.0000
 11
-9.7184
 21
24.2570
 31
0.0000
  0
ARC
  8
20
 10
-9.7184
 20
22.2570
 30
0.0000
 40
2.0000
 50
45.0000
 51
90.0000
  0
LINE
  8
20
 10
-8.3042
 20
23.6712
 30
0.0000
 11
-5.1579
 21
20.5249
 31
0.0000
  0
ARC
  8
20
 10
-6.5721
 20
19.1106
 30
0.0000
 40
2.0000
 50
359.8030
 51
45.0004
  0
LINE
  8
20
 10
-4.5721
 20
19.1038
 30
0.0000
 11
-4.5735
 21
6.5545
 31
0.0000
  0
ARC
  8
20
 10
-6.7416
 20
6.5545
 30
0.0000
 40
2.1680
 50
270.0000
 51
0.0000
  0
LINE
  8
20
 10
-24.1315
 20
6.7672
 30
0.0000
 11
-24.1315
 21
31.3883
 31
0.0000
  0
ARC
  8
20
 10
-21.7508
 20
6.7672
 30
0.0000
 40
2.3807
 50
180.0000
 51
270.0000
  0
LINE
  8
20
 10
-21.7508
 20
4.3865
 30
0.0000
 11
-6.7416
 21
4.3865
 31
0.0000
  0
ENDSEC
  0
EOF
